<svg width="158" height="63" viewBox="0 0 158 63" fill="none" xmlns="http://www.w3.org/2000/svg">
<path d="M26.908 23.52C25.604 23.52 24.404 23.304 23.308 22.872C22.212 22.44 21.26 21.828 20.452 21.036C19.644 20.252 19.02 19.328 18.58 18.264C18.14 17.2 17.92 16.044 17.92 14.796C17.92 13.308 18.148 11.988 18.604 10.836C19.068 9.684 19.708 8.716 20.524 7.932C21.348 7.14 22.3 6.54 23.38 6.132C24.468 5.724 25.632 5.52 26.872 5.52C28.392 5.52 29.724 5.756 30.868 6.228C32.012 6.7 32.964 7.34 33.724 8.148C34.484 8.956 35.048 9.88 35.416 10.92C35.784 11.952 35.952 13.032 35.92 14.16C35.88 15.712 35.556 16.904 34.948 17.736C34.34 18.56 33.396 18.972 32.116 18.972C31.436 18.972 30.808 18.816 30.232 18.504C29.664 18.192 29.272 17.732 29.056 17.124L29.752 17.16C29.424 17.776 28.976 18.208 28.408 18.456C27.84 18.704 27.26 18.828 26.668 18.828C25.86 18.828 25.148 18.656 24.532 18.312C23.916 17.96 23.432 17.468 23.08 16.836C22.728 16.204 22.552 15.472 22.552 14.64C22.552 13.784 22.736 13.044 23.104 12.42C23.472 11.788 23.968 11.3 24.592 10.956C25.216 10.612 25.92 10.44 26.704 10.44C27.224 10.44 27.764 10.548 28.324 10.764C28.892 10.98 29.332 11.284 29.644 11.676L29.152 12.3V10.776H30.76L30.724 15.084C30.724 15.7 30.844 16.164 31.084 16.476C31.324 16.788 31.68 16.944 32.152 16.944C32.568 16.944 32.888 16.828 33.112 16.596C33.344 16.356 33.504 16.032 33.592 15.624C33.688 15.216 33.744 14.748 33.76 14.22C33.784 12.98 33.6 11.936 33.208 11.088C32.816 10.24 32.284 9.556 31.612 9.036C30.948 8.508 30.216 8.128 29.416 7.896C28.616 7.656 27.82 7.536 27.028 7.536C25.908 7.536 24.912 7.716 24.04 8.076C23.168 8.428 22.432 8.928 21.832 9.576C21.24 10.216 20.792 10.976 20.488 11.856C20.192 12.728 20.052 13.688 20.068 14.736C20.1 15.776 20.288 16.712 20.632 17.544C20.976 18.376 21.456 19.088 22.072 19.68C22.688 20.272 23.416 20.724 24.256 21.036C25.096 21.348 26.016 21.504 27.016 21.504C27.576 21.504 28.132 21.44 28.684 21.312C29.244 21.192 29.756 21.02 30.22 20.796L30.904 22.668C30.288 22.956 29.64 23.168 28.96 23.304C28.288 23.448 27.604 23.52 26.908 23.52ZM26.812 16.788C27.38 16.788 27.856 16.624 28.24 16.296C28.624 15.968 28.816 15.412 28.816 14.628C28.816 13.916 28.644 13.38 28.3 13.02C27.964 12.652 27.488 12.468 26.872 12.468C26.144 12.468 25.6 12.66 25.24 13.044C24.88 13.428 24.7 13.956 24.7 14.628C24.7 15.316 24.884 15.848 25.252 16.224C25.628 16.6 26.148 16.788 26.812 16.788ZM42.5118 20.988L43.8078 16.128H39.2838L39.9198 13.74H44.4557L45.2838 10.584H40.7598L41.4078 8.22H45.9198L47.1318 3.72H49.5918L48.3798 8.22H51.6797L52.8918 3.72H55.3518L54.1398 8.22H58.6638L58.0398 10.584H53.5038L52.6518 13.74H57.1758L56.5518 16.128H52.0158L50.7198 20.988H48.2718L49.5558 16.128H46.2558L44.9598 20.988H42.5118ZM46.9038 13.74H50.1918L51.0438 10.584H47.7438L46.9038 13.74ZM66.3254 23.388V20.58H68.8334V23.388H66.3254ZM66.3254 4.152V1.332H68.8334V4.152H66.3254ZM67.7054 21.36C66.5054 21.36 65.4334 21.144 64.4894 20.712C63.5454 20.28 62.7694 19.668 62.1614 18.876C61.5614 18.076 61.1694 17.132 60.9854 16.044L63.4694 15.648C63.7094 16.672 64.2214 17.488 65.0054 18.096C65.7894 18.696 66.7294 18.996 67.8254 18.996C68.9134 18.996 69.7974 18.736 70.4774 18.216C71.1654 17.696 71.5094 17.032 71.5094 16.224C71.5094 15.648 71.3334 15.18 70.9814 14.82C70.6374 14.46 70.0734 14.156 69.2894 13.908L65.2334 12.66C62.8334 11.916 61.6334 10.476 61.6334 8.34C61.6334 7.332 61.8734 6.456 62.3534 5.712C62.8414 4.968 63.5254 4.392 64.4054 3.984C65.2854 3.576 66.3134 3.372 67.4894 3.372C68.6174 3.388 69.6174 3.596 70.4894 3.996C71.3694 4.396 72.0974 4.972 72.6734 5.724C73.2574 6.476 73.6614 7.38 73.8854 8.436L71.3294 8.892C71.2174 8.276 70.9814 7.732 70.6214 7.26C70.2694 6.788 69.8214 6.42 69.2774 6.156C68.7414 5.892 68.1374 5.756 67.4654 5.748C66.8334 5.732 66.2654 5.832 65.7614 6.048C65.2654 6.256 64.8694 6.552 64.5734 6.936C64.2854 7.312 64.1414 7.74 64.1414 8.22C64.1414 8.748 64.3454 9.196 64.7534 9.564C65.1614 9.932 65.8054 10.248 66.6854 10.512L69.8654 11.436C71.3214 11.868 72.3734 12.448 73.0214 13.176C73.6694 13.904 73.9934 14.872 73.9934 16.08C73.9934 17.136 73.7294 18.06 73.2014 18.852C72.6814 19.636 71.9494 20.252 71.0054 20.7C70.0614 21.14 68.9614 21.36 67.7054 21.36ZM77.755 21V18.564H80.263V21H77.755ZM77.755 16.68V3.72H80.263V16.68H77.755ZM85.6804 9.072L91.3924 3.336L97.1164 9.06L95.5564 10.632L91.3924 6.372L87.2404 10.644L85.6804 9.072ZM103.231 21L101.551 19.32L117.163 3.72L118.843 5.412L103.231 21ZM115.243 21.36C114.451 21.36 113.727 21.168 113.071 20.784C112.423 20.392 111.903 19.872 111.511 19.224C111.119 18.568 110.923 17.84 110.923 17.04C110.923 16.256 111.123 15.536 111.523 14.88C111.923 14.224 112.451 13.7 113.107 13.308C113.763 12.916 114.475 12.72 115.243 12.72C116.035 12.72 116.759 12.916 117.415 13.308C118.071 13.692 118.591 14.212 118.975 14.868C119.367 15.516 119.563 16.24 119.563 17.04C119.563 17.84 119.367 18.568 118.975 19.224C118.591 19.872 118.071 20.392 117.415 20.784C116.759 21.168 116.035 21.36 115.243 21.36ZM115.243 19.188C115.635 19.188 115.991 19.092 116.311 18.9C116.639 18.7 116.899 18.436 117.091 18.108C117.291 17.78 117.391 17.424 117.391 17.04C117.391 16.656 117.291 16.3 117.091 15.972C116.899 15.644 116.639 15.384 116.311 15.192C115.991 14.992 115.635 14.892 115.243 14.892C114.859 14.892 114.503 14.992 114.175 15.192C113.855 15.384 113.595 15.644 113.395 15.972C113.203 16.3 113.107 16.656 113.107 17.04C113.107 17.424 113.203 17.78 113.395 18.108C113.595 18.436 113.855 18.7 114.175 18.9C114.503 19.092 114.859 19.188 115.243 19.188ZM105.151 12C104.359 12 103.635 11.808 102.979 11.424C102.323 11.032 101.799 10.512 101.407 9.864C101.023 9.208 100.831 8.48 100.831 7.68C100.831 6.896 101.031 6.176 101.431 5.52C101.831 4.864 102.359 4.34 103.015 3.948C103.671 3.556 104.383 3.36 105.151 3.36C105.943 3.36 106.663 3.556 107.311 3.948C107.967 4.332 108.491 4.852 108.883 5.508C109.275 6.156 109.471 6.88 109.471 7.68C109.471 8.48 109.275 9.208 108.883 9.864C108.491 10.512 107.967 11.032 107.311 11.424C106.663 11.808 105.943 12 105.151 12ZM105.151 9.828C105.535 9.828 105.891 9.732 106.219 9.54C106.547 9.34 106.807 9.076 106.999 8.748C107.199 8.42 107.299 8.064 107.299 7.68C107.299 7.296 107.199 6.94 106.999 6.612C106.807 6.284 106.547 6.024 106.219 5.832C105.891 5.632 105.535 5.532 105.151 5.532C104.767 5.532 104.411 5.632 104.083 5.832C103.763 6.024 103.503 6.284 103.303 6.612C103.103 6.94 103.003 7.296 103.003 7.68C103.003 8.064 103.103 8.42 103.303 8.748C103.503 9.076 103.763 9.34 104.083 9.54C104.403 9.732 104.759 9.828 105.151 9.828Z" fill="white"/>
<path d="M2.15234 11.7702C8.90345 11.7702 15.7182 10.3929 22.3463 9.30568C36.8813 6.92158 51.3917 4.38998 65.9282 2.0127C66.3851 1.93797 66.8413 1.85825 67.2987 1.78637C67.9099 1.69033 67.719 1.72239 67.349 1.84924C66.4425 2.16006 65.6123 2.58167 64.7462 2.99348C58.6035 5.91417 52.2032 8.05634 45.6587 9.88408C44.1671 10.3007 42.5993 10.591 41.1195 11.0535C40.1307 11.3625 43.1897 11.1957 44.2253 11.1666C56.7807 10.8148 69.2837 9.4936 81.8218 8.82786C83.3049 8.74911 84.8228 8.62667 86.3108 8.62667C87.661 8.62667 83.6911 9.28703 82.4002 9.6829C78.3674 10.9196 74.3803 12.2961 70.4423 13.8072C68.9554 14.3777 66.8631 15.2358 65.3372 15.8442C64.6102 16.1341 62.4297 16.5897 63.187 16.7873C63.5135 16.8724 63.8596 16.7266 64.1929 16.6741C67.1906 16.2022 70.1762 15.6564 73.1708 15.1652C80.7125 13.9283 88.261 12.7338 95.8042 11.5061C100.836 10.6873 105.87 9.87444 110.893 9.0039C111.782 8.84988 114.435 8.36787 113.534 8.41291C111.764 8.50139 109.799 8.80683 108.114 9.36855C106.829 9.79701 110.826 9.32278 112.176 9.20508C119.411 8.57424 126.594 7.63619 133.728 6.26274C135.665 5.88973 137.592 5.46096 139.512 5.00533C140.489 4.77333 141.457 4.49838 142.416 4.20059C142.674 4.12049 143.385 4.02047 143.158 3.87367C142.341 3.3446 137.942 5.90822 137.726 6.02384C133.341 8.372 129.141 11.1077 125.001 13.8575C122.451 15.5513 119.387 17.3213 117.168 19.5033C117.046 19.6232 116.79 19.8155 116.904 19.9434C117.344 20.4393 118.232 19.9021 118.89 19.8176C122.51 19.3529 126.116 18.7333 129.704 18.0698C138.368 16.4676 147.036 14.7162 155.607 12.6755" stroke="#F7E428" stroke-width="3" stroke-linecap="round"/>
<path d="M24.668 62L24.68 49.04H27.224V55.28L32.312 49.04H35.504L30.128 55.52L36.056 62H32.648L27.224 55.76V62H24.668ZM35.8316 62V59.876C36.3116 59.964 36.6756 59.952 36.9236 59.84C37.1796 59.72 37.3676 59.504 37.4876 59.192C37.6156 58.88 37.7236 58.476 37.8116 57.98C37.9476 57.252 38.0636 56.424 38.1596 55.496C38.2636 54.56 38.3556 53.548 38.4356 52.46C38.5156 51.372 38.5876 50.232 38.6516 49.04H47.9636V62H45.4436V51.404H40.9076C40.8596 52.036 40.8036 52.708 40.7396 53.42C40.6836 54.124 40.6196 54.824 40.5476 55.52C40.4756 56.216 40.3996 56.868 40.3196 57.476C40.2396 58.084 40.1556 58.604 40.0676 59.036C39.9076 59.9 39.6716 60.588 39.3596 61.1C39.0556 61.604 38.6236 61.928 38.0636 62.072C37.5036 62.224 36.7596 62.2 35.8316 62ZM54.9884 62.36C54.0284 62.36 53.2244 62.184 52.5764 61.832C51.9284 61.472 51.4364 61 51.1004 60.416C50.7724 59.824 50.6084 59.176 50.6084 58.472C50.6084 57.816 50.7244 57.24 50.9564 56.744C51.1884 56.248 51.5324 55.828 51.9884 55.484C52.4444 55.132 53.0044 54.848 53.6684 54.632C54.2444 54.464 54.8964 54.316 55.6244 54.188C56.3524 54.06 57.1164 53.94 57.9164 53.828C58.7244 53.716 59.5244 53.604 60.3164 53.492L59.4044 53.996C59.4204 52.98 59.2044 52.228 58.7564 51.74C58.3164 51.244 57.5564 50.996 56.4764 50.996C55.7964 50.996 55.1724 51.156 54.6044 51.476C54.0364 51.788 53.6404 52.308 53.4164 53.036L51.0764 52.316C51.3964 51.204 52.0044 50.32 52.9004 49.664C53.8044 49.008 55.0044 48.68 56.5004 48.68C57.6604 48.68 58.6684 48.88 59.5244 49.28C60.3884 49.672 61.0204 50.296 61.4204 51.152C61.6284 51.576 61.7564 52.024 61.8044 52.496C61.8524 52.968 61.8764 53.476 61.8764 54.02V62H59.6564V59.036L60.0884 59.42C59.5524 60.412 58.8684 61.152 58.0364 61.64C57.2124 62.12 56.1964 62.36 54.9884 62.36ZM55.4324 60.308C56.1444 60.308 56.7564 60.184 57.2684 59.936C57.7804 59.68 58.1924 59.356 58.5044 58.964C58.8164 58.572 59.0204 58.164 59.1164 57.74C59.2524 57.356 59.3284 56.924 59.3444 56.444C59.3684 55.964 59.3804 55.58 59.3804 55.292L60.1964 55.592C59.4044 55.712 58.6844 55.82 58.0364 55.916C57.3884 56.012 56.8004 56.108 56.2724 56.204C55.7524 56.292 55.2884 56.4 54.8804 56.528C54.5364 56.648 54.2284 56.792 53.9564 56.96C53.6924 57.128 53.4804 57.332 53.3204 57.572C53.1684 57.812 53.0924 58.104 53.0924 58.448C53.0924 58.784 53.1764 59.096 53.3444 59.384C53.5124 59.664 53.7684 59.888 54.1124 60.056C54.4564 60.224 54.8964 60.308 55.4324 60.308ZM70.5365 62.36C69.2085 62.36 68.0805 62.064 67.1525 61.472C66.2245 60.88 65.5125 60.068 65.0165 59.036C64.5285 58.004 64.2805 56.832 64.2725 55.52C64.2805 54.184 64.5365 53.004 65.0405 51.98C65.5445 50.948 66.2645 50.14 67.2005 49.556C68.1365 48.972 69.2605 48.68 70.5725 48.68C71.9885 48.68 73.1965 49.032 74.1965 49.736C75.2045 50.44 75.8685 51.404 76.1885 52.628L73.6925 53.348C73.4445 52.62 73.0365 52.056 72.4685 51.656C71.9085 51.248 71.2645 51.044 70.5365 51.044C69.7125 51.044 69.0365 51.24 68.5085 51.632C67.9805 52.016 67.5885 52.544 67.3325 53.216C67.0765 53.888 66.9445 54.656 66.9365 55.52C66.9445 56.856 67.2485 57.936 67.8485 58.76C68.4565 59.584 69.3525 59.996 70.5365 59.996C71.3445 59.996 71.9965 59.812 72.4925 59.444C72.9965 59.068 73.3805 58.532 73.6445 57.836L76.1885 58.436C75.7645 59.7 75.0645 60.672 74.0885 61.352C73.1125 62.024 71.9285 62.36 70.5365 62.36ZM83.8256 62.36C82.4976 62.36 81.3696 62.064 80.4416 61.472C79.5136 60.88 78.8016 60.068 78.3056 59.036C77.8176 58.004 77.5696 56.832 77.5616 55.52C77.5696 54.184 77.8256 53.004 78.3296 51.98C78.8336 50.948 79.5536 50.14 80.4896 49.556C81.4256 48.972 82.5496 48.68 83.8616 48.68C85.2776 48.68 86.4856 49.032 87.4856 49.736C88.4936 50.44 89.1576 51.404 89.4776 52.628L86.9816 53.348C86.7336 52.62 86.3256 52.056 85.7576 51.656C85.1976 51.248 84.5536 51.044 83.8256 51.044C83.0016 51.044 82.3256 51.24 81.7976 51.632C81.2696 52.016 80.8776 52.544 80.6216 53.216C80.3656 53.888 80.2336 54.656 80.2256 55.52C80.2336 56.856 80.5376 57.936 81.1376 58.76C81.7456 59.584 82.6416 59.996 83.8256 59.996C84.6336 59.996 85.2856 59.812 85.7816 59.444C86.2856 59.068 86.6696 58.532 86.9336 57.836L89.4776 58.436C89.0536 59.7 88.3536 60.672 87.3776 61.352C86.4016 62.024 85.2176 62.36 83.8256 62.36ZM91.9102 62V49.04H94.4182V54.332H100.742V49.04H103.25V62H100.742V56.696H94.4182V62H91.9102ZM112.246 62.36C110.95 62.36 109.826 62.068 108.874 61.484C107.922 60.9 107.186 60.096 106.666 59.072C106.154 58.04 105.898 56.852 105.898 55.508C105.898 54.156 106.162 52.968 106.69 51.944C107.218 50.912 107.958 50.112 108.91 49.544C109.862 48.968 110.974 48.68 112.246 48.68C113.542 48.68 114.666 48.972 115.618 49.556C116.57 50.14 117.306 50.944 117.826 51.968C118.346 52.992 118.606 54.172 118.606 55.508C118.606 56.86 118.342 58.052 117.814 59.084C117.294 60.108 116.558 60.912 115.606 61.496C114.654 62.072 113.534 62.36 112.246 62.36ZM112.246 59.996C113.486 59.996 114.41 59.58 115.018 58.748C115.634 57.908 115.942 56.828 115.942 55.508C115.942 54.156 115.63 53.076 115.006 52.268C114.39 51.452 113.47 51.044 112.246 51.044C111.406 51.044 110.714 51.236 110.17 51.62C109.626 51.996 109.222 52.52 108.958 53.192C108.694 53.856 108.562 54.628 108.562 55.508C108.562 56.868 108.874 57.956 109.498 58.772C110.122 59.588 111.038 59.996 112.246 59.996ZM126.991 62.36C125.703 62.36 124.571 62.08 123.595 61.52C122.627 60.952 121.871 60.164 121.326 59.156C120.791 58.14 120.523 56.964 120.523 55.628C120.523 54.212 120.787 52.984 121.315 51.944C121.851 50.904 122.595 50.1 123.547 49.532C124.499 48.964 125.607 48.68 126.871 48.68C128.191 48.68 129.315 48.988 130.243 49.604C131.171 50.212 131.863 51.08 132.319 52.208C132.783 53.336 132.967 54.676 132.871 56.228H130.363V55.316C130.347 53.812 130.059 52.7 129.499 51.98C128.947 51.26 128.103 50.9 126.967 50.9C125.711 50.9 124.767 51.296 124.135 52.088C123.503 52.88 123.187 54.024 123.187 55.52C123.187 56.944 123.503 58.048 124.135 58.832C124.767 59.608 125.679 59.996 126.871 59.996C127.655 59.996 128.331 59.82 128.899 59.468C129.475 59.108 129.923 58.596 130.243 57.932L132.703 58.712C132.199 59.872 131.435 60.772 130.411 61.412C129.387 62.044 128.247 62.36 126.991 62.36ZM122.371 56.228V54.272H131.622V56.228H122.371Z" fill="#F3EF0E"/>
<path d="M84 38L78 32L72 38" stroke="#F3EF0E" stroke-width="2" stroke-linecap="round" stroke-linejoin="round"/>
</svg>
