<svg width="33" height="32" viewBox="0 0 33 32" fill="none" xmlns="http://www.w3.org/2000/svg">
<g clip-path="url(#clip0_8_97137)">
<path fill-rule="evenodd" clip-rule="evenodd" d="M6.06675 32H27.9092C30.697 31.9758 32.9758 29.697 32.9758 26.8848V5.09091C32.9758 2.27879 30.697 0 27.8849 0H6.09098C3.27886 0 0.975837 2.27879 0.975837 5.09091V26.8848C0.951594 29.697 3.25462 31.9758 6.06675 32Z" fill="#2D3579"/>
<path fill-rule="evenodd" clip-rule="evenodd" d="M23.5455 21.3818H25.0728L25.5334 20.0242L26.0182 21.3818H27.5213L26.3092 22.2545L26.7698 23.6121L25.5334 22.7636L24.3213 23.6121L24.7819 22.2545L23.5455 21.3818ZM27.3516 18.9333H28.8789L29.3395 17.5757L29.8243 18.9333H31.3273L30.1152 19.7818L30.5758 21.1394L29.3395 20.2909L28.1273 21.1394L28.588 19.7818L27.3516 18.9333ZM27.3516 10.4727H28.8789L29.3395 9.11511L29.8243 10.4727H31.3273L30.1152 11.3212L30.5758 12.703L29.3395 11.8545L28.1273 12.703L28.588 11.3212L27.3516 10.4727ZM23.594 15.0787H25.097L25.5819 16.4363L26.0425 15.0787H27.5698L26.3334 14.206L26.794 12.8484L25.5819 13.7212L24.3455 12.8484L24.8061 14.206L23.594 15.0787ZM19.8122 16.3878L21.3395 16.3636L21.8001 17.7454L22.2849 16.3636L23.7879 16.3878L22.5758 15.5151L23.0364 14.1575L21.8001 15.006L20.588 14.1575L21.0485 15.5151L19.8122 16.3878ZM15.3273 22.6181H16.8304L17.3152 23.9757L17.7758 22.6181H19.3031L18.0667 21.7697L18.5273 20.3878L17.3152 21.2606L16.0788 20.3878L16.5395 21.7697L15.3273 22.6181ZM19.8122 25.8666H21.3395L21.8001 27.2242L22.2849 25.8666H23.7879L22.5758 25.0181L23.0364 23.6363L21.8001 24.4848L20.588 23.6363L21.0485 25.0181L19.8122 25.8666ZM15.3273 26.9818H16.8546L17.3152 28.3394L17.7758 26.9818H19.3031L18.0667 26.1333L18.5273 24.7515L17.3152 25.6242L16.0788 24.7515L16.5637 26.1333L15.3273 26.9818ZM10.9152 26.8363L12.4182 26.8606L12.9031 25.4787L13.3637 26.8606L14.891 26.8363L13.6546 27.7091L14.1152 29.0666L12.9031 28.2181L11.6667 29.0666L12.1273 27.7091L10.9152 26.8363Z" fill="#F5D71C"/>
<path fill-rule="evenodd" clip-rule="evenodd" d="M0.951599 13.7212H16.9516V0H6.09098C3.27886 0 0.975836 2.27879 0.975836 5.09091V13.7212H0.951599Z" fill="#2D3579"/>
<path fill-rule="evenodd" clip-rule="evenodd" d="M16.9758 0H13.897L5.55766 4.19394V0.0242424C2.98796 0.290909 0.951599 2.44849 0.951599 5.09091V9.55152H1.00007V13.7212H5.53339V9.52727L13.8728 13.7212H16.9516V12.1939L10.9152 9.16364H16.9516V4.58182H10.9152L16.9516 1.55152V0H16.9758Z" fill="#FEFEFE"/>
<path fill-rule="evenodd" clip-rule="evenodd" d="M7.86069 9.13939H9.9213L16.9758 12.6788V13.7212L7.86069 9.13939ZM0.951599 8.21818V5.50303H1.89703V2.13333C2.55158 1.21212 3.52128 0.509091 4.63644 0.193939V5.47879H16.9273V8.19394H4.63644V13.697H1.89703V8.21818H0.951599ZM5.82432 4.58182L14.9395 0H16.9758L7.86069 4.58182H5.82432Z" fill="#C6273E"/>
</g>
<defs>
<clipPath id="clip0_8_97137">
<rect width="32.0242" height="32" fill="white" transform="translate(0.951599)"/>
</clipPath>
</defs>
</svg>
