<svg width="33" height="32" viewBox="0 0 33 32" fill="none" xmlns="http://www.w3.org/2000/svg">
<g clip-path="url(#clip0_8_98139)">
<path fill-rule="evenodd" clip-rule="evenodd" d="M0.0730896 10.6505H32.0973V5.09477C32.0973 2.30478 29.8168 0.0242608 27.0268 0H5.14359C2.3536 0.0242608 0.0730896 2.30478 0.0730896 5.09477V10.6505Z" fill="#458FC7"/>
<path d="M32.0973 10.6505H0.0730896V21.3253H32.0973V10.6505Z" fill="#D5253F"/>
<path fill-rule="evenodd" clip-rule="evenodd" d="M5.21636 32H27.0026C29.8168 32 32.1216 29.7195 32.1216 26.9052V21.3495H0.0973406V26.9052C0.0730798 29.7195 2.40211 32 5.21636 32Z" fill="#42AB61"/>
<path fill-rule="evenodd" clip-rule="evenodd" d="M16.0367 11.5239C17.3225 11.5239 18.4628 12.0819 19.3119 12.9311C18.7054 12.4944 17.9533 12.276 17.177 12.276C15.1148 12.276 13.465 13.9258 13.465 15.9879C13.465 18.0743 15.1148 19.7241 17.177 19.7241C17.9776 19.7241 18.7296 19.4815 19.3119 19.069C18.5113 19.9424 17.3468 20.4762 16.0367 20.4762C13.5378 20.4762 11.5484 18.4868 11.5484 16.0122C11.5484 13.5133 13.5378 11.5239 16.0367 11.5239ZM20.064 14.8477L20.5249 13.6103L20.9859 14.8477L22.1989 14.2897L21.6895 15.5027L22.9268 15.9879L21.6895 16.4489L22.1989 17.6619L20.9859 17.1039L20.5249 18.3897L20.064 17.1039L18.8509 17.6619L19.4089 16.4489L18.1231 15.9879L19.4089 15.5027L18.8509 14.2897L20.064 14.8477Z" fill="white"/>
</g>
<defs>
<clipPath id="clip0_8_98139">
<rect width="32.0485" height="32" fill="white" transform="translate(0.0730896)"/>
</clipPath>
</defs>
</svg>
