<svg width="32" height="32" viewBox="0 0 32 32" fill="none" xmlns="http://www.w3.org/2000/svg">
<g clip-path="url(#clip0_8_97164)">
<path fill-rule="evenodd" clip-rule="evenodd" d="M7.03033 21.3334H32V5.13944C32 2.32732 29.7212 0.024292 26.9091 0.024292H7.03033V21.3334Z" fill="#BF282D"/>
<path fill-rule="evenodd" clip-rule="evenodd" d="M7.03033 32H26.9091C29.7212 32 32 29.7213 32 26.9091V21.3334H7.03033V32Z" fill="#379A41"/>
<path fill-rule="evenodd" clip-rule="evenodd" d="M5.11521 32H7.03036V0H5.11521C2.30309 0 6.10352e-05 2.30302 6.10352e-05 5.11515V26.9091C6.10352e-05 29.7212 2.32733 32 5.11521 32Z" fill="#FEFEFE"/>
<path fill-rule="evenodd" clip-rule="evenodd" d="M4.94551 32.0001C4.8243 32.0001 4.70311 31.9758 4.63038 31.9758V31.2485H4.31522V30.5212H4.00008V29.7697H3.68492V29.0425H3.36975V29.7697H3.07886V30.5212H2.76369V31.2485H2.4728C2.23037 31.1031 2.03644 30.9576 1.8425 30.7879V30.5212H1.55157L1.52734 30.4728V29.7697H1.2122V29.0425H0.897039V28.291H1.2122V27.5637H1.52734V26.8122H1.8425V26.0849H2.1334V25.3576H2.44856V26.0849H2.76369V26.8122H3.07886V27.5637H3.36975V28.291H3.68492V27.5637H4.00008V26.8122H4.31522V26.0849H4.63038V25.3576H4.94551V26.0849H5.23644V26.8122H5.55157V27.5637H5.86674V28.291H6.1819V29.0425H5.86674V29.7697H5.55157V30.5212H5.23644V31.2485H4.94551V32.0001ZM1.5031 1.52731L1.52734 1.47884H1.81826V1.23641C2.0122 1.04247 2.25461 0.897019 2.4728 0.751565H2.73946V1.47884H3.05462V2.23035H3.34552V2.95762H3.66068V2.23035H3.97582V1.47884H4.29098V0.751565H4.60614V0.024292C4.70311 0.024292 4.80006 0.024292 4.92128 0.024292V0.751565H5.2122V1.47884H5.52734V2.23035H5.8425V2.95762H6.15763V3.70913H5.8425V4.4364H5.52734V5.18791H5.2122V5.91518H4.92128V6.66672H4.60614V5.91518H4.29098V5.18791H3.97582V4.4364H3.66068V3.70913H3.34552V4.4364H3.05462V5.18791H2.73946V5.91518H2.42432V6.66672H2.10916V5.91518H1.81826V5.18791H1.5031V4.4364H1.18794V3.70913H0.872803V2.95762H1.18794V2.23035H1.5031V1.52731ZM4.63038 1.47884H4.92128V2.23035H5.23644V2.95762H5.55157V3.70913H5.23644V4.4364H4.92128V5.18791H4.63038V4.4364H4.31522V3.70913H4.00008V2.95762H4.31522V2.23035H4.63038V1.47884ZM2.10916 1.47884H2.42432V2.23035H2.73946V2.95762H3.05462V3.70913H2.73946V4.4364H2.42432V5.18791H2.10916V4.4364H1.81826V3.70913H1.5031V2.95762H1.81826V2.23035H2.10916V1.47884ZM4.63038 30.5212H4.92128V29.7697H5.23644V29.0425H5.55157V28.291H5.23644V27.5637H4.92128V26.8122H4.63038V27.5637H4.31522V28.291H4.00008V29.0425H4.31522V29.7697H4.63038V30.5212ZM2.10916 30.5212H2.42432V29.7697H2.73946V29.0425H3.05462V28.291H2.73946V27.5637H2.42432V26.8122H2.10916V27.5637H1.81826V28.291H1.5031V29.0425H1.81826V29.7697H2.10916V30.5212ZM3.36975 0.606116H3.68492V1.47884H3.36975V0.606116ZM3.36975 31.394H3.68492V30.5212H3.36975V31.394ZM5.86674 0.606116H6.1819V1.47884H5.86674V0.606116ZM5.86674 31.394H6.1819V30.5212H5.86674V31.394ZM5.86674 4.89701H6.1819V5.76973H5.86674V4.89701ZM3.36975 4.89701H3.68492V5.76973H3.36975V4.89701ZM0.872803 4.89701H1.18794V5.76973H0.872803V4.89701ZM5.86674 27.1516H6.1819V26.2546H5.86674V27.1516ZM3.36975 27.1516H3.68492V26.2546H3.36975V27.1516ZM0.872803 27.1516H1.18794V26.2546H0.872803V27.1516ZM5.86674 8.75156H6.1819V9.62429H5.86674V8.75156ZM3.36975 8.75156H3.68492V9.62429H3.36975V8.75156ZM0.872803 8.75156H1.18794V9.62429H0.872803V8.75156ZM5.86674 23.297H6.1819V22.4243H5.86674V23.297ZM3.36975 23.297H3.68492V22.4243H3.36975V23.297ZM0.872803 23.297H1.18794V22.4243H0.872803V23.297ZM2.10916 2.95762H2.42432V3.70913H2.10916V2.95762ZM2.10916 29.0667H2.42432V28.3152H2.10916V29.0667ZM4.63038 2.95762H4.94551V3.70913H4.63038V2.95762ZM4.63038 29.0667H4.94551V28.3152H4.63038V29.0667ZM1.33341 6.81217H1.5031V7.10307H1.64855V7.39399H1.5031V7.70913H1.33341V7.39399H1.18794V7.10307H1.33341V6.81217ZM1.18794 6.06066H1.64855V6.49701H1.81826V6.95762H1.96371V7.53944H1.81826V8.00006H1.64855V8.4364H1.18794V8.00006H1.01825V7.53944H0.872803V6.95762H1.01825V6.49701H1.18794V6.06066ZM1.33341 25.2122H1.5031V24.9212H1.64855V24.6304H1.5031V24.3394H1.33341V24.6304H1.18794V24.9212H1.33341V25.2122ZM1.18794 25.9637H1.64855V25.5273H1.81826V25.0667H1.96371V24.4849H1.81826V24.0485H1.64855V23.6122H1.18794V24.0485H1.01825V24.4849H0.872803V25.0667H1.01825V25.5273H1.18794V25.9637ZM3.8546 6.81217H4.00008V7.10307H4.16977V7.39399H4.00008V7.70913H3.8546V7.39399H3.70915V7.10307H3.8546V6.81217ZM3.39402 7.36973V7.07883H3.22431V6.78793H3.07886V7.07883H2.90917V7.36973H3.07886V7.68489H3.22431V7.36973H3.39402ZM3.70915 6.06066H4.16977V6.49701H4.31522V6.95762H4.46066V7.53944H4.31522V8.00006H4.16977V8.4364H3.70915V8.00006C3.27279 8.00006 3.80614 8.00006 3.39402 8.00006V8.4364H2.90917V8.00006H2.76369V7.53944H2.59401V6.95762H2.76369V6.49701H2.90917V6.06066H3.39402V6.49701C3.80614 6.49701 3.27279 6.49701 3.70915 6.49701V6.06066ZM3.8546 25.2122H4.00008V24.9212H4.16977V24.6304H4.00008V24.3394H3.8546V24.6304H3.70915V24.9212H3.8546V25.2122ZM3.39402 24.6304V24.9212H3.22431V25.2122H3.07886V24.9212H2.90917V24.6304H3.07886V24.3394H3.22431V24.6304H3.39402ZM3.70915 25.9637H4.16977V25.5273H4.31522V25.0667H4.46066V24.4849H4.31522V24.0485H4.16977V23.6122H3.70915V24.0485C3.27279 24.0485 3.80614 24.0485 3.39402 24.0485V23.6122H2.90917V24.0485H2.76369V24.4849H2.59401V25.0667H2.76369V25.5273H2.90917V25.9637H3.39402V25.5273C3.80614 25.5273 3.27279 25.5273 3.70915 25.5273V25.9637ZM5.55157 6.81217H5.72129V7.10307H5.86674V7.39399H5.72129V7.70913H5.55157V7.39399H5.40612V7.10307H5.55157V6.81217ZM5.40612 6.06066H5.86674V6.49701H6.01218V6.95762H6.15763V7.53944H6.01218V8.00006H5.86674V8.4364H5.40612V8.00006H5.23644V7.53944H5.09099V6.95762H5.23644V6.49701H5.40612V6.06066ZM5.55157 25.2122H5.72129V24.9212H5.86674V24.6304H5.72129V24.3394H5.55157V24.6304H5.40612V24.9212H5.55157V25.2122ZM5.40612 25.9637H5.86674V25.5273H6.01218V25.0667H6.15763V24.4849H6.01218V24.0485H5.86674V23.6122H5.40612V24.0485H5.23644V24.4849H5.09099V25.0667H5.23644V25.5273H5.40612V25.9637ZM0.872803 12.3879H1.18794V12.994H0.872803V12.3879ZM0.872803 19.6122H1.18794V19.0061H0.872803V19.6122ZM5.86674 12.3879H6.1819V12.994H5.86674V12.3879ZM5.86674 19.6122H6.1819V19.0061H5.86674V19.6122ZM3.36975 14.4728H3.68492V15.2H3.36975V14.4728ZM0.872803 15.5637H1.18794V16.4364H0.872803V15.5637ZM2.56977 15.5637H2.88491V16.4364H2.56977V15.5637ZM4.14553 15.5637H4.46066V16.4364H4.14553V15.5637ZM5.86674 15.5637H6.1819V16.4364H5.86674V15.5637ZM3.36975 16.8243H3.68492V17.5758H3.36975V16.8243ZM3.36975 15.5637H3.68492V15.3213H3.83037V15.0304H4.14553V15.4667H4.00008V15.7091H3.83037V16.291H4.00008V16.5334H4.14553V16.9698H3.83037V16.6788H3.68492V16.4364H3.36975V16.6788H3.22431V16.9698H2.90917V16.5334H3.07886V16.291H3.22431V15.7091H3.07886V15.4667H2.90917V15.0304H3.22431V15.3213H3.36975V15.5637ZM4.94551 16.291V15.7091H4.63038V15.2H4.31522V14.6182H3.83037V13.9152H3.68492V13.5758H3.36975V13.9152H3.22431V14.6182H2.76369V15.2H2.44856V15.7091H2.1334V16.291V16.3152H2.44856V16.8H2.76369V17.3819H3.22431V18.0849H3.36975V18.4243H3.68492V18.1091H3.83037V17.3819H4.31522V16.8H4.63038V16.3152H4.94551V16.291ZM2.10916 7.8061H2.42432V8.55761H2.73946V9.28489H3.05462V10.0364H3.34552V10.7637H3.66068V10.0364H3.97582V9.28489H4.29098V8.55761H4.60614V7.8061H4.92128V8.55761H5.2122V9.28489H5.52734V10.0364H5.8425V10.7637H6.15763V11.5152H5.8425V12.2667H5.52734V12.994H5.2122V13.7213H4.92128V12.994H4.60614V12.2667H4.29098V11.5152H4.60614V10.6182H4.29098V11.2243H3.97582V12.3879H3.80613V13.1394H4.29098V13.7213H4.60614V14.1576H4.92128V14.9091H5.2122V14.1576H5.52734V13.7213H5.8425V13.2849H6.15763V14.6182H5.8425V15.2H5.52734V15.7091H5.2122V16.291V16.3152H5.52734V16.8H5.8425V17.3819H6.15763V18.7152H5.8425V18.2788H5.52734V17.8425H5.2122V17.091H4.92128V17.8425H4.60614V18.2788H4.29098V18.8849H3.80613V19.6122H3.97582V20.8H4.29098V21.3819H4.60614V20.4849H4.29098V19.7576H4.60614V19.0061H4.92128V18.2788H5.2122V19.0061H5.52734V19.7576H5.8425V20.4849H6.15763V21.2364H5.8425V21.9637H5.52734V22.7152H5.2122V23.4425H4.92128V24.194H4.60614V23.4425H4.29098V22.7152H3.97582V21.9637H3.66068V21.2364H3.34552V21.9637H3.05462V22.7152H2.73946V23.4425H2.42432V24.194H2.10916V23.4425H1.81826V22.7152H1.5031V21.9637H1.18794V21.2364H0.872803V20.4849H1.18794V19.7576H1.5031V19.0061H1.81826V18.2788H2.10916V19.0061H2.42432V19.7576H2.73946V20.4849H2.42432V21.3819H2.73946V20.8H3.05462V19.6122H3.20007V18.8849H2.73946V18.2788H2.42432V17.8425H2.10916V17.091H1.81826V17.8425H1.5031V18.2788H1.18794V18.7152H0.872803V17.3819H1.18794V16.8H1.5031V16.3152H1.81826V16.291V15.7091H1.5031V15.2H1.18794V14.6182H0.872803V13.2849H1.18794V13.7213H1.5031V14.1576H1.81826V14.9091H2.10916V14.1576H2.42432V13.7213H2.73946V13.1394L3.20007 13.1152V12.3879H3.05462V11.2243H2.73946V10.6182H2.42432V11.5152H2.73946V12.2667H2.42432V12.994H2.10916V13.7213H1.81826V12.994H1.5031V12.2667H1.18794V11.5152H0.872803V10.7637H1.18794V10.0364H1.5031V9.28489H1.81826V8.55761H2.10916V7.8061Z" fill="#BF282D"/>
</g>
<defs>
<clipPath id="clip0_8_97164">
<rect width="32" height="32" fill="white"/>
</clipPath>
</defs>
</svg>
