<svg width="33" height="32" viewBox="0 0 33 32" fill="none" xmlns="http://www.w3.org/2000/svg">
<g clip-path="url(#clip0_8_98136)">
<path fill-rule="evenodd" clip-rule="evenodd" d="M5.164 32H26.9579C29.7701 32 32.0488 29.7212 32.0488 26.9091V5.11515C32.0488 2.30302 29.7943 0.0242424 26.9822 0H5.13975C2.32763 0.0242424 0.0730896 2.30302 0.0730896 5.11515V26.9091C0.0730896 29.7212 2.35188 32 5.164 32Z" fill="#319341"/>
<path fill-rule="evenodd" clip-rule="evenodd" d="M0.0730896 17.8909L16.0731 28.1213L32.0488 17.8909V14.1334L16.0731 3.90308L0.0730896 14.1576V17.8909Z" fill="#EFC805"/>
<path fill-rule="evenodd" clip-rule="evenodd" d="M16.0488 24.0242C20.4367 24.0242 24.0246 20.4364 24.0246 16.0485C24.0246 11.6848 20.4367 8.12122 16.0488 8.12122C11.6852 8.12122 8.09732 11.6848 8.09732 16.0485C8.09732 20.4364 11.6852 24.0242 16.0488 24.0242Z" fill="#332F6F"/>
<path fill-rule="evenodd" clip-rule="evenodd" d="M8.364 13.9879C14.4488 12.9212 19.7337 15.0061 23.661 18.4242C23.8064 17.9879 23.9034 17.5757 23.9519 17.1394C19.7822 13.6 14.061 11.9273 8.80036 12.7757C8.60642 13.1636 8.46097 13.5757 8.364 13.9879Z" fill="white"/>
<path fill-rule="evenodd" clip-rule="evenodd" d="M12.9458 16.2425L13.0428 16.0727L13.0913 16.2425H13.2852L13.1155 16.3879L13.164 16.5576L13.0185 16.4364L12.8488 16.5576L12.8973 16.3879L12.7276 16.2425H12.9458ZM11.0064 17.3818L11.0307 17.2606L11.0549 17.3818H11.1761L11.0791 17.4303L11.1034 17.5515L11.0064 17.5031L10.8852 17.5515L10.9337 17.4303L10.8125 17.3818H11.0064ZM10.1822 17.8182L10.2791 17.5758L10.3276 17.8182H10.5943L10.4004 17.9637L10.4973 18.2061L10.3034 18.0606L10.1094 18.2061L10.1579 17.9637L9.98823 17.8182H10.1822ZM9.3337 18.5697H9.50338L9.35793 18.6909L9.40642 18.8364L9.26096 18.7152L9.13975 18.8364L9.164 18.6667L9.04279 18.5697H9.18823L9.23672 18.4L9.3337 18.5697ZM11.8549 18.6424L11.9519 18.4485L11.9761 18.6424H12.2185L12.0488 18.7636L12.0973 18.9576L11.9276 18.8364L11.7822 18.9576L11.8307 18.7636L11.661 18.6424H11.8549ZM11.7337 19.4424L11.6852 19.2485L11.6367 19.4424H11.4428L11.5882 19.5637L11.5398 19.7333L11.7095 19.6121L11.8792 19.7333L11.8307 19.5394L11.9761 19.4424H11.7337ZM12.7761 20.1455L12.8731 19.9031L12.9701 20.1455H13.2125L13.0185 20.2909L13.1155 20.5334L12.9216 20.3879L12.7276 20.5334L12.8246 20.2909L12.6307 20.1455H12.7761ZM18.1822 15.5394L18.2064 15.3697L18.2549 15.5394H18.4246L18.2791 15.6364L18.3276 15.8061L18.1822 15.6849L18.061 15.8061L18.1094 15.6364L17.964 15.5394H18.1822ZM16.0004 17.1879H15.8064L15.9761 17.3334L15.9276 17.5031L16.0973 17.3818L16.2428 17.5031L16.1943 17.3334L16.364 17.1879H16.1458L16.0973 17.0182L16.0004 17.1879ZM15.2731 17.7697L15.3216 17.9394H15.467L15.3458 18.0364L15.3701 18.2061L15.2488 18.0849L15.1034 18.2061L15.1519 18.0364L15.0064 17.9394H15.1761L15.2731 17.7697ZM16.9216 17.9152L16.9701 17.7212L17.067 17.9152H17.261L17.0913 18.0364L17.1397 18.2303L16.9701 18.1091L16.8246 18.2303L16.8731 18.0364L16.7034 17.9152H16.9216ZM15.6852 18.4L15.7095 18.5212H15.8307L15.7337 18.5697L15.7579 18.6909L15.661 18.6424L15.5398 18.6909L15.5882 18.5697L15.467 18.5212H15.6125L15.6852 18.4ZM16.0004 19.4667L16.0973 19.2243L16.1458 19.4667H16.3882L16.2185 19.6364L16.3155 19.8788L16.1216 19.7333L15.9276 19.8788L15.9761 19.6364L15.7822 19.4667H16.0004ZM18.4488 13.4061L18.5458 13.2122L18.6428 13.4061H18.8852L18.6913 13.5758L18.7882 13.8182L18.5943 13.6727L18.4004 13.8182L18.4973 13.5758L18.3034 13.4061H18.4488ZM21.7216 18.7152H21.9882L21.7943 18.8364L21.8913 19.103L21.6973 18.9576L21.5034 19.103L21.5519 18.8606L21.3579 18.7152H21.6246L21.6731 18.4485L21.7216 18.7152ZM22.7155 18.8122L22.764 18.6667L22.8125 18.8122H22.9579L22.8367 18.9334L22.8852 19.0788L22.7398 18.9818L22.5943 19.0788L22.6428 18.9334L22.4973 18.8122H22.7155ZM21.9155 19.4424L21.964 19.2485L22.0125 19.4424H22.2064L22.061 19.5637L22.1094 19.7333L21.9398 19.6121L21.7701 19.7333L21.8185 19.5637L21.6731 19.4424H21.9155ZM21.4307 20.0727L21.4791 19.8788L21.5276 20.0727H21.7216L21.5761 20.194L21.6246 20.3637L21.4549 20.2425L21.2852 20.3637L21.3822 20.194L21.2125 20.0727H21.4307ZM20.8004 20.4849L20.8488 20.3394L20.8973 20.4849H21.0428L20.9216 20.6061L20.9701 20.7515L20.8246 20.6546L20.6791 20.7515L20.7276 20.6061L20.5822 20.4849H20.8004ZM20.0488 20.9212L20.1458 21.0909H20.3397L20.17 21.2364L20.2185 21.4061L20.0488 21.2849L19.9034 21.4061L19.9519 21.2364L19.7822 21.0909H19.9761L20.0488 20.9212ZM20.0488 21.794L20.0973 21.9394H20.267L20.1216 22.0364L20.17 22.2061L20.0246 22.0849L19.8792 22.2061L19.9276 22.0364L19.8064 21.9394H19.9761L20.0488 21.794ZM18.4004 21.3091L18.4488 21.1152L18.4973 21.3091H18.6913L18.5458 21.4303L18.5943 21.6243L18.4246 21.5031L18.2549 21.6243L18.3034 21.4303L18.1579 21.3091H18.4004ZM19.9519 20.4364L19.9034 20.6061L20.0246 20.4849L20.17 20.6061L20.1216 20.4364L20.267 20.3394H20.0973L20.0488 20.1697L20.0246 20.3394H19.8549L19.9519 20.4364ZM19.1519 20.4606L19.2004 20.6061H19.3458L19.2004 20.7273L19.2488 20.8728L19.1276 20.7758L18.9822 20.8728L19.0307 20.7273L18.8852 20.6061H19.0549L19.1519 20.4606ZM17.7943 20.4364L17.8185 20.2667L17.867 20.4364H18.0367L17.8913 20.5334L17.9398 20.703L17.7943 20.5818L17.6488 20.703L17.6973 20.5334L17.5761 20.4364H17.7943ZM16.0488 22.2303L16.0731 22.1334V22.2303H16.17L16.1216 22.2788L16.1458 22.3273L16.0973 22.3031L16.0004 22.3273L16.0246 22.2788L15.9761 22.2303H16.0488ZM9.47915 14.4728L9.52763 14.2303L9.62459 14.4728H9.89127L9.69733 14.6182L9.74581 14.8606L9.55187 14.7152L9.35793 14.8606L9.45491 14.6182L9.26096 14.4728H9.47915Z" fill="white"/>
<path fill-rule="evenodd" clip-rule="evenodd" d="M23.1761 17.2121C23.1276 17.2606 23.0791 17.3576 23.0791 17.4061C23.0791 17.4303 23.1034 17.503 23.1761 17.5273C23.2246 17.5515 23.2731 17.5758 23.3216 17.5758C23.3701 17.5515 23.4428 17.5273 23.4913 17.4303C23.5155 17.3818 23.5398 17.3091 23.5398 17.2606C23.5398 17.2121 23.5155 17.1636 23.4428 17.1394C23.4185 17.0909 23.3458 17.0909 23.2973 17.0909C23.2488 17.1394 23.2004 17.1637 23.1761 17.2121ZM23.0307 17.1394C23.0792 17.0909 23.1276 17.0424 23.1761 17.0182C23.2246 16.9939 23.2731 16.9697 23.2973 16.9697C23.3216 16.9697 23.3943 16.9697 23.4185 16.9697C23.467 16.994 23.5155 17.0182 23.564 17.0667C23.661 17.1152 23.7095 17.2121 23.7095 17.3091C23.7095 17.4061 23.6852 17.4788 23.6125 17.6C23.5155 17.697 23.4428 17.7455 23.3458 17.7697C23.2488 17.7697 23.1761 17.7455 23.0791 17.6727C22.9822 17.5758 22.9337 17.5273 22.9337 17.4303C22.9337 17.3333 22.9579 17.2121 23.0307 17.1394ZM22.1579 16.6788L22.3034 16.7273C22.2792 16.7758 22.2791 16.8243 22.2791 16.8485C22.2791 16.8727 22.3034 16.897 22.3276 16.9455C22.3761 16.9697 22.4246 16.9697 22.4488 16.9697C22.4731 16.9697 22.4973 16.9697 22.5458 16.9455V16.9212C22.5458 16.897 22.5458 16.8727 22.5216 16.8727C22.5216 16.8485 22.4973 16.8243 22.4246 16.7515C22.3519 16.6788 22.3276 16.6546 22.3276 16.6061C22.3276 16.5576 22.3276 16.4849 22.3519 16.4364C22.3761 16.4364 22.4004 16.4121 22.4488 16.3879C22.4731 16.3879 22.5458 16.3879 22.5701 16.3879C22.6185 16.3879 22.667 16.4121 22.7155 16.4364C22.764 16.4849 22.8367 16.5576 22.8367 16.6061C22.861 16.6546 22.8367 16.7273 22.8125 16.7758L22.6913 16.6788C22.6913 16.6546 22.7155 16.6303 22.6913 16.5818C22.6913 16.5576 22.667 16.5333 22.6428 16.5333C22.6185 16.5091 22.5943 16.4849 22.5458 16.4849C22.5216 16.4849 22.5216 16.5091 22.4973 16.5091C22.4973 16.5333 22.4973 16.5333 22.4973 16.5576C22.4973 16.5818 22.5216 16.6061 22.5943 16.6788C22.6428 16.7273 22.6913 16.7758 22.6913 16.8C22.7155 16.8485 22.7155 16.897 22.7155 16.9212C22.7155 16.9455 22.7155 17.0182 22.6913 17.0424C22.667 17.0667 22.6428 17.0909 22.5701 17.1394C22.5458 17.1394 22.4731 17.1394 22.4488 17.1394C22.4004 17.1394 22.3519 17.1152 22.3034 17.0909C22.2064 17.0424 22.1822 16.9697 22.1579 16.9212C22.1337 16.8242 22.1337 16.7273 22.1579 16.6788ZM21.3337 16.1212L21.4791 16.2182C21.4549 16.2424 21.4549 16.2667 21.4549 16.3394C21.4792 16.3636 21.5034 16.3879 21.5519 16.4364C21.5761 16.4364 21.6004 16.4606 21.6488 16.4364C21.6973 16.4364 21.6973 16.4364 21.7458 16.4121V16.3879C21.7458 16.3637 21.7458 16.3636 21.7216 16.3394C21.7216 16.3152 21.6973 16.2909 21.6246 16.2424C21.6004 16.194 21.5276 16.1212 21.5276 16.0727C21.5276 16.0242 21.5276 15.9515 21.5519 15.9273C21.5761 15.903 21.6004 15.8788 21.6488 15.8303C21.6731 15.8303 21.7458 15.8303 21.7701 15.8303C21.7943 15.8303 21.867 15.8546 21.9155 15.8788C21.964 15.9273 22.0367 16 22.0367 16.0485C22.061 16.097 22.0367 16.1697 22.0125 16.2182L21.8913 16.1212C21.9155 16.097 21.9155 16.0727 21.8913 16.0243C21.8913 16 21.867 15.9758 21.8428 15.9758C21.8185 15.9515 21.7943 15.9273 21.7458 15.9273C21.7216 15.9273 21.7216 15.9515 21.6973 15.9515C21.6973 15.9758 21.6973 15.9758 21.6973 16C21.6973 16.0243 21.7216 16.0485 21.7943 16.1212C21.8428 16.1697 21.8913 16.2182 21.9155 16.2424C21.9155 16.2909 21.9398 16.3394 21.9398 16.3637C21.9398 16.4121 21.9155 16.4606 21.8913 16.4849C21.867 16.5091 21.8428 16.5333 21.7943 16.5818C21.7701 16.5818 21.6973 16.6061 21.6488 16.5818C21.6246 16.5818 21.5519 16.5576 21.5034 16.5333C21.4549 16.4849 21.3822 16.4121 21.3579 16.3637C21.3095 16.2667 21.3095 16.2182 21.3337 16.1212ZM20.4125 15.8545L20.8004 15.2242L21.261 15.4909L21.2125 15.6121L20.8973 15.4182L20.8004 15.5636L21.1155 15.7333L21.0185 15.8545L20.7034 15.6849L20.6064 15.8545L20.9458 16.0485L20.8973 16.1455L20.4125 15.8545ZM19.8792 15.0788L19.9761 15.1273C20.0246 15.1515 20.0973 15.1515 20.0973 15.1515C20.1216 15.1515 20.1216 15.1515 20.1458 15.1515C20.1701 15.1515 20.1701 15.1273 20.1701 15.1273C20.1943 15.103 20.1943 15.0788 20.1943 15.0788C20.1943 15.0546 20.1701 15.0303 20.1458 15.0303C20.1458 15.0061 20.1216 15.0061 20.0488 14.9818L19.9519 14.9333L19.8792 15.0788ZM19.5155 15.3697L19.8549 14.7394L20.1458 14.8848C20.1943 14.9091 20.267 14.9333 20.2913 14.9818C20.2913 15.0061 20.3155 15.0303 20.3155 15.103C20.3155 15.1273 20.3155 15.2 20.2913 15.2242C20.267 15.2727 20.2428 15.3212 20.1943 15.3212C20.1458 15.3455 20.0731 15.3455 20.0246 15.3212C20.0488 15.3455 20.0488 15.3697 20.0731 15.4182C20.0731 15.4424 20.0731 15.5152 20.0731 15.5636V15.7333L19.9276 15.6364L19.9034 15.4424C19.9034 15.3939 19.9034 15.3212 19.9034 15.3212C19.8791 15.297 19.8792 15.297 19.8792 15.2727C19.8792 15.2727 19.8549 15.2485 19.8307 15.2485L19.8064 15.2242L19.661 15.5152L19.5155 15.3697ZM18.9822 14.8121L19.0307 14.6909L19.3216 14.8364L19.2004 15.103C19.1519 15.1273 19.1034 15.1273 19.0549 15.1273C18.9579 15.103 18.9094 15.103 18.8852 15.0788C18.7882 15.0546 18.7397 15.0303 18.7155 14.9576C18.6913 14.9091 18.667 14.8364 18.667 14.7636C18.667 14.7152 18.667 14.6424 18.6913 14.5939C18.7155 14.497 18.7882 14.4485 18.8367 14.4243C18.8852 14.4 18.9579 14.3758 19.0064 14.3758C19.0549 14.3758 19.1276 14.3758 19.1761 14.4C19.2731 14.4485 19.3216 14.497 19.3458 14.5455C19.3701 14.594 19.3701 14.6667 19.3701 14.7152L19.2246 14.6909C19.2246 14.6667 19.2246 14.6424 19.2004 14.5939C19.2004 14.5697 19.1761 14.5455 19.1034 14.497C19.0549 14.4727 18.9822 14.4727 18.9579 14.497C18.9094 14.5212 18.8367 14.5455 18.8125 14.6424C18.7882 14.7394 18.7882 14.7879 18.7882 14.8364C18.8125 14.8849 18.8367 14.9333 18.9095 14.9576C18.9337 14.9576 18.9579 14.9818 19.0064 14.9818C19.0307 14.9818 19.0549 14.9818 19.1034 14.9576L19.1519 14.9091L18.9822 14.8121ZM17.8185 14.2303C17.7943 14.3273 17.7943 14.3758 17.7943 14.4243C17.8185 14.4485 17.8428 14.5212 17.9155 14.5455C17.964 14.5455 18.0367 14.5455 18.0852 14.5212C18.1095 14.5212 18.1822 14.4727 18.2064 14.3758C18.2307 14.2788 18.2307 14.2303 18.2064 14.1818C18.2064 14.1334 18.1822 14.0849 18.0852 14.0606C18.061 14.0364 17.9882 14.0606 17.9398 14.0849C17.867 14.0849 17.8428 14.1576 17.8185 14.2303ZM17.6731 14.1818C17.6973 14.1334 17.7216 14.0606 17.7701 14.0364C17.7943 14.0121 17.8185 13.9879 17.8913 13.9394C17.9155 13.9152 17.9398 13.9152 18.0125 13.9152C18.0367 13.9152 18.1094 13.9152 18.1579 13.9394C18.2791 13.9879 18.3276 14.0606 18.3519 14.1333C18.3761 14.2303 18.3761 14.3031 18.3519 14.4243C18.3034 14.5455 18.2307 14.594 18.1579 14.6667C18.061 14.6909 17.9882 14.6909 17.8913 14.6667C17.7701 14.6182 17.7216 14.5455 17.6973 14.4727C17.6246 14.3758 17.6246 14.3031 17.6731 14.1818ZM16.8489 13.8667L16.9701 13.8909C17.0185 13.9152 17.0913 13.9152 17.0913 13.9152C17.1155 13.9152 17.1397 13.9152 17.1397 13.9152C17.164 13.8909 17.164 13.8909 17.164 13.8667C17.164 13.8424 17.164 13.8424 17.164 13.8182C17.164 13.794 17.1397 13.7939 17.1397 13.7697C17.1155 13.7697 17.0913 13.7697 17.0185 13.7455L16.8973 13.7212L16.8489 13.8667ZM16.6064 14.2061L16.8489 13.503L17.1397 13.6243C17.1882 13.6243 17.261 13.6485 17.2852 13.6727C17.3095 13.697 17.3337 13.7212 17.3337 13.7697C17.3579 13.8182 17.3579 13.8667 17.3337 13.8909C17.3337 13.9394 17.2852 14.0121 17.2367 14.0121C17.2125 14.0364 17.1398 14.0364 17.0913 14.0364C17.0913 14.0606 17.1155 14.0849 17.1397 14.1333C17.1397 14.1576 17.164 14.1818 17.164 14.2545L17.1882 14.4243L17.0428 14.3758L16.9943 14.2061C16.9701 14.1576 16.9701 14.0849 16.9701 14.0606C16.9458 14.0606 16.9458 14.0606 16.9216 14.0364C16.9216 14.0364 16.8973 14.0121 16.8731 14.0121H16.8489L16.7519 14.3031L16.6064 14.2061ZM15.9519 13.4061L15.9034 13.6485H16.0004C16.0489 13.6727 16.0973 13.6727 16.1216 13.6727C16.1458 13.6727 16.1458 13.6485 16.1701 13.6485C16.1701 13.6485 16.1943 13.6243 16.1943 13.6C16.1943 13.5758 16.1943 13.5758 16.1943 13.5515C16.1701 13.5273 16.1701 13.5273 16.1458 13.503C16.1458 13.503 16.0973 13.503 16.0488 13.4788L15.9519 13.4061ZM15.6852 13.9394L15.8792 13.2364L16.0731 13.2849C16.1701 13.3091 16.2185 13.3334 16.2428 13.3334C16.267 13.3576 16.2913 13.3818 16.3398 13.4546C16.364 13.4788 16.364 13.5515 16.3398 13.6C16.3398 13.6243 16.3155 13.6485 16.2913 13.697C16.2913 13.7212 16.267 13.7455 16.1943 13.7455C16.1701 13.7455 16.1701 13.7697 16.1458 13.7697C16.0973 13.7455 16.0488 13.7455 15.9761 13.7212H15.8792L15.8307 13.9879L15.6852 13.9394ZM14.4488 13.7212L14.5701 12.994L15.0791 13.0909V13.2121L14.667 13.1636L14.6428 13.3334L15.0307 13.3818L15.0064 13.503L14.667 13.4546L14.6428 13.6485L15.0307 13.697V13.8424L14.4488 13.7212ZM13.0428 13.5515L13.1397 12.8L13.3822 12.8242L13.4307 13.3334L13.6246 12.8727H13.8185L13.7701 13.6243L13.6246 13.6L13.6731 13.0182L13.4791 13.5758H13.3337L13.2367 12.994L13.1882 13.5515H13.0428V13.5515ZM12.0973 13.4788L12.1458 12.7515L12.6549 12.7758V12.897L12.2428 12.8727V13.0424H12.6307V13.1879L12.2428 13.1636V13.3576L12.6307 13.3818V13.503L12.0973 13.4788ZM11.2246 12.8727V13.3334H11.3458C11.3701 13.3334 11.4428 13.3334 11.4428 13.3334C11.467 13.3334 11.4913 13.3091 11.4913 13.3091C11.5155 13.2848 11.5155 13.2849 11.5398 13.2121C11.5398 13.1879 11.5398 13.1637 11.5398 13.0909C11.5398 13.0182 11.5398 12.9697 11.5155 12.9455C11.5155 12.9212 11.5155 12.897 11.4913 12.897C11.467 12.8727 11.467 12.8727 11.4428 12.8727C11.4185 12.8727 11.3458 12.8727 11.2973 12.8727H11.2246V12.8727ZM11.0791 12.7273H11.3458C11.3943 12.7273 11.467 12.7273 11.4913 12.7515C11.5398 12.7515 11.5882 12.7758 11.6125 12.8C11.6367 12.8242 11.661 12.8485 11.661 12.9212C11.6852 12.9697 11.6852 13.0424 11.6852 13.0909C11.6852 13.1394 11.6852 13.2121 11.661 13.2364C11.661 13.2849 11.6367 13.3576 11.6125 13.3818C11.5882 13.4061 11.564 13.4061 11.4913 13.4303C11.467 13.4303 11.4428 13.4303 11.3701 13.4303L11.0791 13.4546V12.7273ZM10.1822 13.0909H10.3034C10.3519 13.0909 10.4246 13.0909 10.4488 13.0909C10.4488 13.0667 10.4488 13.0667 10.4731 13.0424V13.0182C10.4731 12.9939 10.4731 12.9697 10.4488 12.9212C10.4488 12.9212 10.4246 12.9212 10.4004 12.897C10.4004 12.897 10.3761 12.897 10.3034 12.9212H10.1822V13.0909ZM10.061 13.5273L10.0125 12.8H10.3276C10.4246 12.7758 10.4731 12.7758 10.4973 12.8C10.5216 12.8 10.5458 12.8243 10.5943 12.8485C10.6185 12.8727 10.6185 12.897 10.6428 12.9697C10.6428 13.0182 10.6185 13.0667 10.5943 13.0909C10.5701 13.1394 10.5458 13.1879 10.4488 13.1879C10.4731 13.2121 10.4973 13.2121 10.5458 13.2364C10.5701 13.2606 10.5943 13.2849 10.6428 13.3576L10.764 13.503H10.5943L10.4731 13.3576C10.4246 13.3091 10.3761 13.2606 10.3761 13.2364C10.3519 13.2364 10.3519 13.2364 10.3276 13.2121C10.3276 13.2121 10.3034 13.2121 10.2791 13.2121H10.2549V13.5273H10.061V13.5273ZM9.06702 13.2606C9.06702 13.3576 9.09127 13.4061 9.164 13.4303C9.18824 13.4788 9.26096 13.4788 9.30945 13.4788C9.35793 13.4788 9.43066 13.4546 9.43066 13.3818C9.47914 13.3333 9.47915 13.2606 9.47915 13.1879C9.45491 13.0909 9.43066 13.0424 9.38217 13.0182C9.33369 12.9939 9.28521 12.994 9.21249 12.994C9.18824 12.994 9.11552 13.0182 9.09127 13.0909C9.06703 13.1152 9.04278 13.1636 9.06702 13.2606ZM8.89732 13.2849C8.89732 13.1879 8.89733 13.1394 8.92157 13.0909C8.92157 13.0667 8.94582 13.0424 8.97006 12.994C8.99431 12.9697 8.9943 12.9455 9.06702 12.897C9.09127 12.8727 9.164 12.8727 9.21249 12.8485C9.30946 12.8485 9.40642 12.8727 9.47915 12.9455C9.57612 12.9939 9.60035 13.0909 9.6246 13.2121C9.6246 13.3334 9.62461 13.4061 9.57612 13.503C9.52764 13.5515 9.43066 13.6243 9.30945 13.6243C9.21248 13.6485 9.11551 13.6243 9.04279 13.5758C8.9943 13.4788 8.92157 13.4061 8.89732 13.2849Z" fill="#319341"/>
</g>
<defs>
<clipPath id="clip0_8_98136">
<rect width="31.9757" height="32" fill="white" transform="translate(0.0730896)"/>
</clipPath>
</defs>
</svg>
