<svg width="32" height="32" viewBox="0 0 32 32" fill="none" xmlns="http://www.w3.org/2000/svg">
<g clip-path="url(#clip0_8_97163)">
<path fill-rule="evenodd" clip-rule="evenodd" d="M25.7697 0.024292H27.1758C29.8667 0.169747 32 2.40005 32 5.1152V26.9091C32 29.6001 29.8667 31.8304 27.1758 32.0001H25.7697V0.024292ZM4.82429 0.024292C2.15763 0.169747 0.024292 2.40005 0.024292 5.1152V26.9091C0.024292 29.6001 2.15763 31.8304 4.82429 32.0001H6.27884V0.024292H4.82429Z" fill="#E32129"/>
<path d="M25.794 0H6.27881V32H25.794V0Z" fill="white"/>
<path fill-rule="evenodd" clip-rule="evenodd" d="M15.6849 25.2848L15.8546 20.9454C15.8546 20.9454 15.8546 20.7514 15.5152 20.6787L11.588 21.1393L11.9274 19.9514C11.9274 19.9514 12.0486 19.6363 11.7577 19.3939L7.83038 16.0484L8.70311 15.612C8.70311 15.612 8.99402 15.5636 8.87281 15.1515L8.14553 12.509L10.4001 12.9939C10.4001 12.9939 10.7395 13.1151 10.8607 12.7272L11.1516 11.6605L12.994 13.8424C12.994 13.8424 13.188 14.109 13.4546 13.9878C13.4546 13.9878 13.6971 13.8666 13.5758 13.3575L12.8001 9.04235L13.8667 9.62418C13.8667 9.62418 14.3516 9.93933 14.594 9.50297L16.0486 6.71509L17.5031 9.50297C17.5031 9.50297 17.6243 9.89083 18.0849 9.67265L19.2728 9.04235L18.5213 13.3575C18.5213 13.3575 18.3758 13.8666 18.6425 13.9878C18.6425 13.9878 18.9092 14.1575 19.2243 13.6969L20.9698 11.6605L21.2607 12.7272C21.2607 12.7272 21.3577 13.0666 21.6728 12.9939L23.9516 12.509L23.2486 15.1757C23.2486 15.1757 23.1031 15.5636 23.491 15.6363L24.291 16.0484L20.388 19.3696C20.388 19.3696 20.0486 19.6121 20.194 20.0727L20.5092 21.1393L16.6546 20.6787C16.6546 20.6787 16.3395 20.5817 16.2667 20.9454L16.3637 25.2848H15.6849V25.2848Z" fill="#E32129"/>
</g>
<defs>
<clipPath id="clip0_8_97163">
<rect width="31.9758" height="32" fill="white" transform="translate(0.024292)"/>
</clipPath>
</defs>
</svg>
