<svg width="32" height="32" viewBox="0 0 32 32" fill="none" xmlns="http://www.w3.org/2000/svg">
<g clip-path="url(#clip0_8_97186)">
<path fill-rule="evenodd" clip-rule="evenodd" d="M5.09489 32H26.9054C29.7196 32 32.0001 29.7195 32.0001 26.9052V5.09477C32.0001 2.30478 29.7439 0.0242608 26.9296 0H5.07064C2.28064 0.0242608 0.00012207 2.30478 0.00012207 5.09477V26.9052C0.00012207 29.7195 2.28064 32 5.09489 32Z" fill="#CD282D"/>
<path fill-rule="evenodd" clip-rule="evenodd" d="M4.77954 6.40484L5.82274 3.22668L6.86597 6.40484H10.1897L7.49674 8.4185L8.51571 11.5967L5.82274 9.63154L3.08129 11.5967L4.10023 8.4185L1.40729 6.40484H4.77954Z" fill="#F6E309"/>
<path fill-rule="evenodd" clip-rule="evenodd" d="M12.4702 2.03795L13.6105 2.54742L14.411 1.64978L14.2655 2.88708L15.3815 3.39655L14.1927 3.63915L14.0471 4.85219L13.4406 3.78471L12.2518 4.00307L13.0767 3.10543L12.4702 2.03795Z" fill="#F6E309"/>
<path fill-rule="evenodd" clip-rule="evenodd" d="M16.3761 4.925L17.1768 5.74988L18.2685 5.21612L17.6862 6.2836L18.5353 7.18124L17.3466 6.96292L16.7643 8.03037L16.5945 6.84161L15.4057 6.62326L16.4974 6.0895L16.3276 4.87646L16.3761 4.925Z" fill="#F6E309"/>
<path fill-rule="evenodd" clip-rule="evenodd" d="M16.9584 9.58301L17.3709 10.7475H18.5839L17.6135 11.4754L17.9774 12.6399L16.9584 11.9363L15.988 12.6399L16.3519 11.4754L15.3815 10.7475H16.6188L16.9584 9.58301Z" fill="#F6E309"/>
<path fill-rule="evenodd" clip-rule="evenodd" d="M13.5377 13.8044L14.3383 12.834L14.2655 14.047L15.3815 14.508L14.217 14.7991L14.1199 16.0121L13.4649 15.0175L12.2761 15.3086L13.0525 14.3624L12.4217 13.3192L13.5377 13.8044Z" fill="#F6E309"/>
</g>
<defs>
<clipPath id="clip0_8_97186">
<rect width="32" height="32" fill="white"/>
</clipPath>
</defs>
</svg>
