<svg width="32" height="32" viewBox="0 0 32 32" fill="none" xmlns="http://www.w3.org/2000/svg">
<g clip-path="url(#clip0_8_97203)">
<path fill-rule="evenodd" clip-rule="evenodd" d="M5.09097 32H26.8849C29.697 32 31.9758 29.7212 31.9758 26.9091V16H6.10352e-05V26.9091C6.10352e-05 29.697 2.30309 32 5.09097 32Z" fill="#C8282F"/>
<path fill-rule="evenodd" clip-rule="evenodd" d="M6.10352e-05 16H31.9758V5.11515C31.9758 2.30302 29.7213 0.0242424 26.9092 0H5.06673C2.27885 0.0242424 6.10352e-05 2.30302 6.10352e-05 5.11515V16Z" fill="#FEFEFE"/>
<path fill-rule="evenodd" clip-rule="evenodd" d="M18.2304 16L0.14551 3.92725C0.04854 4.31512 6.10352e-05 4.70301 6.10352e-05 5.11513V26.9091C6.10352e-05 27.3212 0.04854 27.6848 0.14551 28.097L18.2304 16Z" fill="#26457D"/>
</g>
<defs>
<clipPath id="clip0_8_97203">
<rect width="31.9758" height="32" fill="white"/>
</clipPath>
</defs>
</svg>
