<svg width="33" height="32" viewBox="0 0 33 32" fill="none" xmlns="http://www.w3.org/2000/svg">
<g clip-path="url(#clip0_8_97134)">
<path fill-rule="evenodd" clip-rule="evenodd" d="M5.11552 31.9998H26.9579C29.7701 31.9755 32.0246 29.6967 32.0246 26.8846V5.09067C32.0246 2.27854 29.7458 -0.000244141 26.9337 -0.000244141H5.13977C2.32765 -0.000244141 0.0488586 2.27854 0.0488586 5.09067V26.8846C0.0488586 29.6967 2.3034 31.9755 5.11552 31.9998Z" fill="#2D3477"/>
<path fill-rule="evenodd" clip-rule="evenodd" d="M0.170071 4.04824L12.0246 10.7634V-0.000244141H20.4852V10.7634L31.9761 4.31491C32.0246 4.58157 32.0246 4.824 32.0246 5.09067V10.6422L30.4004 11.5634H32.0246V21.0664H30.4004L32.0246 21.9876V26.8846C32.0246 27.3695 31.9761 27.8058 31.8549 28.2422L20.4852 21.8664V31.9998H12.0246V21.8664L0.315519 28.4604C0.145822 27.9755 0.0488586 27.4179 0.0488586 26.8604V22.2543L2.1337 21.0664H0.0488586V11.5634H2.1337L0.0488586 10.3755V5.09067C0.0488586 4.75127 0.0731011 4.38763 0.170071 4.04824Z" fill="#FEFEFE"/>
<path fill-rule="evenodd" clip-rule="evenodd" d="M28.2428 21.0664L32.0246 23.1998V25.3088L24.4367 21.0664H28.2428ZM32.0246 5.67248V7.78157L25.3095 11.5634H21.5276L32.0246 5.67248ZM32.0246 13.4785V19.1755H18.7882V31.9998H13.7216V19.1755H0.0245972V13.4785H13.7216V-0.000244141H18.7882V13.4785H32.0246ZM0.073085 27.5149C0.0488426 27.321 0.0488485 27.1028 0.0488485 26.8846V25.4301L7.80642 21.0664H11.5882L0.073085 27.5149ZM0.0488485 8.84824V6.71491L8.67915 11.5876H4.89733L0.0488485 8.84824Z" fill="#C2283A"/>
</g>
<defs>
<clipPath id="clip0_8_97134">
<rect width="32" height="32" fill="white" transform="translate(0.0245972 -0.000244141)"/>
</clipPath>
</defs>
</svg>
