<svg width="33" height="32" viewBox="0 0 33 32" fill="none" xmlns="http://www.w3.org/2000/svg">
<g clip-path="url(#clip0_8_97198)">
<path fill-rule="evenodd" clip-rule="evenodd" d="M5.18431 32H26.9375C29.7475 32 32.0488 29.7229 32.0488 26.9129V5.13544C32.0488 2.32545 29.7717 0.048394 26.986 0.0241699H5.13587C2.3501 0.048394 0.073033 2.32545 0.073033 5.13544V26.9129C0.0488089 29.6987 2.37431 32 5.18431 32Z" fill="#FEFEFE"/>
<path fill-rule="evenodd" clip-rule="evenodd" d="M12.8391 0H19.2585V12.7661H32.0246V19.2097H19.2585V32H12.8391V19.2097H0.0488281V12.7661H12.8391V0Z" fill="#D5253A"/>
<path fill-rule="evenodd" clip-rule="evenodd" d="M25.3388 3.31873C25.3388 3.31873 26.2351 3.46407 27.5189 3.31873C27.5189 3.31873 27.2767 4.45726 27.2525 5.5958C27.2525 5.5958 28.2457 5.57158 29.5053 5.32934C29.5053 5.32934 29.36 6.56476 29.5053 7.5095C29.5053 7.5095 28.4879 7.31569 27.2525 7.24301C27.2525 7.24301 27.3009 8.62379 27.5189 9.52008C27.5189 9.52008 26.4288 9.37474 25.3388 9.52008C25.3388 9.52008 25.581 8.35732 25.6052 7.24301C25.6052 7.24301 24.4182 7.26726 23.3282 7.5095C23.3282 7.5095 23.4977 6.46787 23.3282 5.32934C23.3282 5.32934 24.5152 5.57157 25.6052 5.5958C25.581 5.5958 25.5568 4.6026 25.3388 3.31873ZM4.60295 22.48C4.60295 22.48 5.52346 22.6495 6.80734 22.48C6.80734 22.48 6.54088 23.6185 6.54088 24.7813C6.54088 24.7813 7.53407 24.7328 8.79372 24.4906C8.79372 24.4906 8.64837 25.726 8.79372 26.695C8.79372 26.695 7.75209 26.4527 6.54088 26.4043C6.54088 26.4043 6.58932 27.785 6.80734 28.6813C6.80734 28.6813 5.66881 28.536 4.60295 28.6813C4.60295 28.6813 4.86942 27.5428 4.89365 26.4043C4.89365 26.4043 3.70666 26.4527 2.61658 26.695C2.61658 26.695 2.78615 25.6291 2.61658 24.4906C2.61658 24.4906 3.77934 24.7328 4.89365 24.7813C4.89365 24.7813 4.8452 23.7881 4.60295 22.48ZM4.60295 3.31873C4.60295 3.31873 5.52346 3.46407 6.80734 3.31873C6.80734 3.31873 6.54088 4.45726 6.54088 5.5958C6.54088 5.5958 7.53407 5.57158 8.79372 5.32934C8.79372 5.32934 8.64837 6.56476 8.79372 7.5095C8.79372 7.5095 7.75209 7.31569 6.54088 7.24301C6.54088 7.24301 6.58932 8.62379 6.80734 9.52008C6.80734 9.52008 5.66881 9.37474 4.60295 9.52008C4.60295 9.52008 4.86942 8.35732 4.89365 7.24301C4.89365 7.24301 3.68244 7.26726 2.61658 7.5095C2.61658 7.5095 2.78615 6.46787 2.61658 5.32934C2.61658 5.32934 3.77934 5.57157 4.89365 5.5958C4.89365 5.5958 4.8452 4.6026 4.60295 3.31873ZM25.3388 22.48C25.3388 22.48 26.2351 22.6495 27.5189 22.48C27.5189 22.48 27.2767 23.6185 27.2525 24.7813C27.2525 24.7813 28.2457 24.7328 29.5053 24.4906C29.5053 24.4906 29.36 25.726 29.5053 26.695C29.5053 26.695 28.4879 26.4527 27.2525 26.4043C27.2525 26.4043 27.3009 27.785 27.5189 28.6813C27.5189 28.6813 26.4288 28.536 25.3388 28.6813C25.3388 28.6813 25.581 27.5428 25.6052 26.4043C25.6052 26.4043 24.4182 26.4527 23.3282 26.695C23.3282 26.695 23.4977 25.6291 23.3282 24.4906C23.3282 24.4906 24.5152 24.7328 25.6052 24.7813C25.581 24.7813 25.5568 23.7881 25.3388 22.48Z" fill="#D5253A"/>
</g>
<defs>
<clipPath id="clip0_8_97198">
<rect width="32" height="32" fill="white" transform="translate(0.0488281)"/>
</clipPath>
</defs>
</svg>
