<svg width="33" height="32" viewBox="0 0 33 32" fill="none" xmlns="http://www.w3.org/2000/svg">
<g clip-path="url(#clip0_8_97206)">
<path fill-rule="evenodd" clip-rule="evenodd" d="M1.21826 3.56093H32.7096C32.0555 1.50188 30.1176 0 27.8405 0H6.06308C3.83446 0 1.89654 1.52611 1.21826 3.56093Z" fill="#1D50B8"/>
<path fill-rule="evenodd" clip-rule="evenodd" d="M1.00006 7.12191H32.9516V5.13555C32.9516 4.5784 32.8547 4.06969 32.7094 3.58521H1.21807C1.07273 4.06969 0.97583 4.60262 0.97583 5.13555V7.12191H1.00006Z" fill="#FEFEFE"/>
<path d="M32.9516 7.12183H1.00006V10.6828H32.9516V7.12183Z" fill="#1D50B8"/>
<path d="M32.9516 10.6829H1.00006V14.2438H32.9516V10.6829Z" fill="#FEFEFE"/>
<path d="M32.9516 14.2438H1.00006V17.8047H32.9516V14.2438Z" fill="#1D50B8"/>
<path d="M32.9516 17.8047H1.00006V21.3414H32.9516V17.8047Z" fill="#FEFEFE"/>
<path d="M32.9516 21.3171H1.00006V24.8781H32.9516V21.3171Z" fill="#1D50B8"/>
<path fill-rule="evenodd" clip-rule="evenodd" d="M1.21808 28.4391H32.7094C32.8547 27.9546 32.9516 27.4217 32.9516 26.913V24.8782H1.00006V26.913C1.00006 27.4217 1.07273 27.9546 1.21808 28.4391Z" fill="#FEFEFE"/>
<path fill-rule="evenodd" clip-rule="evenodd" d="M32.7094 28.4391H1.21808C1.87213 30.4981 3.81006 32 6.08712 32H27.8646C30.1174 32 32.0553 30.4981 32.7094 28.4391Z" fill="#1D50B8"/>
<path fill-rule="evenodd" clip-rule="evenodd" d="M1.00006 17.8048H15.3649V0.024292H6.08712C3.27712 0.024292 1.00006 2.32557 1.00006 5.13557V17.8048Z" fill="#1D50B8"/>
<path fill-rule="evenodd" clip-rule="evenodd" d="M15.3649 7.12186H8.29151V0H6.08712C5.62686 0 5.1666 0.0968786 4.75479 0.193775V7.09764H1.00006V10.6828H4.75479V17.7562H8.29151V10.707H15.3649V7.12186Z" fill="#FEFEFE"/>
</g>
<defs>
<clipPath id="clip0_8_97206">
<rect width="31.9758" height="32" fill="white" transform="translate(0.97583)"/>
</clipPath>
</defs>
</svg>
