<svg width="32" height="32" viewBox="0 0 32 32" fill="none" xmlns="http://www.w3.org/2000/svg">
<g clip-path="url(#clip0_8_98397)">
<rect x="6.10352e-05" width="32" height="32" rx="6" fill="#FF0000"/>
<path d="M-9.37286 32.9697V-0.945435H41.373V32.8851V32.9697H-9.37286ZM41.373 32.8006V32.716V32.8006ZM-9.11913 32.716H41.2884V-0.776284H-9.03455V32.716H-9.11913Z" fill="#231F20"/>
<path d="M41.373 21.6365H-9.20367V32.8851H41.373V21.6365Z" fill="#283890"/>
<path d="M41.373 10.3878H-9.20367V21.6365H41.373V10.3878Z" fill="white"/>
<path d="M41.373 -0.86084H-9.20367V10.3878H41.373V-0.86084Z" fill="#D62027"/>
<path d="M16.0846 23.1588C15.2389 23.0743 14.3086 22.9051 13.7165 22.6514C12.8708 22.3131 12.1096 21.721 11.5175 21.0444C11.1792 20.6215 10.8409 20.1987 10.5872 19.7758C10.3334 19.2683 10.1643 18.6763 10.0797 18.0842V17.6614V17.4922V10.6415V10.3032H10.418H16.0846H21.7513H22.005V10.3878H21.9204H22.005V10.3032H22.0896V10.6415V17.4922V17.6614V18.0842C22.005 18.6763 21.8358 19.2683 21.5821 19.7758C21.3284 20.1987 21.0747 20.7061 20.6518 21.0444C20.0597 21.721 19.2985 22.2285 18.4528 22.6514C17.7762 22.9051 16.9304 23.1588 16.0846 23.1588ZM10.2489 10.7261V17.5768V17.7459V18.1688C10.3335 18.7609 10.5026 19.2683 10.7563 19.7758C11.0101 20.1987 11.2638 20.6215 11.6021 21.0444C12.1941 21.721 12.9553 22.2285 13.7165 22.5668C14.3086 22.8205 15.2389 23.0743 16.0001 23.0743C16.8458 23.0743 17.6916 22.8205 18.3682 22.5668C19.214 22.2285 19.8906 21.6365 20.4826 21.0444C20.8209 20.6215 21.1592 20.1987 21.3284 19.7758C21.5821 19.2683 21.7513 18.7609 21.8358 18.1688V17.7459V17.5768V10.7261V10.5569H21.6667H16.0001H10.3335H10.1643V10.7261H10.2489Z" fill="#D62027"/>
<path d="M16.0847 22.9898C15.2389 22.9898 14.3931 22.736 13.8011 22.4823C12.9553 22.144 12.2787 21.6366 11.6867 20.9599C11.3484 20.5371 11.0101 20.1142 10.8409 19.6913C10.5872 19.1838 10.4181 18.6764 10.3335 18.0843V17.5769V10.7262V10.6416H10.5026H16.1693H21.8359H22.005V10.7262V17.5769V18.0843C21.9205 18.6764 21.7513 19.1838 21.4976 19.6913C21.2438 20.1142 20.9901 20.5371 20.6518 20.9599C20.0598 21.6366 19.3832 22.144 18.5374 22.4823C17.6916 22.736 16.9304 22.9052 16.0847 22.9898Z" fill="#D62027"/>
<path d="M19.3831 10.8107H17.1841V13.1788H19.3831V10.8107Z" fill="white"/>
<path d="M17.0996 13.1788H14.9006V15.547H17.0996V13.1788Z" fill="white"/>
<path d="M21.5821 13.1788H19.3831V15.547H21.5821V13.1788Z" fill="white"/>
<path d="M12.7016 13.1788H10.5026V15.547H12.7016V13.1788Z" fill="white"/>
<path d="M17.0996 17.9998H14.9006V20.3679H17.0996V17.9998Z" fill="white"/>
<path d="M19.3831 20.3679H20.6518C20.8209 20.1142 20.9901 19.8604 21.1592 19.6067C21.413 19.0992 21.5821 18.5918 21.5821 18.0843V17.9998H19.3831V20.3679Z" fill="white"/>
<path d="M12.7016 17.9998H10.5026V18.0843C10.5872 18.5918 10.7564 19.1838 10.9255 19.6067C11.0947 19.8604 11.1792 20.1142 11.433 20.3679H12.7016V17.9998Z" fill="white"/>
<path d="M14.9006 10.8107H12.7016V13.1788H14.9006V10.8107Z" fill="white"/>
<path d="M19.3831 15.547H17.1841V17.9152H19.3831V15.547Z" fill="white"/>
<path d="M14.9006 15.547H12.7016V17.9152H14.9006V15.547Z" fill="white"/>
<path d="M17.1841 20.3678V22.5668C17.607 22.4822 17.9453 22.3976 18.2837 22.2285C18.7065 22.0593 19.0448 21.8056 19.3831 21.5519V20.2832H17.1841V20.3678Z" fill="white"/>
<path d="M12.7016 20.3678V21.6364C13.0399 21.8902 13.4628 22.1439 13.8011 22.313C14.1394 22.4822 14.4777 22.5668 14.9006 22.6514V20.4524H12.7016V20.3678Z" fill="white"/>
<path d="M21.6667 10.7261V17.5768V18.0843C21.5821 18.5917 21.413 19.1838 21.2438 19.6913C20.9901 20.1141 20.7364 20.537 20.3981 20.9599C19.806 21.5519 19.1294 22.144 18.3682 22.4823C17.6916 22.8206 16.8458 22.9052 16.0846 22.9897C15.3235 22.9897 14.4777 22.8206 13.8011 22.4823C13.0399 22.144 12.2787 21.6365 11.7712 20.9599C11.4329 20.6216 11.1792 20.1987 10.9255 19.6913C10.6717 19.1838 10.5026 18.6763 10.5026 18.0843V17.5768V10.7261H16.1692H21.6667ZM21.9204 10.4724H21.6667H16.0001H10.3335H10.0797V10.7261V17.5768V18.0843C10.1643 18.6763 10.3334 19.1838 10.5872 19.7758C10.8409 20.1987 11.0946 20.7062 11.4329 21.0445C12.025 21.7211 12.7862 22.2285 13.5474 22.5668C14.224 22.8206 15.0697 23.0743 15.9155 23.0743C16.7612 22.9897 17.607 22.8206 18.2836 22.5668C19.1294 22.2285 19.8906 21.6365 20.3981 21.0445C20.7364 20.6216 21.0747 20.1987 21.2438 19.7758C21.4975 19.2684 21.6667 18.6763 21.7513 18.0843V17.5768V10.7261V10.4724H21.9204Z" fill="white"/>
<path d="M22.4279 5.22862L22.0896 5.39777C21.8359 5.48234 21.413 5.6515 21.0747 5.82065L20.6518 5.9898L20.4827 6.07438C20.3981 5.9898 20.0598 5.65149 19.806 5.31318L19.3832 4.8903L19.214 4.72115L17.5225 5.73607L15.9155 4.552L14.4777 5.73607L12.7862 4.72115L11.5176 6.24353L9.65687 5.39777L8.64197 7.25845L10.1643 10.3032C11.9404 9.62659 13.9703 9.28828 16.0001 9.28828H16.0847C18.0299 9.28828 20.0598 9.62659 22.005 10.3032L23.5274 7.25845L22.4279 5.22862Z" fill="#D62027"/>
<path d="M10.1643 10.0496C12.025 9.37297 13.9703 9.03467 16.0001 9.03467C17.9454 9.03467 19.9752 9.37297 22.005 10.0496L23.5274 7.0894L22.5125 5.31329L20.6518 6.07449L19.2986 4.63668L17.607 5.65161L16.0847 4.46753L14.6469 5.65161L12.9553 4.63668L11.6867 6.15906L9.82602 5.39788L8.8111 7.17397L10.1643 10.0496Z" fill="white"/>
<path d="M19.214 4.89038C19.6369 5.31326 20.0598 5.82073 20.4826 6.24361L20.3981 6.41276C20.1443 7.3431 19.8906 8.27344 19.5523 9.20379C19.2986 9.11921 18.9603 9.11921 18.7065 9.03464C18.1991 8.95006 17.6916 8.95005 17.1841 8.86547C17.2687 7.85055 17.3533 6.83564 17.4379 5.73615C18.1145 5.48242 18.622 5.22869 19.214 4.89038Z" fill="#3A3F91"/>
<path d="M18.4528 6.32812H18.622H18.7065L18.7911 6.41271H18.9603L19.1294 6.49729L19.2986 6.41271H19.3831V6.49729L19.214 6.58186H19.1294H18.9603H18.8757L19.0448 6.66644L19.1294 6.75101H19.2986H19.5523V6.66644H19.6369V6.75101L19.3831 6.83559H19.1294H18.7911L18.7065 6.75101H18.5374H18.3682L18.0299 6.49729L18.1991 6.41271L18.4528 6.32812Z" fill="#D62027"/>
<path d="M18.4528 6.32812L18.5373 6.49729L18.4528 6.41271V6.32812Z" fill="#8F3A37"/>
<path d="M18.7065 6.58187V6.41272H18.7911L18.7065 6.4973V6.58187Z" fill="#8F3A37"/>
<path d="M18.1145 6.4973L18.1991 6.41272L18.2837 6.4973V6.58187L18.1991 6.4973H18.1145Z" fill="#8F3A37"/>
<path d="M19.1294 6.49731H19.214V6.58188H19.1294V6.49731Z" fill="#8F3A37"/>
<path d="M17.6916 6.58188V6.49731L17.9453 6.58188L18.0299 6.49731L18.3682 6.75103H18.6219L18.5374 6.83562L18.3682 7.00477L18.4528 7.17392H18.5374L18.6219 7.2585H18.7065H18.7911H18.8757L18.9602 7.17392H19.0448H19.1294H19.214H19.2985H19.3831H19.4677H19.5523H19.6369L19.7214 7.08935H19.806V7.17392V7.2585V7.42765V7.51223V7.5968L19.7214 7.68138L19.6369 7.85053L19.7214 7.93511H19.6369V8.01968L19.7214 8.10426V8.18884H19.6369L19.5523 8.35799L19.4677 8.44256V8.52714L19.3831 8.61173L19.214 8.52714L19.2985 8.35799L19.3831 8.27341V8.10426L19.214 8.01968L19.0448 8.18884V8.27341V8.35799H18.9602L18.8757 8.44256L18.7065 8.35799H18.7911V8.27341L18.9602 8.01968H18.7911H18.7065H18.6219L18.5374 8.10426L18.4528 8.18884L18.3682 8.27341V8.44256V8.52714L18.2836 8.61173H18.1991H18.0299L18.1145 8.44256L18.1991 8.35799V8.18884V8.01968H18.1145H18.0299L17.9453 8.18884V8.27341L17.8608 8.35799H17.6916V8.27341L17.7762 8.18884L17.8608 8.01968V7.93511V7.85053V7.68138L17.7762 7.5968H17.8608H17.7762L17.8608 7.51223L18.0299 7.34308H17.9453V7.2585H17.8608L17.9453 7.17392H17.6916V7.08935V7.00477L17.7762 6.9202V6.75103L17.6916 6.66646V6.58188Z" fill="#554C21"/>
<path d="M17.6916 6.58188V6.49731L17.9453 6.66646L18.0299 6.58188L18.3682 6.75103H18.6219L18.5374 6.83562L18.2836 6.9202L18.5374 7.17392L18.6219 7.2585H18.7065H18.7911H18.9602H19.0448L19.1294 7.17392H19.214H19.2985H19.3831H19.4677H19.5523H19.6369L19.7214 7.08935H19.806V7.17392V7.2585V7.34308V7.42765V7.51223L19.6369 7.68138V7.85053L19.7214 7.93511H19.6369V8.01968L19.7214 8.10426V8.18884L19.5523 8.35799H19.4677V8.52714L19.3831 8.61173L19.214 8.52714L19.2985 8.35799L19.3831 8.27341V8.10426L19.214 8.01968L19.0448 8.18884V8.27341L18.9602 8.35799L18.8757 8.44256L18.7911 8.35799V8.27341L18.9602 8.01968H18.8757H18.7911H18.7065H18.6219H18.5374L18.4528 8.18884L18.3682 8.35799V8.52714L18.2836 8.61173H18.1991H18.1145V8.44256L18.1991 8.35799V8.18884V8.01968L18.1145 7.93511L18.0299 8.01968L17.8608 8.27341V8.35799H17.6916V8.27341L17.7762 8.18884L17.8608 8.01968V7.93511V7.85053V7.76596V7.68138V7.5968L17.7762 7.51223H17.8608L18.0299 7.34308H17.9453V7.2585H17.8608L17.9453 7.17392H17.6916V7.08935L17.7762 6.9202V6.75103L17.6916 6.66646V6.58188Z" fill="#F4EB25"/>
<path d="M18.6219 6.49731L18.7065 6.66646L18.6219 6.75103V6.66646V6.49731Z" fill="#8F3A37"/>
<path d="M18.2836 6.58191H18.4528V6.66649L18.3682 6.75106V6.58191H18.2836Z" fill="#8F3A37"/>
<path d="M18.9603 6.6665V6.75107H18.8757L18.9603 6.6665Z" fill="#8F3A37"/>
<path d="M19.1294 6.75098H19.214V6.83556H19.1294L19.214 6.75098H19.1294Z" fill="#8F3A37"/>
<path d="M18.3682 6.83557H18.5373H18.4528L18.3682 6.92015L18.2836 6.83557H18.3682Z" fill="#554C21"/>
<path d="M17.9454 6.83557H18.1145H18.1991L18.1145 6.92015L18.0299 6.83557H17.9454Z" fill="#554C21"/>
<path d="M19.806 7.08936L19.7215 7.25851H19.6369L19.806 7.08936Z" fill="#554C21"/>
<path d="M19.214 7.34302V7.42759L19.2985 7.59674H19.214V7.51217V7.34302Z" fill="#554C21"/>
<path d="M18.0299 7.42761H18.1145V7.59676L18.0299 7.51219V7.42761Z" fill="#554C21"/>
<path d="M18.1991 7.76599L18.2837 7.85056V8.01971V7.93514L18.1991 7.76599Z" fill="#554C21"/>
<path d="M19.2986 7.76599H19.3832V7.93514V8.01971L19.2986 7.85056V7.76599Z" fill="#554C21"/>
<path d="M18.4528 7.42761L18.5373 7.59676H18.4528V7.42761Z" fill="#554C21"/>
<path d="M18.9603 7.34302L19.0448 7.42759V7.51217H18.9603V7.34302Z" fill="#554C21"/>
<path d="M18.7065 7.34302L18.7911 7.51217L18.7065 7.59674V7.42759V7.34302Z" fill="#554C21"/>
<path d="M19.3831 7.51219V7.42761V7.51219L19.4677 7.68134L19.5523 7.76593H19.6369H19.4677V7.68134L19.3831 7.51219Z" fill="#554C21"/>
<path d="M18.9603 7.5968V7.76597L18.8757 7.85053V7.68138L18.9603 7.5968Z" fill="#554C21"/>
<path d="M18.6219 7.5968H18.7065L18.6219 7.85053V7.93512V7.76596V7.5968Z" fill="#554C21"/>
<path d="M17.6916 8.35803L17.8608 8.4426L17.7762 8.52718H17.6071V8.4426L17.6916 8.35803Z" fill="#D62027"/>
<path d="M18.6219 8.4426L18.7065 8.35803L18.8757 8.4426V8.52718H18.7911H18.6219V8.4426Z" fill="#D62027"/>
<path d="M19.1294 8.61168L19.214 8.5271L19.3831 8.61168L19.2985 8.69625H19.1294V8.61168Z" fill="#D62027"/>
<path d="M18.0299 8.69626V8.61169H18.1991V8.69626H18.1145H18.0299Z" fill="#D62027"/>
<path d="M12.8708 4.89038L13.1245 5.05953C13.632 5.31326 14.0548 5.56699 14.5623 5.9053C14.1394 5.9053 13.8011 5.9053 13.3782 5.9053L12.7862 5.98988C12.3633 6.07445 11.9404 6.24361 11.6867 6.41276C11.6021 6.32818 12.4479 5.31326 12.8708 4.89038Z" fill="#3A3F91"/>
<path d="M13.2936 5.82068C13.7165 5.82068 14.0548 5.82068 14.4777 5.82068C14.4777 6.07441 14.5623 6.32813 14.5623 6.58186H14.3931H14.1394H13.5473L12.8707 6.66644C12.617 6.66644 12.4478 6.75102 12.1941 6.83559L11.7712 7.00474L11.6021 6.49729L11.5175 6.32813C11.8558 6.15898 12.2787 5.98982 12.617 5.90525L13.2936 5.82068Z" fill="#D62027"/>
<path d="M14.1394 6.58191H14.3931H14.5623V6.66649L14.6468 7.25852C14.1394 7.25852 13.6319 7.25853 13.2091 7.34311C12.7862 7.42768 12.4479 7.51225 12.025 7.59682L12.1941 8.18887C12.1096 7.76599 11.9404 7.3431 11.8558 7.00479L12.2787 6.83564C12.5324 6.75106 12.7016 6.75107 12.9553 6.66649L13.6319 6.58191H14.1394Z" fill="#3A3F91"/>
<path d="M13.2091 7.42759C13.7165 7.34301 14.224 7.34302 14.6469 7.34302C14.6469 7.59675 14.7315 7.85047 14.7315 8.1042C14.3931 8.1042 13.9703 8.18878 13.632 8.18878C13.1245 8.27336 12.7016 8.35792 12.2787 8.4425L12.1942 8.18878L12.025 7.59674C12.3633 7.51216 12.7862 7.42759 13.2091 7.42759Z" fill="#D62027"/>
<path d="M13.632 8.27341C13.9703 8.18884 14.3931 8.18884 14.7314 8.18884C14.7314 8.44257 14.816 8.6963 14.816 8.95003C14.3086 8.95003 13.8011 9.0346 13.2937 9.11918C13.0399 9.20375 12.7016 9.20375 12.4479 9.28833C12.3633 8.95002 12.2787 8.61172 12.1942 8.27341L12.2787 8.52714C12.7016 8.35799 13.1245 8.27341 13.632 8.27341Z" fill="#3A3F91"/>
<path d="M9.74139 5.4823C10.3334 5.73603 11.0101 5.98976 11.6021 6.32806C11.8558 7.34298 12.1095 8.27332 12.3633 9.28824C12.1095 9.37282 11.8558 9.37283 11.6866 9.4574C11.4329 9.54198 11.1792 9.62655 11.01 9.71112C10.7563 9.7957 10.5026 9.88028 10.2489 9.96485C9.82598 9.03451 9.31851 8.10417 8.89563 7.17383C9.14936 6.58179 9.40309 6.07433 9.74139 5.4823Z" fill="#4973B8"/>
<path d="M11.6021 7.76598L11.6867 7.6814L11.6021 8.18886L11.4329 8.61174L11.1792 8.78089H11.0946L10.418 8.86546L9.99513 8.61174L9.82599 8.35801L10.418 8.44258L10.9255 8.35801L11.3484 8.10428L11.6021 7.76598Z" fill="white"/>
<path d="M10.6718 6.41271L10.5872 6.75101L10.9255 7.00474L10.5872 7.08932L10.5026 7.42762L10.2489 7.25847L9.91059 7.42762V7.08932L9.57227 6.83559L9.99515 6.66644V6.32812L10.3335 6.49729L10.6718 6.41271Z" fill="#FEC610"/>
<path d="M10.6718 6.41272L10.5872 6.75102L10.2489 6.92018L10.6718 6.41272Z" fill="#F3EA24"/>
<path d="M9.99512 6.32812L10.2489 6.49729V6.92017L9.99512 6.32812Z" fill="#F3EA24"/>
<path d="M9.91058 7.42762L10.1643 7.25847L10.2489 6.92017L9.91058 7.42762Z" fill="#F3EA24"/>
<path d="M9.65686 6.83557L9.91061 7.00472L10.2489 6.92015L9.65686 6.83557Z" fill="#F3EA24"/>
<path d="M10.8409 7.00473L10.5872 7.08932L10.5026 7.42762L10.2489 6.92017L10.8409 7.00473Z" fill="#F3EA24"/>
<path d="M16.0001 4.72119C16.5076 5.0595 17.015 5.48238 17.5225 5.82069C17.4379 6.83561 17.3533 7.85052 17.2687 8.86543H17.1842C16.8459 8.86543 16.5922 8.86543 16.2538 8.86543C15.7464 8.86543 15.3235 8.86543 14.816 8.86543C14.7315 7.85052 14.6469 6.8356 14.5623 5.73611C14.9852 5.48238 15.4926 5.0595 16.0001 4.72119Z" fill="#4973B8"/>
<path d="M15.3235 5.98987L15.4081 6.07445V6.15902H15.4926V6.07445H15.5772V5.98987H15.6618L15.7464 6.07445L15.6618 6.15902V6.2436V6.32817L15.7464 6.41275L15.831 6.5819V6.66648H15.9155V6.75105H15.831V6.92021H15.7464V7.00478H15.5772V7.08936V7.17393H15.3235H15.2389H15.0697V7.08936L14.9852 7.00478H14.9006V6.92021H14.816V6.83563H14.7314L14.816 6.75105L14.7314 6.66648L14.816 6.49733H14.9006V6.32817H14.9852V6.2436L14.9006 6.15902V6.07445H14.9852H15.0697V6.15902H15.1543V6.07445L15.3235 5.98987Z" fill="#554C21"/>
<path d="M15.2389 6.07445L15.3235 5.98987V6.07445H15.408V6.15902H15.3235V6.07445H15.2389V6.15902H15.1543V6.07445H15.2389Z" fill="#F3EA28"/>
<path d="M15.4926 6.15891L15.6618 6.07434L15.5772 6.15891V6.24349V6.32806H15.4926H15.1543H15.0697H14.9852V6.24349L14.9006 6.15891V6.07434L14.9852 6.15891H15.0697V6.24349L15.2389 6.15891H15.408H15.4926Z" fill="#F3EA28"/>
<path d="M15.1543 6.32812H15.408H15.4926L15.5772 6.41271V6.49729H15.4926H15.3234V6.41271L15.408 6.32812H15.2389V6.41271H15.3234V6.49729H15.0697V6.41271L15.1543 6.32812Z" fill="#F3EA28"/>
<path d="M15.4926 6.58188L15.5772 6.49731V6.66646H15.4926V6.83562H15.3234L15.408 6.75103H15.3234H15.2389H15.3234V6.83562L15.2389 6.9202V6.83562L15.1543 6.75103L15.0697 6.66646V6.49731V6.58188L15.1543 6.66646H15.2389L15.3234 6.58188L15.408 6.66646H15.4926V6.58188Z" fill="#F3EA28"/>
<path d="M15.7464 6.6665H15.831L15.9155 6.75107H15.831V6.6665H15.7464L15.831 6.75107V6.92024H15.7464V6.83565V6.92024V7.0048H15.6618V6.92024V6.75107L15.7464 6.6665Z" fill="#F3EA28"/>
<path d="M14.816 6.6665H14.9006V6.83565L14.816 6.92024V6.83565V6.75107V6.6665Z" fill="#F3EA28"/>
<path d="M14.9006 6.92015L14.9852 6.83557V7.00472H14.9006V6.92015Z" fill="#F3EA28"/>
<path d="M15.2389 6.92015L15.3235 6.83557L15.4926 6.92015H15.4081V7.00472H15.3235H15.2389V6.92015Z" fill="#F3EA28"/>
<path d="M15.4926 7.00473L15.5772 6.92017L15.6618 7.00473H15.5772V7.08932H15.4926V7.00473Z" fill="#F3EA28"/>
<path d="M15.0697 7.00473L15.1543 6.92017V7.08932L15.0697 7.00473Z" fill="#F3EA28"/>
<path d="M15.4081 7.08936L15.4926 7.17392H15.3235L15.4081 7.08936Z" fill="#F3EA28"/>
<path d="M15.2389 7.08936H15.3235V7.17392H15.2389V7.08936Z" fill="#F3EA28"/>
<path d="M16.6767 5.98987L16.7613 6.07445V6.15902H16.8458V6.07445H16.9304V5.98987H17.015L17.0996 6.07445L17.015 6.15902V6.2436V6.32817L17.0996 6.41275L17.1841 6.5819V6.66648H17.2687V6.75105H17.1841V6.92021H17.0996V7.00478H16.9304V7.08936V7.17393H16.6767H16.5921H16.423V7.08936L16.3384 7.00478H16.2538V6.92021H16.1692V6.83563H16.0847L16.1692 6.75105L16.0847 6.66648L16.1692 6.49733H16.2538V6.32817H16.3384V6.2436L16.2538 6.15902V6.07445H16.3384H16.423V6.15902H16.5075V6.07445L16.6767 5.98987Z" fill="#554C21"/>
<path d="M16.5921 6.07445L16.6767 5.98987V6.07445H16.7613V6.15902H16.6767V6.07445H16.5921V6.15902H16.5076V6.07445H16.5921Z" fill="#F3EA28"/>
<path d="M16.8459 6.15891L17.015 6.07434L16.9304 6.15891V6.24349V6.32806H16.8459H16.5076H16.423H16.3384V6.24349L16.2538 6.15891V6.07434L16.423 6.15891L16.5076 6.24349L16.5921 6.15891H16.7613H16.8459Z" fill="#F3EA28"/>
<path d="M16.5076 6.32812H16.7613H16.8459L16.9304 6.41271V6.49729H16.8459H16.6767V6.41271L16.7613 6.32812H16.5921V6.41271H16.6767V6.49729H16.423V6.41271L16.5076 6.32812Z" fill="#F3EA28"/>
<path d="M16.8459 6.58188L16.9304 6.49731V6.66646H16.8459V6.83562H16.6767L16.7613 6.75103H16.6767H16.5921H16.6767V6.83562L16.5921 6.9202V6.83562L16.5076 6.75103L16.423 6.66646V6.49731V6.58188L16.5076 6.66646H16.5921L16.6767 6.58188L16.7613 6.66646H16.8459V6.58188Z" fill="#F3EA28"/>
<path d="M17.0996 6.6665H17.1842L17.2687 6.75107H17.1842V6.6665H17.0996L17.1842 6.75107V6.92024H17.0996V6.83565V6.92024V7.0048H17.015V6.92024V6.75107L17.0996 6.6665Z" fill="#F3EA28"/>
<path d="M16.1693 6.6665H16.2538V6.83565L16.1693 6.92024V6.83565L16.2538 6.75107L16.1693 6.6665Z" fill="#F3EA28"/>
<path d="M16.2538 6.92015L16.3384 6.83557V7.00472H16.2538V6.92015Z" fill="#F3EA28"/>
<path d="M16.5921 6.92015L16.6767 6.83557L16.8458 6.92015H16.7612V7.00472H16.6767H16.5921V6.92015Z" fill="#F3EA28"/>
<path d="M16.8458 7.00473L16.9304 6.92017L17.015 7.00473H16.9304V7.08932H16.8458V7.00473Z" fill="#F3EA28"/>
<path d="M16.423 7.00473L16.5076 6.92017V7.08932L16.423 7.00473Z" fill="#F3EA28"/>
<path d="M16.7613 7.08936L16.8458 7.17392H16.6767L16.7613 7.08936Z" fill="#F3EA28"/>
<path d="M16.5921 7.08936H16.6767V7.17392H16.5921V7.08936Z" fill="#F3EA28"/>
<path d="M16.0001 7.17383L16.0847 7.25841V7.34299H16.1693V7.25841H16.2538V7.17383H16.3384L16.423 7.25841L16.3384 7.34299V7.42756V7.51214L16.423 7.59671L16.5076 7.76587V7.85044H16.5921V7.93502H16.5076V8.10417H16.423V8.18876H16.2538V8.27332V8.35791H16.0001H15.9155H15.7464V8.27332L15.6618 8.18876H15.5772V8.10417H15.4926V8.01959H15.4081L15.4926 7.85044H15.4081L15.4926 7.68129H15.5772V7.51214H15.6618V7.42756L15.5772 7.34299V7.25841H15.6618H15.7464V7.34299H15.831V7.25841L16.0001 7.17383Z" fill="#554C21"/>
<path d="M15.9155 7.25841L16.0001 7.17383V7.25841H16.0847V7.34299H16.0001V7.25841H15.9155V7.34299H15.8309V7.25841H15.9155Z" fill="#F3EA28"/>
<path d="M16.1693 7.34313L16.3384 7.25854L16.2538 7.34313V7.4277V7.51228H16.1693H15.831H15.7464H15.6618V7.4277L15.5772 7.34313V7.25854L15.7464 7.34313L15.831 7.4277L15.9155 7.34313H16.0847H16.1693Z" fill="#F3EA28"/>
<path d="M15.8309 7.51221H16.0846H16.1692L16.2538 7.59678V7.68136H16.1692H16.0001V7.59678L16.0846 7.51221H15.9155V7.59678H16.0001V7.68136H15.7463V7.59678L15.8309 7.51221Z" fill="#F3EA28"/>
<path d="M16.1692 7.76598L16.2538 7.6814V7.85055H16.1692V8.0197H16.0001V7.93513H16.0846H16.0001H15.9155H16.0001V8.0197H15.9155L15.8309 7.93513L15.7463 7.85055V7.76598V7.6814V7.76598L15.8309 7.85055H15.9155L16.0001 7.76598L16.0846 7.85055H16.1692V7.76598Z" fill="#F3EA28"/>
<path d="M16.423 7.85056L16.5075 7.76599V7.85056L16.5921 7.93514H16.5075V7.85056H16.423L16.5075 7.93514V8.01971H16.423V8.10429V8.18887H16.3384V8.10429V7.93514L16.423 7.85056Z" fill="#F3EA28"/>
<path d="M15.4926 7.85059H15.5772V7.93517L15.4926 8.10432V8.01974L15.5772 7.93517L15.4926 7.85059Z" fill="#F3EA28"/>
<path d="M15.5772 8.10423L15.6618 8.01965V8.18882H15.5772V8.10423Z" fill="#F3EA28"/>
<path d="M15.9155 8.10423L16 8.01965L16.1692 8.10423H16.0846V8.18882H16L15.9155 8.10423Z" fill="#F3EA28"/>
<path d="M16.1693 8.18883L16.2538 8.10425L16.3384 8.18883H16.2538V8.2734H16.1693V8.18883Z" fill="#F3EA28"/>
<path d="M15.7463 8.10425H15.8309V8.2734L15.7463 8.18883V8.10425Z" fill="#F3EA28"/>
<path d="M16.0846 8.27344L16.1692 8.35802H16.0001L16.0846 8.27344Z" fill="#F3EA28"/>
<path d="M15.9155 8.27344H16V8.35802H15.9155V8.27344Z" fill="#F3EA28"/>
<path d="M15.9155 7.76598H15.8309V7.6814L15.9155 7.76598Z" fill="#F3EA28"/>
<path d="M16.1692 7.76598H16.0847V7.6814L16.1692 7.76598Z" fill="#F3EA28"/>
<path d="M20.0598 7.5968C20.3981 7.68138 20.6518 7.76596 20.9901 7.85053C21.3284 7.93511 21.6667 8.10427 22.005 8.18885L22.5125 8.358L22.2587 8.86545L22.0896 9.20376C21.6667 9.03461 21.3284 8.86546 20.9055 8.78088C20.5672 8.6963 20.1443 8.52714 19.806 8.44257H19.7214L19.806 8.18885L20.0598 7.5968Z" fill="#D62027"/>
<path d="M19.7214 8.78082L19.806 8.4425C19.806 8.4425 20.4826 8.52709 21.0747 8.78082C21.6667 8.94997 22.1742 9.2037 22.1742 9.2037L22.005 9.542L19.7214 8.78082Z" fill="white"/>
<path d="M20.0598 7.59685L20.1443 7.25854C20.1443 7.25854 20.8209 7.34312 21.413 7.59685C22.005 7.766 22.6816 8.10431 22.6816 8.10431L22.5125 8.44261L20.0598 7.59685Z" fill="white"/>
<path d="M20.4826 6.2435C20.4826 6.2435 21.6667 5.73603 22.2587 5.4823C22.597 5.98976 22.8508 6.49722 23.1891 7.00468L23.2736 7.08926V7.17383C23.1045 7.42756 23.0199 7.76587 22.8508 8.10418C22.5125 7.93502 22.1742 7.85045 21.7513 7.68129C21.2438 7.51214 20.7363 7.34299 20.2289 7.25841L20.4826 6.2435Z" fill="#4973B8"/>
<path d="M19.806 8.78088C19.806 8.78088 20.3981 8.95004 20.6518 9.03462L21.2438 9.20377C21.5821 9.28834 22.0896 9.54207 22.0896 9.54207C22.0896 9.54207 22.005 9.62664 21.9204 9.96495L21.6667 9.88038C21.3284 9.7958 21.0747 9.62664 20.7364 9.54207C20.3981 9.45749 20.0597 9.37291 19.7214 9.28833L19.806 8.78088Z" fill="#4973B8"/>
<path d="M22.005 6.24353L22.0896 6.58183L22.4279 6.66641L22.1742 6.92014L22.2587 7.25845L21.9204 7.17386L21.6667 7.4276L21.5821 7.08929L21.1592 6.92014L21.4975 6.66641L21.413 6.3281L21.7513 6.41268L22.005 6.24353Z" fill="#FEC610"/>
<path d="M22.005 6.24353L22.0896 6.58183L21.8359 6.83556L22.005 6.24353Z" fill="#F3EA24"/>
<path d="M21.413 6.32812L21.7513 6.41271L21.8358 6.83559L21.413 6.32812Z" fill="#F3EA24"/>
<path d="M21.6667 7.4276L21.9204 7.17387L21.8358 6.83557L21.6667 7.4276Z" fill="#F3EA24"/>
<path d="M21.2438 6.92015L21.4976 7.00472L21.8359 6.83557L21.2438 6.92015Z" fill="#F3EA24"/>
<path d="M22.4279 6.6665L22.1742 6.92024V7.25854L21.8359 6.83565L22.4279 6.6665Z" fill="#F3EA24"/>
<path d="M20.3135 7.85059H20.5672V8.01974H20.6518L20.8209 8.10432H20.9055L21.3284 8.1889L21.5821 8.27347L21.6667 8.35805H21.7513L22.2587 8.44262L22.3433 8.5272L22.2587 8.61178H22.0896H21.9204L21.7513 8.5272V8.61178L21.9204 8.69635V8.95008V9.03466L21.8358 8.95008V8.78093L21.7513 8.69635H21.5821L21.4975 8.61178L21.413 8.69635H21.3284H21.2438H21.0747V8.61178H21.1592H21.2438H21.3284V8.5272H21.0747L20.9055 8.44262H20.8209H20.4826H20.3981H20.3135H20.2289L20.4826 8.35805V8.27347H20.3135H20.2289H20.0598V8.1889H20.1443L20.3135 8.27347L20.3981 8.1889V8.10432H20.2289L20.1443 8.01974L20.2289 7.93517L20.3135 7.85059Z" fill="#301610"/>
<path d="M20.3135 7.93506H20.4826V8.01963L20.6518 8.10421H20.8209L20.9055 8.18879H21.3284H21.4975L21.6667 8.35794L22.3433 8.52709V8.61167H22.1742H21.9204L21.7513 8.52709V8.61167L21.9204 8.78082V8.86539V8.94997H21.8358V8.78082L21.7513 8.69624L21.5821 8.61167H21.4975L21.413 8.69624H21.3284L21.0747 8.61167H21.1592H21.3284V8.52709H21.4975L21.413 8.44251L21.3284 8.35794H21.2438H20.8209V8.44251H20.6518H20.4826H20.3981H20.3135H20.2289L20.3981 8.35794H20.4826V8.27336H20.3981H20.2289H20.1443L20.0598 8.18879L20.2289 8.27336H20.3135L20.3981 8.18879V8.10421H20.2289L20.1443 8.01963L20.2289 7.93506H20.3135Z" fill="#502E19"/>
<path d="M20.8209 8.35803H21.2438H21.4129L21.4975 8.52718H21.3284H21.0746L20.8209 8.4426V8.35803Z" fill="white"/>
</g>
<defs>
<clipPath id="clip0_8_98397">
<rect x="6.10352e-05" width="32" height="32" rx="6" fill="white"/>
</clipPath>
</defs>
</svg>
