<svg width="32" height="32" viewBox="0 0 32 32" fill="none" xmlns="http://www.w3.org/2000/svg">
<g clip-path="url(#clip0_8_97199)">
<path fill-rule="evenodd" clip-rule="evenodd" d="M0 10.6505H32V5.09477C32 2.30478 29.7438 0 26.9295 0H5.0705C2.25625 0 0 2.30478 0 5.09477V10.6505Z" fill="#EF9A38"/>
<path d="M32 10.6505H0V21.3253H32V10.6505Z" fill="#FEFEFE"/>
<path fill-rule="evenodd" clip-rule="evenodd" d="M5.09477 32H26.9052C29.7195 32 32 29.7195 32 26.9052V21.3495H0V26.9052C0 29.6952 2.28052 32 5.09477 32Z" fill="#348B40"/>
<path fill-rule="evenodd" clip-rule="evenodd" d="M12.9553 12.931L14.7263 14.5322L15.624 15.5754L14.5565 14.7021C14.5322 14.7021 13.1008 13.1008 12.9553 12.931C12.8582 13.0281 12.7854 13.1008 12.6884 13.1979C12.7369 13.2221 12.7854 13.2949 12.7854 13.3434C12.7854 13.4647 12.6884 13.5375 12.5914 13.5375C12.5428 13.5375 12.4943 13.5133 12.47 13.5133C12.373 13.6103 12.3245 13.7073 12.276 13.8286L14.4109 14.8961L15.5026 15.6725L14.2654 15.1145C14.2654 15.1145 12.47 13.9257 12.276 13.8044C12.2274 13.9014 12.1547 13.9985 12.1061 14.1198C12.2032 14.1441 12.2274 14.2168 12.2274 14.2896C12.2274 14.4109 12.1304 14.4837 12.0334 14.4837C12.0091 14.4837 12.0091 14.4837 11.9848 14.4837C11.9363 14.605 11.8878 14.7263 11.8635 14.8234L14.2168 15.3086L15.5026 15.7695L14.1683 15.5269C14.1683 15.5269 12.0819 14.8961 11.8878 14.7991C11.8635 14.9204 11.8393 15.0417 11.7907 15.1387C11.9121 15.163 11.9606 15.2601 11.9606 15.3328C11.9606 15.4541 11.8635 15.5269 11.7665 15.5269C11.7422 15.6482 11.7422 15.7695 11.7422 15.9151L14.144 15.7695L15.4784 15.9151L14.144 16.0364C14.144 16.0364 11.9606 15.9151 11.7422 15.9151C11.7422 16.0364 11.7422 16.1577 11.7665 16.2547C11.8878 16.2547 11.9606 16.3518 11.9606 16.4488C11.9606 16.5459 11.9121 16.6187 11.7907 16.6429C11.815 16.7642 11.8393 16.8855 11.8878 16.9826L14.1683 16.2547L15.5026 15.9879L14.2168 16.4731H14.144V16.4973H14.1198H14.0955H14.0713H14.047H14.0227L13.9985 16.5216H13.9742H13.9014H13.8772L13.8529 16.5459H13.8287H13.8044H13.7801L13.7316 16.5701H13.7074H13.6588H13.6346L13.5861 16.5944H13.5618H13.5375L13.5133 16.6186H13.4162H13.392H13.3434V16.6429H13.3192H13.2949H13.2707H13.2464L13.2221 16.6672H13.1979H13.1736H13.1494H13.1008V16.6914H13.0523H12.931L12.834 16.7157H12.8097L12.7854 16.7399H12.7369L12.6156 16.7642H12.4943V16.7885H12.3973H12.373V16.8127H12.2517V16.837H12.2274H12.2032H12.1789H12.1547H12.1061L12.0819 16.8612H12.0334L11.9848 16.8855H11.9363H11.9121H11.8878V16.9098C11.9121 17.0311 11.9363 17.1524 12.0091 17.2252C12.0334 17.2252 12.0334 17.2252 12.0576 17.2252C12.1789 17.2252 12.2517 17.3222 12.2517 17.4193C12.2517 17.5163 12.2274 17.5648 12.1304 17.5891C12.1789 17.7104 12.2517 17.8317 12.3002 17.9287L14.2896 16.5944L15.5269 16.0121L14.4352 16.8127C14.4352 16.8127 12.5186 17.8074 12.3002 17.9045C12.3488 18.0015 12.4215 18.0985 12.4943 18.1956C12.5186 18.1956 12.5428 18.1713 12.6156 18.1713C12.7369 18.1713 12.8097 18.2684 12.8097 18.3654C12.8097 18.414 12.7854 18.4867 12.7127 18.511C12.8097 18.608 12.8825 18.6808 12.9795 18.7779L14.5807 17.0068L15.624 16.1334L14.7506 17.1766C14.7506 17.1766 13.1494 18.6323 12.9795 18.7779C13.0766 18.8749 13.1494 18.9477 13.2464 19.0447C13.2707 19.0205 13.3434 18.9962 13.3677 18.9962C13.489 18.9962 13.5618 19.0933 13.5618 19.1903C13.5618 19.2146 13.5618 19.2388 13.5375 19.2873C13.6588 19.3844 13.7801 19.4329 13.8772 19.4814L14.9447 17.3465L15.721 16.2547L15.163 17.4921C15.163 17.4921 13.9985 19.2873 13.8529 19.4814C13.95 19.5299 14.047 19.6027 14.1683 19.6512C14.1926 19.6027 14.2653 19.5299 14.3381 19.5299C14.4594 19.5299 14.5322 19.627 14.5322 19.724C14.5322 19.7483 14.5322 19.7725 14.508 19.7725C14.6293 19.8211 14.7748 19.8696 14.8961 19.8938L15.3813 17.5406L15.8423 16.2547L15.5997 17.5891C15.5997 17.5891 14.9689 19.6755 14.8719 19.8696C14.9932 19.8939 15.1145 19.9181 15.2115 19.9666C15.2358 19.8696 15.3086 19.7968 15.4056 19.7968C15.5027 19.7968 15.5754 19.8939 15.5754 19.9909C15.5754 19.9909 15.5754 19.9909 15.5754 20.0152C15.721 20.0152 15.8423 20.0152 15.9636 20.0152C15.9636 19.7725 15.8423 17.6376 15.8423 17.6376L15.9879 16.2547L16.1092 17.6376L15.9879 20.0152C16.1092 20.0152 16.2305 20.0152 16.3275 20.0152C16.3275 19.9909 16.3275 19.9909 16.3275 19.9909C16.3275 19.8696 16.4246 19.7968 16.5216 19.7968C16.6186 19.7968 16.6914 19.8939 16.7157 19.9666C16.837 19.9424 16.9583 19.9181 17.0553 19.8696V19.8453L17.0311 19.8211V19.7968V19.7725H17.0553V19.7483V19.724V19.6998H17.0311V19.6512V19.627L17.0068 19.6027V19.5542L16.9826 19.5299V19.5057V19.4814L16.9583 19.4572V19.4329V19.4086L16.934 19.3844V19.3601V19.3359L16.9098 19.3116V19.2873V19.2631L16.8855 19.2388V19.1903L16.8613 19.166V19.1418V19.1175V19.0933L16.837 19.069V19.0205L16.8127 18.972L16.7885 18.9234V18.8992V18.8749L16.7642 18.8507V18.8264V18.8021L16.74 18.7536V18.7293L16.7157 18.7051V18.6808V18.6566L16.6914 18.6323V18.608V18.5838V18.5595L16.6672 18.5352V18.511V18.4867H16.5701V18.4625V18.4382L16.5459 18.4139V18.3654L16.5216 18.3412V18.2926V18.2684L16.4973 18.2441V18.2199V18.1956L16.4731 18.1713V18.1471V18.1228H16.4488V18.0986V18.0743V18.05V18.0258H16.4246V18.0015V17.9773V17.953L16.182 16.6186L16.6429 17.9045L17.1281 20.2578C17.2494 20.2335 17.3707 20.2092 17.4678 20.1365C17.4678 20.1365 17.4678 20.1122 17.4678 20.0879C17.4678 19.9666 17.5648 19.8938 17.6619 19.8938C17.7104 19.8938 17.8074 19.9424 17.8317 20.0152C17.953 19.9666 18.0258 19.8939 18.1471 19.8453C18.0015 19.6513 16.837 17.856 16.837 17.856L16.279 16.6186L17.0553 17.7104L18.1228 19.8453C18.2441 19.7968 18.3654 19.724 18.4382 19.6512C18.4382 19.627 18.4382 19.6027 18.4382 19.5542C18.4382 19.4329 18.5353 19.3601 18.6323 19.3601C18.6566 19.3601 18.7293 19.3844 18.7536 19.4086C18.8506 19.3116 18.9234 19.2388 19.0205 19.1418C18.8506 18.9962 17.2494 17.5406 17.2494 17.5406L16.376 16.4973L17.4193 17.3707L19.0205 19.1418C19.1175 19.0932 19.1903 18.9719 19.2873 18.8749C19.2388 18.8506 19.1903 18.7779 19.1903 18.7293C19.1903 18.608 19.2873 18.5352 19.3844 18.5352C19.4086 18.5352 19.4814 18.5595 19.5057 18.5838C19.5542 18.4625 19.6513 18.3412 19.6998 18.2684C19.4572 18.1471 17.5648 17.1766 17.5648 17.1766L16.4731 16.376L17.7104 16.9583L19.6998 18.2926C19.7483 18.1713 19.8211 18.05 19.8696 17.953C19.7726 17.9287 19.7483 17.856 19.7483 17.7832C19.7483 17.6619 19.8453 17.5891 19.9181 17.5891C19.9424 17.5891 19.9666 17.5891 20.0152 17.6134C20.0394 17.4921 20.1122 17.3707 20.1365 17.2737C19.8939 17.2252 17.7832 16.7642 17.7832 16.7642L16.4973 16.279L17.8317 16.5459L20.1122 17.2737C20.1365 17.1524 20.1607 17.0311 20.1607 16.934C20.0637 16.9098 20.0152 16.837 20.0152 16.7399C20.0152 16.6186 20.1122 16.5459 20.185 16.5459C20.2093 16.5459 20.2093 16.5459 20.2093 16.5459C20.2335 16.4246 20.2335 16.3033 20.2335 16.2062C19.9909 16.2062 17.8317 16.3275 17.8317 16.3275L16.4731 16.2062L17.8317 16.0607L20.2335 16.2062C20.2335 16.0607 20.2335 15.9394 20.2093 15.818C20.2093 15.818 20.2093 15.818 20.185 15.818C20.088 15.818 20.0152 15.721 20.0152 15.624C20.0152 15.5026 20.0637 15.4541 20.1607 15.4299C20.1607 15.3086 20.1365 15.1873 20.1122 15.0902H20.0879L20.0637 15.1145H20.0394H20.0152H19.9909L19.9666 15.1387H19.9424L19.9181 15.163H19.8939H19.8696H19.8453L19.8211 15.1873H19.7968L19.7726 15.2115H19.7483H19.724L19.6998 15.2358H19.6755H19.6513L19.627 15.26H19.6027H19.5785H19.5542L19.5057 15.2843H19.4814L19.4572 15.3086H19.4329L19.3844 15.3328H19.3359L19.3116 15.3571H19.2873H19.2631H19.2388L19.2146 15.3813L19.166 15.4056H19.1418H18.9962L18.972 15.4299H18.9477H18.9234H18.8992L18.8749 15.4541H18.8507L18.8264 15.4784H18.8021H18.7779H18.7536L18.7293 15.5026H18.7051H18.6808V15.5269H18.6566H18.6323H18.608L18.5595 15.5512H18.511V15.5754H18.4867L18.4382 15.5997H18.4139H18.2684L18.2199 15.624H18.1956L18.1713 15.6482H18.1471H18.1228H18.0986V15.6725H18.0743H18.0258L18.0015 15.6967H17.9773H17.953H17.9287L16.5944 15.9394L17.8802 15.4784L20.2335 14.9932C20.2092 14.8719 20.1365 14.7506 20.1122 14.6535C20.0879 14.6535 20.0637 14.6535 20.0152 14.6535C19.9181 14.6535 19.8453 14.5565 19.8453 14.4595C19.8453 14.3624 19.8696 14.3139 19.9666 14.2896C19.9181 14.1683 19.8453 14.047 19.7968 13.9742C19.6027 14.0955 17.7589 15.2843 17.7589 15.2843L16.5459 15.8423L17.6376 15.066L19.7726 13.9985C19.724 13.8772 19.627 13.7559 19.5785 13.6831C19.5542 13.6831 19.4814 13.7073 19.4572 13.7073C19.3359 13.7073 19.2631 13.6103 19.2631 13.5133C19.2631 13.4648 19.2873 13.392 19.3601 13.3677C19.2631 13.2707 19.1903 13.1979 19.0933 13.1008C18.9477 13.2706 17.492 14.8719 17.492 14.8719L16.4488 15.7453L17.3222 14.7021L19.0933 13.1008C18.9962 13.0038 18.9234 12.931 18.8264 12.834C18.8021 12.8582 18.7293 12.8825 18.7051 12.8825C18.5838 12.8825 18.511 12.7854 18.511 12.6884C18.511 12.6641 18.511 12.6399 18.511 12.5914C18.414 12.4943 18.3169 12.4458 18.1956 12.3973C18.0986 12.6399 17.1281 14.5322 17.1281 14.5322L16.3275 15.624L16.9098 14.3867L18.2199 12.3973C18.1228 12.3488 18.0258 12.276 17.9045 12.2274C17.8802 12.3245 17.7832 12.3487 17.7346 12.3487C17.6133 12.3487 17.5406 12.2517 17.5406 12.1547C17.5406 12.1304 17.5406 12.1304 17.5406 12.1061C17.4193 12.0576 17.2979 12.0091 17.2009 11.9848C17.1766 12.2274 16.7157 14.3381 16.7157 14.3381L16.2547 15.624L16.4973 14.2896L17.2252 12.0091C17.1039 11.9848 16.9826 11.9606 16.8855 11.9121C16.8613 12.0334 16.7642 12.0819 16.6914 12.0819C16.5701 12.0819 16.4973 11.9848 16.4973 11.8878C16.4973 11.8878 16.4973 11.8878 16.4973 11.8635C16.376 11.8635 16.2547 11.8635 16.1577 11.8635L16.279 14.2411L16.1577 15.5997L16.0121 14.2411C16.0121 14.2411 16.1334 12.1061 16.1334 11.8635C16.0121 11.8635 15.8908 11.8635 15.7453 11.8635C15.7453 11.8878 15.7453 11.8878 15.7453 11.8878C15.7453 12.0091 15.6482 12.0819 15.5754 12.0819C15.4541 12.0819 15.4056 12.0334 15.3813 11.9121C15.26 11.9363 15.1387 11.9606 15.0417 12.0091L15.7695 14.2896L16.0121 15.624L15.5512 14.3381V14.3139V14.2896L15.5269 14.2654V14.2411V14.2168V14.1926V14.1683H15.5026V14.144V14.1198V14.0955L15.4784 14.0713V14.0227V13.9985V13.9499L15.4541 13.9257V13.8772V13.8529L15.4299 13.8286V13.8044V13.7559L15.4056 13.7316V13.7073V13.6831V13.6588V13.6346V13.6103L15.3813 13.586V13.5618V13.5375V13.5133L15.3571 13.489V13.4647V13.4405V13.392H15.1145V13.3434V13.2949L15.0902 13.2464V13.1979V13.1736L15.066 13.1251V13.1008V13.0766L15.0417 13.0281V13.0038V12.9795V12.9553L15.0174 12.931V12.9068V12.8825V12.8582V12.834V12.8097H14.9932V12.7612V12.7369V12.6884H14.9689V12.6641V12.6399V12.6156V12.5914L14.9447 12.5671V12.5428V12.5186L14.9204 12.4943V12.47V12.4458V12.4215V12.3973V12.373C14.7991 12.3973 14.6535 12.4215 14.5322 12.4943C14.5565 12.5186 14.5565 12.5186 14.5565 12.5428C14.5565 12.6641 14.4594 12.7369 14.3624 12.7369C14.2654 12.7369 14.2168 12.7126 14.1926 12.6156C14.0713 12.6641 13.95 12.7369 13.8772 12.7854L15.1873 14.7748L15.7453 16.0121L14.9689 14.9204C14.9689 14.9204 13.9742 13.0038 13.9014 12.7854C13.7801 12.834 13.6588 12.9067 13.5618 12.9795C13.586 13.0038 13.5861 13.028 13.5861 13.0766C13.5861 13.1979 13.489 13.2707 13.392 13.2707C13.3677 13.2707 13.2949 13.2464 13.2707 13.2221C13.1251 12.7612 13.028 12.8582 12.9553 12.931ZM16.0121 11.2085C18.6566 11.2085 20.7915 13.3434 20.7915 16.0121C20.7915 18.6565 18.6566 20.7915 16.0121 20.7915C13.3434 20.7915 11.2085 18.6565 11.2085 16.0121C11.2085 13.3434 13.3434 11.2085 16.0121 11.2085Z" fill="#2D2E77"/>
<path fill-rule="evenodd" clip-rule="evenodd" d="M16.0121 16.7157C16.4003 16.7157 16.7157 16.4003 16.7157 16.0121C16.7157 15.5997 16.4003 15.2843 16.0121 15.2843C15.5997 15.2843 15.2843 15.5997 15.2843 16.0121C15.2843 16.376 15.624 16.7157 16.0121 16.7157Z" fill="white"/>
<path fill-rule="evenodd" clip-rule="evenodd" d="M16.0121 16.5702C16.3032 16.5702 16.5701 16.3033 16.5701 16.0122C16.5701 15.6968 16.3032 15.4299 16.0121 15.4299C15.6967 15.4299 15.4298 15.6968 15.4298 16.0122C15.4298 16.3033 15.6967 16.5702 16.0121 16.5702Z" fill="#2D2E77"/>
</g>
<defs>
<clipPath id="clip0_8_97199">
<rect width="32" height="32" fill="white"/>
</clipPath>
</defs>
</svg>
