<svg width="33" height="32" viewBox="0 0 33 32" fill="none" xmlns="http://www.w3.org/2000/svg">
<g clip-path="url(#clip0_8_97678)">
<rect x="0.0488281" width="32" height="32" rx="6" fill="#FF0000"/>
<path d="M-10.775 33.9394V-1.91516H42.8727V33.85V33.9394H-10.775ZM42.7833 33.85V33.7606V33.85ZM-10.5962 33.7606H42.6044V-1.64691H-10.5962V33.7606Z" fill="#231F20"/>
<path d="M42.7832 -1.82581H-10.6856V33.8499H42.7832V-1.82581Z" fill="white"/>
<path d="M42.7832 1.66138H-10.6856V7.02615H42.7832V1.66138Z" fill="#3255A5"/>
<path d="M42.7832 24.998H-10.6856V30.3628H42.7832V24.998Z" fill="#3255A5"/>
<path d="M20.6089 15.9673L22.8442 12.0332H18.3736L16.0488 8.099L13.7241 12.0332H9.25345L9.78993 13.0167L11.4888 15.9673L9.25345 19.9015H10.4158H13.8135L16.1382 23.8357L18.463 19.9015H22.9336L20.6089 15.9673ZM16.0488 10.7814L16.7641 12.0332H15.2441L16.0488 10.7814ZM11.5782 18.5603L12.2935 17.3085L13.0088 18.5603H11.5782ZM12.2935 14.7155L11.5782 13.4638H13.0088L12.2935 14.7155ZM16.0488 21.2427L15.3335 19.9909H16.8535L16.0488 21.2427ZM17.5688 18.5603H14.5288L13.0088 15.9673L14.5288 13.3744H17.5688L19.0889 15.9673L17.5688 18.5603ZM19.0889 18.5603L19.8042 17.3085L20.5195 18.5603H19.0889ZM19.8042 14.7155L19.0889 13.4638H20.5195L19.8042 14.7155Z" fill="#3255A5"/>
</g>
<defs>
<clipPath id="clip0_8_97678">
<rect x="0.0488281" width="32" height="32" rx="6" fill="white"/>
</clipPath>
</defs>
</svg>
