<svg width="33" height="32" viewBox="0 0 33 32" fill="none" xmlns="http://www.w3.org/2000/svg">
<rect x="0.97583" width="32" height="32" rx="6" fill="#00AFCA"/>
<path d="M6.15313 14.2308C6.50778 13.6526 6.78679 13.1954 6.88428 12.7718C6.93807 12.5348 6.90781 12.165 6.70948 11.9163C6.59518 11.7717 6.4355 11.6826 6.24389 11.6507C6.4355 11.6188 6.59518 11.5297 6.70948 11.3851C6.90781 11.1347 6.93975 10.7666 6.88428 10.5296C6.78679 10.106 6.5061 9.64887 6.15313 9.07067C6.04051 8.88746 5.92454 8.69585 5.80184 8.48911C5.60687 8.15799 5.56989 7.82519 5.70099 7.59996C5.79344 7.44029 5.95647 7.35456 6.16153 7.35961C6.45736 7.36465 6.61199 7.58484 6.63216 7.79998C6.65233 7.99495 6.56325 8.24875 6.24725 8.32103C6.14136 8.33952 6.07749 8.26388 6.04724 8.2185C5.99177 8.1311 5.98169 8.0168 6.02203 7.95966C6.05396 7.91595 6.11783 7.91259 6.1733 7.921C6.25062 7.9647 6.21028 8.07731 6.14641 8.09748C6.34474 8.09412 6.375 7.97983 6.36995 7.90587C6.47416 7.88402 6.50442 7.84368 6.50442 7.82351C6.50442 7.80334 6.45567 7.74115 6.37163 7.72434C6.35651 7.55962 6.27415 7.53105 6.15313 7.52601C6.15313 7.52601 6.30608 7.64534 6.15649 7.70417C5.98337 7.69577 5.8926 7.77645 5.85058 7.83359C5.75646 7.96302 5.76318 8.16808 5.86739 8.3328C5.96488 8.48911 6.12287 8.56307 6.28927 8.53113H6.29264C6.3834 8.51096 6.46072 8.47903 6.52795 8.43869C6.52795 8.71434 6.18338 8.72106 6.18338 8.72106C6.20691 8.88578 6.43382 8.83368 6.43382 8.83368C6.44559 8.96142 6.2523 8.97318 6.2523 8.97318C6.32457 9.1026 6.44895 9.08244 6.44895 9.08244C6.44895 9.45221 6.86747 9.56315 6.86747 9.56315C6.86747 9.56315 6.70948 9.39675 6.70948 9.09084C6.70948 8.78493 6.8742 8.45549 6.85066 7.84872C6.85066 7.82519 6.84898 7.80166 6.8473 7.77981C6.83386 7.64534 6.78007 7.50416 6.68595 7.38986C6.82713 7.39322 6.90613 7.27052 6.90613 7.24195C6.90613 7.21338 6.82545 7.09068 6.68595 7.09404C6.78007 6.97974 6.83386 6.84024 6.8473 6.70409C6.84898 6.68056 6.85066 6.65703 6.85066 6.63518C6.8742 6.02841 6.70948 5.69897 6.70948 5.39306C6.70948 5.08715 6.86747 4.92075 6.86747 4.92075C6.86747 4.92075 6.44895 5.03169 6.44895 5.40147C6.44895 5.40147 6.32457 5.3813 6.2523 5.51072C6.2523 5.51072 6.44559 5.52248 6.43382 5.65023C6.43382 5.65023 6.20691 5.59812 6.18338 5.76284C6.18338 5.76284 6.52795 5.76956 6.52795 6.04522C6.46072 6.00488 6.3834 5.97294 6.29264 5.95277H6.28927C6.12287 5.92084 5.96656 5.99647 5.86739 6.15111C5.76318 6.31583 5.75646 6.52088 5.85058 6.65031C5.8926 6.70745 5.98337 6.78981 6.15649 6.77973C6.30608 6.83856 6.15313 6.95789 6.15313 6.95789C6.27415 6.95285 6.35483 6.92428 6.37163 6.75956C6.45399 6.74275 6.50442 6.68056 6.50442 6.66039C6.50442 6.64022 6.47416 6.59988 6.36995 6.57803C6.375 6.50408 6.34474 6.38978 6.14641 6.38642C6.21028 6.40659 6.2523 6.5192 6.1733 6.5629C6.11783 6.56963 6.05396 6.56795 6.02203 6.52425C5.98001 6.4671 5.99177 6.3528 6.04724 6.2654C6.07749 6.21834 6.14136 6.1427 6.24725 6.16287C6.56325 6.23515 6.65233 6.48895 6.63216 6.68392C6.61031 6.89907 6.45567 7.11757 6.16153 7.12429C5.95647 7.12934 5.78503 7.03689 5.69091 6.87217C5.56148 6.64358 5.60182 6.31583 5.80016 5.99647C6.06573 5.56955 6.12287 5.20817 5.95311 4.98799C5.88252 4.89554 5.53795 4.66359 5.39677 5.13254C5.25558 4.66359 4.91101 4.89554 4.84042 4.98799C4.66898 5.20817 4.7278 5.56787 4.99337 5.99647C5.19171 6.31583 5.23205 6.64358 5.10262 6.87217C5.01018 7.03689 4.83874 7.12934 4.632 7.12429C4.33618 7.11925 4.18154 6.89907 4.16137 6.68392C4.1412 6.48895 4.23028 6.23515 4.54628 6.16287C4.65217 6.14438 4.71604 6.22002 4.74629 6.2654C4.80176 6.3528 4.81184 6.4671 4.7715 6.52425C4.73957 6.56795 4.6757 6.57131 4.62023 6.5629C4.54291 6.5192 4.58325 6.40659 4.64712 6.38642C4.44879 6.38978 4.41854 6.50408 4.42358 6.57803C4.31937 6.59988 4.28911 6.64022 4.28911 6.66039C4.28911 6.68056 4.33786 6.74275 4.4219 6.75956C4.43702 6.92428 4.51938 6.95285 4.6404 6.95789C4.6404 6.95789 4.48745 6.83856 4.63704 6.77973C4.81016 6.78813 4.90093 6.70745 4.94295 6.65031C5.03707 6.52088 5.03035 6.31583 4.92614 6.15111C4.82865 5.99479 4.67066 5.92084 4.50426 5.95277H4.50089C4.41013 5.97294 4.33281 6.00488 4.26558 6.04522C4.26558 5.76956 4.61015 5.76284 4.61015 5.76284C4.58662 5.59812 4.35971 5.65023 4.35971 5.65023C4.34794 5.52248 4.54123 5.51072 4.54123 5.51072C4.46896 5.3813 4.34458 5.40147 4.34458 5.40147C4.34458 5.03169 3.92606 4.92075 3.92606 4.92075C3.92606 4.92075 4.08405 5.08715 4.08405 5.39306C4.08405 5.69897 3.91934 6.02841 3.94287 6.63518C3.94287 6.65871 3.94455 6.68224 3.94623 6.70409C3.95967 6.83856 4.01346 6.97974 4.10759 7.09404C3.9664 7.09068 3.8874 7.21338 3.8874 7.24195C3.8874 7.27052 3.96808 7.39322 4.10759 7.38986C4.01346 7.50416 3.95967 7.64366 3.94623 7.77981C3.94455 7.80334 3.94287 7.82519 3.94287 7.84872C3.91934 8.45549 4.08405 8.78493 4.08405 9.09084C4.08405 9.39675 3.92606 9.56315 3.92606 9.56315C3.92606 9.56315 4.34458 9.45221 4.34458 9.08244C4.34458 9.08244 4.46896 9.1026 4.54123 8.97318C4.54123 8.97318 4.34794 8.96142 4.35971 8.83368C4.35971 8.83368 4.58662 8.88578 4.61015 8.72106C4.61015 8.72106 4.26558 8.71434 4.26558 8.43869C4.33281 8.47903 4.41013 8.51096 4.50089 8.53113H4.50426C4.67066 8.56307 4.82697 8.48743 4.92614 8.3328C5.03035 8.16808 5.03707 7.96302 4.94295 7.83359C4.90093 7.77645 4.81016 7.69409 4.63704 7.70417C4.48745 7.64534 4.6404 7.52601 4.6404 7.52601C4.51938 7.53105 4.4387 7.55962 4.4219 7.72434C4.33954 7.74115 4.28911 7.80334 4.28911 7.82351C4.28911 7.84368 4.31937 7.88402 4.42358 7.90587C4.41854 7.97983 4.44879 8.09412 4.64712 8.09748C4.58325 8.07731 4.54123 7.9647 4.62023 7.921C4.6757 7.91427 4.73957 7.91595 4.7715 7.95966C4.81353 8.0168 4.80176 8.1311 4.74629 8.2185C4.71604 8.26556 4.65217 8.3412 4.54628 8.32103C4.23028 8.24875 4.1412 7.99495 4.16137 7.79998C4.18322 7.58484 4.33786 7.36633 4.632 7.35961C4.83538 7.35625 4.99841 7.44197 5.09254 7.59996C5.22364 7.82519 5.18666 8.15799 4.99169 8.48911C4.87067 8.69585 4.75302 8.88578 4.6404 9.07067C4.28575 9.64887 4.00674 10.106 3.90925 10.5296C3.85546 10.7666 3.88572 11.1364 4.08405 11.3851C4.19835 11.5297 4.35803 11.6188 4.54964 11.6507C4.35803 11.6826 4.19835 11.7717 4.08405 11.9163C3.88572 12.1667 3.85378 12.5348 3.90925 12.7718C4.00674 13.1954 4.28743 13.6526 4.6404 14.2308C4.75302 14.414 4.86899 14.6056 4.99169 14.8123C5.18666 15.1434 5.22364 15.4762 5.09254 15.7015C5.00009 15.8611 4.83706 15.9469 4.632 15.9418C4.33618 15.9368 4.18154 15.7166 4.16137 15.5014C4.1412 15.3065 4.23028 15.0527 4.54628 14.9804C4.65217 14.9619 4.71604 15.0375 4.74629 15.0829C4.80176 15.1703 4.81184 15.2846 4.7715 15.3418C4.73957 15.3855 4.6757 15.3888 4.62023 15.3804C4.54291 15.3367 4.58325 15.2241 4.64712 15.2039C4.44879 15.2073 4.41854 15.3216 4.42358 15.3956C4.31937 15.4174 4.28911 15.4577 4.28911 15.4779C4.28911 15.4981 4.33786 15.5603 4.4219 15.5771C4.43702 15.7418 4.51938 15.7704 4.6404 15.7754C4.6404 15.7754 4.48745 15.6561 4.63704 15.5972C4.81016 15.6057 4.90093 15.525 4.94295 15.4678C5.03707 15.3384 5.03035 15.1333 4.92614 14.9686C4.82865 14.8123 4.67066 14.7384 4.50426 14.7703H4.50089C4.41013 14.7905 4.33281 14.8224 4.26558 14.8627C4.26558 14.5871 4.61015 14.5804 4.61015 14.5804C4.58662 14.4156 4.35971 14.4677 4.35971 14.4677C4.34794 14.34 4.54123 14.3282 4.54123 14.3282C4.46896 14.1988 4.34458 14.219 4.34458 14.219C4.34458 13.8492 3.92606 13.7383 3.92606 13.7383C3.92606 13.7383 4.08405 13.9047 4.08405 14.2106C4.08405 14.5165 3.91934 14.8459 3.94287 15.4527C3.94287 15.4762 3.94455 15.4998 3.94623 15.5216C3.95967 15.6561 4.01346 15.7973 4.10759 15.9116C3.9664 15.9082 3.8874 16.0309 3.8874 16.0595C3.8874 16.088 3.96808 16.2107 4.10759 16.2074C4.01346 16.3217 3.95967 16.4612 3.94623 16.5973C3.94455 16.6209 3.94287 16.6427 3.94287 16.6662C3.91934 17.273 4.08405 17.6025 4.08405 17.9084C4.08405 18.2143 3.92606 18.3807 3.92606 18.3807C3.92606 18.3807 4.34458 18.2697 4.34458 17.9C4.34458 17.9 4.46896 17.9201 4.54123 17.7907C4.54123 17.7907 4.34794 17.7789 4.35971 17.6512C4.35971 17.6512 4.58662 17.7033 4.61015 17.5386C4.61015 17.5386 4.26558 17.5319 4.26558 17.2562C4.33281 17.2965 4.41013 17.3285 4.50089 17.3486H4.50426C4.67066 17.3806 4.82697 17.3049 4.92614 17.1503C5.03035 16.9856 5.03707 16.7805 4.94295 16.6511C4.90093 16.594 4.81016 16.5116 4.63704 16.5217C4.48745 16.4629 4.6404 16.3435 4.6404 16.3435C4.51938 16.3486 4.4387 16.3771 4.4219 16.5419C4.33954 16.5587 4.28911 16.6209 4.28911 16.641C4.28911 16.6612 4.31937 16.7015 4.42358 16.7234C4.41854 16.7973 4.44879 16.9116 4.64712 16.915C4.58325 16.8948 4.54123 16.7822 4.62023 16.7385C4.6757 16.7318 4.73957 16.7335 4.7715 16.7772C4.81353 16.8343 4.80176 16.9486 4.74629 17.036C4.71604 17.0831 4.65217 17.1587 4.54628 17.1385C4.23028 17.0663 4.1412 16.8125 4.16137 16.6175C4.18322 16.4024 4.33786 16.1838 4.632 16.1771C4.83538 16.1738 4.99841 16.2595 5.09254 16.4175C5.22364 16.6427 5.18666 16.9755 4.99169 17.3066C4.87067 17.5134 4.75302 17.7033 4.6404 17.8882C4.28575 18.4664 4.00674 18.9236 3.90925 19.3471C3.85546 19.5841 3.88572 19.9539 4.08405 20.2027C4.19835 20.3472 4.35803 20.4363 4.54964 20.4682C4.35803 20.5002 4.19835 20.5892 4.08405 20.7338C3.88572 20.9842 3.85378 21.3523 3.90925 21.5893C4.00674 22.0129 4.28743 22.4701 4.6404 23.0483C4.75302 23.2315 4.86899 23.4231 4.99169 23.6298C5.18666 23.9609 5.22364 24.2937 5.09254 24.519C5.00009 24.6787 4.83706 24.7644 4.632 24.7593C4.33618 24.7543 4.18154 24.5341 4.16137 24.319C4.1412 24.124 4.23028 23.8702 4.54628 23.7979C4.65217 23.7794 4.71604 23.8551 4.74629 23.9004C4.80176 23.9878 4.81184 24.1021 4.7715 24.1593C4.73957 24.203 4.6757 24.2063 4.62023 24.1979C4.54291 24.1542 4.58325 24.0416 4.64712 24.0215C4.44879 24.0248 4.41854 24.1391 4.42358 24.2131C4.31937 24.2349 4.28911 24.2753 4.28911 24.2954C4.28911 24.3156 4.33786 24.3778 4.4219 24.3946C4.43702 24.5593 4.51938 24.5879 4.6404 24.5929C4.6404 24.5929 4.48745 24.4736 4.63704 24.4148C4.81016 24.4232 4.90093 24.3425 4.94295 24.2853C5.03707 24.1559 5.03035 23.9509 4.92614 23.7861C4.82865 23.6298 4.67066 23.5559 4.50426 23.5878H4.50089C4.41013 23.608 4.33281 23.6399 4.26558 23.6803C4.26558 23.4046 4.61015 23.3979 4.61015 23.3979C4.58662 23.2332 4.35971 23.2853 4.35971 23.2853C4.34794 23.1575 4.54123 23.1458 4.54123 23.1458C4.46896 23.0163 4.34458 23.0365 4.34458 23.0365C4.34458 22.6667 3.92606 22.5558 3.92606 22.5558C3.92606 22.5558 4.08405 22.7222 4.08405 23.0281C4.08405 23.334 3.91934 23.6634 3.94287 24.2702C3.94287 24.2937 3.94455 24.3173 3.94623 24.3391C3.95967 24.4736 4.01346 24.6148 4.10759 24.7291C3.9664 24.7257 3.8874 24.8484 3.8874 24.877C3.8874 24.9056 3.96808 25.0283 4.10759 25.0249C4.01346 25.1392 3.95967 25.2787 3.94623 25.4148C3.94455 25.4384 3.94287 25.4619 3.94287 25.4838C3.91934 26.0905 4.08405 26.42 4.08405 26.7259C4.08405 27.0318 3.92606 27.1982 3.92606 27.1982C3.92606 27.1982 4.34458 27.0872 4.34458 26.7175C4.34458 26.7175 4.46896 26.7376 4.54123 26.6082C4.54123 26.6082 4.34794 26.5965 4.35971 26.4687C4.35971 26.4687 4.58662 26.5208 4.61015 26.3561C4.61015 26.3561 4.26558 26.3494 4.26558 26.0737C4.33281 26.1141 4.41013 26.146 4.50089 26.1662H4.50426C4.67066 26.1981 4.82697 26.1225 4.92614 25.9678C5.03035 25.8031 5.03707 25.5981 4.94295 25.4686C4.90093 25.4115 4.81016 25.3291 4.63704 25.3392C4.48745 25.2804 4.6404 25.161 4.6404 25.161C4.51938 25.1661 4.4387 25.1947 4.4219 25.3594C4.33954 25.3762 4.28911 25.4384 4.28911 25.4585C4.28911 25.4787 4.31937 25.5191 4.42358 25.5409C4.41854 25.6149 4.44879 25.7292 4.64712 25.7325C4.58325 25.7123 4.54123 25.5997 4.62023 25.556C4.6757 25.5493 4.73957 25.551 4.7715 25.5947C4.81353 25.6518 4.80176 25.7661 4.74629 25.8535C4.71604 25.9006 4.65217 25.9762 4.54628 25.9561C4.23028 25.8838 4.1412 25.63 4.16137 25.435C4.18322 25.2199 4.33786 25.0014 4.632 24.9946C4.83706 24.9896 5.0085 25.082 5.10262 25.2468C5.23205 25.4754 5.19171 25.8031 4.99337 26.1225C4.7278 26.5494 4.67066 26.9108 4.84042 27.131C4.91101 27.2234 5.25558 27.4553 5.39677 26.9864C5.53795 27.4553 5.88252 27.2234 5.95311 27.131C6.12456 26.9108 6.06573 26.5511 5.80016 26.1225C5.60182 25.8031 5.56148 25.4754 5.69091 25.2468C5.78335 25.082 5.95479 24.9896 6.16153 24.9946C6.45736 24.9997 6.61199 25.2199 6.63216 25.435C6.65233 25.63 6.56325 25.8838 6.24725 25.9561C6.14136 25.9746 6.07749 25.8989 6.04724 25.8535C5.99177 25.7661 5.98169 25.6518 6.02203 25.5947C6.05396 25.551 6.11783 25.5476 6.1733 25.556C6.25062 25.5997 6.21028 25.7123 6.14641 25.7325C6.34474 25.7292 6.375 25.6149 6.36995 25.5409C6.47416 25.5191 6.50442 25.4787 6.50442 25.4585C6.50442 25.4384 6.45567 25.3762 6.37163 25.3594C6.35651 25.1947 6.27415 25.1661 6.15313 25.161C6.15313 25.161 6.30608 25.2804 6.15649 25.3392C5.98337 25.3308 5.8926 25.4115 5.85058 25.4686C5.75646 25.5981 5.76318 25.8031 5.86739 25.9678C5.96488 26.1241 6.12287 26.1981 6.28927 26.1662H6.29264C6.3834 26.146 6.46072 26.1141 6.52795 26.0737C6.52795 26.3494 6.18338 26.3561 6.18338 26.3561C6.20691 26.5208 6.43382 26.4687 6.43382 26.4687C6.44559 26.5965 6.2523 26.6082 6.2523 26.6082C6.32457 26.7376 6.44895 26.7175 6.44895 26.7175C6.44895 27.0872 6.86747 27.1982 6.86747 27.1982C6.86747 27.1982 6.70948 27.0318 6.70948 26.7259C6.70948 26.42 6.8742 26.0905 6.85066 25.4838C6.85066 25.4602 6.84898 25.4367 6.8473 25.4148C6.83386 25.2804 6.78007 25.1392 6.68595 25.0249C6.82713 25.0283 6.90613 24.9056 6.90613 24.877C6.90613 24.8484 6.82545 24.7257 6.68595 24.7291C6.78007 24.6148 6.83386 24.4753 6.8473 24.3391C6.84898 24.3156 6.85066 24.2937 6.85066 24.2702C6.8742 23.6634 6.70948 23.334 6.70948 23.0281C6.70948 22.7222 6.86747 22.5558 6.86747 22.5558C6.86747 22.5558 6.44895 22.6667 6.44895 23.0365C6.44895 23.0365 6.32457 23.0163 6.2523 23.1458C6.2523 23.1458 6.44559 23.1575 6.43382 23.2853C6.43382 23.2853 6.20691 23.2332 6.18338 23.3979C6.18338 23.3979 6.52795 23.4046 6.52795 23.6803C6.46072 23.6399 6.3834 23.608 6.29264 23.5878H6.28927C6.12287 23.5559 5.96656 23.6315 5.86739 23.7861C5.76318 23.9509 5.75646 24.1559 5.85058 24.2853C5.8926 24.3425 5.98337 24.4248 6.15649 24.4148C6.30608 24.4736 6.15313 24.5929 6.15313 24.5929C6.27415 24.5879 6.35483 24.5593 6.37163 24.3946C6.45399 24.3778 6.50442 24.3156 6.50442 24.2954C6.50442 24.2753 6.47416 24.2349 6.36995 24.2131C6.375 24.1391 6.34474 24.0248 6.14641 24.0215C6.21028 24.0416 6.2523 24.1542 6.1733 24.1979C6.11783 24.2047 6.05396 24.203 6.02203 24.1593C5.98001 24.1021 5.99177 23.9878 6.04724 23.9004C6.07749 23.8534 6.14136 23.7777 6.24725 23.7979C6.56325 23.8702 6.65233 24.124 6.63216 24.319C6.61031 24.5341 6.45567 24.7526 6.16153 24.7593C5.95816 24.7627 5.79512 24.677 5.70099 24.519C5.56989 24.2937 5.60687 23.9609 5.80184 23.6298C5.92286 23.4231 6.04051 23.2332 6.15313 23.0483C6.50778 22.4701 6.78679 22.0129 6.88428 21.5893C6.93807 21.3523 6.90781 20.9826 6.70948 20.7338C6.59518 20.5892 6.4355 20.5002 6.24389 20.4682C6.4355 20.4363 6.59518 20.3472 6.70948 20.2027C6.90781 19.9522 6.93975 19.5841 6.88428 19.3471C6.78679 18.9236 6.5061 18.4664 6.15313 17.8882C6.04051 17.705 5.92454 17.5134 5.80184 17.3066C5.60687 16.9755 5.56989 16.6427 5.70099 16.4175C5.79344 16.2578 5.95647 16.1721 6.16153 16.1771C6.45736 16.1822 6.61199 16.4024 6.63216 16.6175C6.65233 16.8125 6.56325 17.0663 6.24725 17.1385C6.14136 17.157 6.07749 17.0814 6.04724 17.036C5.99177 16.9486 5.98169 16.8343 6.02203 16.7772C6.05396 16.7335 6.11783 16.7301 6.1733 16.7385C6.25062 16.7822 6.21028 16.8948 6.14641 16.915C6.34474 16.9116 6.375 16.7973 6.36995 16.7234C6.47416 16.7015 6.50442 16.6612 6.50442 16.641C6.50442 16.6209 6.45567 16.5587 6.37163 16.5419C6.35651 16.3771 6.27415 16.3486 6.15313 16.3435C6.15313 16.3435 6.30608 16.4629 6.15649 16.5217C5.98337 16.5133 5.8926 16.594 5.85058 16.6511C5.75646 16.7805 5.76318 16.9856 5.86739 17.1503C5.96488 17.3066 6.12287 17.3806 6.28927 17.3486H6.29264C6.3834 17.3285 6.46072 17.2965 6.52795 17.2562C6.52795 17.5319 6.18338 17.5386 6.18338 17.5386C6.20691 17.7033 6.43382 17.6512 6.43382 17.6512C6.44559 17.7789 6.2523 17.7907 6.2523 17.7907C6.32457 17.9201 6.44895 17.9 6.44895 17.9C6.44895 18.2697 6.86747 18.3807 6.86747 18.3807C6.86747 18.3807 6.70948 18.2143 6.70948 17.9084C6.70948 17.6025 6.8742 17.273 6.85066 16.6662C6.85066 16.6427 6.84898 16.6192 6.8473 16.5973C6.83386 16.4629 6.78007 16.3217 6.68595 16.2074C6.82713 16.2107 6.90613 16.088 6.90613 16.0595C6.90613 16.0309 6.82545 15.9082 6.68595 15.9116C6.78007 15.7973 6.83386 15.6578 6.8473 15.5216C6.84898 15.4981 6.85066 15.4762 6.85066 15.4527C6.8742 14.8459 6.70948 14.5165 6.70948 14.2106C6.70948 13.9047 6.86747 13.7383 6.86747 13.7383C6.86747 13.7383 6.44895 13.8492 6.44895 14.219C6.44895 14.219 6.32457 14.1988 6.2523 14.3282C6.2523 14.3282 6.44559 14.34 6.43382 14.4677C6.43382 14.4677 6.20691 14.4156 6.18338 14.5804C6.18338 14.5804 6.52795 14.5871 6.52795 14.8627C6.46072 14.8224 6.3834 14.7905 6.29264 14.7703H6.28927C6.12287 14.7384 5.96656 14.814 5.86739 14.9686C5.76318 15.1333 5.75646 15.3384 5.85058 15.4678C5.8926 15.525 5.98337 15.6073 6.15649 15.5972C6.30608 15.6561 6.15313 15.7754 6.15313 15.7754C6.27415 15.7704 6.35483 15.7418 6.37163 15.5771C6.45399 15.5603 6.50442 15.4981 6.50442 15.4779C6.50442 15.4577 6.47416 15.4174 6.36995 15.3956C6.375 15.3216 6.34474 15.2073 6.14641 15.2039C6.21028 15.2241 6.2523 15.3367 6.1733 15.3804C6.11783 15.3871 6.05396 15.3855 6.02203 15.3418C5.98001 15.2846 5.99177 15.1703 6.04724 15.0829C6.07749 15.0359 6.14136 14.9602 6.24725 14.9804C6.56325 15.0527 6.65233 15.3065 6.63216 15.5014C6.61031 15.7166 6.45567 15.9351 6.16153 15.9418C5.95816 15.9452 5.79512 15.8595 5.70099 15.7015C5.56989 15.4762 5.60687 15.1434 5.80184 14.8123C5.92454 14.6039 6.04051 14.414 6.15313 14.2308ZM5.17322 5.87545C4.91437 5.48214 4.95135 5.29726 5.01522 5.23507C5.11943 5.13422 5.33626 5.29053 5.39508 5.58635C5.45391 5.29053 5.67074 5.13422 5.77495 5.23507C5.83882 5.29726 5.8758 5.48046 5.61695 5.87545C5.49089 6.06707 5.41525 6.26372 5.3934 6.45029C5.37491 6.26372 5.29928 6.06707 5.17322 5.87545ZM5.00682 7.23691H5.01354C5.12279 7.17472 5.21524 7.08395 5.28751 6.97134C5.34634 6.8789 5.38332 6.77469 5.39677 6.66375C5.41021 6.77469 5.44719 6.8789 5.50602 6.97134C5.57829 7.08395 5.67074 7.17472 5.77999 7.23691H5.78671C5.68082 7.29742 5.59006 7.38482 5.51778 7.48903C5.45055 7.58484 5.41189 7.69409 5.39677 7.81174C5.38164 7.69409 5.34298 7.58652 5.27575 7.48903C5.20347 7.38314 5.11271 7.29742 5.00682 7.23691ZM4.25045 11.249C4.08742 11.0423 4.08069 10.7263 4.11599 10.575C4.20507 10.185 4.47736 9.74131 4.82193 9.17992C4.93454 8.99503 5.0438 8.79838 5.1749 8.595C5.30096 8.40171 5.37491 8.20337 5.39677 8.01848C5.41862 8.20337 5.49257 8.40171 5.61863 8.595C5.74974 8.79838 5.85899 8.99503 5.9716 9.17992C6.31617 9.74131 6.58678 10.185 6.67754 10.575C6.71284 10.7263 6.70611 11.0439 6.54308 11.249C6.43887 11.3801 6.28591 11.4457 6.08758 11.4457C5.94471 11.4457 5.83546 11.402 5.74974 11.3112C5.67242 11.2305 5.62704 11.1213 5.59846 11.017C5.6304 10.6069 6.16826 10.7263 5.98673 11.017C5.98673 11.017 6.24053 11.1297 6.26742 10.775C6.39348 10.775 6.46576 10.6456 6.46576 10.6456C6.46576 10.6456 6.43887 10.5128 6.26406 10.5128C6.26406 10.338 6.24053 10.2489 5.99345 10.2489C5.99345 10.2489 6.16994 10.4876 5.85899 10.5498C5.67746 10.5868 5.48921 10.4237 5.48921 10.2355C5.48921 10.0472 5.56821 9.84216 5.75982 9.84216C5.95143 9.84216 6.04724 9.90435 6.04724 9.90435C6.04724 9.90435 6.03715 9.49087 5.48921 9.63038C5.48921 9.63038 5.80856 9.4186 5.39677 8.94629C4.98497 9.4186 5.30432 9.63038 5.30432 9.63038C4.75638 9.49087 4.74629 9.90435 4.74629 9.90435C4.74629 9.90435 4.8421 9.84216 5.03371 9.84216C5.22532 9.84216 5.30432 10.0472 5.30432 10.2355C5.30432 10.4237 5.11607 10.5868 4.93454 10.5498C4.62191 10.4876 4.80008 10.2489 4.80008 10.2489C4.553 10.2489 4.52947 10.338 4.52947 10.5128C4.35466 10.5128 4.32777 10.6456 4.32777 10.6456C4.32777 10.6456 4.40005 10.775 4.52611 10.775C4.553 11.1297 4.8068 11.017 4.8068 11.017C4.62527 10.7263 5.16313 10.6069 5.19507 11.017C5.16649 11.1229 5.12111 11.2305 5.0438 11.3112C4.95807 11.402 4.84882 11.4457 4.70595 11.4457C4.50762 11.4473 4.35466 11.3801 4.25045 11.249ZM5.20011 11.4591C5.29928 11.3532 5.35979 11.2187 5.39677 11.0893C5.43374 11.2187 5.49257 11.3532 5.59342 11.4591C5.68755 11.5599 5.8052 11.6238 5.94471 11.649C5.80688 11.6742 5.68923 11.7381 5.59342 11.839C5.49425 11.9449 5.43374 12.0793 5.39677 12.2087C5.35979 12.0793 5.30096 11.9449 5.20011 11.839C5.10599 11.7381 4.98833 11.6742 4.84882 11.649C4.98833 11.6238 5.10599 11.5599 5.20011 11.4591ZM5.62031 26.2468C5.87916 26.6402 5.84218 26.825 5.77831 26.8872C5.6741 26.9881 5.45727 26.8318 5.39845 26.5359C5.33962 26.8318 5.12279 26.9881 5.01858 26.8872C4.95471 26.825 4.91774 26.6418 5.17658 26.2468C5.30264 26.0552 5.37828 25.8586 5.40013 25.672C5.41862 25.8586 5.49425 26.0552 5.62031 26.2468ZM5.78671 24.8854H5.77999C5.67074 24.9476 5.57829 25.0383 5.50602 25.151C5.44719 25.2434 5.41021 25.3476 5.39677 25.4585C5.38332 25.3476 5.34634 25.2434 5.28751 25.151C5.21524 25.0383 5.12279 24.9476 5.01354 24.8854H5.00682C5.11271 24.8249 5.20347 24.7375 5.27575 24.6333C5.34298 24.5375 5.38164 24.4282 5.39677 24.3106C5.41189 24.4282 5.45055 24.5358 5.51778 24.6333C5.59006 24.7392 5.68082 24.8249 5.78671 24.8854ZM6.54308 20.8733C6.70611 21.08 6.71284 21.396 6.67754 21.5473C6.58846 21.9373 6.31617 22.381 5.9716 22.9424C5.85899 23.1273 5.74974 23.3239 5.61863 23.5273C5.49257 23.7206 5.41862 23.9189 5.39677 24.1038C5.37491 23.9189 5.30096 23.7206 5.1749 23.5273C5.0438 23.3239 4.93454 23.1273 4.82193 22.9424C4.47736 22.381 4.20675 21.9373 4.11599 21.5473C4.08069 21.396 4.08742 21.0784 4.25045 20.8733C4.35466 20.7422 4.50762 20.6766 4.70595 20.6766C4.84882 20.6766 4.95807 20.7203 5.0438 20.8111C5.12111 20.8918 5.16649 21.001 5.19507 21.1053C5.16313 21.5154 4.62527 21.396 4.8068 21.1053C4.8068 21.1053 4.553 20.9926 4.52611 21.3473C4.40005 21.3473 4.32777 21.4767 4.32777 21.4767C4.32777 21.4767 4.35466 21.6095 4.52947 21.6095C4.52947 21.7843 4.553 21.8734 4.80008 21.8734C4.80008 21.8734 4.62359 21.6347 4.93454 21.5725C5.11607 21.5355 5.30432 21.6986 5.30432 21.8868C5.30432 22.0751 5.22532 22.2801 5.03371 22.2801C4.8421 22.2801 4.74629 22.2179 4.74629 22.2179C4.74629 22.2179 4.75638 22.6314 5.30432 22.4919C5.30432 22.4919 4.98497 22.7037 5.39677 23.176C5.80856 22.7037 5.48921 22.4919 5.48921 22.4919C6.03715 22.6314 6.04724 22.2179 6.04724 22.2179C6.04724 22.2179 5.95143 22.2801 5.75982 22.2801C5.56821 22.2801 5.48921 22.0751 5.48921 21.8868C5.48921 21.6986 5.67746 21.5355 5.85899 21.5725C6.17162 21.6347 5.99345 21.8734 5.99345 21.8734C6.24053 21.8734 6.26406 21.7843 6.26406 21.6095C6.43887 21.6095 6.46576 21.4767 6.46576 21.4767C6.46576 21.4767 6.39348 21.3473 6.26742 21.3473C6.24053 20.9926 5.98673 21.1053 5.98673 21.1053C6.16826 21.396 5.6304 21.5154 5.59846 21.1053C5.62704 20.9994 5.67242 20.8918 5.74974 20.8111C5.83546 20.7203 5.94471 20.6766 6.08758 20.6766C6.28591 20.675 6.43887 20.7422 6.54308 20.8733ZM5.59342 20.6632C5.49425 20.7691 5.43374 20.9036 5.39677 21.033C5.35979 20.9036 5.30096 20.7691 5.20011 20.6632C5.10599 20.5624 4.98833 20.4985 4.84882 20.4733C4.98665 20.4481 5.1043 20.3842 5.20011 20.2833C5.29928 20.1774 5.35979 20.043 5.39677 19.9136C5.43374 20.043 5.49257 20.1774 5.59342 20.2833C5.68755 20.3842 5.8052 20.4481 5.94471 20.4733C5.8052 20.4985 5.68755 20.5624 5.59342 20.6632ZM5.9716 18.0042C6.31617 18.5656 6.58678 19.0093 6.67754 19.3992C6.71284 19.5505 6.70611 19.8682 6.54308 20.0732C6.43887 20.2043 6.28591 20.2699 6.08758 20.2699C5.94471 20.2699 5.83546 20.2262 5.74974 20.1354C5.67242 20.0548 5.62704 19.9455 5.59846 19.8413C5.6304 19.4312 6.16826 19.5505 5.98673 19.8413C5.98673 19.8413 6.24053 19.9539 6.26742 19.5993C6.39348 19.5993 6.46576 19.4698 6.46576 19.4698C6.46576 19.4698 6.43887 19.337 6.26406 19.337C6.26406 19.1622 6.24053 19.0732 5.99345 19.0732C5.99345 19.0732 6.16994 19.3118 5.85899 19.374C5.67746 19.411 5.48921 19.248 5.48921 19.0597C5.48921 18.8715 5.56821 18.6664 5.75982 18.6664C5.95143 18.6664 6.04724 18.7286 6.04724 18.7286C6.04724 18.7286 6.03715 18.3151 5.48921 18.4546C5.48921 18.4546 5.80856 18.2428 5.39677 17.7705C4.98497 18.2428 5.30432 18.4546 5.30432 18.4546C4.75638 18.3151 4.74629 18.7286 4.74629 18.7286C4.74629 18.7286 4.8421 18.6664 5.03371 18.6664C5.22532 18.6664 5.30432 18.8715 5.30432 19.0597C5.30432 19.248 5.11607 19.411 4.93454 19.374C4.62191 19.3118 4.80008 19.0732 4.80008 19.0732C4.553 19.0732 4.52947 19.1622 4.52947 19.337C4.35466 19.337 4.32777 19.4698 4.32777 19.4698C4.32777 19.4698 4.40005 19.5993 4.52611 19.5993C4.553 19.9539 4.8068 19.8413 4.8068 19.8413C4.62527 19.5505 5.16313 19.4312 5.19507 19.8413C5.16649 19.9472 5.12111 20.0548 5.0438 20.1354C4.95807 20.2262 4.84882 20.2699 4.70595 20.2699C4.50762 20.2699 4.35466 20.2043 4.25045 20.0732C4.08742 19.8665 4.08069 19.5505 4.11599 19.3992C4.20507 19.0093 4.47736 18.5656 4.82193 18.0042C4.93454 17.8193 5.0438 17.6226 5.1749 17.4192C5.30096 17.226 5.37491 17.0276 5.39677 16.8427C5.41862 17.0276 5.49257 17.226 5.61863 17.4192C5.74974 17.6226 5.85899 17.8193 5.9716 18.0042ZM5.78671 16.0612C5.68082 16.1217 5.59006 16.2091 5.51778 16.3133C5.45055 16.4091 5.41189 16.5183 5.39677 16.636C5.38164 16.5183 5.34298 16.4108 5.27575 16.3133C5.20347 16.2074 5.11271 16.1217 5.00682 16.0612C5.11271 16.0006 5.20347 15.9132 5.27575 15.809C5.34298 15.7132 5.38164 15.604 5.39677 15.4863C5.41189 15.604 5.45055 15.7115 5.51778 15.809C5.59006 15.9132 5.68082 16.0006 5.78671 16.0612ZM5.61863 14.7031C5.49257 14.8964 5.41862 15.0947 5.39677 15.2796C5.37491 15.0947 5.30096 14.8964 5.1749 14.7031C5.0438 14.4997 4.93454 14.303 4.82193 14.1181C4.47736 13.5567 4.20675 13.113 4.11599 12.7231C4.08069 12.5718 4.08742 12.2541 4.25045 12.0491C4.35466 11.918 4.50762 11.8524 4.70595 11.8524C4.84882 11.8524 4.95807 11.8961 5.0438 11.9869C5.12111 12.0676 5.16649 12.1768 5.19507 12.281C5.16313 12.6911 4.62527 12.5718 4.8068 12.281C4.8068 12.281 4.553 12.1684 4.52611 12.523C4.40005 12.523 4.32777 12.6525 4.32777 12.6525C4.32777 12.6525 4.35466 12.7853 4.52947 12.7853C4.52947 12.9601 4.553 13.0491 4.80008 13.0491C4.80008 13.0491 4.62359 12.8105 4.93454 12.7483C5.11607 12.7113 5.30432 12.8743 5.30432 13.0626C5.30432 13.2508 5.22532 13.4559 5.03371 13.4559C4.8421 13.4559 4.74629 13.3937 4.74629 13.3937C4.74629 13.3937 4.75638 13.8072 5.30432 13.6677C5.30432 13.6677 4.98497 13.8795 5.39677 14.3518C5.80856 13.8795 5.48921 13.6677 5.48921 13.6677C6.03715 13.8072 6.04724 13.3937 6.04724 13.3937C6.04724 13.3937 5.95143 13.4559 5.75982 13.4559C5.56821 13.4559 5.48921 13.2508 5.48921 13.0626C5.48921 12.8743 5.67746 12.7113 5.85899 12.7483C6.17162 12.8105 5.99345 13.0491 5.99345 13.0491C6.24053 13.0491 6.26406 12.9601 6.26406 12.7853C6.43887 12.7853 6.46576 12.6525 6.46576 12.6525C6.46576 12.6525 6.39348 12.523 6.26742 12.523C6.24053 12.1684 5.98673 12.281 5.98673 12.281C6.16826 12.5718 5.6304 12.6911 5.59846 12.281C5.62704 12.1751 5.67242 12.0676 5.74974 11.9869C5.83546 11.8961 5.94471 11.8524 6.08758 11.8524C6.28591 11.8524 6.43887 11.918 6.54308 12.0491C6.70611 12.2558 6.71284 12.5718 6.67754 12.7231C6.58846 13.113 6.31617 13.5567 5.9716 14.1181C5.85899 14.303 5.74974 14.4997 5.61863 14.7031Z" fill="#FEC604"/>
<path d="M25.9056 14.0456C25.9056 15.9754 24.3576 17.5405 22.4488 17.5405C20.5401 17.5405 18.992 15.9754 18.992 14.0456C18.992 12.1158 20.5401 10.5507 22.4488 10.5507C24.3576 10.5507 25.9056 12.1158 25.9056 14.0456ZM23.4759 8.83028C23.4759 8.83028 23.0283 9.81121 22.9999 9.94797C22.9732 10.0847 23.0617 10.2181 23.197 10.2451C23.3322 10.2721 23.4642 10.1827 23.4909 10.0459C23.5176 9.90914 23.4759 8.83028 23.4759 8.83028ZM24.4611 9.1325C24.4611 9.1325 23.8316 10.0054 23.7798 10.1354C23.7264 10.2654 23.7881 10.4123 23.9151 10.4663C24.0436 10.5203 24.1889 10.4579 24.2424 10.3295C24.2958 10.1995 24.4611 9.1325 24.4611 9.1325ZM25.3713 9.62381C25.3713 9.62381 24.5864 10.3566 24.5096 10.473C24.4327 10.5895 24.4645 10.7466 24.578 10.8242C24.6933 10.9019 24.8486 10.8698 24.9254 10.755C25.0022 10.6385 25.3713 9.62381 25.3713 9.62381ZM26.1678 10.2856C26.1678 10.2856 25.256 10.8495 25.1575 10.9475C25.059 11.0454 25.059 11.2075 25.1575 11.3054C25.256 11.405 25.4147 11.405 25.5115 11.3054C25.6117 11.2075 26.1678 10.2856 26.1678 10.2856ZM26.8225 11.091C26.8225 11.091 25.8188 11.4641 25.7036 11.5418C25.5884 11.6194 25.5583 11.7765 25.6351 11.8929C25.7119 12.0094 25.8672 12.0398 25.9825 11.9622C26.0977 11.8845 26.8225 11.091 26.8225 11.091ZM27.3084 12.0111C27.3084 12.0111 26.253 12.18 26.1244 12.2323C25.9958 12.2863 25.9357 12.4332 25.9891 12.5632C26.0426 12.6932 26.1879 12.754 26.3165 12.7C26.445 12.646 27.3084 12.0111 27.3084 12.0111ZM27.6073 13.0073C27.6073 13.0073 26.5402 12.9634 26.4033 12.9904C26.268 13.0174 26.1795 13.1508 26.2062 13.2875C26.233 13.4243 26.3649 13.5138 26.5002 13.4868C26.6388 13.4614 27.6073 13.0073 27.6073 13.0073ZM27.7092 14.0456C27.7092 14.0456 26.6705 13.7923 26.5319 13.7923C26.3933 13.7923 26.2814 13.9055 26.2814 14.0456C26.2814 14.1857 26.3933 14.2988 26.5319 14.2988C26.6705 14.2988 27.7092 14.0456 27.7092 14.0456ZM27.6073 15.0839C27.6073 15.0839 26.6371 14.6315 26.5018 14.6028C26.3666 14.5757 26.2346 14.6652 26.2079 14.802C26.1812 14.9387 26.2697 15.0721 26.405 15.0991C26.5402 15.1261 27.6073 15.0839 27.6073 15.0839ZM27.3084 16.0801C27.3084 16.0801 26.445 15.4435 26.3165 15.3912C26.1879 15.3372 26.0426 15.3997 25.9891 15.528C25.9357 15.658 25.9975 15.8049 26.1244 15.8589C26.253 15.9129 27.3084 16.0801 27.3084 16.0801ZM26.8225 17.0002C26.8225 17.0002 26.0977 16.2067 25.9825 16.129C25.8672 16.0514 25.7119 16.0834 25.6351 16.1982C25.5583 16.3147 25.59 16.4718 25.7036 16.5494C25.8188 16.6271 26.8225 17.0002 26.8225 17.0002ZM26.1678 17.8055C26.1678 17.8055 25.6101 16.8837 25.5132 16.7841C25.4147 16.6845 25.256 16.6845 25.1592 16.7841C25.0623 16.8837 25.0606 17.0441 25.1592 17.142C25.2577 17.24 26.1678 17.8055 26.1678 17.8055ZM25.3713 18.4674C25.3713 18.4674 25.0022 17.4527 24.9254 17.3362C24.8486 17.2197 24.6933 17.1893 24.578 17.267C24.4628 17.3446 24.4327 17.5016 24.5096 17.6181C24.5864 17.7346 25.3713 18.4674 25.3713 18.4674ZM24.4611 18.9587C24.4611 18.9587 24.2941 17.8917 24.2424 17.7617C24.1889 17.6316 24.0436 17.5709 23.9151 17.6249C23.7865 17.6789 23.7264 17.8258 23.7798 17.9558C23.8332 18.0858 24.4611 18.9587 24.4611 18.9587ZM23.4759 19.2609C23.4759 19.2609 23.5193 18.1821 23.4926 18.0436C23.4658 17.9068 23.3339 17.8174 23.1986 17.8444C23.0634 17.8714 22.9749 18.0048 23.0016 18.1415C23.0266 18.2817 23.4759 19.2609 23.4759 19.2609ZM22.4488 19.3639C22.4488 19.3639 22.6993 18.3137 22.6993 18.1736C22.6993 18.0335 22.5874 17.9204 22.4488 17.9204C22.3102 17.9204 22.1983 18.0335 22.1983 18.1736C22.1983 18.3137 22.4488 19.3639 22.4488 19.3639ZM21.4218 19.2609C21.4218 19.2609 21.8694 18.28 21.8978 18.1432C21.9245 18.0065 21.836 17.8731 21.7007 17.8461C21.5654 17.8191 21.4335 17.9085 21.4068 18.0453C21.3801 18.1821 21.4218 19.2609 21.4218 19.2609ZM20.4365 18.9587C20.4365 18.9587 21.0661 18.0858 21.1179 17.9558C21.1713 17.8258 21.1095 17.6789 20.9826 17.6249C20.854 17.5709 20.7087 17.6333 20.6553 17.7617C20.6019 17.8917 20.4365 18.9587 20.4365 18.9587ZM19.5264 18.4674C19.5264 18.4674 20.3113 17.7346 20.3881 17.6181C20.4649 17.5016 20.4332 17.3446 20.3196 17.267C20.2044 17.1893 20.0491 17.2214 19.9723 17.3362C19.8955 17.4527 19.5264 18.4674 19.5264 18.4674ZM18.7298 17.8055C18.7298 17.8055 19.6416 17.2416 19.7402 17.1437C19.8387 17.0458 19.8387 16.8837 19.7402 16.7858C19.6416 16.6879 19.483 16.6862 19.3861 16.7858C19.2859 16.8837 18.7298 17.8055 18.7298 17.8055ZM18.0752 17.0002C18.0752 17.0002 19.0789 16.6271 19.1941 16.5494C19.3093 16.4718 19.3394 16.3147 19.2626 16.1982C19.1857 16.0817 19.0304 16.0514 18.9152 16.129C18.8 16.2067 18.0752 17.0002 18.0752 17.0002ZM17.5893 16.0801C17.5893 16.0801 18.6447 15.9112 18.7733 15.8589C18.9019 15.8049 18.962 15.658 18.9085 15.528C18.8551 15.398 18.7098 15.3372 18.5812 15.3912C18.4526 15.4452 17.5893 16.0801 17.5893 16.0801ZM17.2903 15.0839C17.2903 15.0839 18.3574 15.1278 18.4944 15.1008C18.6296 15.0738 18.7182 14.9404 18.6914 14.8037C18.6647 14.6669 18.5328 14.5774 18.3975 14.6044C18.2589 14.6298 17.2903 15.0839 17.2903 15.0839ZM17.1885 14.0456C17.1885 14.0456 18.2272 14.2988 18.3658 14.2988C18.5044 14.2988 18.6163 14.1857 18.6163 14.0456C18.6163 13.9055 18.5044 13.7923 18.3658 13.7923C18.2272 13.7923 17.1885 14.0456 17.1885 14.0456ZM17.2903 13.0073C17.2903 13.0073 18.2606 13.4597 18.3959 13.4884C18.5311 13.5155 18.663 13.426 18.6898 13.2892C18.7165 13.1525 18.628 13.0191 18.4927 12.9921C18.3574 12.9651 17.2903 13.0073 17.2903 13.0073ZM17.5893 12.0111C17.5893 12.0111 18.4526 12.6476 18.5812 12.7C18.7098 12.754 18.8551 12.6915 18.9085 12.5632C18.962 12.4332 18.9002 12.2863 18.7733 12.2323C18.6447 12.1783 17.5893 12.0111 17.5893 12.0111ZM18.0752 11.091C18.0752 11.091 18.8 11.8845 18.9152 11.9622C19.0304 12.0398 19.1857 12.0078 19.2626 11.8929C19.3394 11.7765 19.3077 11.6194 19.1941 11.5418C19.0789 11.4641 18.0752 11.091 18.0752 11.091ZM18.7298 10.2856C18.7298 10.2856 19.2876 11.2075 19.3845 11.3071C19.483 11.4067 19.6416 11.4067 19.7385 11.3071C19.837 11.2075 19.837 11.0471 19.7385 10.9492C19.64 10.8512 18.7298 10.2856 18.7298 10.2856ZM19.5264 9.62381C19.5264 9.62381 19.8955 10.6385 19.9723 10.755C20.0491 10.8715 20.2044 10.9019 20.3196 10.8242C20.4349 10.7466 20.4649 10.5895 20.3881 10.473C20.3113 10.3566 19.5264 9.62381 19.5264 9.62381ZM20.4365 9.1325C20.4365 9.1325 20.6035 10.1995 20.6553 10.3295C20.7087 10.4595 20.854 10.5203 20.9826 10.4663C21.1112 10.4123 21.1713 10.2654 21.1179 10.1354C21.0644 10.0054 20.4365 9.1325 20.4365 9.1325ZM21.4218 8.83028C21.4218 8.83028 21.3784 9.90914 21.4051 10.0476C21.4318 10.1843 21.5638 10.2738 21.699 10.2468C21.8343 10.2198 21.9228 10.0864 21.8961 9.94966C21.871 9.80953 21.4218 8.83028 21.4218 8.83028ZM22.4488 8.72729C22.4488 8.72729 22.1983 9.77745 22.1983 9.91758C22.1983 10.0577 22.3102 10.1708 22.4488 10.1708C22.5874 10.1708 22.6993 10.0577 22.6993 9.91758C22.6993 9.77745 22.4488 8.72729 22.4488 8.72729Z" fill="#FEC604"/>
<path d="M20.8691 21.8576C21.0778 21.9791 21.2365 21.7934 21.1981 21.6617C21.1981 21.6617 21.3033 21.633 21.512 21.5402C21.7208 21.4473 21.9362 21.4861 21.9362 21.4861C21.9045 21.5621 21.6991 21.6735 21.674 21.682C21.7158 21.709 21.7625 21.7293 21.8159 21.7326C21.7592 21.812 21.6924 21.8846 21.6072 21.9437C21.7909 22.0686 22.0247 21.9369 22.0247 21.9369C22.3537 22.0838 22.5658 22.0298 22.863 22.0298C23.1603 22.0298 23.1419 22.0804 23.1419 22.1041C23.1419 22.1277 22.9615 22.1834 22.8446 22.1547C22.7277 22.126 21.8276 22.1159 21.6156 22.1159C21.5688 22.1159 20.8056 22.0872 20.5618 22.3117V22.1547C20.5618 22.1547 20.4065 22.1935 20.3714 22.3691C20.2612 22.1648 20.2729 21.9048 20.5418 21.7934C20.6637 21.9724 20.8691 21.8576 20.8691 21.8576ZM23.6846 22.2763C23.4158 22.2763 22.5173 22.2813 22.0347 22.3624C21.9429 22.3776 21.8527 22.4097 21.7709 22.4552C20.9927 22.8858 21.4235 23.2758 22.0548 22.6781C22.0297 23.1188 22.1666 23.1492 22.5758 22.6612C22.4823 23.0799 22.6392 23.2268 23.1235 22.6477C23.0801 23.058 23.2822 23.1407 23.6362 22.7034C23.7381 23.0141 23.9101 23.0107 24.1372 22.6477C24.2441 22.933 24.4445 22.9719 24.7451 22.4755C24.8569 22.8165 25.0657 22.7473 25.2277 22.2813C25.6118 22.5886 25.8823 22.4637 25.8305 21.996C26.2447 22.3286 26.7841 22.0045 26.6471 21.628C26.3015 21.6718 25.044 21.4557 24.5781 21.5503C24.5914 21.7022 24.5012 21.8491 24.2825 21.8221C24.5313 21.9808 23.9836 22.2763 23.6846 22.2763ZM16.6892 15.2798C16.5606 14.8543 16.3285 15.1396 16.3385 15.327C16.3485 15.5144 16.3769 15.9821 16.447 16.2252C16.1815 15.8572 16.0129 15.1109 15.9594 14.7479C15.9076 14.3849 15.577 14.547 15.6004 14.8526C15.6238 15.1582 15.7089 15.9568 16.2049 16.7419C15.7891 16.3637 15.4952 15.7525 15.3349 15.6191C15.1745 15.4857 14.9324 15.5381 14.9992 15.815C15.066 16.0919 15.936 17.3311 16.1297 17.4695C15.6989 17.2923 15.3399 16.8043 15.1562 16.5849C14.9725 16.3654 14.7437 16.5713 14.8038 16.6608C14.8639 16.752 15.5436 17.6789 16.2016 18.1618C15.8225 18.1516 15.3599 17.6553 15.3933 17.9558C15.4267 18.2563 16.4387 18.8743 16.7643 18.9317C16.4136 18.9891 15.8525 18.8354 16.0078 18.9739C16.1631 19.1123 16.3869 19.2221 16.9764 19.3082C16.4855 19.4517 16.0028 19.5226 17.1284 19.6576C16.7309 19.8484 16.5806 19.8974 17.5025 20.0932C17.1768 20.2131 17.0432 20.1608 17.5926 20.3988C18.142 20.6369 18.7599 20.9965 19.3511 21.0353C19.9423 21.0742 19.6684 21.0117 19.2375 20.902C18.8067 20.7922 17.8231 20.3229 17.758 20.2655C18.1404 20.051 18.2406 20.0797 17.4039 19.8113C17.6644 19.6391 17.6878 19.6441 17.2002 19.4719C17.1768 19.3385 17.5793 19.2372 17.105 19.1511C17.1902 18.7544 17.0716 18.8878 16.7927 18.7645C16.5138 18.6396 16.4237 18.4589 16.4237 18.4589H16.7259L16.2249 17.9001H16.5623C16.5623 17.9001 16.584 17.5168 16.2533 17.164C16.2533 17.164 16.3485 17.088 16.5623 17.2264L16.6541 17.0407C16.6541 17.0407 17.2353 17.4797 17.4056 17.7667C17.5759 18.0537 18.1487 18.9232 18.7482 19.0819C19.3494 19.2389 19.807 20.1 20.2796 20.1473C20.7522 20.1945 21.8109 20.2334 22.1099 20.5339L22.3787 19.997C19.5782 19.9649 17.2469 17.9524 16.6892 15.2798ZM22.863 19.9818C22.519 20.073 22.342 20.5525 21.8711 20.956C21.4001 21.3595 20.7338 21.3764 20.6336 21.6178C20.5334 21.8593 20.8056 21.8525 20.8824 21.758C20.9492 21.8356 21.1597 21.8306 21.1045 21.6347C21.5321 21.4895 22.0865 21.0961 22.4806 20.7264C22.8747 20.3566 23.8232 20.2435 24.705 20.1827C25.1926 19.5496 26.2029 19.0059 26.7674 18.7696C27.422 17.4121 28.3755 17.4459 28.3755 17.4459C28.3755 17.4459 28.4256 17.5084 28.3371 17.7312C28.2486 17.9558 27.8161 18.258 28.2486 18.1179C28.6811 17.9777 28.449 18.2462 28.3037 18.415C28.1601 18.5839 27.9714 18.6345 28.2202 18.6396C28.4691 18.6446 28.1751 18.8472 27.9213 18.9924C27.6675 19.1376 27.5105 19.2001 27.7376 19.2339C27.9647 19.2676 27.1949 19.4534 27.3669 19.6036C27.5389 19.7539 26.8843 19.8383 26.9678 19.9177C27.2667 20.1591 26.6789 20.1304 26.6789 20.1304L26.7624 20.4056C25.9908 21.0556 25.1375 21.0894 25.1375 21.0894C26.7624 21.2126 27.417 20.4782 27.417 20.4782C27.417 20.4782 27.2066 20.3381 27.0062 20.2587C27.0062 20.2587 27.5556 20.1912 27.8211 20.1236C28.0866 20.0561 27.9881 19.9835 27.948 19.9666C27.9096 19.9497 27.7159 19.9548 27.5038 19.894C27.5038 19.894 28.0749 19.8315 28.2803 19.7032C28.4858 19.5749 28.3906 19.5412 28.3021 19.5462C28.2136 19.5513 27.9914 19.5969 27.8579 19.4905C27.8579 19.4905 28.5459 19.3622 28.7229 19.1984C28.8999 19.0363 28.7847 18.9789 28.7179 19.0026C28.6511 19.0245 28.4741 19.114 28.3071 19.0026C29.2723 18.4083 29.3775 18.2462 29.4994 17.9929C29.6213 17.7414 29.3324 17.8815 29.2506 17.9372C29.1671 17.9929 28.9283 18.1955 28.6845 18.1618C29.0719 17.8596 30.0154 16.8719 30.0605 16.6423C30.1056 16.4126 29.8935 16.4397 29.8 16.5393C29.7065 16.6389 29.1571 17.3311 28.768 17.4493C29.112 17.1234 29.7332 16.1374 29.8768 15.8403C30.0204 15.5431 29.6881 15.4368 29.5612 15.6208C29.4343 15.8048 29.0736 16.4177 28.6845 16.7588C29.0068 16.2877 29.3274 15.1835 29.284 14.802C29.2389 14.4204 28.9567 14.5555 28.9283 14.7344C28.8999 14.9134 28.7613 15.7778 28.434 16.232C28.4724 16.0868 28.5676 15.4857 28.5392 15.2578C28.5108 15.0282 28.3171 14.9759 28.2102 15.2578C27.6842 17.8325 25.5149 19.7961 22.863 19.9818Z" fill="#FEC604"/>
</svg>
