<svg width="33" height="32" viewBox="0 0 33 32" fill="none" xmlns="http://www.w3.org/2000/svg">
<rect x="0.0245972" width="32" height="32" rx="6" fill="#FF0000"/>
<path d="M14.0763 14.3968C13.5945 14.1025 13.0834 13.8582 12.5585 13.6572C12.106 14.3179 11.8431 15.1076 11.8431 15.9626C11.8431 16.3867 11.9086 16.7955 12.0327 17.1832C12.2516 16.6878 12.5291 16.206 12.8644 15.7472C13.223 15.2442 13.6315 14.7912 14.0763 14.3968ZM12.792 13.3552C13.3609 13.5495 13.9091 13.8005 14.434 14.0949C14.5503 13.9939 14.6744 13.9083 14.7917 13.8218C14.2366 13.5198 13.6462 13.2755 13.0403 13.0889C12.9523 13.1754 12.8653 13.2619 12.792 13.3552ZM13.3031 12.8455C13.9599 13.0177 14.5874 13.2552 15.1786 13.5639C15.3174 13.4774 15.4562 13.3985 15.5872 13.3196C14.9597 13.0032 14.2952 12.7734 13.6091 12.6088C13.5005 12.6801 13.3979 12.759 13.3031 12.8455ZM13.9237 12.4146C14.646 12.5579 15.3467 12.7878 16.0035 13.1042C16.668 12.7878 17.3679 12.5579 18.0833 12.4146C17.4773 12.0626 16.762 11.8616 16.0035 11.8616C15.245 11.8616 14.5365 12.0626 13.9237 12.4146ZM18.397 12.6156C17.7109 12.7734 17.0473 13.0109 16.4189 13.3196C16.5577 13.3985 16.6887 13.4774 16.8275 13.5639C17.4256 13.2552 18.054 13.0177 18.703 12.8455C18.609 12.759 18.5065 12.6801 18.397 12.6156ZM18.9667 13.0965C18.3608 13.2764 17.7773 13.5206 17.2153 13.8218C17.3394 13.9083 17.4636 14.0016 17.5799 14.0949C18.0979 13.8005 18.6452 13.5486 19.2149 13.3552C19.1417 13.2619 19.0615 13.1754 18.9667 13.0965ZM19.4477 13.664C18.9219 13.8582 18.4185 14.1025 17.9367 14.3968C18.3823 14.7921 18.7831 15.2442 19.1486 15.7472C19.477 16.2069 19.7545 16.6878 19.9803 17.1832C20.0967 16.7879 20.163 16.3859 20.163 15.9626C20.163 15.1076 19.9002 14.3171 19.4477 13.664ZM19.0908 16.4792C18.653 15.7828 18.1272 15.1645 17.5437 14.6403C17.4127 14.7336 17.2739 14.8269 17.1498 14.9202C18.135 15.8252 18.9305 16.9601 19.4339 18.2816C19.5502 18.1094 19.6597 17.9296 19.7476 17.7498C19.5649 17.3197 19.346 16.8956 19.0908 16.4792ZM16.7766 14.6123C16.9076 14.519 17.0395 14.4257 17.1783 14.3392C17.0619 14.2382 16.9378 14.1449 16.8137 14.0516C16.6749 14.1381 16.5361 14.2238 16.3974 14.3171H16.4043C16.5284 14.4113 16.6525 14.5113 16.7766 14.6123ZM16.0035 14.0372C16.1423 13.9507 16.2879 13.865 16.4198 13.7861C16.281 13.6996 16.1423 13.6139 16.0035 13.5351C15.8647 13.6139 15.7337 13.7005 15.5949 13.7861C15.7337 13.865 15.8647 13.9515 16.0035 14.0372ZM15.6096 14.3171C15.4708 14.2238 15.3398 14.1373 15.2011 14.0516C15.0769 14.1449 14.9528 14.2382 14.8287 14.3315C14.9675 14.4248 15.0985 14.5113 15.2304 14.6046C15.3536 14.5046 15.4777 14.4113 15.6096 14.3171ZM16.0035 14.6046C15.8794 14.6979 15.7553 14.7989 15.6242 14.9066C15.7553 15.0075 15.8794 15.1153 16.0035 15.223C16.1276 15.1153 16.2517 15.0075 16.3827 14.9066C16.2586 14.8057 16.1345 14.6979 16.0035 14.6046ZM16.0035 15.9482C15.4484 16.5368 14.9597 17.212 14.5658 17.9661C14.2961 18.469 14.084 18.9932 13.9237 19.5174C14.5365 19.855 15.245 20.056 16.0035 20.056C16.762 20.056 17.4705 19.855 18.0833 19.5174C17.923 18.9932 17.7109 18.469 17.4411 17.9661C17.0473 17.212 16.5654 16.5368 16.0035 15.9482ZM13.5953 18.6701C14.0694 17.4775 14.7701 16.4368 15.6311 15.575C15.507 15.4605 15.3829 15.3528 15.2519 15.2374C14.2521 16.1925 13.4497 17.3774 12.9601 18.7498C13.0989 18.9008 13.2445 19.0373 13.4057 19.1663C13.4635 19 13.529 18.8346 13.5953 18.6701ZM16.3758 15.5741C17.2369 16.4359 17.9376 17.4775 18.4194 18.6692C18.4849 18.8346 18.5435 19 18.6021 19.1646C18.7624 19.0356 18.9159 18.8991 19.0546 18.7481C18.5582 17.3766 17.7557 16.1916 16.7559 15.2357C16.6241 15.3519 16.4999 15.4596 16.3758 15.5741ZM12.5731 18.2816C13.0765 16.9601 13.872 15.8328 14.8649 14.9278C14.7339 14.8269 14.602 14.7336 14.4633 14.6403C13.8798 15.1721 13.354 15.7896 12.9161 16.486C12.661 16.8956 12.4421 17.3189 12.2594 17.7498C12.3473 17.9372 12.4567 18.1094 12.5731 18.2816ZM16.025 11.5308C18.5944 11.5308 20.6888 13.5919 20.6888 16.1204C20.6888 18.6489 18.5944 20.71 16.025 20.71C13.4557 20.71 11.3613 18.6489 11.3613 16.1204C11.3613 13.5919 13.4566 11.5308 16.025 11.5308ZM18.0833 10.5256C17.9523 10.6766 17.8057 10.87 17.6601 11.1796C17.6239 11.1007 17.6239 11.0074 17.6454 10.9065C17.6816 10.5757 17.7764 10.3747 17.9523 10.0948C18.0109 9.99381 18.0686 9.90815 18.0979 9.80042C18.2074 9.47726 18.1858 9.04637 17.9445 8.70879C17.9807 9.08963 17.8643 9.40516 17.7325 9.5994C17.7109 9.63503 17.6885 9.65708 17.6592 9.68592C17.5204 9.82248 17.367 9.95904 17.1705 10.2746C17.061 10.4468 16.9516 10.6554 16.849 10.9854C16.8051 10.9133 16.7904 10.8276 16.7982 10.7267C16.7835 10.3891 16.8421 10.1804 16.9662 9.87167C17.0102 9.76395 17.0542 9.67065 17.0688 9.55529C17.1197 9.2245 17.0326 8.80124 16.7404 8.50692C16.8352 8.87334 16.7766 9.20329 16.6749 9.41873C16.6534 9.45436 16.6387 9.4832 16.6163 9.51204C16.4999 9.6698 16.3758 9.82842 16.2224 10.166C16.1492 10.3602 16.069 10.5825 16.025 10.9201C15.9664 10.8556 15.9371 10.7691 15.9302 10.669C15.8647 10.3382 15.8863 10.1227 15.9595 9.79958C15.9888 9.69185 16.0181 9.59092 16.0104 9.47641C16.0104 9.13883 15.857 8.73678 15.5217 8.48486C15.6751 8.83687 15.6673 9.17445 15.6018 9.40431C15.5872 9.43315 15.5725 9.46878 15.5579 9.49762C15.47 9.67744 15.3683 9.84962 15.2735 10.2084C15.2295 10.4094 15.1855 10.6469 15.1933 10.9837C15.1347 10.926 15.0907 10.8471 15.0623 10.7538C14.9459 10.4306 14.9313 10.222 14.9597 9.8844C14.9666 9.76989 14.9744 9.66895 14.9597 9.56123C14.9011 9.22365 14.6822 8.85044 14.3176 8.6562C14.5219 8.97936 14.5658 9.31695 14.5365 9.54681C14.5296 9.58244 14.5219 9.61891 14.515 9.65453C14.4564 9.84114 14.384 10.0277 14.3469 10.4018C14.3323 10.6028 14.3254 10.8403 14.3909 11.1771C14.3176 11.127 14.2667 11.0549 14.2228 10.9684C14.0547 10.6664 14.0108 10.4586 13.9823 10.1278C13.9754 10.0133 13.9677 9.91239 13.9237 9.80467C13.8211 9.4815 13.5445 9.14392 13.1497 9.01499C13.4048 9.2949 13.5074 9.61806 13.5074 9.85556C13.5074 9.89118 13.5074 9.92765 13.5005 9.96328C13.4712 10.1575 13.435 10.3585 13.4566 10.725C13.4781 10.926 13.5074 11.1635 13.6246 11.4867C13.5445 11.451 13.479 11.3857 13.4204 11.3068C13.2083 11.0413 13.1359 10.8403 13.0558 10.5172C13.0265 10.4026 13.0049 10.3085 12.9463 10.2008C12.7929 9.90645 12.4645 9.61212 12.056 9.54003C12.3481 9.78431 12.5016 10.0931 12.5447 10.3229C12.5516 10.3585 12.5516 10.395 12.5516 10.4306C12.5585 10.6249 12.5516 10.8259 12.6317 11.1923C12.6826 11.3866 12.7481 11.6164 12.9161 11.9108C12.836 11.8895 12.7627 11.8387 12.6903 11.7674C12.4352 11.5375 12.3257 11.3509 12.2016 11.0422C12.1577 10.9345 12.1137 10.8412 12.0482 10.7479C11.8439 10.4824 11.4793 10.2449 11.0553 10.2381C11.3914 10.4323 11.5879 10.7046 11.6681 10.9277C11.675 10.9633 11.6828 10.9998 11.6897 11.0354C11.7259 11.2296 11.7483 11.4307 11.887 11.775C11.9672 11.9616 12.0766 12.1771 12.2887 12.4426C12.2008 12.4358 12.1206 12.3925 12.0404 12.3349C11.756 12.1482 11.6173 11.9761 11.4345 11.6953C11.3759 11.5944 11.3251 11.5087 11.2372 11.4298C10.9967 11.1932 10.595 11.0134 10.1787 11.071C10.5364 11.2144 10.7769 11.4587 10.8941 11.6673C10.9088 11.6962 10.9234 11.7318 10.9381 11.7683C11.0036 11.9481 11.0544 12.1415 11.2449 12.4646C11.3544 12.6368 11.4931 12.8311 11.7483 13.0677C11.6603 13.0677 11.5733 13.0389 11.4854 12.9956C11.1716 12.8523 11.0113 12.7081 10.7924 12.457C10.7123 12.3705 10.6467 12.2916 10.5519 12.2203C10.2744 12.0261 9.85121 11.9116 9.44956 12.0337C9.8288 12.1203 10.1063 12.3213 10.2451 12.5079C10.2744 12.5367 10.2891 12.5656 10.3037 12.6012C10.3985 12.7734 10.4864 12.96 10.7269 13.2407C10.8579 13.3985 11.026 13.5707 11.3104 13.7649C11.2303 13.7793 11.1423 13.7649 11.0406 13.7293C10.7123 13.6428 10.5295 13.5206 10.2744 13.3052C10.1865 13.2331 10.1063 13.1686 10.0046 13.111C9.69779 12.96 9.25994 12.9167 8.8807 13.0965C9.2677 13.1177 9.57368 13.2831 9.74951 13.4409C9.77105 13.4697 9.79346 13.491 9.81501 13.5274C9.93912 13.6784 10.0486 13.8506 10.333 14.0949C10.4864 14.2238 10.6829 14.368 10.9975 14.519C10.9174 14.5478 10.8226 14.5478 10.7278 14.5258C10.3847 14.4901 10.1874 14.3968 9.89603 14.2238C9.79346 14.1661 9.70641 14.1093 9.59695 14.0805C9.26856 13.9727 8.83761 13.9939 8.49457 14.2314C8.87381 14.1958 9.20219 14.3103 9.39957 14.4401C9.42888 14.4613 9.45818 14.4833 9.47973 14.5122C9.62539 14.6487 9.76416 14.7997 10.0779 14.9931C10.2529 15.1008 10.4718 15.2153 10.8002 15.3095C10.7269 15.3528 10.6399 15.3672 10.5373 15.3672C10.1942 15.374 9.98222 15.3171 9.66849 15.195C9.55902 15.1517 9.46421 15.1085 9.347 15.0941C9.01171 15.044 8.58076 15.1297 8.28168 15.4172C8.65402 15.3239 8.99706 15.3816 9.20823 15.4817C9.24443 15.5029 9.27373 15.5173 9.30304 15.5394C9.46335 15.6539 9.62453 15.776 9.97446 15.927C10.1641 15.9991 10.3908 16.078 10.7338 16.1212C10.6683 16.1789 10.5804 16.2077 10.4856 16.2145C10.1425 16.2866 9.93051 16.2578 9.59522 16.1857C9.48576 16.1569 9.3832 16.1356 9.26684 16.1356C8.9238 16.1356 8.51526 16.2866 8.26703 16.6166C8.61696 16.4656 8.96 16.4732 9.19358 16.5377C9.22978 16.5521 9.25908 16.5665 9.29614 16.581C9.47111 16.6675 9.65383 16.7676 10.0184 16.8609C10.2158 16.9041 10.4563 16.9474 10.7993 16.9397C10.7407 16.9974 10.6605 17.0407 10.5657 17.0687C10.2442 17.1832 10.0253 17.1976 9.69003 17.1696C9.57368 17.1628 9.47111 17.1552 9.35475 17.1696C9.01861 17.2273 8.63937 17.4427 8.44286 17.8091C8.76435 17.6005 9.10739 17.5581 9.34786 17.5869C9.38406 17.5937 9.41336 17.6013 9.45042 17.6081C9.64004 17.6726 9.82966 17.7371 10.2098 17.7735C10.414 17.7879 10.6554 17.7947 10.9975 17.7303C10.9467 17.8024 10.8734 17.8524 10.7855 17.8957C10.4864 18.0611 10.2675 18.1043 9.93137 18.1323C9.81501 18.1467 9.71244 18.1535 9.60298 18.19C9.2746 18.2909 8.93845 18.5632 8.80055 18.9517C9.09273 18.7006 9.42112 18.6073 9.66159 18.5997C9.69779 18.5997 9.73485 18.5997 9.77105 18.6065C9.96067 18.6353 10.1649 18.6709 10.545 18.6497C10.7493 18.6353 10.9906 18.5997 11.3113 18.4843C11.282 18.5632 11.2165 18.6277 11.1286 18.6853C10.8588 18.894 10.6545 18.9652 10.3261 19.0441C10.2167 19.073 10.1141 19.0942 10.0124 19.1519C9.70555 19.3028 9.41422 19.626 9.34096 20.028C9.58143 19.7405 9.89603 19.5895 10.1287 19.5471C10.1649 19.5403 10.202 19.5403 10.2382 19.5403C10.4356 19.5335 10.6467 19.5403 11.0122 19.4614C11.2096 19.4114 11.4431 19.3469 11.7491 19.1815C11.7276 19.2604 11.669 19.3393 11.5957 19.4038C11.3621 19.6548 11.1725 19.7626 10.8588 19.8847C10.7562 19.9347 10.6614 19.9712 10.5666 20.0357C10.2891 20.2367 10.0486 20.5955 10.0408 21.0128C10.2382 20.682 10.5226 20.4886 10.7485 20.4097C10.7847 20.403 10.814 20.3953 10.851 20.3885C11.0484 20.3529 11.2527 20.3309 11.6026 20.1943C11.7922 20.1154 12.0111 20.0077 12.2887 19.8067C12.274 19.8855 12.2378 19.9644 12.1723 20.0433C11.9827 20.3232 11.8146 20.4598 11.5224 20.6396C11.4276 20.6973 11.3397 20.7473 11.2527 20.8338C11.0122 21.0705 10.8364 21.4657 10.895 21.8754C11.0337 21.5234 11.282 21.2868 11.4931 21.1714C11.5293 21.157 11.5586 21.1426 11.5957 21.1282C11.7853 21.0705 11.9827 21.0137 12.3033 20.8262C12.4783 20.7185 12.6757 20.5819 12.9161 20.3309C12.923 20.4174 12.8946 20.503 12.8429 20.5896C12.6972 20.8983 12.5507 21.0561 12.2956 21.2715C12.2077 21.3504 12.1275 21.4149 12.062 21.5082C11.8646 21.7813 11.7483 22.1977 11.8724 22.593C11.9525 22.2198 12.1568 21.9467 12.3542 21.8101C12.3835 21.7889 12.4128 21.7669 12.4421 21.7524C12.6171 21.6591 12.8067 21.5726 13.0989 21.336C13.2523 21.207 13.4273 21.0416 13.6246 20.7617C13.6393 20.8406 13.6246 20.9339 13.5953 21.0272C13.5005 21.3504 13.3833 21.5302 13.1575 21.7813C13.0842 21.8678 13.0187 21.9467 12.9679 22.0544C12.8144 22.3564 12.7636 22.7796 12.9463 23.1537C12.9756 22.7728 13.1359 22.4717 13.304 22.3063C13.3255 22.2775 13.3549 22.2563 13.3842 22.2342C13.5445 22.1121 13.7125 22.0044 13.9608 21.7245C14.0918 21.5735 14.2383 21.3801 14.3917 21.0705C14.421 21.1494 14.421 21.2427 14.4064 21.336C14.3624 21.6736 14.2754 21.8678 14.0995 22.1545C14.034 22.2554 13.9832 22.3411 13.9461 22.4488C13.8436 22.772 13.866 23.2029 14.1064 23.5405C14.0702 23.1596 14.1797 22.8364 14.3185 22.6431C14.34 22.6142 14.3624 22.5854 14.384 22.5642C14.5227 22.4208 14.6762 22.2843 14.8804 21.9755C14.983 21.8033 15.0993 21.5879 15.1942 21.2647C15.2381 21.3368 15.2528 21.4225 15.2528 21.5234C15.2674 21.861 15.2088 22.0697 15.0778 22.3784C15.0338 22.4861 14.9976 22.5794 14.9752 22.6948C14.9244 23.0256 15.0114 23.4488 15.3036 23.7432C15.2088 23.3767 15.2674 23.0392 15.3769 22.8314C15.3915 22.7957 15.4062 22.7669 15.4277 22.7381C15.5441 22.5803 15.676 22.4217 15.8216 22.0773C15.9018 21.8907 15.9819 21.6676 16.0259 21.33C16.0768 21.3945 16.1061 21.481 16.1207 21.5743C16.1862 21.9119 16.1647 22.1206 16.0845 22.4505C16.0552 22.5582 16.0337 22.6592 16.0337 22.7737C16.0337 23.1113 16.194 23.5133 16.5301 23.7576C16.3767 23.4132 16.3767 23.0756 16.45 22.8458C16.4568 22.8101 16.4715 22.7813 16.4862 22.7448C16.5741 22.5727 16.6758 22.3928 16.7706 22.034C16.8145 21.8398 16.8585 21.6032 16.8507 21.2656C16.9162 21.3233 16.9533 21.4021 16.9817 21.4954C17.1059 21.8118 17.1128 22.0273 17.0912 22.3648C17.0766 22.4726 17.0697 22.5735 17.0912 22.688C17.1421 23.0256 17.361 23.3988 17.7333 23.593C17.5291 23.2699 17.4782 22.9323 17.5144 22.7024C17.5144 22.6668 17.5213 22.6303 17.536 22.5947C17.5946 22.4081 17.667 22.2215 17.704 21.8474C17.7109 21.6464 17.7187 21.4089 17.6601 21.0722C17.7256 21.1222 17.7842 21.1943 17.8281 21.2808C17.9962 21.5752 18.0402 21.7906 18.0686 22.1214C18.0755 22.2359 18.0833 22.3369 18.1195 22.4446C18.2289 22.7677 18.4987 23.0985 18.9004 23.2343C18.6452 22.9467 18.5427 22.6235 18.5358 22.3869C18.5358 22.3513 18.5358 22.3148 18.5427 22.2792C18.572 22.0926 18.6159 21.8915 18.5866 21.5175C18.572 21.3165 18.5358 21.079 18.4263 20.7634C18.4996 20.7991 18.5651 20.8567 18.6237 20.9433C18.8357 21.2087 18.9159 21.4098 18.996 21.7329C19.0176 21.8407 19.0469 21.9416 19.0986 22.0417C19.2589 22.3436 19.5804 22.6303 19.9958 22.7024C19.6968 22.4658 19.5433 22.1562 19.4994 21.9272C19.4925 21.8915 19.4925 21.8551 19.4925 21.8194C19.4925 21.6252 19.4994 21.4242 19.4192 21.0578C19.3684 20.8635 19.2951 20.6337 19.127 20.3325C19.2149 20.3538 19.2873 20.4114 19.3529 20.4835C19.608 20.7134 19.7174 20.9 19.8493 21.2087C19.8933 21.3097 19.9295 21.403 20.0027 21.4963C20.207 21.7694 20.5716 22.0061 20.9879 22.0137C20.6595 21.8194 20.4621 21.5395 20.382 21.3173C20.3673 21.2817 20.3604 21.2528 20.3527 21.2164C20.3234 21.0221 20.2941 20.8211 20.1553 20.4767C20.0751 20.2901 19.9726 20.0747 19.7614 19.8092C19.8493 19.816 19.9295 19.8525 20.0096 19.9169C20.2941 20.1035 20.4328 20.2689 20.6078 20.5565C20.6664 20.6498 20.7241 20.7431 20.8052 20.822C21.0456 21.0586 21.4473 21.2316 21.8636 21.174C21.5059 21.0374 21.2654 20.7931 21.156 20.5853C21.1344 20.5497 21.1198 20.5209 21.112 20.4844C21.0465 20.2978 20.9879 20.1035 20.7983 19.788C20.6888 19.6158 20.55 19.4216 20.3018 19.1849C20.382 19.1849 20.4699 19.2061 20.5647 19.257C20.8715 19.4004 21.0387 19.5446 21.2577 19.7956C21.3309 19.8822 21.3964 19.961 21.4912 20.0255C21.7688 20.2265 22.192 20.3342 22.5936 20.2197C22.2213 20.1332 21.9437 19.9322 21.7981 19.7388C21.7765 19.71 21.7541 19.6811 21.7395 19.6523C21.6447 19.4801 21.5645 19.2935 21.3232 19.006C21.1844 18.855 21.0163 18.6828 20.7319 18.4886C20.8198 18.4741 20.9069 18.4886 21.0017 18.5174C21.3301 18.6107 21.5128 18.7328 21.7757 18.9483C21.8636 19.0204 21.9437 19.0848 22.0454 19.1349C22.3523 19.2859 22.7824 19.3359 23.1625 19.1561C22.7755 19.1273 22.4764 18.9695 22.3014 18.8041C22.2721 18.7829 22.2506 18.754 22.2282 18.7252C22.1118 18.5674 21.9946 18.402 21.7171 18.1578C21.5567 18.0288 21.3594 17.8846 21.0525 17.7337C21.1327 17.7048 21.2206 17.7048 21.3223 17.7192C21.6576 17.7625 21.8627 17.8482 22.1471 18.028C22.2497 18.0857 22.3368 18.1357 22.4462 18.1713C22.7746 18.2723 23.2125 18.2502 23.5555 18.0136C23.1685 18.0492 22.8479 17.9415 22.6505 17.8049C22.6212 17.7837 22.5919 17.7616 22.5626 17.7404C22.4238 17.6039 22.2851 17.4529 21.9644 17.2519C21.7895 17.1509 21.5774 17.0364 21.2421 16.9431C21.3154 16.8999 21.4102 16.8855 21.505 16.8855C21.855 16.871 22.067 16.9287 22.3738 17.0576C22.4833 17.1009 22.5781 17.1365 22.6953 17.1586C23.0306 17.2086 23.4616 17.123 23.7606 16.8354C23.3883 16.9287 23.053 16.871 22.8341 16.7633C22.8048 16.7489 22.7686 16.7345 22.7393 16.7133C22.579 16.5988 22.4178 16.4766 22.0747 16.3256C21.8851 16.2535 21.6516 16.1747 21.3085 16.1246C21.374 16.0746 21.4619 16.0457 21.5636 16.0313C21.8998 15.9669 22.1187 15.9881 22.4471 16.0669C22.5566 16.0958 22.6591 16.117 22.7755 16.117C23.1185 16.117 23.5271 15.9592 23.7822 15.6361C23.4245 15.7794 23.0815 15.7794 22.8556 15.7082C22.8194 15.7014 22.7824 15.6869 22.7531 15.6725C22.5703 15.586 22.3954 15.4859 22.0308 15.3926C21.8265 15.3494 21.5929 15.3061 21.243 15.3137C21.3016 15.2493 21.3818 15.2128 21.4766 15.1848C21.805 15.0627 22.0239 15.0559 22.36 15.0771C22.4764 15.0915 22.579 15.0983 22.6962 15.0771C23.0315 15.027 23.4116 14.8116 23.6081 14.4452C23.2797 14.6462 22.9435 14.6962 22.7031 14.6674C22.6669 14.6606 22.6298 14.653 22.5936 14.6386C22.404 14.5809 22.2144 14.5096 21.842 14.4732C21.6378 14.4664 21.3895 14.4588 21.0543 14.5232C21.0982 14.4511 21.1706 14.3943 21.2663 14.351C21.5654 14.1856 21.7774 14.1424 22.1127 14.1144C22.229 14.1076 22.3316 14.1 22.4411 14.0643C22.7694 13.9566 23.1125 13.6911 23.2435 13.2959C22.9591 13.5469 22.6307 13.6479 22.3893 13.6547C22.3531 13.6547 22.3161 13.6547 22.2799 13.6479C22.0825 13.619 21.8782 13.5758 21.5059 13.6046C21.3016 13.619 21.0603 13.6547 20.7319 13.77C20.7681 13.6911 20.8345 13.6267 20.9146 13.569C21.1844 13.3603 21.3887 13.2814 21.7171 13.2026C21.8334 13.1814 21.9291 13.1525 22.0385 13.1016C22.3376 12.9439 22.6367 12.6275 22.71 12.2186C22.4617 12.513 22.1549 12.664 21.9144 12.7072C21.8782 12.714 21.8412 12.714 21.805 12.714C21.6076 12.714 21.4033 12.7072 21.0387 12.7861C20.8345 12.8361 20.6009 12.9082 20.3018 13.0736C20.3234 12.9871 20.3751 12.9159 20.4475 12.8514C20.681 12.6003 20.8707 12.4926 21.1844 12.3628C21.2939 12.3196 21.3887 12.284 21.4835 12.2119C21.7533 12.0108 21.9946 11.652 22.0015 11.2424C21.8041 11.5655 21.5274 11.7598 21.3008 11.8387C21.2646 11.8531 21.2275 11.8599 21.1913 11.8675C20.9939 11.9031 20.7896 11.9252 20.4397 12.0617C20.257 12.1406 20.0381 12.2416 19.7614 12.4494C19.7683 12.3705 19.8122 12.284 19.8709 12.2051C20.0605 11.9252 20.2354 11.7886 20.5207 11.6164C20.6233 11.5587 20.7104 11.5019 20.7905 11.4222C21.031 11.1855 21.2137 10.7903 21.1551 10.3806C21.0094 10.7326 20.7612 10.9692 20.5492 11.0846C20.5199 11.099 20.4837 11.1134 20.4544 11.1202C20.2647 11.1847 20.0674 11.2424 19.739 11.429C19.564 11.5367 19.3666 11.6733 19.1262 11.9175C19.1262 11.8387 19.1555 11.7521 19.1994 11.6665C19.3451 11.3577 19.4916 11.2 19.7467 10.9769C19.8347 10.9048 19.9148 10.8403 19.9872 10.747C20.1846 10.4739 20.3009 10.0574 20.1768 9.66217C20.0889 10.0286 19.8846 10.3017 19.695 10.4451C19.6657 10.4663 19.6364 10.4883 19.6002 10.5027C19.4253 10.596 19.2356 10.6749 18.9503 10.9124C18.79 11.049 18.6142 11.2144 18.4246 11.4943C18.403 11.4154 18.4177 11.3221 18.4539 11.2288C18.5487 10.9056 18.6659 10.7258 18.8848 10.4671C18.9581 10.3806 19.0305 10.3093 19.0822 10.2016C19.2356 9.89966 19.2796 9.47641 19.0969 9.10235C19.0753 9.4832 18.9141 9.77752 18.7469 9.94971C18.7176 9.97855 18.6961 9.99975 18.6668 10.0218C18.5065 10.1304 18.3315 10.2449 18.0833 10.5256Z" fill="#FFFF00"/>
</svg>
