<svg width="32" height="32" viewBox="0 0 32 32" fill="none" xmlns="http://www.w3.org/2000/svg">
<g clip-path="url(#clip0_8_97154)">
<path fill-rule="evenodd" clip-rule="evenodd" d="M5.09096 32H26.9334C29.7213 31.9758 32.0001 29.697 32.0001 26.8848V5.09091C32.0001 2.30303 29.7213 0 26.9091 0H5.1152C2.30308 0 0.024292 2.30303 0.024292 5.09091V26.8848C0.024292 29.6727 2.27884 31.9758 5.09096 32Z" fill="white"/>
<path fill-rule="evenodd" clip-rule="evenodd" d="M16.0243 9.62427C19.5152 9.62427 22.3516 12.4606 22.3516 16C22.3516 17.2121 22.0122 18.3515 21.4303 19.297C21.6728 18.8606 21.8182 18.3515 21.8182 17.794C21.8182 16.0243 20.4122 14.6182 18.6425 14.6182C18.0122 14.6182 17.4061 14.7879 16.897 15.1273C16.291 15.5394 16.2425 15.8303 15.8061 16.2909C15.2243 16.994 14.3516 17.4303 13.4061 17.4303C11.6364 17.4303 10.2303 15.9758 10.2303 14.2546C10.2303 13.5273 10.4728 12.897 10.8364 12.3394C11.9758 10.6909 13.8425 9.62427 16.0243 9.62427Z" fill="#BC283C"/>
<path fill-rule="evenodd" clip-rule="evenodd" d="M16.0001 22.3515C12.5092 22.3515 9.67279 19.4909 9.67279 15.9757C9.67279 14.7636 10.0122 13.6242 10.594 12.6788V12.6545C10.3516 13.1151 10.2061 13.6485 10.2061 14.1818C10.2061 15.9515 11.6122 17.3576 13.3819 17.3576C14.0122 17.3576 14.6182 17.1879 15.1273 16.8485C15.7334 16.4364 15.7819 16.1454 16.2182 15.6606C16.8001 15.0061 17.6728 14.5697 18.6182 14.5697C20.3879 14.5697 21.794 15.9758 21.794 17.7455C21.794 18.4485 21.5516 19.103 21.1879 19.6364C20.0485 21.2848 18.1334 22.3515 16.0001 22.3515Z" fill="#293B78"/>
<path fill-rule="evenodd" clip-rule="evenodd" d="M7.66067 6.59399L8.5334 7.17581L5.04249 12.4607L4.14552 11.8788L7.66067 6.59399ZM8.96976 7.46672L9.86673 8.07278L6.32734 13.3334L5.45461 12.7516L8.96976 7.46672ZM6.32734 5.69702L7.22431 6.30308L3.70915 11.5879L2.83643 10.9819L6.32734 5.69702Z" fill="#242121"/>
<path fill-rule="evenodd" clip-rule="evenodd" d="M4.12128 20.097L5.01824 19.5151L6.61825 21.9151L5.74552 22.5212L4.12128 20.097ZM6.03643 22.9576L6.9334 22.3757L8.5334 24.7757L7.66067 25.3818L6.03643 22.9576ZM5.45461 19.2242L6.32734 18.6182L9.86673 23.903L8.96976 24.4848L5.45461 19.2242ZM2.83643 20.9939L3.70915 20.3879L7.24855 25.6727L6.35158 26.2545L2.83643 20.9939Z" fill="#242121"/>
<path fill-rule="evenodd" clip-rule="evenodd" d="M23.4909 24.8L25.0909 22.4L25.9879 22.9818L24.3637 25.4061L23.4909 24.8ZM24.8 25.697L26.4243 23.2728L27.3212 23.8546L25.697 26.2788L24.8 25.697ZM24.0727 21.0667L25.697 18.6425L26.5697 19.2485L24.9455 21.6485L24.0727 21.0667ZM26.9818 19.5152L27.8788 20.097L26.2546 22.5212L25.3818 21.9152L26.9818 19.5152ZM26.6909 22.8122L28.3152 20.3879L29.1879 20.994L27.5637 23.394L26.6909 22.8122ZM22.1576 23.9273L23.7818 21.5031L24.6546 22.1091L23.0303 24.5091L22.1576 23.9273Z" fill="#242121"/>
<path fill-rule="evenodd" clip-rule="evenodd" d="M24.0727 10.9334L24.9455 10.3273L26.5697 12.7516L25.697 13.3334L24.0727 10.9334ZM23.4909 7.17581L24.3637 6.59399L27.903 11.8788L27.0061 12.4607L23.4909 7.17581ZM24.8 6.30308L25.697 5.69702L27.3212 8.12126L26.4243 8.70308C26.4243 8.70308 24.8 6.27884 24.8 6.30308ZM26.6909 9.16369L27.5637 8.55762L29.1879 10.9819L28.3152 11.5879L26.6909 9.16369ZM22.1576 8.07278L23.0303 7.46672L24.6546 9.89096L23.7818 10.497L22.1576 8.07278Z" fill="#242121"/>
</g>
<defs>
<clipPath id="clip0_8_97154">
<rect width="31.9758" height="32" fill="white" transform="translate(0.024292)"/>
</clipPath>
</defs>
</svg>
