<svg width="33" height="32" viewBox="0 0 33 32" fill="none" xmlns="http://www.w3.org/2000/svg">
<g clip-path="url(#clip0_8_98145)">
<path fill-rule="evenodd" clip-rule="evenodd" d="M26.9295 0H5.11906C2.30481 0 0.024292 2.28052 0.024292 5.09477V26.9052C0.024292 29.7195 2.30481 32 5.11906 32H26.9295C29.7438 32 32.0485 29.7195 32.0485 26.9052V5.09477C32.0485 2.28052 29.7195 0 26.9295 0Z" fill="#C12837"/>
<path fill-rule="evenodd" clip-rule="evenodd" d="M18.7537 7.05988C18.7537 7.05988 18.8022 7.10843 19.1418 7.08417C19.1418 7.08417 19.433 7.08414 19.433 6.93858C19.433 6.93858 19.433 6.79302 19.2874 6.76876C19.2874 6.76876 19.0448 6.67173 19.0205 6.74451C19.0205 6.74451 18.9963 6.76877 19.0205 6.86581C19.0205 6.86581 19.0205 6.96286 18.972 6.96286C18.972 6.96286 18.9478 6.9871 18.8507 6.93858C18.8507 6.93858 18.7294 6.84154 18.7294 6.91432C18.7294 6.89006 18.7051 6.91432 18.7537 7.05988ZM13.2707 7.05988C13.2707 7.05988 13.2222 7.10843 12.9311 7.08417C12.9311 7.08417 12.6399 7.08414 12.6399 6.93858C12.6399 6.93858 12.6157 6.79302 12.7855 6.76876C12.7855 6.76876 13.0281 6.67173 13.0524 6.74451C13.0524 6.74451 13.0766 6.76877 13.0524 6.86581C13.0524 6.86581 13.0281 6.96286 13.1009 6.96286C13.1009 6.96286 13.1009 6.9871 13.2222 6.93858C13.2222 6.93858 13.3435 6.84154 13.3435 6.91432C13.3435 6.89006 13.3435 6.91432 13.2707 7.05988ZM18.6081 20.3791C18.5111 20.3791 18.4868 20.3791 18.4383 20.2335C18.3898 20.0879 18.317 19.9666 18.317 19.9666C18.0258 19.3116 17.6134 18.6808 17.6134 18.6808C17.1767 17.9045 16.9098 17.953 16.9098 17.953C16.5702 17.953 16.6672 18.6808 16.6672 18.6808C16.9341 20.0879 17.6134 20.6702 17.6134 20.6702C18.0501 21.1554 18.9235 21.2767 18.9235 21.2767C19.2146 21.3253 19.1661 21.4465 19.1661 21.4465C19.0448 21.7377 18.7294 21.8347 18.7294 21.8347C18.1471 21.9803 17.7104 21.6406 17.7104 21.6406C17.5164 21.4708 17.4193 21.5436 17.4193 21.5436C17.3223 21.6649 17.4678 21.956 17.4678 21.956C17.6377 22.2714 18.1229 22.2957 18.1229 22.2957C18.5596 22.3199 18.7294 22.4412 18.7294 22.4412C18.972 22.5868 18.7779 22.7809 18.7779 22.7809C18.317 23.2661 17.7104 22.9265 17.7104 22.9265C17.4193 22.7809 16.9826 22.3442 16.9826 22.3442C16.8613 22.2471 16.8613 22.4655 16.8613 22.4655C16.8128 23.3146 17.5164 23.5087 17.5164 23.5087C17.8075 23.533 17.9773 23.6543 17.9773 23.6543C18.2199 23.7998 18.0016 23.9454 18.0016 23.9454C17.6862 24.2608 17.201 24.1152 17.201 24.1152C16.9098 24.0667 16.4246 23.4845 16.4246 23.4845C16.4004 23.3389 16.3276 23.3632 16.3276 23.3632C16.085 23.6058 16.6187 24.2608 16.6187 24.2608C16.7885 24.4549 16.6672 24.7703 16.6672 24.7703C16.4004 25.4738 15.9394 25.8135 15.9394 25.8135C15.9394 25.8135 15.4542 25.4738 15.2116 24.7703C15.2116 24.7703 15.0903 24.4549 15.2601 24.2608C15.2601 24.2608 15.7453 23.6058 15.5512 23.3632C15.5512 23.3632 15.5027 23.3389 15.4299 23.4845C15.4299 23.4845 14.969 24.0667 14.6536 24.1152C14.6536 24.1152 14.1926 24.2608 13.853 23.9454C13.853 23.9454 13.6832 23.7998 13.9015 23.6543C13.9015 23.6543 14.0471 23.533 14.3382 23.5087C14.3382 23.5087 15.0903 23.3146 15.0418 22.4655C15.0418 22.4655 15.0418 22.2714 14.9205 22.3442C14.9205 22.3442 14.4595 22.7809 14.1926 22.9265C14.1926 22.9265 13.5619 23.2661 13.1252 22.7809C13.1252 22.7809 12.9553 22.5868 13.1737 22.4412C13.1737 22.4412 13.3435 22.3199 13.7802 22.2957C13.7802 22.2957 14.2654 22.2714 14.4352 21.956C14.4352 21.956 14.5808 21.6649 14.4595 21.5436C14.4595 21.5436 14.411 21.4466 14.1926 21.6406C14.1926 21.6406 13.7559 21.9803 13.1737 21.8347C13.1737 21.8347 12.8583 21.7377 12.737 21.4465C12.737 21.4465 12.6885 21.3253 12.9311 21.2767C12.9311 21.2767 13.8287 21.1554 14.2654 20.6702C14.2654 20.6702 14.9205 20.0879 15.1873 18.6808C15.1873 18.6808 15.3086 17.953 14.9932 17.953C14.9932 17.953 14.7264 17.9045 14.2897 18.6808C14.2897 18.6808 13.8772 19.2873 13.5619 19.9666C13.5619 19.9666 13.5376 20.0879 13.4648 20.2335C13.4163 20.3791 13.3678 20.3791 13.2707 20.3791C12.7127 20.2578 12.4216 19.9424 12.4216 19.9424C12.4216 19.9424 11.621 20.2578 11.3299 20.3548C11.063 20.4761 10.8446 20.5974 10.7476 20.5974C10.6506 20.5974 10.6506 20.6217 10.6506 20.6217C10.6748 20.7187 11.0387 20.8643 11.0387 20.8643C11.2086 20.9613 11.3056 20.8885 11.3056 20.8885C11.4269 20.84 11.5482 20.8643 11.5482 20.8643C11.7908 20.9613 12.0577 21.2767 12.0577 21.2767C12.2033 21.5193 12.1062 21.7862 12.1062 21.7862C12.0092 21.7377 11.9606 21.6406 11.9606 21.6406C11.9364 21.5921 11.8636 21.5436 11.8636 21.5436C11.7423 21.4223 11.5725 21.4951 11.5725 21.4951C11.2328 21.6164 11.0873 21.3495 11.0873 21.3495C11.063 21.2525 10.9417 21.1797 10.9417 21.1797C10.8204 21.1312 10.6263 21.0341 10.6263 21.0341C10.2139 20.84 10.1168 20.84 10.1168 20.84C9.947 20.84 9.389 21.2282 9.389 21.2282C9.14639 21.3738 9.09787 21.4951 9.09787 21.4951C9.04935 21.6164 9.00082 21.6892 9.00082 21.6892C8.831 21.8832 8.51561 21.8833 8.51561 21.8833C8.34578 21.8833 8.273 22.0046 8.273 22.0046C8.1517 22.1259 8.07892 22.417 8.07892 22.417C7.90909 22.0773 7.95761 21.9075 7.95761 21.9075C8.00614 21.7377 8.05466 21.5921 8.05466 21.5921C8.07892 21.1312 8.63691 21.1554 8.63691 21.1554C8.87952 21.1797 9.04935 21.1069 9.04935 21.1069L9.46178 20.8643C9.6316 20.7672 9.60734 20.7672 9.60734 20.7672C9.43752 20.743 8.61265 20.7672 8.61265 20.7672C8.32152 20.7672 8.20022 20.8158 8.20022 20.8158C8.0304 20.8643 7.86056 20.84 7.86056 20.84C7.69074 20.8643 7.4724 20.6702 7.4724 20.6702C7.42388 20.5732 7.18127 20.6459 7.18127 20.6459C7.0357 20.6702 6.79309 20.6702 6.79309 20.6702C6.91439 20.282 7.37535 20.2578 7.37535 20.2578C7.52091 20.2578 7.69074 20.1607 7.69074 20.1607C7.98187 20.0394 8.20022 20.2578 8.20022 20.2578C8.24874 20.3548 8.37004 20.3548 8.37004 20.3548C8.68543 20.4519 9.389 20.4761 9.389 20.4761C9.58309 20.4761 9.58308 20.4519 9.58308 20.4519C9.58308 20.4276 9.53457 20.4033 9.53457 20.4033C9.29196 20.2335 9.14639 20.1365 9.14639 20.1365C8.87952 19.9666 8.80674 19.9909 8.80674 19.9909C8.75822 20.0152 8.66118 19.9909 8.66118 19.9909C8.37005 19.9666 8.20022 19.724 8.20022 19.724C8.07892 19.6027 7.86056 19.5785 7.73926 19.6027C7.64222 19.627 7.54518 19.6027 7.54518 19.6027C7.78779 19.1175 8.1517 19.2631 8.1517 19.2631C8.3943 19.3116 8.49135 19.2873 8.49135 19.2873C8.58839 19.2388 8.66118 19.2631 8.66118 19.2631C9.04935 19.3116 9.12213 19.6027 9.12213 19.6027C9.17065 19.724 9.2677 19.7725 9.2677 19.7725C9.46178 19.9666 10.1411 20.3791 10.1411 20.3791C11.524 19.8696 11.9364 19.6027 11.9364 19.6027C11.8151 19.4086 11.5967 19.1418 11.5967 19.1418C13.3435 18.3412 13.6832 17.1524 13.6832 17.1524C13.853 16.7157 13.7802 16.6914 13.7802 16.6914C13.6832 16.6914 13.5376 16.9583 13.5376 16.9583C13.2465 17.5891 12.8826 17.7346 12.8826 17.7346C12.4944 18.0015 12.3731 17.7589 12.3731 17.7589C12.2518 17.5891 12.5186 17.3465 12.5186 17.3465C12.7612 17.0553 12.834 16.7399 12.834 16.7399C12.9553 16.3033 12.7855 16.2305 12.7855 16.2305C12.5429 16.0606 12.3731 16.6672 12.3731 16.6672C11.9606 17.6134 11.621 18.0258 11.621 18.0258C11.1115 18.6808 10.6263 18.2684 10.6263 18.2684C10.4322 17.9773 10.7233 17.8074 10.7233 17.8074C11.0387 17.6619 11.2813 17.3707 11.2813 17.3707C11.9364 16.2305 11.6695 16.0121 11.6695 16.0121C11.5239 15.818 11.16 16.4731 11.16 16.4731C10.2381 17.8559 9.36474 18.4382 9.36474 18.4382C7.98187 19.1418 7.44814 18.2684 7.44814 18.2684C7.25405 17.8074 7.78779 17.8317 7.78779 17.8317C8.17596 17.8559 8.51561 17.8559 8.51561 17.8559C9.41326 17.7346 10.044 16.6429 10.044 16.6429C10.6263 15.7938 10.6506 15.4056 10.6506 15.4056C10.6506 15.26 10.4565 15.4541 10.4565 15.4541C10.1168 15.7938 9.68012 16.2062 9.68012 16.2062C8.63691 17.1281 7.93335 16.9098 7.93335 16.9098C7.15701 16.74 7.157 16.279 7.157 16.279C7.13274 15.8908 7.76352 16.0121 7.76352 16.0121C8.51561 16.0606 8.80674 15.9636 8.80674 15.9636C9.55883 15.624 10.1411 14.7263 10.1411 14.7263C10.6991 14.0228 10.602 13.8529 10.602 13.8529C10.505 13.7316 10.1411 14.1198 10.1411 14.1198C9.84996 14.3867 9.34047 14.7263 9.34047 14.7263C8.56413 15.3328 7.83631 15.1872 7.83631 15.1872C7.0357 15.0417 7.20553 14.3139 7.20553 14.3139C7.30257 13.9742 7.93335 14.1683 7.93335 14.1683C8.24874 14.2896 8.63691 14.2654 8.63691 14.2654C9.26769 14.2654 9.99552 13.4162 9.99552 13.4162C10.5778 12.834 10.3837 12.7612 10.3837 12.7612C10.2624 12.6399 9.24343 13.2221 9.24343 13.2221C8.3943 13.7073 7.71501 13.489 7.71501 13.489C6.96292 13.0523 7.20553 12.6884 7.20553 12.6884C7.44814 12.3002 7.95761 12.5914 7.95761 12.5914C8.07892 12.6399 8.273 12.7127 8.273 12.7127C8.87952 12.9553 9.60734 12.5186 9.60734 12.5186C10.602 12.0091 10.4807 11.5967 10.4807 11.5967C10.3837 11.4268 9.99552 11.6209 9.99552 11.6209C9.389 11.9606 8.70969 11.9363 8.70969 11.9363C7.66648 11.9121 7.157 11.2328 7.157 11.2328C6.98718 10.9901 7.27831 10.7475 7.27831 10.7475C7.47239 10.5777 7.88483 10.8688 7.88483 10.8688C8.37004 11.1842 8.97656 11.2813 8.97656 11.2813C9.84995 11.3055 10.3109 10.6747 10.3109 10.6747C10.6991 10.2866 10.5535 10.2138 10.5535 10.2138C10.5293 10.0682 9.89848 10.3351 9.89848 10.3351C9.41326 10.5777 8.80674 10.5292 8.80674 10.5292C7.78779 10.5534 7.32683 9.80136 7.32683 9.80136C6.98718 9.38893 7.18127 9.07354 7.18127 9.07354C7.44813 8.73389 7.73926 9.07354 7.73926 9.07354C8.00613 9.38893 8.3943 9.63155 8.3943 9.63155C8.90378 9.87416 9.63161 9.82562 9.63161 9.82562C10.3352 9.80136 10.3837 9.5345 10.3837 9.5345C10.4807 9.34041 10.3352 9.2191 10.3352 9.2191C10.1896 9.07353 9.77717 9.04929 9.77717 9.04929C8.90378 8.87946 8.17596 8.46702 8.17596 8.46702C7.56944 8.15163 7.157 7.59364 7.157 7.59364C6.76883 6.89007 7.25404 6.67171 7.25404 6.67171C7.69074 6.40485 7.88483 6.91432 7.88483 6.91432C8.07891 7.25397 8.32153 7.47233 8.32153 7.47233C9.24344 8.34572 10.2624 8.53981 10.2624 8.53981C10.505 8.63686 10.5535 8.49127 10.5535 8.49127L10.6748 8.22441C10.7233 8.05459 11.1358 8.27292 11.1358 8.27292L12.5914 8.85519C13.1737 9.09779 13.1009 9.80136 13.1009 9.80136V10.3108C13.1252 10.9174 13.853 10.7718 13.853 10.7718C14.3625 10.7233 14.2897 9.89841 14.2897 9.89841C14.1199 8.56407 13.2465 8.24867 13.2465 8.24867C12.834 7.93328 11.9364 7.8605 11.9364 7.8605C11.2086 7.7392 11.0873 7.44808 11.0873 7.44808C11.6695 7.59364 11.9849 7.35103 11.9849 7.35103C11.9606 7.32677 11.3299 7.32677 11.3299 7.32677C11.0387 7.32677 10.8689 7.30249 10.8689 7.30249C10.602 7.27823 10.4079 7.05988 10.4079 7.05988C10.1411 6.93858 10.0683 6.76876 10.0683 6.76876C9.97126 6.59894 10.1168 6.57467 10.1168 6.57467C10.3109 6.5504 10.4322 6.74451 10.4322 6.74451L10.602 6.93858C10.7476 7.08414 10.8446 7.08417 10.8446 7.08417C11.3541 7.20547 11.5967 7.18119 11.5967 7.18119C11.7666 7.18119 11.7666 7.05988 11.7666 7.05988C11.7423 6.91432 11.4754 6.86581 11.4754 6.86581C11.3056 6.86581 10.9174 6.98712 10.9174 6.98712C10.9417 6.86581 11.0145 6.74451 11.0145 6.74451C11.16 6.40486 11.8151 6.45336 11.8151 6.45336C12.1305 6.45336 12.2033 6.35634 12.2033 6.35634C12.4459 6.11373 12.7612 6.1865 12.7612 6.1865C13.2465 6.23502 13.6832 6.45336 13.6832 6.45336C14.0228 6.64745 14.3867 6.59895 14.3867 6.59895C14.5808 6.59895 14.969 6.5019 14.969 6.5019C15.2116 6.40486 15.0903 6.55041 15.0903 6.55041C14.8962 6.84154 14.6536 6.93858 14.6536 6.93858C14.508 7.03562 14.508 7.05988 14.508 7.05988C14.5323 7.22971 14.9205 7.39954 14.9205 7.39954C15.1145 7.44806 15.1873 7.52084 15.1873 7.52084C15.2359 7.61789 15.0903 7.69069 15.0903 7.69069C15.0418 7.69069 14.9447 7.7392 14.9447 7.7392C14.7992 7.83624 14.8477 7.88475 14.8477 7.88475C15.0903 8.15162 15.4057 8.20016 15.4057 8.20016C15.5755 8.20016 15.5512 8.29721 15.5512 8.29721C15.527 8.41851 15.2844 8.44277 15.2844 8.44277C15.1873 8.46703 15.2359 8.49127 15.2359 8.49127C15.2844 8.61258 15.4057 8.73388 15.4057 8.73388C15.5512 8.87945 15.7211 8.83093 15.7211 8.83093C15.8666 8.78241 15.8424 8.87944 15.8424 8.87944C15.8424 8.92796 15.7453 9.04929 15.7453 9.04929C15.7211 9.09781 15.7453 9.14633 15.7453 9.14633C15.7938 9.24338 15.9879 9.24335 15.9879 9.24335C15.9879 9.24335 16.1335 9.24338 16.182 9.14633C16.182 9.14633 16.2305 9.12207 16.182 9.04929C16.182 9.04929 16.1335 8.92796 16.085 8.87944C16.085 8.87944 16.085 8.75815 16.2305 8.83093C16.2305 8.83093 16.3761 8.87945 16.5217 8.73388C16.5217 8.73388 16.643 8.61258 16.7158 8.49127C16.7158 8.49127 16.74 8.46703 16.6187 8.44277C16.6187 8.44277 16.3761 8.41851 16.3518 8.29721C16.3518 8.29721 16.3276 8.20016 16.4974 8.20016C16.4974 8.20016 16.8371 8.15162 17.0797 7.88475C17.0797 7.88475 17.1039 7.83624 16.9826 7.7392C16.9826 7.7392 16.8613 7.69069 16.8371 7.69069C16.8371 7.69069 16.6672 7.59363 16.74 7.52084C16.74 7.52084 16.7885 7.47232 17.0069 7.39954C17.0069 7.39954 17.3951 7.22971 17.4193 7.05988C17.4193 7.05988 17.4193 7.03562 17.2738 6.93858C17.2738 6.93858 17.0312 6.84154 16.8128 6.55041C16.8128 6.55041 16.6915 6.40486 16.9584 6.5019C16.9584 6.5019 17.298 6.59895 17.5164 6.59895C17.5164 6.59895 17.9045 6.64745 18.2442 6.45336C18.2442 6.45336 18.6809 6.25928 19.1661 6.1865C19.1661 6.1865 19.4815 6.138 19.7241 6.35634C19.7241 6.35634 19.7726 6.45336 20.1123 6.45336C20.1123 6.45336 20.7431 6.40486 20.8886 6.74451C20.8886 6.74451 20.9371 6.86581 21.0099 6.98712C21.0099 6.98712 20.5975 6.86581 20.4519 6.86581C20.4519 6.86581 20.1608 6.91432 20.1365 7.05988C20.1365 7.05988 20.1365 7.18119 20.3306 7.18119C20.3306 7.18119 20.5732 7.20547 21.0584 7.08417C21.0584 7.08417 21.1797 7.08414 21.3011 6.93858L21.4709 6.74451C21.4709 6.74451 21.6164 6.5504 21.7863 6.57467C21.7863 6.57467 21.9561 6.59894 21.8833 6.76876C21.8833 6.76876 21.762 6.93858 21.5437 7.05988C21.5437 7.05988 21.301 7.25397 21.0827 7.30249C21.0827 7.30249 20.8886 7.32677 20.5975 7.32677C20.5975 7.32677 19.9667 7.32677 19.9667 7.35103C19.9667 7.35103 20.2578 7.59364 20.8644 7.44808C20.8644 7.44808 20.743 7.7392 19.991 7.8605C19.991 7.8605 19.1176 7.90902 18.6809 8.24867C18.6809 8.24867 17.8318 8.56407 17.6377 9.89841C17.6377 9.89841 17.5406 10.699 18.0986 10.7718C18.0986 10.7718 18.8264 10.9174 18.8264 10.3108L18.8507 9.80136C18.8507 9.80136 18.8022 9.07353 19.3359 8.85519L20.8158 8.27292C20.8158 8.27292 21.204 8.03033 21.2768 8.22441L21.3981 8.49127C21.3981 8.49127 21.4466 8.63686 21.6892 8.53981C21.6892 8.53981 22.7082 8.34572 23.6301 7.47233C23.6301 7.47233 23.8727 7.27823 24.0425 6.91432C24.0425 6.91432 24.2851 6.42911 24.6733 6.67171C24.6733 6.67171 25.1343 6.91433 24.7946 7.59364C24.7946 7.59364 24.3822 8.15163 23.7514 8.46702C23.7514 8.46702 23.0478 8.87946 22.1987 9.04929C22.1987 9.04929 21.7863 9.07353 21.6407 9.2191C21.6407 9.2191 21.4951 9.34041 21.5922 9.5345C21.5922 9.5345 21.6164 9.80136 22.3443 9.82562C22.3443 9.82562 23.0721 9.8499 23.5573 9.63155C23.5573 9.63155 23.994 9.38893 24.2123 9.07354C24.2123 9.07354 24.5277 8.73389 24.7703 9.07354C24.7703 9.07354 24.9644 9.38893 24.649 9.80136C24.649 9.80136 24.1881 10.5534 23.1449 10.5292C23.1449 10.5292 22.5626 10.5534 22.0774 10.3351C22.0774 10.3351 21.4466 10.0682 21.4224 10.2138C21.4224 10.2138 21.2525 10.3108 21.6164 10.6747C21.6164 10.6747 22.1017 11.3055 22.975 11.2813C22.975 11.2813 23.5573 11.1842 24.0668 10.8688C24.0668 10.8688 24.4792 10.5777 24.6733 10.7475C24.6733 10.7475 24.9402 11.0144 24.7946 11.2328C24.7946 11.2328 24.2851 11.8878 23.2419 11.9363C23.2419 11.9363 22.5869 11.9606 21.9318 11.6209C21.9318 11.6209 21.5437 11.4268 21.4709 11.5967C21.4709 11.5967 21.3496 12.0091 22.32 12.5186C22.32 12.5186 23.0721 12.9553 23.6786 12.7127C23.6786 12.7127 23.8484 12.6641 23.9697 12.5914C23.9697 12.5914 24.5277 12.3002 24.7461 12.6884C24.7461 12.6884 24.9887 13.0766 24.2366 13.489C24.2366 13.489 23.533 13.7316 22.7082 13.2221C22.7082 13.2221 21.6892 12.6399 21.5679 12.7612C21.5679 12.7612 21.3253 12.8582 21.9561 13.4162C21.9561 13.4162 22.6839 14.2654 23.3147 14.2654C23.3147 14.2654 23.6543 14.2896 23.9697 14.1683C23.9697 14.1683 24.6248 13.9742 24.7218 14.3139C24.7218 14.3139 24.8916 15.0417 24.0668 15.1872C24.0668 15.1872 23.3632 15.3328 22.5626 14.7263C22.5626 14.7263 22.0531 14.3867 21.7863 14.1198C21.7863 14.1198 21.3981 13.7316 21.3253 13.8529C21.3253 13.8529 21.204 14.0228 21.762 14.7263C21.762 14.7263 22.3443 15.624 23.0964 15.9636C23.0964 15.9636 23.3875 16.0849 24.1638 16.0121C24.1638 16.0121 24.7946 15.8908 24.7703 16.279C24.7703 16.279 24.7461 16.74 23.994 16.9098C23.994 16.9098 23.2662 17.1524 22.2472 16.2062C22.2472 16.2062 21.7863 15.7938 21.4709 15.4541C21.4709 15.4541 21.2283 15.26 21.2283 15.4056C21.2283 15.4056 21.2768 15.818 21.8348 16.6429C21.8348 16.6429 22.4656 17.7346 23.3875 17.8559C23.3875 17.8559 23.7271 17.8559 24.091 17.8317C24.091 17.8317 24.649 17.8074 24.4307 18.2684C24.4307 18.2684 23.9455 19.1418 22.5141 18.4382C22.5141 18.4382 21.665 17.8559 20.7188 16.4731C20.7188 16.4731 20.3306 15.818 20.2093 16.0121C20.2093 16.0121 19.9424 16.2547 20.6217 17.3707C20.6217 17.3707 20.8644 17.6619 21.1312 17.8074C21.1312 17.8074 21.4466 17.9773 21.2525 18.2684C21.2525 18.2684 20.7673 18.7051 20.2578 18.0258C20.2578 18.0258 19.9182 17.6134 19.5057 16.6672C19.5057 16.6672 19.3359 16.0606 19.0691 16.2305C19.0691 16.2305 18.9235 16.3275 19.0448 16.7399C19.0448 16.7399 19.0933 17.0553 19.3602 17.3465C19.3602 17.3465 19.6271 17.5891 19.4815 17.7589C19.4815 17.7589 19.3602 18.0015 18.972 17.7346C18.972 17.7346 18.6324 17.5891 18.317 16.9583C18.317 16.9583 18.1957 16.6914 18.1229 16.6914C18.1229 16.6914 18.0258 16.7157 18.2199 17.1524C18.2199 17.1524 18.5596 18.3412 20.3064 19.1418C20.3064 19.1418 20.0395 19.4086 19.9667 19.6027C19.9667 19.6027 20.3549 19.8696 21.762 20.3791C21.762 20.3791 22.417 19.9666 22.6354 19.7725C22.6354 19.7725 22.7324 19.724 22.781 19.6027C22.781 19.6027 22.878 19.3116 23.2177 19.2631C23.2177 19.2631 23.3147 19.2388 23.3875 19.2873C23.3875 19.2873 23.5088 19.3116 23.7271 19.2631C23.7271 19.2631 24.1396 19.1175 24.3579 19.6027C24.3579 19.6027 24.2366 19.627 24.1153 19.6027C24.0183 19.5785 23.7757 19.6027 23.6786 19.724C23.6786 19.724 23.4845 19.9666 23.2177 19.9909C23.2177 19.9909 23.1206 20.0152 23.0478 19.9909C23.0478 19.9909 22.9508 19.9666 22.7324 20.1365C22.7324 20.1365 22.5626 20.2335 22.3443 20.4033C22.3443 20.4033 22.2472 20.4276 22.2957 20.4519C22.2957 20.4519 22.2957 20.4761 22.4898 20.4761C22.4898 20.4761 23.1934 20.4519 23.5088 20.3548C23.5088 20.3548 23.6058 20.3548 23.6786 20.2578C23.6786 20.2578 23.8727 20.0637 24.1638 20.1607C24.1638 20.1607 24.3579 20.2578 24.5035 20.2578C24.5035 20.2578 24.9644 20.282 25.0615 20.6702C25.0615 20.6702 24.8674 20.6702 24.6733 20.6459C24.6733 20.6459 24.4792 20.5974 24.3822 20.6702C24.3822 20.6702 24.2123 20.8643 23.994 20.84C23.994 20.84 23.8242 20.8643 23.6786 20.8158C23.6786 20.8158 23.5573 20.7672 23.2662 20.7672C23.2662 20.7672 22.4656 20.743 22.2715 20.7672C22.2715 20.7672 22.223 20.7672 22.417 20.8643L22.8052 21.1069C22.8052 21.1069 22.9993 21.204 23.2177 21.1554C23.2177 21.1554 23.7999 21.1312 23.8242 21.5921C23.8242 21.5921 23.8484 21.7377 23.9212 21.9075C23.9212 21.9075 23.9697 22.0773 23.7999 22.417C23.7999 22.417 23.7029 22.1259 23.6058 22.0046C23.6058 22.0046 23.5573 21.8833 23.3632 21.8833C23.3632 21.8833 23.0236 21.8832 22.878 21.6892C22.878 21.6892 22.8295 21.5921 22.7567 21.4951C22.7567 21.4951 22.7324 21.3738 22.4898 21.2282C22.4898 21.2282 21.9318 20.84 21.7377 20.84C21.7377 20.84 21.6164 20.84 21.2283 21.0341C21.2283 21.0341 21.0584 21.1312 20.9371 21.1797C20.9371 21.1797 20.7916 21.2767 20.7916 21.3495C20.7916 21.3495 20.646 21.6164 20.3064 21.4951C20.3064 21.4951 20.1365 21.4466 20.0152 21.5436C20.0152 21.5436 19.9667 21.5679 19.9182 21.6406C19.9182 21.6406 19.8697 21.7377 19.7726 21.7862C19.7726 21.7862 19.6513 21.4951 19.8211 21.2767C19.8211 21.2767 20.088 20.9613 20.3064 20.8643C20.3064 20.8643 20.4519 20.84 20.549 20.8885C20.549 20.8885 20.646 20.9371 20.8158 20.8643C20.8158 20.8643 21.1555 20.7187 21.204 20.6217C21.204 20.6217 21.2283 20.5974 21.1555 20.5974C21.0584 20.5974 20.8401 20.4761 20.549 20.3548C20.2578 20.2578 19.4815 19.9424 19.4815 19.9424C19.4815 19.9424 19.1904 20.282 18.6081 20.3791Z" fill="#F4E217"/>
</g>
<defs>
<clipPath id="clip0_8_98145">
<rect width="32.0243" height="32" fill="white" transform="translate(0.024292)"/>
</clipPath>
</defs>
</svg>
