<svg width="33" height="32" viewBox="0 0 33 32" fill="none" xmlns="http://www.w3.org/2000/svg">
<g clip-path="url(#clip0_8_97187)">
<path fill-rule="evenodd" clip-rule="evenodd" d="M5.071 31.9998H10.6995V0H5.11953C2.32955 0 0.024789 2.2805 0.024789 5.09474V26.9051C0.000528304 29.7193 2.28103 31.9998 5.071 31.9998Z" fill="#CC2631"/>
<path d="M21.3256 0H10.6752V31.9998H21.3256V0Z" fill="#6AACD0"/>
<path fill-rule="evenodd" clip-rule="evenodd" d="M21.3257 31.9998H26.9541C29.7441 31.9998 32.0003 29.7193 32.0246 26.9293V5.07047C32.0003 2.25623 29.7198 0 26.9056 0H21.3499V31.9998H21.3257Z" fill="#CC2631"/>
<path fill-rule="evenodd" clip-rule="evenodd" d="M7.69116 15.4055H9.60775V24.5275H7.69116V15.4055ZM3.51832 22.2713H7.30299V23.0234H3.51832V22.2713ZM3.51832 16.9339H7.30299V17.686H3.51832V16.9339ZM3.51832 23.4115H7.30299L5.41065 24.5518L3.51832 23.4115ZM3.51832 15.4055H7.30299L5.41065 16.57L3.51832 15.4055ZM5.43491 18.0742C6.47812 18.0742 7.32725 18.9476 7.32725 19.9908C7.32725 21.034 6.47812 21.8831 5.43491 21.8831C4.36744 21.8831 3.51832 21.034 3.51832 19.9908C3.51832 18.9476 4.36744 18.0742 5.43491 18.0742ZM5.43491 10.8688C6.28404 10.8688 6.93908 11.5238 6.93908 12.3729C6.93908 13.2221 6.28404 13.9014 5.43491 13.9014C4.58579 13.9014 3.93076 13.1978 3.93076 12.3729C3.93076 11.5238 4.58579 10.8688 5.43491 10.8688ZM7.52133 12.9795C7.49707 14.1197 6.57516 15.0416 5.43491 15.0416C4.2704 15.0416 3.37276 14.1197 3.3485 12.9795C3.66388 13.7315 4.48875 14.2895 5.43491 14.2895C6.35682 14.2895 7.18168 13.7315 7.52133 12.9795ZM5.3864 7.47229C5.3864 7.47229 5.26509 7.64212 5.43491 7.81195C5.43491 7.81195 5.8716 8.24863 5.77456 8.7581C5.77456 8.7581 5.75031 9.02498 5.629 9.21906C5.629 9.21906 5.5077 9.41315 5.75031 9.51019C5.75031 9.51019 5.99291 9.5587 5.99291 9.31609C5.99291 9.31609 5.99291 9.21905 5.89586 9.07349C5.89586 9.07349 5.77457 8.90367 5.99291 8.66107C5.99291 8.66107 6.08995 8.5155 6.01717 8.36994C6.01717 8.36994 6.25978 8.56401 6.16273 8.70958C6.16273 8.70958 6.11421 8.87941 6.16273 9.00071C6.16273 9.00071 6.18699 9.02498 6.25977 9.14628C6.25977 9.14628 6.52664 9.4374 6.28404 9.92261C6.28404 9.92261 5.99291 10.5049 5.36213 10.4321C5.36213 10.4321 4.77987 10.4078 4.56153 9.80131C4.56153 9.80131 4.39171 9.48592 4.61005 9.17054C4.61005 9.17054 4.75562 9.00071 4.73136 8.87941C4.73136 8.87941 4.73135 8.7581 4.70709 8.68532C4.70709 8.68532 4.65858 8.56402 4.87692 8.36994C4.87692 8.36994 4.77988 8.53976 4.90118 8.66107C4.90118 8.66107 5.07101 8.83088 4.99822 9.07349C4.99822 9.07349 4.9497 9.17054 4.90118 9.21906C4.90118 9.21906 4.80414 9.46167 5.04674 9.51019C5.04674 9.51019 5.31361 9.51018 5.24083 9.24332C5.24083 9.24332 5.19231 9.12201 5.14379 9.04923C5.14379 9.04923 5.02248 8.7581 5.16804 8.44272C5.16804 8.44272 5.36214 8.24863 5.26509 7.98176C5.26509 8.00602 5.14379 7.61785 5.3864 7.47229ZM1.26208 15.4055H3.15441V24.5275H1.26208V15.4055Z" fill="#F5EC0C"/>
</g>
<defs>
<clipPath id="clip0_8_97187">
<rect width="32" height="31.9998" fill="white" transform="translate(0.0245972)"/>
</clipPath>
</defs>
</svg>
