<svg width="33" height="32" viewBox="0 0 33 32" fill="none" xmlns="http://www.w3.org/2000/svg">
<g clip-path="url(#clip0_8_98140)">
<path fill-rule="evenodd" clip-rule="evenodd" d="M5.11515 32H26.9576C29.7454 31.9758 32.0242 29.697 32.0242 26.8848V5.11515C32.0242 2.30302 29.7454 0 26.9333 0H5.13938C2.32726 0 0.0242375 2.30302 0.0242375 5.11515V26.8848C-4.92066e-06 29.697 2.30303 31.9758 5.11515 32Z" fill="#2D3477"/>
<path fill-rule="evenodd" clip-rule="evenodd" d="M4.60609 0.0242365V4.19394L12.9455 0H16.0243L16.0485 1.52727L9.96366 4.55757H16.0485V9.13938H9.96366L16.0485 12.1697V13.7939H13.1394L4.60609 9.55151V13.7939H0.0727351V9.55151H0.0242621V5.11515C1.96427e-05 2.47272 2.03639 0.290903 4.60609 0.0242365Z" fill="#FEFEFE"/>
<path fill-rule="evenodd" clip-rule="evenodd" d="M6.90909 9.13938H8.9697L16.0485 12.703V13.7212L6.90909 9.13938ZM0 8.24242V5.50302H0.945431V2.15757C1.59998 1.23635 2.56968 0.533324 3.68484 0.218173V5.50302H16.0242V8.24242H3.68484V13.7939H0.945431V8.24242H0ZM4.87272 4.58181H6.90909L16.0242 0H13.9636L4.87272 4.58181Z" fill="#C2283A"/>
<path fill-rule="evenodd" clip-rule="evenodd" d="M19.6606 16.7031H20.9939L19.9272 17.4788L20.3151 18.7394L19.2484 17.9394L18.1818 18.7394L18.5939 17.4788L17.5272 16.7031H18.8606L19.2484 15.4182L19.6606 16.7031Z" fill="white"/>
<path fill-rule="evenodd" clip-rule="evenodd" d="M19.2484 16.0728L19.5151 16.897H20.4121L19.6848 17.4061L19.9515 18.2303L19.2484 17.7212L18.5212 18.2303L18.8121 17.4061L18.1333 16.897H18.9575L19.2484 16.0728Z" fill="#C2283A"/>
<path fill-rule="evenodd" clip-rule="evenodd" d="M29.4061 15.3697H30.594L29.6727 16.0727L30.0121 17.1878L29.0667 16.5091L28.1213 17.1878L28.4849 16.0727L27.5394 15.3697H28.6788L29.0667 14.2545L29.4061 15.3697Z" fill="white"/>
<path fill-rule="evenodd" clip-rule="evenodd" d="M29.0666 14.8121L29.2848 15.5394H30.0848L29.4788 16L29.697 16.7515L29.0666 16.2909L28.4363 16.7515L28.6788 16L28.0485 15.5394H28.8242L29.0666 14.8121Z" fill="#C2283A"/>
<path fill-rule="evenodd" clip-rule="evenodd" d="M24.9212 11.3697H26.2545L25.1879 12.1697L25.6 13.406L24.5333 12.6303L23.4909 13.406L23.8788 12.1697L22.8121 11.3697H24.1212L24.5333 10.1333L24.9212 11.3697Z" fill="white"/>
<path fill-rule="evenodd" clip-rule="evenodd" d="M24.5333 10.7394L24.8 11.5636H25.6727L24.9454 12.0727L25.2363 12.9212L24.5333 12.3879L23.8303 12.9212L24.0969 12.0727L23.3939 11.5636H24.2666L24.5333 10.7394Z" fill="#C2283A"/>
<path fill-rule="evenodd" clip-rule="evenodd" d="M25.0182 25.0424H26.4485L25.2848 25.9151L25.7454 27.2969L24.5576 26.4242L23.3697 27.2969L23.8303 25.9151L22.6182 25.0424H24.0969L24.5576 23.6121L25.0182 25.0424Z" fill="white"/>
<path fill-rule="evenodd" clip-rule="evenodd" d="M24.5575 24.3152L24.8485 25.2364H25.8182L25.0424 25.8182L25.3333 26.7394L24.5575 26.1576L23.7333 26.7394L24.0485 25.8182L23.2727 25.2364H24.2424L24.5575 24.3152Z" fill="#C2283A"/>
</g>
<defs>
<clipPath id="clip0_8_98140">
<rect width="32.0242" height="32" fill="white"/>
</clipPath>
</defs>
</svg>
