<svg width="33" height="32" viewBox="0 0 33 32" fill="none" xmlns="http://www.w3.org/2000/svg">
<g clip-path="url(#clip0_8_98399)">
<path fill-rule="evenodd" clip-rule="evenodd" d="M0.97583 15.9757H32.9516V5.09091C32.9516 2.27879 30.6728 0 27.8607 0H6.06674C3.25462 0 0.97583 2.27879 0.97583 5.09091V15.9757Z" fill="#313C90"/>
<path fill-rule="evenodd" clip-rule="evenodd" d="M6.0425 32H27.8849C30.697 32 32.9516 29.697 32.9516 26.9091V16H0.97583V26.9091C0.97583 29.6727 3.27887 32 6.0425 32Z" fill="#C12837"/>
<path fill-rule="evenodd" clip-rule="evenodd" d="M23.2062 15.9758L1.26676 3.36975C1.09706 3.92733 0.97583 4.50914 0.97583 5.1152V26.9091C0.97583 27.5152 1.09706 28.097 1.26676 28.6546L23.2062 15.9758Z" fill="#FEFEFE"/>
<path fill-rule="evenodd" clip-rule="evenodd" d="M16.2001 14.8606L17.5576 15.2969L18.4061 14.1333V15.5636L19.7637 15.9757L18.4061 16.4121V17.8666L17.5576 16.703L16.2243 17.1394L17.0728 16.0242L16.2001 14.8606Z" fill="#F5D61B"/>
<path fill-rule="evenodd" clip-rule="evenodd" d="M8.27277 13.0424C8.32125 13.0667 8.41823 13.0667 8.46672 13.0667L8.85459 10.9576L9.19399 11.3697L8.70914 13.1394C9.00005 13.2364 9.29096 13.3333 9.55763 13.5273V13.503L10.4546 12L11.0122 11.903L9.72731 13.6485C9.7758 13.6727 9.84854 13.7454 9.89703 13.7939L11.4 11.9515L12.2485 11.9273L12.2728 12.703L10.3091 14.2061C10.3576 14.2545 10.4061 14.3273 10.4303 14.3758L12.2243 13.1879L12.1758 13.697L10.5758 14.5697C10.697 14.8121 10.8182 15.0545 10.8667 15.3212L12.5637 14.8364L13 15.1757L10.9152 15.5636C10.9152 15.6121 10.9152 15.7091 10.9152 15.7576L13.2667 15.4667L13.9213 16.0485L13.3637 16.6303L10.9152 16.3394C10.9152 16.4364 10.9152 16.4848 10.891 16.5333L13.0243 16.9454L12.5879 17.2606L10.8182 16.8C10.7697 17.0667 10.6728 17.2848 10.5273 17.5273L12.0788 18.4242L12.1273 18.9333L10.3576 17.7212C10.3334 17.7697 10.2607 17.8424 10.2364 17.8909L12.1273 19.3454L12.1758 20.1939L11.4 20.2424L9.84852 18.3273V18.303C9.80004 18.3515 9.72732 18.4242 9.67884 18.4485L10.9152 20.2182L10.4061 20.1697L9.50915 18.5697C9.24249 18.7394 9.00005 18.8364 8.70914 18.9091L9.16975 20.6545L8.85459 21.0667L8.46672 18.9818C8.41823 18.9818 8.32126 18.9818 8.22429 19.006L8.53946 21.3091L7.98187 22.0121L7.40005 21.4545L7.64247 19.006C7.59398 18.9818 7.49703 18.9818 7.44855 18.9818L7.10915 21.1151L6.79398 20.6303L7.23036 18.9333C6.96369 18.8848 6.67277 18.7636 6.45458 18.5939L5.53339 20.1454L5.02431 20.1939L6.23643 18.4485H6.26066C6.21218 18.4242 6.13943 18.3515 6.09095 18.303L4.61217 20.1939L3.76368 20.2424L3.73944 19.4667L5.6546 17.9151C5.63036 17.8667 5.60612 17.7939 5.53339 17.7455L3.76368 18.9818L3.81218 18.4727L5.41218 17.5515C5.26672 17.3091 5.1455 17.0667 5.09701 16.8L3.40004 17.2848L2.9637 16.9454L5.04854 16.5576C5.04854 16.5091 5.02431 16.4121 5.02431 16.3636L2.72127 16.6545L2.06671 16.097L2.5758 15.5151L5.02431 15.7818C5.02431 15.6848 5.04854 15.6364 5.04854 15.5879L2.93943 15.2L3.35157 14.8606L5.12125 15.3212C5.16974 15.0303 5.29096 14.8121 5.43641 14.5697L3.88489 13.6727L3.83642 13.1636L5.58186 14.3515C5.63035 14.303 5.67883 14.2545 5.72731 14.2061C5.7758 14.1091 3.88489 12.7515 3.88489 12.7515L3.78792 11.8788L4.56369 11.8545L6.11521 13.7697C6.1637 13.7454 6.23641 13.6727 6.2849 13.6485L5.04854 11.8788L5.55763 11.9273L6.47885 13.4788C6.72128 13.3333 6.98793 13.2121 7.2546 13.1636L6.79398 11.4182L7.13338 11.006L7.52126 13.0909C7.56974 13.0909 7.64248 13.0667 7.71521 13.0667L7.42428 10.7152L8.00611 10.0848L8.56369 10.5939L8.27277 13.0424Z" fill="#F5D61B"/>
</g>
<defs>
<clipPath id="clip0_8_98399">
<rect width="31.9758" height="32" fill="white" transform="translate(0.97583)"/>
</clipPath>
</defs>
</svg>
