<svg width="33" height="32" viewBox="0 0 33 32" fill="none" xmlns="http://www.w3.org/2000/svg">
<g clip-path="url(#clip0_8_99636)">
<rect x="0.97583" width="32" height="32" rx="6" fill="#FF0000"/>
<path d="M-6.94617 32V0.024292H40.8978V31.9203V32H-6.94617ZM40.8181 31.8405V31.7608V31.8405ZM-6.70691 31.7608H40.7384V0.183782H-6.70691V31.7608Z" fill="#231F20"/>
<path d="M40.8181 0.104004H12.1914V31.9202H40.8181V0.104004Z" fill="#CE2028"/>
<path d="M12.1914 0.104004H-6.86639V31.9202H12.1914V0.104004Z" fill="#3F8F42"/>
<path d="M18.0922 20.677C15.7797 20.5972 5.41354 14.0585 5.3338 13.0219L5.89199 12.0651C6.92861 13.5801 17.6138 19.8796 18.6504 19.6404L18.0922 20.677Z" fill="#FDD855"/>
<path d="M18.0922 20.677C15.8595 20.5972 5.41354 14.0585 5.3338 13.1017L5.89199 12.1448C6.92861 13.6598 17.215 19.7998 18.5706 19.7998H18.6504L18.0922 20.677L18.6504 19.7201H18.5706C17.215 19.7201 6.92861 13.5801 5.89199 12.1448L5.3338 13.1017C5.41354 14.1383 15.8595 20.5972 18.0922 20.677Z" fill="#010101"/>
<path d="M5.81223 11.9853C5.57301 12.5435 8.52343 14.3775 12.032 16.4508C15.5405 18.6037 18.5707 19.8796 18.8099 19.7201L18.8896 19.5606H18.5706C17.6137 19.3214 15.1418 18.1253 12.032 16.2913C8.92213 14.4573 6.2907 12.703 5.892 11.9853L5.81223 11.7461V11.9853ZM18.1719 20.677L17.9327 20.7567C17.0556 20.677 14.5039 19.4011 11.4738 17.5671C7.8855 15.4141 5.01485 13.5004 5.33381 13.0219L5.41353 12.8625C5.09457 13.7396 11.2346 17.1684 11.5535 17.4076C15.0621 19.5606 18.0125 20.8364 18.3314 20.5175L18.1719 20.677Z" fill="#FDD855"/>
<path d="M5.81223 11.9853C5.81223 12.703 8.60317 14.4572 12.032 16.5305C15.3013 18.524 18.1719 19.7998 18.7301 19.7998H18.8099L18.8896 19.6404L18.5706 19.7201C17.6137 19.4809 15.1418 18.2848 12.1117 16.4508C9.00185 14.6167 6.37042 12.8624 5.97172 12.1448L5.892 11.9056L5.81223 11.9853L5.892 11.8258L5.97172 12.0651C6.37042 12.7827 9.08159 14.537 12.1117 16.371C15.2216 18.205 17.6935 19.4011 18.6504 19.6404H18.8896L18.8099 19.7998H18.7301C18.1719 19.7998 15.3013 18.524 12.032 16.5305C8.68291 14.3775 5.81223 12.6232 5.81223 11.9853ZM18.1719 20.677L17.9327 20.7567C17.1353 20.677 14.5039 19.4011 11.4738 17.5671C8.12472 15.5736 5.25409 13.6599 5.25409 13.1017V13.0219L5.33381 12.8625V12.9422C5.33381 13.8991 11.1548 17.2482 11.4738 17.4874C14.5837 19.4011 17.2948 20.677 18.0922 20.677L18.2517 20.5972L18.1719 20.677L18.2517 20.5175L18.0922 20.5972C17.3745 20.5972 14.6634 19.4011 11.5535 17.4076C11.2346 17.1684 5.41353 13.8193 5.41353 12.9422V12.8625L5.33381 13.0219V13.1017C5.33381 13.7396 8.1247 15.5736 11.5535 17.5671C14.5836 19.4011 17.2151 20.677 18.0125 20.7567L18.1719 20.677Z" fill="#010101"/>
<path d="M12.1117 21.0757C14.8228 21.0757 17.2948 20.677 18.3314 20.1188L18.7301 19.4011C17.7732 19.9593 15.2215 20.4378 12.1117 20.358C9.56001 20.358 6.92858 20.0391 5.573 19.3214L6.13119 20.1188C7.24755 20.8365 9.79922 21.0757 12.1117 21.0757Z" fill="#FDD855"/>
<path d="M12.1117 21.1554H12.2712C14.9823 21.1554 17.2948 20.7567 18.4112 20.1985L18.8099 19.4809V19.4011H18.7301C17.853 19.8796 15.5405 20.358 12.7496 20.358H12.1117C9.56001 20.358 6.92858 20.0391 5.573 19.3214L6.13119 20.1188C7.24755 20.8365 9.79923 21.1554 12.1117 21.1554C9.71949 21.1554 7.24753 20.8365 6.21091 20.2783L5.65277 19.4809C6.92861 20.1986 9.63973 20.4378 12.1914 20.5175H12.8294C15.6203 20.5175 17.9327 20.0391 18.8099 19.5606L18.4112 20.2783C17.3745 20.8365 14.9823 21.2352 12.3509 21.2352L12.1117 21.1554Z" fill="#010101"/>
<path d="M12.1914 20.5175C10.4371 20.5175 9.08155 20.4378 7.80571 20.1985C6.68935 19.9593 5.89198 19.6404 5.49328 19.4011L5.41351 19.2417C5.65273 19.4012 6.60961 19.7999 7.80571 20.0391C9.00181 20.2783 10.3574 20.358 12.1117 20.358C13.7065 20.358 15.1418 20.2783 16.3379 20.0391C17.534 19.7999 18.4112 19.5606 18.8099 19.3214L18.7301 19.5606C18.5706 19.7201 17.534 20.0391 16.4177 20.2783C15.2216 20.4378 13.7065 20.5175 12.1914 20.5175ZM12.1914 21.1554C10.5966 21.1554 9.16133 21.0757 8.04497 20.8365C7.24757 20.677 6.68938 20.4378 6.29068 20.2783L6.13119 20.0391C6.45015 20.1986 7.00833 20.4378 8.12469 20.677C9.24105 20.9162 10.6764 20.9959 12.2712 20.9959C13.7862 20.9959 15.2215 20.9162 16.3379 20.677C17.2948 20.5175 18.4111 20.1986 18.7301 19.8796L18.5706 20.1985C18.2516 20.4378 17.3745 20.7567 16.4177 20.9162C15.1418 21.0757 13.6267 21.1554 12.1914 21.1554Z" fill="#FDD855"/>
<path d="M12.1914 20.5175C10.4371 20.5175 9.08155 20.4377 7.80571 20.1985C6.68935 19.9593 5.89198 19.6403 5.49328 19.4011L5.41351 19.2416C5.65273 19.4011 6.60961 19.7998 7.80571 20.039C8.92207 20.2783 10.2777 20.358 12.032 20.358H12.1914H12.2712C13.7862 20.358 15.3013 20.2783 16.4974 20.039C17.6935 19.7998 18.6503 19.5606 18.9693 19.3214L18.8896 19.5606C18.7301 19.72 17.6935 20.039 16.5771 20.2782C15.2215 20.4377 13.7862 20.5175 12.1914 20.5175C13.7862 20.5175 15.3013 20.4377 16.4974 20.1985C17.6137 19.9593 18.6504 19.6403 18.8896 19.4808L19.0491 19.2416C18.6504 19.4809 17.7732 19.72 16.5771 19.9593C15.381 20.1985 13.9457 20.2782 12.3509 20.2782H12.2712H12.1117C10.4371 20.2782 9.08158 20.1985 7.88548 19.9593C6.60964 19.72 5.65276 19.3213 5.49328 19.1619L5.573 19.3214C5.9717 19.5606 6.76912 19.9593 7.88548 20.1188C9.00184 20.4377 10.4371 20.5175 12.1914 20.5175ZM12.1914 21.1554C10.5966 21.1554 9.16133 21.0757 8.04497 20.8364C7.24757 20.677 6.68938 20.4377 6.29068 20.2782L6.13119 20.039C6.45015 20.1985 7.00833 20.4377 8.12469 20.6769C9.24105 20.9162 10.6764 20.9959 12.2712 20.9959C13.7862 20.9959 15.2215 20.9162 16.3379 20.6769C17.2948 20.5175 18.4111 20.1985 18.7301 19.8795L18.5706 20.1985C18.2516 20.4377 17.3745 20.7567 16.4177 20.9162C15.1418 21.0756 13.7065 21.1554 12.1914 21.1554C13.7065 21.1554 15.2215 21.0756 16.3379 20.9162C17.215 20.7567 18.1719 20.4377 18.4909 20.1985L18.6504 19.8795C18.3314 20.1985 17.2948 20.5175 16.2582 20.6769C15.1418 20.9162 13.7065 20.9959 12.1914 20.9959C10.5966 20.9959 9.16133 20.9162 8.04497 20.6769C7.00835 20.4377 6.37041 20.1985 6.13119 20.039L6.29068 20.2782C6.68938 20.5175 7.24757 20.677 8.04497 20.8364C9.08159 21.0757 10.5966 21.1554 12.1914 21.1554Z" fill="#010101"/>
<path d="M12.1914 17.4873C14.7431 17.4873 17.853 17.1684 19.687 16.371V15.733C18.6504 16.371 15.0621 16.7697 12.1914 16.7697C8.76262 16.7697 5.97173 16.2912 4.77563 15.4141V16.2115C7.00835 17.3278 9.24106 17.4873 12.1914 17.4873Z" fill="#FDD855"/>
<path d="M12.1914 17.5671C14.7431 17.5671 17.853 17.2482 19.687 16.4508V15.8128C18.6504 16.371 15.0621 16.7697 12.1914 16.8495C8.76262 16.8495 5.97173 16.371 4.77563 15.4939V16.371C7.00835 17.3279 9.24106 17.5671 12.1914 17.5671C9.24106 17.4874 7.00835 17.3279 4.77563 16.371V15.5736C5.97173 16.371 8.76262 16.8495 12.1914 16.9292C15.0621 16.8495 18.6504 16.4508 19.687 15.8926V16.5305C17.9327 17.1684 14.7431 17.4874 12.1914 17.5671Z" fill="#010101"/>
<path d="M19.7667 16.4507C19.687 16.5304 18.4909 16.9291 16.8164 17.2481C15.6203 17.4076 14.1052 17.567 12.1914 17.567C10.3574 17.567 8.92213 17.4076 7.72603 17.2481C5.89201 16.9291 4.93511 16.5304 4.61615 16.3709V16.2114C5.65277 16.6101 6.60967 16.8494 7.72603 17.0088C8.84239 17.1683 10.2777 17.3278 12.1117 17.3278C14.0255 17.3278 15.5405 17.1683 16.7366 17.0088C18.4909 16.6899 19.6073 16.3709 19.7667 16.1317V16.4507V16.4507Z" fill="#FDD855"/>
<path d="M19.7667 16.4507C19.687 16.5304 18.4909 16.9291 16.8164 17.2481C15.6203 17.4076 14.1052 17.567 12.1914 17.567H12.1117C10.2777 17.567 8.84239 17.4076 7.72603 17.2481C5.89201 16.9291 4.93511 16.5304 4.61615 16.3709V16.2114C5.65277 16.6101 6.60967 16.8494 7.72603 17.0088C8.84239 17.1683 10.2777 17.3278 12.032 17.3278H12.1117C14.0255 17.3278 15.5405 17.1683 16.7366 17.0088C18.4909 16.6899 19.6073 16.3709 19.7667 16.1317V16.4507V16.2114V16.1317V16.2114C19.6073 16.3709 18.5707 16.7696 16.7366 17.0088C15.5405 17.1683 14.0255 17.3278 12.1117 17.3278H12.032C10.2777 17.3278 8.84239 17.1683 7.72603 17.0088C6.60967 16.8494 5.57303 16.6101 4.61615 16.2114V16.4507C4.93511 16.6102 5.89201 17.0089 7.72603 17.3278C8.84239 17.4873 10.2777 17.6468 12.1117 17.6468H12.1914C14.1052 17.6468 15.6203 17.4873 16.8164 17.3278C18.5707 17.0089 19.7667 16.6102 19.7667 16.4507Z" fill="#010101"/>
<path d="M19.7667 16.4507C19.687 16.5305 18.4909 16.9292 16.8164 17.2481C15.6203 17.4076 14.1052 17.5671 12.1914 17.5671C10.3574 17.5671 8.92213 17.4076 7.72603 17.2481C5.89201 16.9292 4.93511 16.5304 4.61615 16.371V16.2115C5.65277 16.6102 6.60967 16.8494 7.72603 17.0089C8.84239 17.1683 10.2777 17.3278 12.1117 17.3278C14.0255 17.3278 15.5405 17.1683 16.7366 17.0089C18.4909 16.6899 19.6073 16.371 19.7667 16.1317V16.4507V16.4507ZM19.7667 15.8128C19.6073 15.9722 18.2517 16.2912 16.5771 16.6102C15.4608 16.7696 14.0255 16.9291 12.1914 16.9291C10.4372 16.9291 9.00186 16.8494 7.96524 16.6899C6.2907 16.4507 4.69592 15.6533 4.69592 15.6533V15.4141C4.69592 15.4141 6.29073 16.2115 8.04501 16.4507C9.08163 16.6102 10.5169 16.6899 12.2712 16.6899C14.1052 16.6899 15.5406 16.5304 16.6569 16.371C18.3315 16.1317 19.7668 15.6533 19.8465 15.5736V15.8128H19.7667Z" fill="#FDD855"/>
<path d="M19.7667 16.4507C19.687 16.5305 18.4909 16.9292 16.8164 17.2481C15.6203 17.4076 14.1052 17.5671 12.1914 17.5671H12.1117C10.2777 17.5671 8.84239 17.4076 7.72603 17.2481C5.89201 16.9292 4.93511 16.5304 4.61615 16.371V16.2115C5.65277 16.6102 6.60967 16.8494 7.72603 17.0089C8.84239 17.1684 10.2777 17.3278 12.032 17.3278H12.1117C14.0255 17.3278 15.5405 17.1684 16.7366 17.0089C18.4909 16.6899 19.6073 16.371 19.7667 16.1318V16.4507V16.2115V16.1318V16.2115C19.6073 16.371 18.5707 16.7697 16.7366 17.0089C15.5405 17.1684 14.0255 17.3278 12.1117 17.3278H12.032C10.2777 17.3278 8.84239 17.1684 7.72603 17.0089C6.60967 16.8494 5.57303 16.6102 4.61615 16.2115V16.4507C4.93511 16.6102 5.89201 17.0089 7.72603 17.3278C8.84239 17.4873 10.2777 17.6468 12.1117 17.6468H12.1914C14.1052 17.6468 15.6203 17.4873 16.8164 17.3278C18.5707 17.0089 19.7667 16.6102 19.7667 16.4507ZM19.7667 15.8128C19.6073 15.9723 18.2517 16.2912 16.5771 16.6102C15.4608 16.7697 14.0255 16.9291 12.1914 16.9291H12.1117C10.4372 16.9291 9.00186 16.8494 7.96524 16.6899C6.2907 16.4507 4.69592 15.7331 4.69592 15.7331V15.4938C4.69592 15.4938 6.29073 16.2912 8.04501 16.5304C9.08163 16.6899 10.5169 16.7697 12.1914 16.7697H12.2712C14.1052 16.7697 15.5406 16.6102 16.6569 16.4507C18.3315 16.2115 19.7668 15.7331 19.8465 15.6533L19.7667 15.8128V15.5736V15.4938C19.6073 15.5736 18.2517 16.052 16.5771 16.2912C15.4608 16.4507 14.0255 16.6102 12.1914 16.6102H12.1117C10.4372 16.6102 9.00186 16.5304 7.96524 16.371C6.21096 16.1317 4.61615 15.3344 4.61615 15.3344V15.6533C4.61615 15.6533 6.21096 16.4507 7.96524 16.6899C9.00186 16.8494 10.4372 16.9291 12.1117 16.9291H12.1914C14.0255 16.9291 15.4608 16.7697 16.5771 16.6102C18.3314 16.2912 19.6073 15.9723 19.7667 15.8128Z" fill="#010101"/>
<path d="M12.2712 13.6599C14.5836 13.6599 17.3745 13.3409 18.9693 12.703L18.6504 12.1448C17.6935 12.703 14.9026 13.0219 12.2712 13.1017C9.24106 13.1017 7.00832 12.7827 5.9717 12.0651L5.65277 12.703C7.56653 13.5004 9.63976 13.6599 12.2712 13.6599Z" fill="#FDD855"/>
<path d="M12.2712 13.6598C14.5836 13.6598 17.3745 13.3408 18.9693 12.7029L18.5706 12.1447C17.6137 12.7029 14.8228 13.0219 12.1914 13.1016C9.16129 13.1016 6.9286 12.7827 5.89198 12.065L5.573 12.7029C7.5665 13.5003 9.63975 13.6598 12.2712 13.6598C9.63975 13.5801 7.5665 13.4205 5.573 12.6231L5.89198 11.9852C7.00834 12.7029 9.16129 13.0218 12.1914 13.0218C14.8228 12.9421 17.6137 12.6232 18.5706 12.065L18.8896 12.6231C17.3745 13.3408 14.5039 13.6598 12.2712 13.6598Z" fill="#010101"/>
<path d="M19.0491 12.7029C18.9693 12.7827 17.9327 13.1813 16.4177 13.4205C15.381 13.58 14.0255 13.7395 12.2712 13.7395C10.6764 13.7395 9.3208 13.6598 8.28418 13.5003C6.68939 13.2611 5.81225 12.8624 5.49329 12.7826L5.57301 12.6231C6.45015 13.0218 7.3273 13.1813 8.28418 13.3408C9.3208 13.5003 10.5966 13.58 12.1914 13.58C13.866 13.58 15.2215 13.4206 16.3379 13.2611C17.9327 13.0219 18.8098 12.7029 18.8896 12.5434L19.0491 12.7029ZM18.7301 12.1447C18.5706 12.3042 17.6935 12.6232 16.1784 12.8624C15.1418 13.0219 13.866 13.1016 12.2712 13.1016C10.6764 13.1016 9.40055 13.0219 8.44367 12.8624C6.92862 12.6232 6.05144 12.3042 5.81222 12.2244L5.89199 12.065C6.13121 12.1447 6.92862 12.4637 8.44367 12.7029C9.40055 12.8624 10.6764 12.9421 12.2712 12.9421C13.866 12.9421 15.1418 12.7826 16.1784 12.6231C17.6935 12.3839 18.4909 12.065 18.6504 11.9055L18.7301 12.1447Z" fill="#FDD855"/>
<path d="M19.0491 12.7029C18.9693 12.7827 17.9327 13.1016 16.4177 13.4205C15.381 13.58 14.0255 13.7395 12.2712 13.7395H12.1914C10.5966 13.7395 9.24106 13.6598 8.28418 13.5003C6.68939 13.2611 5.81225 12.8624 5.49329 12.7826L5.57301 12.6231C6.45015 13.0218 7.3273 13.1813 8.28418 13.3408C9.3208 13.5003 10.5966 13.58 12.1914 13.58C13.866 13.58 15.3013 13.4206 16.3379 13.2611C17.9327 13.0219 18.8098 12.7029 18.9693 12.5434L19.0491 12.7029L18.9693 12.4637C18.8896 12.6232 18.0125 12.9421 16.4177 13.1813C15.381 13.3408 14.0255 13.5003 12.2712 13.5003C10.6764 13.5003 9.32078 13.4206 8.3639 13.2611C7.40703 13.1016 6.52992 12.8624 5.65278 12.5434L5.57301 12.7029C5.89197 12.8624 6.68937 13.1813 8.3639 13.4205C9.32078 13.58 10.6764 13.6598 12.2712 13.6598H12.3509C14.1052 13.6598 15.4608 13.5003 16.4974 13.3408C17.9327 13.1813 18.9693 12.8624 19.0491 12.7029ZM18.7301 12.1447C18.5706 12.3042 17.6935 12.6232 16.1784 12.8624C15.1418 13.0219 13.866 13.1016 12.2712 13.1016H12.1914C10.6764 13.1016 9.40055 13.0219 8.44367 12.8624C6.92862 12.6232 6.13118 12.3042 5.81222 12.2244L5.89199 12.065C6.13121 12.1447 6.92862 12.4637 8.44367 12.7029C9.40055 12.8624 10.6764 12.9421 12.2712 12.9421C13.866 12.9421 15.1418 12.7826 16.1784 12.6231C17.6935 12.3839 18.4909 12.065 18.6504 11.9055L18.7301 12.1447L18.6504 11.9852C18.5706 12.065 17.6935 12.4637 16.1784 12.7029C15.1418 12.8624 13.9457 13.0218 12.2712 13.0218C10.7561 13.0218 9.48027 12.9421 8.52339 12.7826C6.9286 12.5434 6.21093 12.2245 5.97171 12.1447L5.89199 12.3042C6.21095 12.384 7.00834 12.7826 8.52339 12.9421C9.48027 13.1016 10.7561 13.1813 12.2712 13.1813H12.3509C14.0254 13.1813 15.3013 13.0219 16.2582 12.9421C17.6935 12.6232 18.5706 12.3042 18.7301 12.1447Z" fill="#010101"/>
<path d="M12.1914 8.63623C8.12471 8.63623 4.85541 11.9056 4.85541 15.9723C4.85541 20.0391 8.12471 23.3084 12.1914 23.3084C16.2582 23.3084 19.5275 20.0391 19.5275 15.9723C19.6073 11.9056 16.2582 8.63623 12.1914 8.63623ZM12.1914 22.5907C8.52341 22.5907 5.57304 19.6404 5.57304 15.9723C5.57304 12.3043 8.52341 9.35391 12.1914 9.35391C15.8595 9.35391 18.8099 12.3043 18.8099 15.9723C18.8896 19.6404 15.8595 22.5907 12.1914 22.5907Z" fill="#FDD855"/>
<path d="M19.687 15.9723C19.687 20.0391 16.338 23.3881 12.2712 23.3881C8.20448 23.3881 4.85541 20.0391 4.85541 15.9723C4.85541 11.9056 8.20448 8.55652 12.2712 8.55652C16.338 8.55652 19.687 11.9056 19.687 15.9723ZM12.1914 8.71601C8.20445 8.71601 4.93513 11.9853 4.93513 15.9723C4.93513 19.9593 8.20445 23.2287 12.1914 23.2287C16.1784 23.2287 19.4478 19.9593 19.4478 15.9723C19.5275 11.9853 16.2582 8.71601 12.1914 8.71601Z" fill="#FDD855"/>
<path d="M19.687 15.9723C19.687 20.0391 16.338 23.3881 12.2712 23.3881C8.20448 23.3881 4.85541 20.0391 4.85541 15.9723C4.85541 11.9056 8.20448 8.55652 12.2712 8.55652C16.338 8.55652 19.6073 11.9056 19.687 15.9723C19.687 11.8258 16.338 8.55652 12.2712 8.55652C8.20448 8.55652 4.85541 11.9056 4.85541 15.9723C4.85541 20.1188 8.20448 23.3881 12.2712 23.3881C16.338 23.3881 19.687 20.1188 19.687 15.9723ZM12.1914 8.71601C8.20445 8.71601 4.93513 11.9853 4.93513 15.9723C4.93513 19.9593 8.20445 23.2287 12.1914 23.2287C16.1784 23.2287 19.4478 19.9593 19.4478 15.9723C19.5275 11.9853 16.2582 8.71601 12.1914 8.71601C16.1784 8.71601 19.4478 11.9853 19.4478 15.9723C19.4478 19.9593 16.1784 23.2287 12.1914 23.2287C8.20445 23.2287 4.93513 19.9593 4.93513 15.9723C5.01487 11.9853 8.20445 8.71601 12.1914 8.71601Z" fill="#010101"/>
<path d="M18.9693 15.9723C18.9693 19.6403 15.9392 22.6705 12.2712 22.6705C8.5234 22.6705 5.573 19.6403 5.573 15.9723C5.573 12.2245 8.60314 9.27417 12.2712 9.27417C15.9392 9.27417 18.9693 12.3043 18.9693 15.9723ZM12.1914 9.43361C8.60311 9.43361 5.65277 12.384 5.65277 15.9723C5.65277 19.5606 8.60311 22.511 12.1914 22.511C15.7797 22.511 18.7301 19.5606 18.7301 15.9723C18.8098 12.384 15.8594 9.43361 12.1914 9.43361Z" fill="#FDD855"/>
<path d="M18.9693 15.9723C18.9693 19.6403 15.9392 22.6705 12.2712 22.6705C8.60314 22.6705 5.573 19.6403 5.573 15.9723C5.573 12.3043 8.60314 9.27417 12.2712 9.27417C15.9392 9.27417 18.8896 12.3043 18.9693 15.9723C18.9693 12.2245 15.9392 9.27417 12.2712 9.27417C8.5234 9.27417 5.573 12.3043 5.573 15.9723C5.573 19.7201 8.60314 22.6705 12.2712 22.6705C15.9392 22.6705 18.9693 19.7201 18.9693 15.9723ZM12.1914 9.43361C8.52337 9.43361 5.573 12.384 5.573 15.9723C5.573 19.6403 8.52337 22.5907 12.1914 22.5907C15.8594 22.5907 18.8099 19.6403 18.8099 15.9723C18.8099 12.3043 15.8594 9.35387 12.1914 9.43361C15.7797 9.43361 18.7301 12.384 18.7301 15.9723C18.7301 19.5606 15.7797 22.511 12.1914 22.511C8.60311 22.511 5.65277 19.5606 5.65277 15.9723C5.65277 12.384 8.60311 9.43361 12.1914 9.43361Z" fill="#010101"/>
<path d="M12.1914 14.3774C15.3013 14.3774 18.4909 14.8559 19.7667 15.4938V16.2912C18.7301 15.733 15.7 15.0951 12.1914 15.1748C9.3208 15.1748 6.29069 15.4938 4.77563 16.2912V15.3343C5.97173 14.7762 9.48028 14.3774 12.1914 14.3774Z" fill="#FDD855"/>
<path d="M12.1914 14.4573H12.3509C15.381 14.4573 18.5706 14.9357 19.7667 15.5736V16.371C18.7301 15.8128 16.0987 15.2547 12.9091 15.2547C12.6699 15.2547 12.4307 15.2547 12.1914 15.2547C9.3208 15.2547 6.29069 15.5736 4.77563 16.4508V15.4939C5.97173 14.7762 9.48028 14.4573 12.1914 14.4573C9.56002 14.4573 6.05147 14.7762 4.77563 15.4141V16.371C6.29069 15.5736 9.3208 15.2547 12.1914 15.2547C12.4307 15.2547 12.6699 15.2547 12.9091 15.2547C16.0987 15.2547 18.7301 15.8128 19.7667 16.371V15.5736C18.5706 14.9357 15.381 14.4573 12.3509 14.4573H12.1914Z" fill="#010101"/>
<path d="M12.1914 15.0951C13.9457 15.0951 15.7 15.1748 17.0556 15.4141C18.3315 15.6533 19.687 16.052 19.8465 16.2115V16.4507C19.4478 16.1318 18.4112 15.8925 17.0556 15.5735C15.7 15.3343 14.0255 15.2546 12.2712 15.2546C10.2777 15.2546 8.76263 15.3343 7.40705 15.5735C5.97173 15.8128 5.01486 16.2115 4.77564 16.3709V16.1317C5.25408 15.8925 6.13121 15.5736 7.40705 15.3343C8.68289 15.1749 10.1979 15.0951 12.1914 15.0951ZM12.1914 14.2977C13.866 14.2977 15.5406 14.3774 16.8164 14.6167C17.853 14.8559 19.368 15.1748 19.7667 15.4141V15.733C19.4478 15.3343 17.853 15.0154 16.7366 14.7761C15.4608 14.5369 13.866 14.4572 12.1914 14.4572C10.4372 14.4572 8.76266 14.5369 7.48682 14.7761C6.29072 15.0154 5.01485 15.2546 4.61615 15.4938V15.2546C5.09459 15.0154 6.52991 14.7761 7.40705 14.6167C8.76263 14.4572 10.4372 14.3775 12.1914 14.2977Z" fill="#FDD855"/>
<path d="M12.1914 15.0951H12.2712C14.0255 15.0951 15.6203 15.1748 16.9758 15.4141C18.2517 15.6533 19.6073 16.052 19.7667 16.2115V16.4507C19.368 16.1318 18.3314 15.8925 16.9758 15.5735C15.7 15.3343 14.0255 15.2546 12.2712 15.2546H12.1117H11.9522C10.0385 15.2546 8.52345 15.3343 7.24761 15.5735C5.81229 15.8128 4.85537 16.2115 4.61615 16.4507V16.2115C5.09459 15.9722 5.97177 15.6533 7.24761 15.4141C8.68293 15.1748 10.1979 15.0951 12.1914 15.0951C10.1979 15.0951 8.68293 15.1748 7.24761 15.4141C5.97177 15.6533 5.09459 15.9722 4.61615 16.2115V16.4507C4.85537 16.2912 5.89203 15.8925 7.24761 15.6533C8.52345 15.4141 10.0385 15.3343 11.9522 15.3343H12.1117H12.2712C13.9458 15.3343 15.6203 15.4141 16.9758 15.6533C18.3314 15.8925 19.368 16.2115 19.7667 16.5304V16.2912C19.6073 16.052 18.2517 15.733 16.9758 15.4938C15.6203 15.2546 13.9458 15.1748 12.2712 15.1748L12.1914 15.0951ZM12.1914 14.3774H12.2712C13.9458 14.3774 15.5406 14.4572 16.8164 14.6964C17.853 14.9356 19.368 15.2546 19.7667 15.4938V15.8128C19.4478 15.4141 17.853 15.0951 16.7366 14.8559C15.4608 14.6167 13.866 14.5369 12.1914 14.5369C10.4372 14.5369 8.76266 14.6167 7.48682 14.8559C6.29072 15.0951 5.01485 15.3343 4.61615 15.5735V15.3343C5.09459 15.0951 6.52991 14.8559 7.40705 14.6964C8.76263 14.4572 10.4372 14.3774 12.1914 14.3774C10.4372 14.3774 8.76266 14.4572 7.48682 14.6964C6.52994 14.8559 5.17436 15.0951 4.69592 15.3343V15.5735C5.01488 15.3343 6.2907 15.0951 7.56654 14.8559C8.84238 14.6167 10.4372 14.5369 12.2712 14.5369C13.9458 14.5369 15.5406 14.6167 16.8164 14.8559C17.9328 15.0154 19.5276 15.4141 19.8465 15.8128V15.4141C19.4478 15.0951 17.9327 14.7761 16.8961 14.6167C15.6203 14.3774 14.0255 14.2977 12.3509 14.2977L12.1914 14.3774Z" fill="#010101"/>
<path d="M12.1914 10.9487C14.9823 10.9487 17.3745 11.3474 18.4909 11.9056L18.8896 12.6232C17.9327 12.0651 15.3013 11.5867 12.1914 11.6664C9.63973 11.6664 6.92858 11.9056 5.573 12.703L6.05147 11.9056C7.16783 11.2677 9.79921 10.9487 12.1914 10.9487Z" fill="#FDD855"/>
<path d="M12.1914 10.9487H12.3509C15.0621 10.9487 17.4543 11.3474 18.4909 11.9056L18.8896 12.6232C18.0124 12.1448 15.6203 11.6664 12.8294 11.6664H12.1914C9.63973 11.6664 6.92858 11.9056 5.573 12.703L6.05147 11.9056C7.16783 11.2677 9.79921 10.9487 12.1914 10.9487C9.79921 10.9487 7.16783 11.1879 6.05147 11.8259L5.573 12.6232V12.703H5.65277C7.00835 11.9854 9.71949 11.7461 12.2712 11.6664H12.9091C15.7797 11.6664 18.0922 12.1448 18.9693 12.6232H19.0491L18.6504 11.9056C17.534 11.3474 15.2216 10.9487 12.4307 10.9487H12.1914Z" fill="#010101"/>
<path d="M12.2712 11.5068C13.866 11.5068 15.381 11.5865 16.5771 11.8257C17.6935 12.065 18.8098 12.3839 18.9693 12.5434L19.1288 12.7826C18.7301 12.5434 17.8529 12.3042 16.5771 12.065C15.381 11.8258 13.866 11.746 12.2712 11.746C10.5169 11.746 9.08158 11.8258 7.88548 12.065C6.60964 12.3042 5.73248 12.6231 5.573 12.7826L5.65277 12.5434C6.05147 12.3042 6.76912 12.065 7.88548 11.9055C9.08158 11.5865 10.4372 11.5068 12.2712 11.5068ZM12.2712 10.8689C13.7862 10.8689 15.3013 10.9486 16.4177 11.1878C17.3745 11.3473 18.2516 11.6663 18.5706 11.9055L18.7301 12.2244C18.4111 11.9055 17.2948 11.5865 16.3379 11.427C15.1418 11.1878 13.7862 11.1878 12.2712 11.1081C10.6764 11.1081 9.24107 11.1878 8.04497 11.427C6.92861 11.6663 6.29066 11.9055 5.9717 12.065L6.13119 11.8257C6.52989 11.5865 7.16783 11.4271 8.04497 11.2676C9.16133 10.9486 10.5966 10.8689 12.2712 10.8689Z" fill="#FDD855"/>
<path d="M12.2712 11.5068H12.3509C13.866 11.5068 15.381 11.5865 16.5771 11.8257C17.6935 12.065 18.8098 12.3839 18.9693 12.5434L19.0491 12.7826C18.6504 12.5434 17.7732 12.2245 16.4974 12.065C15.3013 11.8258 13.866 11.746 12.3509 11.746H12.1914H12.032C10.3574 11.746 9.00181 11.8258 7.80571 12.065C6.52987 12.3042 5.65273 12.6231 5.41351 12.7826L5.49328 12.5434C5.89198 12.3042 6.52991 12.065 7.64627 11.9055C9.08159 11.5865 10.4372 11.5865 12.2712 11.5068C10.5169 11.5068 9.08158 11.5865 7.88548 11.8257C6.76912 12.065 6.13121 12.3042 5.65277 12.4637L5.49328 12.7029C5.7325 12.5434 6.60961 12.2244 7.80571 11.9852C8.92207 11.746 10.2777 11.6663 11.9522 11.6663H12.1117H12.2712C13.7862 11.6663 15.3013 11.746 16.4177 11.9852C17.6138 12.2244 18.5706 12.4637 18.8896 12.7029L18.7301 12.4637C18.5706 12.3042 17.4543 11.9852 16.3379 11.746C15.1418 11.5068 13.6267 11.427 12.1117 11.427L12.2712 11.5068ZM12.2712 10.8689C13.866 10.8689 15.3013 10.9486 16.4177 11.1878C17.3745 11.3473 18.2516 11.6663 18.5706 11.9055L18.7301 12.1447C18.4111 11.8258 17.2948 11.5068 16.3379 11.3473C15.1418 11.1081 13.7065 11.0283 12.1914 11.0283C10.5966 11.0283 9.1613 11.1081 7.9652 11.3473C6.84884 11.5865 6.21094 11.8257 5.89198 11.9852L6.05147 11.746C6.45017 11.5068 7.08806 11.3473 7.9652 11.1878C9.1613 11.0283 10.5966 10.8689 12.2712 10.8689C10.6764 10.8689 9.16133 10.9486 8.04497 11.1081C7.16783 11.2676 6.52989 11.5068 6.13119 11.6663L5.9717 11.9055C6.29066 11.746 6.92861 11.5068 8.04497 11.2676C9.16133 11.0284 10.6764 10.9486 12.2712 10.9486C13.7862 10.9486 15.2215 11.0284 16.3379 11.2676C17.2948 11.4271 18.4111 11.746 18.7301 12.065L18.5706 11.746C18.2516 11.5068 17.2948 11.1878 16.4177 11.0283C15.2216 10.9486 13.7862 10.8689 12.2712 10.8689Z" fill="#010101"/>
<path d="M12.2712 11.5068C13.866 11.5068 15.381 11.5865 16.5771 11.8257C17.6935 12.065 18.8098 12.3839 18.9693 12.5434L19.1288 12.7826C18.7301 12.5434 17.8529 12.3042 16.5771 12.065C15.381 11.8258 13.866 11.746 12.2712 11.746C10.5169 11.746 9.08158 11.8258 7.88548 12.065C6.60964 12.3042 5.73248 12.6231 5.573 12.7826L5.65277 12.5434C6.05147 12.3042 6.76912 12.065 7.88548 11.9055C9.08158 11.5865 10.4372 11.5068 12.2712 11.5068ZM12.2712 10.8689C13.7862 10.8689 15.3013 10.9486 16.4177 11.1878C17.3745 11.3473 18.2516 11.6663 18.5706 11.9055L18.7301 12.2244C18.4111 11.9055 17.2948 11.5865 16.3379 11.427C15.2215 11.1878 13.7862 11.1878 12.2712 11.1081C10.6764 11.1081 9.24107 11.1878 8.04497 11.427C6.92861 11.6663 6.29066 11.9055 5.9717 12.065L6.13119 11.8257C6.52989 11.5865 7.16783 11.4271 8.04497 11.2676C9.16133 10.9486 10.5966 10.8689 12.2712 10.8689Z" fill="#FDD855"/>
<path d="M12.2712 11.5068H12.3509C13.866 11.5068 15.381 11.5865 16.5771 11.8257C17.6935 12.065 18.8098 12.3839 18.9693 12.5434L19.0491 12.7826C18.6504 12.5434 17.7732 12.2245 16.4974 12.065C15.3013 11.8258 13.866 11.746 12.3509 11.746H12.1914H12.032C10.3574 11.746 9.00181 11.8258 7.80571 12.065C6.52987 12.3042 5.65273 12.6231 5.41351 12.7826L5.49328 12.5434C5.89198 12.3042 6.52991 12.065 7.64627 11.9055C9.08159 11.5865 10.4372 11.5865 12.2712 11.5068C10.5169 11.5068 9.08158 11.5865 7.88548 11.8257C6.76912 12.065 6.13121 12.3042 5.65277 12.4637L5.49328 12.7029C5.7325 12.5434 6.60961 12.2244 7.80571 11.9852C8.92207 11.746 10.2777 11.6663 11.9522 11.6663H12.1117H12.2712C13.7862 11.6663 15.3013 11.746 16.4177 11.9852C17.6138 12.2244 18.5706 12.4637 18.8896 12.7029L18.7301 12.4637C18.5706 12.3042 17.4543 11.9852 16.3379 11.746C15.1418 11.5068 13.6267 11.427 12.1117 11.427L12.2712 11.5068ZM12.2712 10.8689C13.866 10.8689 15.3013 10.9486 16.4177 11.1878C17.3745 11.3473 18.2516 11.6663 18.5706 11.9055L18.7301 12.1447C18.4111 11.8258 17.2948 11.5068 16.3379 11.3473C15.1418 11.1081 13.7065 11.0283 12.1914 11.0283C10.5966 11.0283 9.1613 11.1081 7.9652 11.3473C6.84884 11.5865 6.21094 11.8257 5.89198 11.9852L6.05147 11.746C6.45017 11.5068 7.08806 11.3473 7.9652 11.1878C9.1613 11.0283 10.5966 10.8689 12.2712 10.8689C10.6764 10.8689 9.16133 10.9486 8.04497 11.1878C7.16783 11.3473 6.52989 11.5865 6.13119 11.746L5.9717 11.9852C6.29066 11.8257 6.92861 11.5865 8.04497 11.3473C9.16133 11.1081 10.6764 11.0283 12.2712 11.0283C13.7862 11.0283 15.2215 11.1081 16.3379 11.3473C17.2948 11.5068 18.4111 11.8258 18.7301 12.1447L18.5706 11.8257C18.2516 11.5865 17.2948 11.2676 16.4177 11.1081C15.2216 10.9486 13.7862 10.8689 12.2712 10.8689Z" fill="#010101"/>
<path d="M12.1914 18.3645C14.5039 18.3645 17.2948 18.6835 18.8896 19.3214L18.5706 19.8796C17.6137 19.3214 14.8228 19.0024 12.1914 18.9227C9.08155 18.9227 7.00834 19.2417 5.89198 19.8796L5.573 19.4011C7.48676 18.524 9.55999 18.3645 12.1914 18.3645Z" fill="#FDD855"/>
<path d="M12.1914 18.3645C14.5039 18.3645 17.2948 18.6835 18.8896 19.3214L18.5706 19.8796C17.6137 19.3214 14.7431 19.0024 12.1914 18.9227C9.08155 18.9227 7.00834 19.2417 5.89198 19.8796L5.573 19.4011C7.48676 18.6037 9.55999 18.3645 12.1914 18.3645C9.55999 18.3645 7.48676 18.524 5.573 19.3214L5.89198 19.8796C6.9286 19.3214 9.08157 19.0024 12.1117 18.9227C14.7431 19.0024 17.534 19.3214 18.4909 19.8796L18.8099 19.3214C17.2948 18.6835 14.4241 18.3645 12.1914 18.3645Z" fill="#010101"/>
<path d="M18.8896 19.3214L18.8099 19.4809C18.6504 19.3214 17.853 19.0024 16.2582 18.7632C15.2216 18.6037 13.866 18.4443 12.1914 18.4443C10.5966 18.4443 9.24106 18.524 8.28418 18.6835C7.3273 18.843 6.45015 19.0822 5.57301 19.4011L5.49329 19.2417C5.81225 19.0822 6.60965 18.7632 8.28418 18.524C9.3208 18.3645 10.5966 18.2848 12.2712 18.2848C13.9457 18.2848 15.381 18.4442 16.4177 18.6037C17.7732 18.8429 18.8098 19.2417 18.8896 19.3214ZM18.3314 19.9593C18.0124 19.7998 17.2151 19.4809 16.019 19.3214C14.9823 19.1619 13.7862 19.0822 12.1117 19.0822C10.5966 19.0822 9.32078 19.1619 8.3639 19.3214C6.84885 19.5606 6.05144 19.8796 5.81222 19.9593L5.7325 19.7998C6.05146 19.7201 6.84885 19.3214 8.3639 19.1619C9.32078 19.0024 10.5966 18.9227 12.1117 18.9227C13.7065 18.9227 15.0621 19.0822 16.019 19.1619C17.2948 19.4011 18.0922 19.6403 18.4112 19.7998L18.3314 19.9593Z" fill="#FDD855"/>
<path d="M18.8896 19.3214L18.7301 19.4809C18.5706 19.3214 17.7732 19.0024 16.1784 18.7632C15.1418 18.6037 13.7862 18.4443 12.1117 18.4443H12.032C10.4372 18.4443 9.16132 18.524 8.1247 18.6835C7.16782 18.843 6.29066 19.0822 5.41352 19.4011L5.3338 19.2417C5.65276 19.0822 6.45016 18.7632 8.1247 18.524C9.08158 18.3645 10.4372 18.2848 12.032 18.2848H12.1117C13.7862 18.2848 15.1418 18.4442 16.2582 18.6037C17.7732 18.8429 18.8099 19.2417 18.8896 19.3214C18.8099 19.2417 17.7732 18.8429 16.2582 18.6037C15.2216 18.4442 13.866 18.2848 12.1117 18.2848H12.032C10.4372 18.2848 9.16132 18.3645 8.1247 18.524C6.5299 18.7632 5.65276 19.1619 5.3338 19.2417L5.41352 19.4011C6.29066 19.0822 7.16782 18.843 8.1247 18.6835C9.08158 18.524 10.4372 18.4443 12.032 18.4443H12.1117C13.7862 18.4443 15.1418 18.6037 16.1784 18.7632C17.7732 19.0024 18.6504 19.3214 18.7301 19.4809L18.8896 19.3214ZM18.3314 19.9593C18.0124 19.7998 17.2948 19.4809 16.019 19.3214C14.9824 19.1619 13.7862 19.0822 12.1117 19.0822H12.032C10.5169 19.0822 9.24107 19.1619 8.28419 19.3214C6.76913 19.5606 5.97172 19.8796 5.7325 19.9593L5.65278 19.7998C5.97174 19.7201 6.76913 19.3214 8.28419 19.1619C9.24107 19.0024 10.5169 18.9227 12.032 18.9227H12.1117C13.7065 18.9227 14.9824 19.0822 16.019 19.1619C17.2948 19.4011 18.0922 19.6404 18.4112 19.7201L18.3314 19.9593L18.4112 19.7998C18.0922 19.6403 17.2948 19.4011 16.019 19.1619C14.9824 19.0024 13.7065 18.9227 12.1117 18.9227H12.032C10.5169 18.9227 9.24107 19.0024 8.28419 19.1619C6.76913 19.4011 5.97174 19.7201 5.65278 19.7998L5.7325 19.9593C5.97172 19.8796 6.76913 19.5606 8.28419 19.3214C9.24107 19.1619 10.4372 19.0822 12.032 19.0822H12.1117C13.7065 19.0822 14.9824 19.2417 16.019 19.3214C17.2948 19.5606 18.0124 19.8796 18.3314 19.9593Z" fill="#010101"/>
<path d="M12.6699 8.55652H12.5104V23.4679H12.6699V8.55652Z" fill="#FDD855"/>
<path d="M12.6699 23.4679V23.3881H12.5104V8.55653H12.6699V23.4679V23.3881V23.4679V8.47681H12.5104V23.4679H12.6699Z" fill="#010101"/>
<path d="M11.9522 8.55652H11.7927V23.4679H11.9522V8.55652Z" fill="#FDD855"/>
<path d="M11.9522 23.4679V23.3881H11.7927V8.55653H11.9522V23.4679V23.3881V23.4679V8.47681H11.7927V23.4679H11.9522Z" fill="#010101"/>
<path d="M12.5104 8.55652H11.9522V23.3084H12.5104V8.55652Z" fill="#FDD855"/>
<path d="M12.5104 23.3881V23.3084H11.9522V8.63624H12.5104V23.3881V23.3084V23.3881V8.55652H11.9522V23.3881H12.5104Z" fill="#010101"/>
<path d="M5.9717 11.8258C8.28416 11.8258 18.8098 18.2848 18.8896 19.4809L18.2517 20.5175C17.9327 19.1619 7.24753 12.7827 5.41351 12.9422L5.9717 11.8258Z" fill="#FDD855"/>
<path d="M5.9717 11.8258C8.28416 11.8258 18.8098 18.2848 18.8896 19.4809L18.2517 20.5175C17.9327 19.0822 7.40704 12.9422 5.49328 12.9422H5.41351L5.9717 11.8258L5.41351 12.8625H5.49328C7.40704 12.8625 17.9327 19.0822 18.2517 20.4378L18.9693 19.4011C18.8896 18.2847 8.3639 11.8258 5.9717 11.8258Z" fill="#010101"/>
<path d="M5.33381 12.8625C5.73251 12.5435 8.92209 13.9788 12.1914 15.9723C15.4608 17.9658 18.5707 20.1985 18.2517 20.5972L18.1719 20.7567H18.0922V20.5175C17.9327 20.039 15.7797 18.2848 12.1117 16.0521C8.52341 13.8991 5.57305 12.6232 5.25409 13.0219L5.33381 12.8625ZM18.9693 19.5606C19.2085 19.0024 16.3379 16.8495 12.7496 14.6965C9.08158 12.6232 6.45016 11.3474 5.97172 11.7461L5.892 11.9056L6.21093 11.8258C7.00833 11.8258 9.40054 12.9422 12.7496 14.856C14.1849 15.7331 18.9693 18.7632 18.8896 19.5606V19.7201L18.9693 19.5606Z" fill="#FDD855"/>
<path d="M5.33381 12.8625H5.4933C6.2907 12.8625 9.16133 14.1383 12.1117 15.9723C15.2216 17.8861 18.2517 20.0391 18.2517 20.5175V20.5972L18.1719 20.7567V20.5972C18.0124 20.1188 15.7797 18.3645 12.1117 16.1318C8.92211 14.218 6.21096 13.0219 5.4933 13.0219L5.25409 13.1017L5.33381 12.8625L5.25409 13.0219L5.41353 12.9422C6.21093 12.9422 8.92213 14.1383 12.032 16.0521C15.7 18.2848 17.9327 20.0391 18.0125 20.4378V20.677L18.0922 20.5972L18.1719 20.4378V20.358C18.1719 19.7998 15.1418 17.6469 12.032 15.7331C9.08161 13.8991 6.21095 12.6232 5.33381 12.6232V12.8625ZM18.9693 19.5606V19.4809C18.9693 18.843 16.1784 16.7697 12.7496 14.6965C9.48028 12.8625 7.08807 11.6664 6.21093 11.6664L5.97172 11.7461L5.892 11.9853L6.21093 11.9056C7.00833 11.9056 9.40054 13.0219 12.7496 14.9357C14.1849 15.8128 18.8896 18.843 18.8896 19.6404V19.7201L18.9693 19.5606L18.8896 19.6404C18.8896 18.7632 14.1849 15.7331 12.7496 14.9357C9.40054 13.0219 7.00833 11.9056 6.21093 11.9056L5.892 11.9853L5.97172 11.8258L6.21093 11.7461C7.08807 11.7461 9.48028 12.9422 12.7496 14.7762C16.1784 16.7697 18.9693 18.9227 18.9693 19.5606V19.5606Z" fill="#010101"/>
<path d="M7.80573 16.69C7.80573 17.8861 8.28419 19.0024 9.08159 19.7998C9.87899 20.5972 10.9953 21.0757 12.1914 21.0757C13.3875 21.0757 14.5039 20.5972 15.3013 19.7998C16.0987 19.0024 16.5771 17.8861 16.5771 16.69V10.7892H7.80573V16.69Z" fill="white"/>
<path d="M7.80573 16.69C7.80573 17.8861 8.2842 19.0024 9.0816 19.7998C9.879 20.5972 10.9953 21.0757 12.1914 21.0757C13.3875 21.0757 14.5039 20.5972 15.3013 19.7998C16.0987 19.0024 16.5771 17.8861 16.5771 16.69V10.7892H7.72601L7.80573 16.69V10.7892H16.5771V16.69C16.5771 17.8861 16.0987 19.0024 15.3013 19.7998C14.5039 20.5972 13.3875 21.0757 12.1914 21.0757C10.9953 21.0757 9.879 20.5972 9.0816 19.7998C8.36394 19.0024 7.80573 17.8861 7.80573 16.69Z" fill="#010101"/>
<path d="M7.96521 16.69C7.96521 17.8063 8.44368 18.9227 9.24108 19.6403C10.0385 20.4377 11.0751 20.9162 12.1914 20.9162C13.3875 20.9162 14.4241 20.4377 15.1418 19.7201C15.9392 18.9227 16.4177 17.886 16.4177 16.7697V11.1082H7.96521V16.69Z" fill="#CE2028"/>
<path d="M7.96521 16.69C7.96521 17.8861 8.44368 18.9227 9.24108 19.6404C10.0385 20.4378 11.0751 20.9162 12.2712 20.9162C13.4673 20.9162 14.5039 20.4378 15.3013 19.6404C16.0987 18.843 16.5771 17.8064 16.5771 16.69V10.9487H8.1247L7.96521 16.69L8.04498 11.0285H16.4177V16.69C16.4177 17.8064 15.9392 18.9227 15.2216 19.6404C14.4242 20.4378 13.3875 20.8365 12.2712 20.8365C11.1548 20.8365 10.0385 20.3581 9.3208 19.6404C8.5234 18.9227 8.04495 17.8861 7.96521 16.69Z" fill="#010101"/>
<path d="M9.71949 16.4508C9.71949 17.1684 10.0385 17.8861 10.4372 18.3645C10.9156 18.843 11.5535 19.1619 12.1914 19.1619C12.9091 19.1619 13.4673 18.843 13.9457 18.3645C14.4241 17.8861 14.6634 17.1684 14.6634 16.4508V12.7827H9.63977L9.71949 16.4508Z" fill="white"/>
<path d="M9.71949 16.4508C9.71949 17.2482 10.0385 17.8861 10.4372 18.3645C10.9156 18.843 11.5535 19.1619 12.1914 19.1619C12.9091 19.1619 13.547 18.843 13.9457 18.3645C14.4241 17.8861 14.6634 17.1684 14.6634 16.4508V12.703H9.63977L9.71949 16.4508V12.7827H14.6634V16.4508C14.6634 17.1684 14.4241 17.8861 13.9457 18.3645C13.4673 18.843 12.9091 19.1619 12.1914 19.1619C11.4738 19.1619 10.9156 18.843 10.4372 18.3645C10.0385 17.8861 9.71949 17.1684 9.71949 16.4508Z" fill="#010101"/>
<path d="M11.713 16.052L11.8725 16.5305L12.1914 16.6899L12.5901 16.5305L12.7496 16.052V15.2546H11.713V16.052Z" fill="#2272B9"/>
<path d="M12.5104 15.4141L12.4307 15.5736L12.5104 15.6533L12.6699 15.5736L12.5104 15.4141Z" fill="white"/>
<path d="M12.1914 15.733L12.1117 15.8128L12.1914 15.9722L12.3509 15.8128L12.1914 15.733Z" fill="white"/>
<path d="M12.5104 16.052L12.4307 16.1317L12.5104 16.2912L12.6699 16.1317L12.5104 16.052Z" fill="white"/>
<path d="M11.9522 16.052L11.7927 16.1317L11.9522 16.2912L12.032 16.1317L11.9522 16.052Z" fill="white"/>
<path d="M11.9522 15.4141L11.7927 15.5736L11.9522 15.6533L12.032 15.5736L11.9522 15.4141Z" fill="white"/>
<path d="M10.1182 16.052L10.2777 16.5305L10.6764 16.6899L11.0751 16.5305L11.2346 16.052V15.2546H10.1182V16.052Z" fill="#2272B9"/>
<path d="M10.9953 15.4141L10.9156 15.5736L10.9953 15.6533L11.0751 15.5736L10.9953 15.4141Z" fill="white"/>
<path d="M10.6764 15.733L10.5966 15.8128L10.6764 15.9722L10.7561 15.8128L10.6764 15.733Z" fill="white"/>
<path d="M10.9953 16.052L10.8359 16.1317L10.9953 16.2912L11.0751 16.1317L10.9953 16.052Z" fill="white"/>
<path d="M10.3574 16.052L10.2777 16.1317L10.3574 16.2912L10.5169 16.1317L10.3574 16.052Z" fill="white"/>
<path d="M10.3574 15.4141L10.2777 15.5736L10.3574 15.6533L10.5169 15.5736L10.3574 15.4141Z" fill="white"/>
<path d="M13.2281 16.052L13.3875 16.5305L13.7862 16.6899L14.1849 16.5305L14.3444 16.052V15.2546H13.2281V16.052Z" fill="#2272B9"/>
<path d="M14.1052 15.4141L13.9457 15.5736L14.1052 15.6533L14.1849 15.5736L14.1052 15.4141Z" fill="white"/>
<path d="M13.7862 15.733L13.6268 15.8128L13.7862 15.9722L13.866 15.8128L13.7862 15.733Z" fill="white"/>
<path d="M14.1052 16.052L13.9457 16.1317L14.1052 16.2912L14.1849 16.1317L14.1052 16.052Z" fill="white"/>
<path d="M13.4673 16.052L13.3875 16.1317L13.4673 16.2912L13.6268 16.1317L13.4673 16.052Z" fill="white"/>
<path d="M13.4673 15.4141L13.3875 15.5736L13.4673 15.6533L13.547 15.5736L13.4673 15.4141Z" fill="white"/>
<path d="M11.713 17.9657L11.8725 18.3644L12.1914 18.5239L12.5901 18.3644L12.7496 17.9657V17.1683L11.713 17.0886V17.9657Z" fill="#2272B9"/>
<path d="M12.5104 17.3279L12.4307 17.4076L12.5104 17.4874L12.6699 17.4076L12.5104 17.3279Z" fill="white"/>
<path d="M12.1914 17.5671L12.1117 17.7266L12.1914 17.8063L12.3509 17.7266L12.1914 17.5671Z" fill="white"/>
<path d="M12.5104 17.8861L12.4307 18.0456L12.5104 18.1253L12.6699 18.0456L12.5104 17.8861Z" fill="white"/>
<path d="M11.9522 17.8861L11.7927 18.0456L11.9522 18.1253L12.032 18.0456L11.9522 17.8861Z" fill="white"/>
<path d="M11.9522 17.3279L11.7927 17.4076L11.9522 17.4874L12.032 17.4076L11.9522 17.3279Z" fill="white"/>
<path d="M11.713 14.2181L11.8725 14.6168L12.1914 14.856L12.5901 14.6168L12.7496 14.2181V13.4207H11.713V14.2181Z" fill="#2272B9"/>
<path d="M12.5104 13.5801L12.4307 13.6598L12.5104 13.8193L12.6699 13.6598L12.5104 13.5801Z" fill="white"/>
<path d="M12.1914 13.899L12.1117 13.9788L12.1914 14.0585L12.3509 13.9788L12.1914 13.899Z" fill="white"/>
<path d="M12.5104 14.218L12.4307 14.2978L12.5104 14.3775L12.6699 14.2978L12.5104 14.218Z" fill="white"/>
<path d="M11.9522 14.218L11.7927 14.2978L11.9522 14.3775L12.032 14.2978L11.9522 14.218Z" fill="white"/>
<path d="M11.9522 13.5801L11.7927 13.6598L11.9522 13.8193L12.032 13.6598L11.9522 13.5801Z" fill="white"/>
<path d="M11.6333 12.4638H12.8294L12.7496 12.0651H11.6333V12.4638Z" fill="#FDD855"/>
<path d="M11.6333 12.4637V12.5434H12.8294V12.065V11.9852H11.6333V12.4637V12.5434V12.4637L11.713 12.065H12.7496L12.8294 12.4637H11.6333Z" fill="#010101"/>
<path d="M12.1914 12.0651L12.5104 12.4638H11.9522L12.1914 12.0651Z" fill="#FDD855"/>
<path d="M12.1914 12.0651L12.5104 12.4638H11.9522L12.2712 12.0651H12.1914L11.8725 12.4638V12.5435H12.5104H12.5901L12.2712 12.0651H12.1914Z" fill="#010101"/>
<path d="M12.1914 12.1448C12.1914 12.1448 12.3509 12.2245 12.3509 12.4638H12.032C12.032 12.2245 12.1914 12.1448 12.1914 12.1448Z" fill="#FDD855"/>
<path d="M12.1914 12.1448C12.1914 12.1448 12.3509 12.2245 12.3509 12.4638H12.032C12.1117 12.3043 12.2712 12.2245 12.1914 12.1448C12.1914 12.1448 12.032 12.2245 12.032 12.4638H12.4307C12.4307 12.2245 12.2712 12.1448 12.1914 12.1448Z" fill="#010101"/>
<path d="M11.6333 11.8258H12.8294L12.9091 11.9056H12.8294H11.6333H11.5535L11.6333 11.8258Z" fill="#FDD855"/>
<path d="M11.6333 11.8258H12.8294V11.9056H11.6333V11.8258H11.5535V11.9056H11.6333H12.8294H12.9091L12.8294 11.8258H11.6333Z" fill="#010101"/>
<path d="M11.6333 12.4637H12.8294L12.9091 12.5435L12.8294 12.6232H11.6333L11.5535 12.5435L11.6333 12.4637Z" fill="#FDD855"/>
<path d="M11.6333 12.4637V12.5435H12.8294H12.9091L12.8294 12.6232H11.6333L11.5535 12.5435H11.6333V12.4637V12.5435V12.4637H11.5535V12.5435V12.6232H12.8294H12.9091V12.5435V12.4637H11.6333H11.5535H11.6333Z" fill="#010101"/>
<path d="M11.6333 11.9055H12.8294V11.9852V12.065H11.6333V11.9852V11.9055Z" fill="#FDD855"/>
<path d="M11.6333 11.9055H12.8294V11.9852H11.6333V11.9055V11.9852H11.5535L11.6333 12.065H12.8294V11.9852H12.9091L12.8294 11.9055H11.6333Z" fill="#010101"/>
<path d="M12.3509 11.3474L12.4307 11.8258H12.1117V11.3474H12.3509Z" fill="#FDD855"/>
<path d="M12.3509 11.3474V11.8258H12.1117V11.3474H12.3509H12.1117L12.032 11.8258H12.4307V11.3474H12.3509Z" fill="#010101"/>
<path d="M12.032 11.1082H12.1117V11.1879H12.1914V11.1082H12.2712V11.1879H12.3509V11.1082H12.4307V11.2676V11.3474H12.1117L12.032 11.2676V11.1082Z" fill="#FDD855"/>
<path d="M12.032 11.1082V11.1879H12.1117H12.1914H12.2712H12.3509H12.4307V11.2676V11.3474H12.1117L12.032 11.2676V11.1082V11.1879V11.1082V11.2676V11.3474H12.1117H12.4307V11.2676V11.1082H12.3509V11.1879H12.2712V11.1082H12.1914V11.1879H12.1117V11.1082H12.032Z" fill="#010101"/>
<path d="M12.1914 11.5068H12.2712V11.6663H12.1914V11.5068Z" fill="#010101"/>
<path d="M12.4307 11.3474H12.5104V11.4271H12.5901V11.3474H12.6699V11.4271H12.7496V11.3474H12.8294V11.5069V11.5866H12.4307V11.5069V11.3474Z" fill="#FDD855"/>
<path d="M12.4307 11.3474V11.4271H12.5104H12.5901H12.6699H12.7496H12.8294V11.5069H12.7496H12.4307V11.3474V11.4271V11.3474V11.5069V11.5866H12.8294V11.5069V11.3474H12.7496V11.4271H12.6699V11.3474H12.5901V11.4271H12.5104V11.3474H12.4307Z" fill="#010101"/>
<path d="M12.7496 11.5865V11.8258H12.5104V11.5865H12.7496Z" fill="#FDD855"/>
<path d="M12.7496 11.5866V11.8258H12.5104V11.5866H12.7496V11.5068H12.5104H12.4307V11.8258H12.7496H12.8294V11.5866H12.7496Z" fill="#010101"/>
<path d="M11.6333 11.3474H11.713V11.4271H11.7927V11.3474H11.8725V11.4271H11.9522V11.3474H12.032V11.5069V11.5866H11.713L11.6333 11.5069V11.3474Z" fill="#FDD855"/>
<path d="M11.6333 11.3474V11.4271H11.713H11.7927H11.8725H11.9522H12.032V11.5069H11.713H11.6333V11.3474V11.4271V11.3474V11.5069V11.5866H12.032V11.5069V11.3474H11.9522V11.4271H11.8725V11.3474H11.7927V11.4271H11.713V11.3474H11.6333Z" fill="#010101"/>
<path d="M11.9522 11.5865L12.032 11.8258H11.713V11.5865H11.9522Z" fill="#FDD855"/>
<path d="M11.9522 11.5866V11.8258H11.713V11.5866H11.9522V11.5068H11.713L11.6333 11.8258H12.032V11.5866H11.9522Z" fill="#010101"/>
<path d="M12.5901 11.6664H12.6699V11.7461H12.5901V11.6664Z" fill="#010101"/>
<path d="M11.7927 11.6664H11.8725V11.7461H11.7927V11.6664Z" fill="#010101"/>
<path d="M14.9823 12.4638H16.1784V12.0651H15.0621L14.9823 12.4638Z" fill="#FDD855"/>
<path d="M14.9823 12.4637V12.5434H16.1784H16.2582L16.1784 12.065V11.9852H15.0621H14.9823V12.4637V12.5434V12.4637L15.0621 12.065H16.0987L16.1784 12.4637H14.9823Z" fill="#010101"/>
<path d="M15.6202 12.0651L15.8595 12.4638H15.3013L15.6202 12.0651Z" fill="#FDD855"/>
<path d="M15.5405 12.0651L15.8595 12.4638H15.3013L15.6203 12.0651H15.5405L15.3013 12.4638L15.2216 12.5435H15.8595H15.9392L15.6203 12.0651H15.5405Z" fill="#010101"/>
<path d="M15.6203 12.1448C15.6203 12.1448 15.7797 12.2245 15.7797 12.4638H15.4608C15.4608 12.2245 15.6203 12.1448 15.6203 12.1448Z" fill="#FDD855"/>
<path d="M15.6203 12.1448C15.6203 12.1448 15.7797 12.2245 15.7797 12.4638H15.4608C15.4608 12.3043 15.6203 12.2245 15.6203 12.1448C15.6203 12.1448 15.4608 12.2245 15.4608 12.4638H15.8595C15.7798 12.2245 15.6203 12.1448 15.6203 12.1448Z" fill="#010101"/>
<path d="M14.9823 11.8258H16.1784L16.2582 11.9056H16.1784H14.9823V11.8258Z" fill="#FDD855"/>
<path d="M14.9823 11.8258H16.1784V11.9056H14.9823V11.8258H14.9026V11.9056H14.9823H16.1784H16.2582L16.1784 11.8258H14.9823Z" fill="#010101"/>
<path d="M14.9823 12.4637H16.2582V12.5435V12.6232H14.9823L14.9026 12.5435L14.9823 12.4637Z" fill="#FDD855"/>
<path d="M14.9823 12.4637V12.5435H16.1784H16.2582L16.1784 12.6232H14.9823L14.9026 12.5435H14.9823V12.4637V12.5435V12.4637L14.9026 12.5435L14.9823 12.6232H16.2582V12.5435H16.3379L16.2582 12.4637H14.9823Z" fill="#010101"/>
<path d="M14.9823 11.9055H16.1784V11.9852V12.065H14.9823V11.9852V11.9055Z" fill="#FDD855"/>
<path d="M14.9823 11.9055H16.1784V11.9852H15.0621H14.9823L15.0621 11.9055H14.9823V11.9852V12.065H16.1784L16.2582 11.9852L16.1784 11.9055H14.9823Z" fill="#010101"/>
<path d="M15.7797 11.3474V11.8258H15.4608V11.3474H15.7797Z" fill="#FDD855"/>
<path d="M15.7 11.3474L15.7797 11.8258H15.4608V11.3474H15.7797H15.4608V11.8258H15.381H15.7797V11.3474H15.7Z" fill="#010101"/>
<path d="M15.381 11.1082H15.4608V11.1879H15.5405V11.1082H15.6203V11.1879H15.7V11.1082H15.7797V11.2676V11.3474H15.4608L15.381 11.2676V11.1082Z" fill="#FDD855"/>
<path d="M15.381 11.1082V11.1879H15.4608H15.5405H15.6203H15.7H15.7797V11.2676V11.3474H15.4608V11.2676V11.1082H15.381V11.1879V11.1082V11.2676L15.4608 11.3474H15.7797V11.2676H15.8595V11.1082H15.7V11.1879V11.1082H15.5405V11.1879V11.1082H15.381Z" fill="#010101"/>
<path d="M15.5405 11.5068H15.6203V11.6663H15.5405V11.5068Z" fill="#010101"/>
<path d="M15.7797 11.3474H15.8595V11.4271H15.9392V11.3474H16.019V11.4271H16.0987V11.3474H16.1784V11.5069V11.5866H15.8595L15.7797 11.5069V11.3474Z" fill="#FDD855"/>
<path d="M15.7797 11.3474V11.4271H15.8595H15.9392H16.019H16.0987H16.1784V11.5069H15.8595H15.7797V11.3474V11.4271V11.3474V11.5069L15.8595 11.5866H16.1784V11.5069V11.3474H16.0987V11.4271H16.019V11.3474H15.9392V11.4271V11.3474H15.7797Z" fill="#010101"/>
<path d="M16.0987 11.5865L16.1784 11.8258H15.8595V11.5865H16.0987Z" fill="#FDD855"/>
<path d="M16.0987 11.5866V11.8258H15.8595V11.5866H16.0987V11.5068H15.8595V11.8258H16.1784V11.5866H16.0987Z" fill="#010101"/>
<path d="M14.9823 11.3474H15.0621V11.4271H15.1418V11.3474H15.2216V11.4271H15.3013V11.3474H15.381V11.5069V11.5866H15.0621L14.9823 11.5069V11.3474Z" fill="#FDD855"/>
<path d="M14.9823 11.3474V11.4271H15.0621H15.1418H15.2216H15.3013H15.381V11.5069H15.0621V11.3474H14.9823V11.4271V11.3474V11.5069L15.0621 11.5866H15.381V11.5069H15.4608V11.3474H15.3013V11.4271V11.3474H15.1418V11.4271V11.3474H14.9823Z" fill="#010101"/>
<path d="M15.381 11.5865V11.8258H15.0621V11.5865H15.381Z" fill="#FDD855"/>
<path d="M15.3013 11.5866V11.8258H15.0621V11.5866H15.381V11.5068H15.0621V11.8258H15.381V11.5866H15.3013Z" fill="#010101"/>
<path d="M15.9392 11.6664H16.019V11.7461H15.9392V11.6664Z" fill="#010101"/>
<path d="M15.1418 11.6664H15.2216V11.7461H15.1418V11.6664Z" fill="#010101"/>
<path d="M14.9823 16.0521H16.1784V15.5736H15.0621L14.9823 16.0521Z" fill="#FDD855"/>
<path d="M14.9823 16.0521H16.1784H16.2582L16.1784 15.5736H15.0621H14.9823V16.0521L15.0621 15.5736H16.0987L16.1784 16.0521H14.9823Z" fill="#010101"/>
<path d="M15.6202 15.5736L15.8595 16.0521H15.3013L15.6202 15.5736Z" fill="#FDD855"/>
<path d="M15.5405 15.5736L15.8595 16.0521H15.3013L15.6203 15.5736H15.5405L15.3013 16.0521H15.2216H15.8595H15.9392L15.6203 15.5736H15.5405Z" fill="#010101"/>
<path d="M15.6203 15.733C15.6203 15.733 15.7797 15.8128 15.7797 16.052H15.4608C15.4608 15.8128 15.6203 15.733 15.6203 15.733Z" fill="#FDD855"/>
<path d="M15.6203 15.733C15.6203 15.733 15.7797 15.8128 15.7797 16.052H15.4608C15.4608 15.8128 15.6203 15.733 15.6203 15.733C15.6203 15.733 15.4608 15.8128 15.4608 16.052H15.8595C15.7798 15.8128 15.6203 15.6533 15.6203 15.733Z" fill="#010101"/>
<path d="M14.9823 15.3344H16.1784L16.2582 15.4141L16.1784 15.4938H14.9823V15.4141V15.3344Z" fill="#FDD855"/>
<path d="M14.9823 15.3344H16.1784V15.4141H14.9823V15.3344L14.9026 15.4141L14.9823 15.4938H16.1784L16.2582 15.4141L16.1784 15.3344H14.9823Z" fill="#010101"/>
<path d="M14.9823 16.052H16.2582V16.1317H14.9823L14.9026 16.052H14.9823Z" fill="#FDD855"/>
<path d="M14.9823 16.052H16.1784H16.2582L16.1784 16.1317H14.9823L14.9026 16.052H14.9823H14.9026L14.9823 16.1317H16.2582L16.3379 16.052H16.2582H14.9823Z" fill="#010101"/>
<path d="M14.9823 15.4939H16.1784V15.5736H14.9823V15.4939Z" fill="#FDD855"/>
<path d="M14.9823 15.4938H16.1784V15.5736H15.0621L14.9823 15.4938H15.0621H14.9823V15.4141V15.4938V15.5736H16.1784L16.2582 15.4938L16.1784 15.4141H14.9823V15.4938Z" fill="#010101"/>
<path d="M15.7797 14.856V15.3344H15.4608V14.856H15.7797Z" fill="#FDD855"/>
<path d="M15.7 14.856L15.7797 15.3344H15.4608V14.856H15.7797H15.4608V15.3344H15.381H15.7797V14.856H15.7Z" fill="#010101"/>
<path d="M15.381 14.6964H15.4608V14.7761H15.5405V14.6964H15.6203V14.7761H15.7V14.6964H15.7797V14.8559H15.4608H15.381V14.6964Z" fill="#FDD855"/>
<path d="M15.381 14.6965H15.4608V14.7762H15.5405V14.6965H15.6203V14.7762H15.7V14.6965H15.7797V14.7762V14.856H15.4608V14.7762V14.6965H15.381V14.856H15.4608H15.7797H15.8595V14.6965V14.6167H15.7V14.6965V14.6167H15.5405V14.6965V14.6167H15.381V14.6965Z" fill="#010101"/>
<path d="M15.5405 15.0952H15.6203V15.1749H15.5405V15.0952Z" fill="#010101"/>
<path d="M15.7797 14.9357H15.8595H15.9392H16.019H16.0987H16.1784V15.0952H15.8595H15.7797V14.9357Z" fill="#FDD855"/>
<path d="M15.7797 14.9357H15.8595V15.0154H15.9392V14.9357H16.019V15.0154H16.0987V14.9357H16.1784V15.0154V15.0952H15.8595L15.7797 15.0154V14.9357V15.0952H15.8595H16.1784V14.9357V14.856H16.0987V14.9357H16.019V14.856H15.9392V14.9357V14.856H15.7797V14.9357Z" fill="#010101"/>
<path d="M16.0987 15.0952L16.1784 15.3344H15.8595V15.0952H16.0987Z" fill="#FDD855"/>
<path d="M16.0987 15.0952V15.3344H15.8595V15.0952H16.0987H15.8595V15.3344H16.1784V15.0952H16.0987Z" fill="#010101"/>
<path d="M14.9823 14.9357H15.0621H15.1418H15.2216H15.3013H15.381V15.0952H15.0621H14.9823V14.9357Z" fill="#FDD855"/>
<path d="M14.9823 14.9357H15.0621V15.0154H15.1418V14.9357H15.2216V15.0154H15.3013V14.9357H15.381V15.0154V15.0952H15.0621V15.0154V14.9357H14.9823V15.0952H15.0621H15.381H15.4608V14.9357V14.856H15.3013V14.9357V14.856H15.1418V14.9357V14.856H14.9823V14.9357Z" fill="#010101"/>
<path d="M15.381 15.0952V15.3344H15.0621V15.0952H15.381Z" fill="#FDD855"/>
<path d="M15.3013 15.0952V15.3344H15.0621V15.0952H15.381H15.0621V15.3344H15.381V15.0952H15.3013Z" fill="#010101"/>
<path d="M15.9392 15.1749H16.019V15.2547H15.9392V15.1749Z" fill="#010101"/>
<path d="M15.1418 15.1749H15.2216V15.2547H15.1418V15.1749Z" fill="#010101"/>
<path d="M13.9457 18.8429L14.8228 19.6403L15.1418 19.3213L14.3444 18.5239L13.9457 18.8429Z" fill="#FDD855"/>
<path d="M13.9457 18.8429L14.8228 19.6403V19.72L15.1418 19.3213V19.2416L14.3444 18.5239L13.9457 18.8429L14.3444 18.5239L15.0621 19.3213L14.8228 19.6403L13.9457 18.8429Z" fill="#010101"/>
<path d="M14.6634 18.9227L14.5836 19.4809L14.1849 19.0024L14.6634 18.9227Z" fill="#FDD855"/>
<path d="M14.6634 18.9227L14.5836 19.4011L14.1849 19.0822L14.6634 18.9227L14.1849 19.0024H14.1052L14.5836 19.4809H14.6634L14.7431 18.9227H14.6634Z" fill="#010101"/>
<path d="M14.5836 19.0024L14.5039 19.3214L14.2647 19.1619L14.5836 19.0024Z" fill="#FDD855"/>
<path d="M14.5836 19.0024L14.5039 19.3214L14.3444 19.1619L14.6634 19.0024H14.5836L14.2647 19.0822L14.5039 19.4011L14.6634 19.0024H14.5836Z" fill="#010101"/>
<path d="M14.4242 18.3645L15.3013 19.1619V19.2417H15.2216L14.3444 18.4443V18.3645H14.4242Z" fill="#FDD855"/>
<path d="M14.4242 18.3645L15.3013 19.1619V19.2417H15.2216L14.3444 18.3645H14.4242V18.2848H14.3444V18.4443L15.2216 19.2417H15.3013V19.1619L14.4242 18.2848V18.3645Z" fill="#010101"/>
<path d="M13.9457 18.8429L14.8229 19.6403V19.72H14.7431L13.866 18.9226V18.8429H13.9457Z" fill="#FDD855"/>
<path d="M13.9457 18.843L14.8229 19.7201L13.866 18.843H13.9457V18.7632H13.866V18.9227L14.7431 19.7998H14.8229H14.9026V19.6404L13.9457 18.7632V18.843Z" fill="#010101"/>
<path d="M14.3444 18.4442L15.2216 19.2416V19.3213H15.1418L14.2647 18.5239L14.3444 18.4442Z" fill="#FDD855"/>
<path d="M14.3444 18.4442L15.2216 19.2416H15.1418L14.3444 18.5239V18.4442H14.2647V18.5239L15.1418 19.3213H15.2216V19.2416L14.4242 18.4442H14.3444Z" fill="#010101"/>
<path d="M15.3013 18.524L14.9823 18.843L14.7431 18.6037L15.1418 18.2848L15.3013 18.524Z" fill="#FDD855"/>
<path d="M15.3013 18.4443L14.9823 18.843L14.7431 18.6037L15.1418 18.3645L15.3013 18.524V18.4443L15.1418 18.2848L14.7431 18.6037L14.9823 18.843V18.9227L15.3013 18.524V18.4443Z" fill="#010101"/>
<path d="M15.2216 18.1252V18.205V18.2847L15.3013 18.205L15.381 18.2847L15.3013 18.3645H15.381H15.4608L15.381 18.5239H15.3013L15.0621 18.2847V18.205L15.2216 18.1252Z" fill="#FDD855"/>
<path d="M15.2216 18.1252H15.1418L15.2216 18.205V18.2847H15.3013H15.381L15.3013 18.3645H15.381V18.4442V18.3645H15.4608L15.381 18.5239H15.3013L15.1418 18.2847V18.205L15.2216 18.1252H15.1418H15.2216H15.1418L15.0621 18.205V18.2847L15.3013 18.5239H15.381L15.4608 18.4442L15.5405 18.3645L15.4608 18.2847H15.381V18.3645V18.2847L15.3013 18.205L15.2216 18.2847V18.205H15.3013L15.2216 18.1252H15.1418H15.2216Z" fill="#010101"/>
<path d="M15.0621 18.5239V18.6036L14.9823 18.6834V18.6036L15.0621 18.5239Z" fill="#010101"/>
<path d="M15.3013 18.6036H15.381L15.3013 18.6834H15.381H15.4608V18.7631V18.8429L15.5405 18.7631L15.6203 18.8429L15.5405 18.9226H15.4608L15.2216 18.7631V18.6834L15.3013 18.6036Z" fill="#FDD855"/>
<path d="M15.3013 18.6036H15.381L15.3013 18.6834L15.381 18.7631L15.4608 18.6834V18.7631V18.8429L15.5405 18.7631L15.6203 18.8429L15.4608 18.9226L15.2216 18.6834L15.3013 18.6036V18.5239L15.2216 18.6834V18.7631L15.4608 18.9226V19.0023H15.5405L15.6203 18.8429L15.5405 18.7631H15.4608H15.5405L15.4608 18.6834V18.6036L15.381 18.6834V18.6036L15.3013 18.5239V18.6036Z" fill="#010101"/>
<path d="M15.4608 18.9227L15.3013 19.1619L15.0621 18.9227L15.2216 18.7632L15.4608 18.9227Z" fill="#FDD855"/>
<path d="M15.4608 18.9227L15.3013 19.0822L15.0621 18.9227L15.2216 18.7632L15.4608 18.9227L15.2216 18.6835L15.0621 18.9227H14.9823L15.2216 19.1619H15.3013L15.4608 18.9227Z" fill="#010101"/>
<path d="M14.7431 18.0455H14.8229L14.7431 18.1253L14.8229 18.205V18.1253L14.9026 18.205V18.2847L14.9823 18.205L15.0621 18.2847L14.9026 18.4442L14.6634 18.205V18.1253L14.7431 18.0455Z" fill="#FDD855"/>
<path d="M14.7431 18.0456V18.1253L14.8229 18.205V18.1253L14.9026 18.205H14.8229L14.9026 18.2848H14.9823L14.9026 18.3645L14.6634 18.205V18.1253L14.7431 18.0456L14.6634 18.1253H14.5836L14.6634 18.205L14.8229 18.4443H14.9026L15.0621 18.2848L14.9823 18.205L14.9026 18.2848V18.205H14.9823L14.9026 18.1253H14.8229V18.0456H14.7431V17.9658V18.0456Z" fill="#010101"/>
<path d="M14.9026 18.3644L14.6634 18.6037L14.5039 18.3644L14.6634 18.205L14.9026 18.3644Z" fill="#FDD855"/>
<path d="M14.8229 18.3644L14.6634 18.5239L14.5039 18.3644L14.6634 18.205L14.8229 18.4442L14.9026 18.3644L14.6634 18.205L14.4242 18.3644L14.6634 18.6037L14.9026 18.4442L14.8229 18.3644Z" fill="#010101"/>
<path d="M15.2216 18.9227H15.3013L15.2216 19.0024V18.9227Z" fill="#010101"/>
<path d="M14.6634 18.3645H14.7431L14.6634 18.4443H14.5836L14.6634 18.3645Z" fill="#010101"/>
<path d="M10.5169 18.8429L9.63977 19.6403L9.40051 19.3213L10.1979 18.5239L10.5169 18.8429Z" fill="#FDD855"/>
<path d="M10.5169 18.8429L9.63978 19.6403L9.40052 19.3213L10.1979 18.5239L10.5169 18.8429H10.5966L10.1979 18.5239L9.40052 19.2416H9.3208L9.63978 19.6403V19.72L10.5966 18.8429H10.5169Z" fill="#010101"/>
<path d="M9.79919 18.9227L9.87896 19.4809L10.3574 19.0024L9.79919 18.9227Z" fill="#FDD855"/>
<path d="M9.79919 18.9227L9.87896 19.4809L10.3574 19.0822V19.0024L9.79919 18.9227L10.2777 19.0822L9.87896 19.4011L9.79919 18.9227Z" fill="#010101"/>
<path d="M9.87897 19.0024L9.95869 19.3214L10.1979 19.1619L9.87897 19.0024Z" fill="#FDD855"/>
<path d="M9.87897 19.0024L9.95869 19.4011L10.2777 19.1619V19.0822L9.87897 19.0024L10.1979 19.1619L9.95869 19.3214L9.87897 19.0024Z" fill="#010101"/>
<path d="M10.1182 18.3645L9.24109 19.1619V19.2417L10.1182 18.4443V18.3645Z" fill="#FDD855"/>
<path d="M10.1182 18.3645L10.0385 18.2848L9.16132 19.1619V19.2417H9.24109H9.32081L10.1979 18.4443V18.3645V18.2848H10.1182H10.0385L10.1182 18.3645H10.0385H10.1182L9.24109 19.2417V19.1619L10.1182 18.3645H10.0385H10.1182Z" fill="#010101"/>
<path d="M10.5966 18.8429L9.63977 19.6403V19.72H9.71949L10.6764 18.9226V18.8429H10.5966Z" fill="#FDD855"/>
<path d="M10.5966 18.843V18.7632L9.63977 19.6404V19.7201V19.7998H9.71949L10.6764 18.9227V18.843V18.7632H10.5966V18.843L9.71949 19.7201H9.63977L10.5966 18.843Z" fill="#010101"/>
<path d="M10.1182 18.4442L9.3208 19.2416V19.3213H9.40052L10.1979 18.5239V18.4442H10.1182Z" fill="#FDD855"/>
<path d="M10.1182 18.4442L9.32081 19.2416H9.24109V19.3213H9.40053L10.1979 18.5239V18.4442H10.1182H10.1979V18.5239L9.40053 19.2416H9.32081L10.1182 18.4442Z" fill="#010101"/>
<path d="M9.16132 18.524L9.56002 18.843L9.71951 18.6037L9.40053 18.2848L9.16132 18.524Z" fill="#FDD855"/>
<path d="M9.16132 18.524L9.4803 18.843V18.9227L9.79923 18.6835V18.6037L9.40053 18.2848L9.16132 18.4443L9.24109 18.524L9.40053 18.3645L9.71951 18.6037L9.56002 18.843L9.24109 18.4443L9.16132 18.524Z" fill="#010101"/>
<path d="M9.32081 18.1252L9.24109 18.205H9.32081L9.24109 18.2847V18.205L9.16132 18.2847V18.3645H9.0816H9.00183L9.16132 18.5239L9.40053 18.2847V18.205L9.32081 18.1252Z" fill="#FDD855"/>
<path d="M9.32081 18.1252L9.24109 18.205V18.2847V18.205L9.0816 18.2847L9.16132 18.3645L9.0816 18.2847L9.00183 18.3645L9.0816 18.5239H9.16132L9.40053 18.2847V18.205L9.32081 18.1252L9.40053 18.205V18.2847L9.16132 18.5239L9.0816 18.3645L9.16132 18.4442V18.3645H9.24109L9.16132 18.2847H9.24109L9.32081 18.205H9.24109L9.32081 18.1252Z" fill="#010101"/>
<path d="M9.48028 18.5239L9.40051 18.6036L9.48028 18.6834L9.56 18.6036L9.48028 18.5239Z" fill="#010101"/>
<path d="M9.16133 18.6036V18.6834H9.08161L9.00184 18.7631H9.08161L9.00184 18.8429V18.7631L8.92212 18.8429L9.00184 18.9226H9.08161L9.32082 18.7631V18.6834L9.16133 18.6036Z" fill="#FDD855"/>
<path d="M9.16134 18.6036V18.5239L9.08162 18.6036L9.16134 18.6834H9.08162V18.6036L9.00185 18.6834V18.7631L8.92213 18.8429H8.84241L9.00185 18.9226V19.0023H9.08162L9.32083 18.7631V18.6834L9.24111 18.5239H9.16134V18.6036L9.24111 18.6834L9.08162 18.9226H9.00185L8.92213 18.8429L9.00185 18.7631V18.8429L9.08162 18.7631H9.00185L9.08162 18.6834V18.7631H9.16134V18.6834V18.6036H9.24111H9.16134Z" fill="#010101"/>
<path d="M9.0816 18.9227L9.24109 19.1619L9.4803 18.9227L9.24109 18.7632L9.0816 18.9227Z" fill="#FDD855"/>
<path d="M9.0816 18.9227L9.24109 19.1619L9.4803 18.9227L9.32081 18.6835H9.24109L9.0816 18.9227L9.24109 18.7632L9.40053 18.9227L9.24109 19.0822L9.0816 18.9227Z" fill="#010101"/>
<path d="M9.79922 18.0455H9.7195V18.1253V18.205L9.63978 18.1253L9.56001 18.205H9.63978L9.56001 18.2847V18.205L9.48029 18.2847L9.56001 18.4442H9.63978L9.87899 18.205V18.1253L9.79922 18.0455Z" fill="#FDD855"/>
<path d="M9.79922 18.0456H9.7195H9.63978L9.7195 18.1253H9.63978L9.56001 18.205H9.63978L9.56001 18.2848V18.205L9.48029 18.2848L9.56001 18.4443H9.63978L9.87899 18.205V18.1253L9.79922 18.0456V17.9658L9.7195 18.0456H9.79922H9.7195L9.87899 18.1253V18.205L9.63978 18.3645H9.56001L9.48029 18.2848H9.56001H9.63978V18.205V18.1253L9.7195 18.205V18.1253H9.79922L9.7195 18.0456H9.79922H9.7195H9.79922Z" fill="#010101"/>
<path d="M9.63977 18.3644L9.79921 18.6037L10.0385 18.3644L9.87898 18.205L9.63977 18.3644Z" fill="#FDD855"/>
<path d="M9.63977 18.4442L9.79921 18.6037L10.0385 18.3644L9.87898 18.205L9.63977 18.3644V18.4442L9.87898 18.205L10.0385 18.3644L9.79921 18.5239L9.63977 18.3644V18.4442Z" fill="#010101"/>
<path d="M9.24109 18.9227V19.0024L9.32081 18.9227H9.24109Z" fill="#010101"/>
<path d="M9.87896 18.3645H9.79919L9.87896 18.4443V18.3645Z" fill="#010101"/>
<path d="M8.28418 12.4638H9.48028L9.40051 12.0651H8.28418V12.4638Z" fill="#FDD855"/>
<path d="M8.28418 12.4637V12.5434H9.48028L9.40051 12.065V11.9852H8.28418L8.20441 12.4637V12.5434H8.28418V12.4637V12.065H9.40051L9.48028 12.4637H8.28418Z" fill="#010101"/>
<path d="M8.84236 12.0651L9.16129 12.4638H8.52338L8.84236 12.0651Z" fill="#FDD855"/>
<path d="M8.84236 12.0651L9.16129 12.4638H8.6031L8.84236 12.0651L8.52338 12.4638V12.5435H9.16129H9.24106L8.84236 12.0651Z" fill="#010101"/>
<path d="M8.84235 12.1448C8.84235 12.1448 9.00179 12.2245 9.00179 12.4638H8.68286C8.68286 12.2245 8.84235 12.1448 8.84235 12.1448Z" fill="#FDD855"/>
<path d="M8.84235 12.1448C8.84235 12.1448 9.00179 12.2245 9.00179 12.4638H8.68286C8.68286 12.3043 8.84235 12.2245 8.84235 12.1448C8.84235 12.1448 8.68286 12.2245 8.68286 12.4638H9.08156C9.08156 12.2245 8.84235 12.1448 8.84235 12.1448Z" fill="#010101"/>
<path d="M8.28418 11.8258H9.48028V11.9056H8.28418H8.20441L8.28418 11.8258Z" fill="#FDD855"/>
<path d="M8.28418 11.8258H9.48028V11.9056H8.28418H8.20441L8.28418 11.8258H8.20441V11.9056H8.28418H9.48028H9.56L9.48028 11.8258H8.28418Z" fill="#010101"/>
<path d="M8.20441 12.4637H9.48028L9.56 12.5435L9.48028 12.6232H8.20441V12.5435V12.4637Z" fill="#FDD855"/>
<path d="M8.20442 12.4637V12.5435H9.48028H9.56L9.48028 12.6232H8.20442V12.5435H8.28418L8.20442 12.4637V12.5435V12.4637V12.5435H8.12469L8.20442 12.6232H9.48028L9.56 12.5435L9.48028 12.4637H8.20442Z" fill="#010101"/>
<path d="M8.28418 11.9055H9.48028V11.9852V12.065H8.28418V11.9852V11.9055Z" fill="#FDD855"/>
<path d="M8.28418 11.9055H9.40051L9.48028 11.9852H9.40051H8.28418V11.9055L8.20441 11.9852L8.28418 12.065H9.48028V11.9852V11.9055H8.28418Z" fill="#010101"/>
<path d="M9.00179 11.3474V11.8258H8.68286L8.76258 11.3474H9.00179Z" fill="#FDD855"/>
<path d="M9.00179 11.3474V11.8258H8.76258V11.3474H9.00179H8.76258H8.68286V11.8258H9.00179H9.08156L9.00179 11.3474Z" fill="#010101"/>
<path d="M8.68286 11.1082H8.76258V11.1879H8.84235V11.1082H8.92207V11.1879H9.00179V11.1082H9.08156V11.2676L9.00179 11.3474H8.68286V11.2676V11.1082Z" fill="#FDD855"/>
<path d="M8.68286 11.1082V11.1879H8.76258H8.84235H8.92207H9.00179H9.08156V11.2676L9.00179 11.3474H8.68286V11.2676V11.1082V11.1879V11.1082V11.2676V11.3474H9.00179H9.08156V11.2676V11.1082H9.00179V11.1879H8.92207V11.1082H8.84235V11.1879H8.76258V11.1082H8.68286Z" fill="#010101"/>
<path d="M8.84241 11.5068H8.92213V11.6663H8.84241V11.5068Z" fill="#010101"/>
<path d="M9.0816 11.3474H9.16132V11.4271H9.24109V11.3474H9.32081V11.4271H9.40053V11.3474H9.4803V11.5069L9.40053 11.5866H9.0816V11.5069V11.3474Z" fill="#FDD855"/>
<path d="M9.0816 11.3474V11.4271H9.16132H9.24109H9.32081H9.40053H9.4803V11.5069H9.40053H9.0816V11.3474V11.4271V11.3474V11.5069V11.5866H9.40053L9.4803 11.5069V11.3474H9.40053H9.32081V11.4271V11.3474H9.24109H9.16132V11.4271V11.3474H9.0816Z" fill="#010101"/>
<path d="M9.40053 11.5865V11.8258H9.0816V11.5865H9.40053Z" fill="#FDD855"/>
<path d="M9.40053 11.5866V11.8258H9.16132V11.5866H9.40053V11.5068H9.0816V11.8258H9.40053V11.5866Z" fill="#010101"/>
<path d="M8.28418 11.3474H8.3639V11.4271H8.44367V11.3474H8.52339V11.4271H8.60311V11.3474H8.68288V11.5069L8.60311 11.5866H8.28418V11.5069V11.3474Z" fill="#FDD855"/>
<path d="M8.28418 11.3474V11.4271H8.3639H8.44367H8.52339H8.60311H8.68288V11.5069H8.60311H8.3639H8.28418V11.3474V11.4271V11.3474V11.5069V11.5866H8.60311H8.68288V11.5069V11.3474H8.60311V11.4271H8.52339V11.3474H8.44367V11.4271H8.3639V11.3474H8.28418Z" fill="#010101"/>
<path d="M8.6031 11.5865V11.8258H8.36389V11.5865H8.6031Z" fill="#FDD855"/>
<path d="M8.60311 11.5866V11.8258H8.3639V11.5866H8.60311V11.5068H8.3639H8.28418V11.8258H8.60311H8.68288L8.60311 11.5866Z" fill="#010101"/>
<path d="M9.24109 11.6664H9.32081V11.7461H9.24109V11.6664Z" fill="#010101"/>
<path d="M8.44366 11.6664H8.52339V11.7461H8.44366V11.6664Z" fill="#010101"/>
<path d="M8.28418 16.0521H9.48028L9.40051 15.5736H8.28418V16.0521Z" fill="#FDD855"/>
<path d="M8.28418 16.0521H9.48028L9.40051 15.5736H8.28418L8.20441 16.0521H8.28418V15.5736H9.40051L9.48028 16.0521H8.28418Z" fill="#010101"/>
<path d="M8.84236 15.5736L9.16129 16.0521H8.52338L8.84236 15.5736Z" fill="#FDD855"/>
<path d="M8.84236 15.5736L9.16129 16.0521H8.6031L8.84236 15.5736L8.52338 16.0521H9.16129H9.24106L8.84236 15.5736Z" fill="#010101"/>
<path d="M8.84235 15.733C8.84235 15.733 9.00179 15.8128 9.00179 16.052H8.68286C8.68286 15.8128 8.84235 15.733 8.84235 15.733Z" fill="#FDD855"/>
<path d="M8.84235 15.733C8.84235 15.733 9.00179 15.8128 9.00179 16.052H8.68286C8.68286 15.8128 8.84235 15.733 8.84235 15.733C8.84235 15.733 8.68286 15.8128 8.68286 16.052H9.08156C9.08156 15.8128 8.84235 15.6533 8.84235 15.733Z" fill="#010101"/>
<path d="M8.28418 15.3344H9.48028V15.4141V15.4938H8.28418L8.20441 15.4141L8.28418 15.3344Z" fill="#FDD855"/>
<path d="M8.28418 15.3344H9.48028V15.4141H8.28418H8.20441L8.28418 15.3344L8.20441 15.4141L8.28418 15.4938H9.48028L9.56 15.4141L9.48028 15.3344H8.28418Z" fill="#010101"/>
<path d="M8.20441 16.052H9.48028H9.56L9.48028 16.1317H8.20441V16.052Z" fill="#FDD855"/>
<path d="M8.20442 16.052H9.48028H9.56L9.48028 16.1317H8.20442V16.052H8.28418H8.20442H8.12469L8.20442 16.1317H9.48028H9.56V16.052H9.48028H8.20442Z" fill="#010101"/>
<path d="M8.28418 15.4939H9.48028V15.5736H8.28418V15.4939Z" fill="#FDD855"/>
<path d="M8.28418 15.4938H9.40051H9.48028L9.40051 15.5736H8.28418V15.4938V15.4141L8.20441 15.4938L8.28418 15.5736H9.48028V15.4938V15.4141H8.28418V15.4938Z" fill="#010101"/>
<path d="M9.00179 14.856V15.3344H8.68286L8.76258 14.856H9.00179Z" fill="#FDD855"/>
<path d="M9.00179 14.856V15.3344H8.76258V14.856H9.00179H8.76258H8.68286V15.3344H9.00179H9.08156L9.00179 14.856Z" fill="#010101"/>
<path d="M8.68286 14.6964H8.76258V14.7761H8.84235V14.6964H8.92207V14.7761H9.00179V14.6964H9.08156V14.8559H9.00179H8.68286V14.6964Z" fill="#FDD855"/>
<path d="M8.68286 14.6965H8.76258V14.7762H8.84235V14.6965H8.92207V14.7762H9.00179V14.6965H9.08156V14.7762L9.00179 14.856H8.76258L8.68286 14.7762V14.6965V14.856H9.00179H9.08156V14.6965V14.6167H9.00179V14.6965H8.92207V14.6167H8.84235V14.6965H8.76258V14.6167H8.68286V14.6965Z" fill="#010101"/>
<path d="M8.84241 15.0952H8.92213V15.1749H8.84241V15.0952Z" fill="#010101"/>
<path d="M9.0816 14.9357H9.16132H9.24109H9.32081H9.40053H9.4803V15.0952H9.40053H9.0816V14.9357Z" fill="#FDD855"/>
<path d="M9.0816 14.9357H9.16132V15.0154H9.24109V14.9357H9.32081V15.0154H9.40053V14.9357H9.4803V15.0154L9.40053 15.0952H9.0816V15.0154V14.9357V15.0952H9.40053H9.4803V14.9357V14.856H9.40053H9.32081V14.9357V14.856H9.24109H9.16132V14.9357V14.856H9.0816V14.9357Z" fill="#010101"/>
<path d="M9.40053 15.0952V15.3344H9.0816V15.0952H9.40053Z" fill="#FDD855"/>
<path d="M9.40053 15.0952V15.3344H9.16132V15.0952H9.40053H9.0816V15.3344H9.40053V15.0952Z" fill="#010101"/>
<path d="M8.28418 14.9357H8.3639H8.44367H8.52339H8.60311H8.68288V15.0952H8.60311H8.28418V14.9357Z" fill="#FDD855"/>
<path d="M8.28418 14.9357H8.3639V15.0154H8.44367V14.9357H8.52339V15.0154H8.60311V14.9357H8.68288V15.0154L8.60311 15.0952H8.3639L8.28418 15.0154V14.9357V15.0952H8.60311H8.68288V14.9357V14.856H8.60311V14.9357H8.52339V14.856H8.44367V14.9357H8.3639V14.856H8.28418V14.9357Z" fill="#010101"/>
<path d="M8.6031 15.0952V15.3344H8.36389V15.0952H8.6031Z" fill="#FDD855"/>
<path d="M8.60311 15.0952V15.3344H8.3639V15.0952H8.60311H8.3639H8.28418V15.3344H8.60311H8.68288L8.60311 15.0952Z" fill="#010101"/>
<path d="M9.24109 15.1749H9.32081V15.2547H9.24109V15.1749Z" fill="#010101"/>
<path d="M8.44366 15.1749H8.52339V15.2547H8.44366V15.1749Z" fill="#010101"/>
</g>
<defs>
<clipPath id="clip0_8_99636">
<rect x="0.97583" width="32" height="32" rx="6" fill="white"/>
</clipPath>
</defs>
</svg>
