<svg width="32" height="32" viewBox="0 0 32 32" fill="none" xmlns="http://www.w3.org/2000/svg">
<path fill-rule="evenodd" clip-rule="evenodd" d="M5.09091 32H26.9333C29.7212 31.9758 32 29.697 32 26.8848V5.09091C32 2.30303 29.7212 0 26.9091 0H5.11515C2.30302 0 0 2.30303 0 5.09091V26.8848C0 29.6727 2.27879 31.9758 5.09091 32Z" fill="#006C35"/>
<path fill-rule="evenodd" clip-rule="evenodd" d="M27.7576 11.5636C27.7576 11.5636 27.7333 11.1272 27.3697 11.006C27.3697 11.006 27.0545 10.8605 27.2 10.7151C27.2 10.7151 27.4424 10.5212 27.6363 10.9575C27.6363 10.9575 27.8303 11.1999 27.7576 11.5636ZM26.4485 15.9999H26.1818C26.1818 15.9999 24.8242 16.4848 24.5333 16.7272C24.5333 16.7272 24.6545 16.7757 24.8727 16.703C24.897 16.6787 26.4242 16.0727 26.4485 15.9999ZM22.5454 11.6605L22.2788 11.6848C22.2788 11.6848 20.9939 12.3393 20.7273 12.5818C20.7273 12.5818 20.8727 12.6302 21.0666 12.5333C21.0666 12.509 22.5454 11.7575 22.5454 11.6605ZM5.18784 12.8484L4.89694 12.8727C4.89694 12.8727 3.61209 13.5272 3.34542 13.7696C3.34542 13.7696 3.49088 13.8181 3.68482 13.7212C3.68482 13.6969 5.1636 12.9454 5.18784 12.8484ZM23.2 16.7272C23.2 16.7272 23.2 16.3878 22.9091 16.2181C22.9091 16.2181 22.5212 16.1212 22.6667 15.9272C22.6667 15.9272 22.8363 15.7575 23.103 16.1939C23.1272 16.1696 23.2727 16.3878 23.2 16.7272ZM8.16967 10.6666C8.16967 10.6666 8.16968 10.3272 7.87877 10.1575C7.87877 10.1575 7.53937 10.0605 7.68482 9.86661C7.68482 9.86661 7.85453 9.72115 8.1212 10.1333C8.09696 10.109 8.2424 10.3515 8.16967 10.6666ZM14.4242 9.43024C14.4242 9.43024 14.4242 9.04236 14.1333 8.87267C14.1333 8.87267 13.7939 8.77569 13.8909 8.58175C13.8909 8.58175 14.0848 8.4363 14.3515 8.84842C14.3515 8.84842 14.497 9.0666 14.4242 9.43024ZM10.7151 9.72115C10.7151 9.72115 10.7151 9.38176 10.4242 9.21206C10.4242 9.21206 10.0364 9.11509 10.1818 8.92115C10.1818 8.92115 10.3757 8.77569 10.6424 9.18781C10.6424 9.16357 10.7879 9.406 10.7151 9.72115ZM24.1697 13.3818C24.1939 13.3818 24.2666 13.4302 24.2666 13.503C24.2666 13.5515 24.2182 13.6242 24.1697 13.6242C24.1212 13.6242 24.0727 13.5757 24.0727 13.503C24.0727 13.4545 24.0969 13.3818 24.1697 13.3818ZM24.4606 13.5515C24.5091 13.5515 24.5575 13.5757 24.5575 13.6484C24.5575 13.6969 24.5333 13.7696 24.4606 13.7696C24.4363 13.7696 24.4121 13.7211 24.4121 13.6484C24.3879 13.5999 24.4363 13.5515 24.4606 13.5515ZM22.9091 14.5211C22.9091 14.5211 23.6121 14.3272 24.0485 13.8181C24.0485 13.8181 23.8545 13.4787 23.903 13.2605C24.0242 12.9939 24.3879 13.2848 24.5091 13.406C24.5091 13.406 24.7757 13.6727 24.6545 13.8424C24.5576 13.9393 24.3879 13.9393 24.2666 13.9393C24.2909 13.9393 23.5394 14.8121 22.9091 14.5211ZM4.29088 12.0484C4.33937 12.0484 4.38786 12.0969 4.38786 12.1696C4.38786 12.2181 4.36361 12.2666 4.29088 12.2666C4.21816 12.2666 4.19391 12.2424 4.19391 12.1696C4.19391 12.1212 4.21816 12.0484 4.29088 12.0484ZM4.60605 12.1939C4.63029 12.1939 4.70299 12.2424 4.70299 12.3151C4.70299 12.3636 4.65453 12.4363 4.60605 12.4363C4.55756 12.4363 4.50907 12.3878 4.50907 12.3151C4.50907 12.2666 4.53332 12.1939 4.60605 12.1939ZM3.07876 13.1878C3.07876 13.1878 3.73331 12.9939 4.16967 12.4605C4.16967 12.4605 3.97573 12.1454 4.04846 11.9514C4.16967 11.6848 4.50907 11.9757 4.63028 12.0969C4.63028 12.0969 4.89694 12.3636 4.77573 12.5333C4.67876 12.6302 4.50907 12.6302 4.38786 12.6302C4.4121 12.606 3.63634 13.4787 3.07876 13.1878ZM24.6303 11.3454C24.7273 11.9757 24.7757 12.6787 24.8969 13.406C24.8969 13.406 25.0667 14.7878 25.0909 15.4424C25.0909 15.4424 24.9939 15.903 24.2909 15.8787C24.2909 15.8787 23.7333 15.903 23.4424 15.006C23.4424 15.006 23.2727 14.6181 22.8363 14.8363C22.8363 14.8363 22.4 15.006 22.0848 15.7818C22.0848 15.7818 21.7454 16.8727 21.3091 16.6302C21.3091 16.6302 20.8242 16.1939 20.7515 15.5878C21.2121 15.7333 22.0363 15.1757 22.0363 15.1757C22.7636 14.3999 21.8909 13.6969 21.8909 13.6969L22.7636 12.9454C22.8121 13.406 22.8848 13.8666 22.9333 14.303C23.2242 14.2545 23.2485 13.406 23.2 12.606L23.5878 12.2666L24.6303 11.3454ZM26.4 9.86661C26.4 10.0121 26.4242 10.1575 26.4242 10.303L26.5454 12.3393C26.0606 11.903 25.5273 11.4666 25.0909 11.0545V10.9575L26.4 9.86661ZM20.9454 9.43024C20.9454 9.43024 20.8485 9.09085 20.5575 8.87267C20.5575 8.87267 20.3879 8.75145 20.5091 8.67872C20.5091 8.67872 20.6545 8.55751 20.9454 8.96963C20.9939 8.67872 21.2121 8.38782 21.503 8.63024C21.5515 8.67873 21.6 8.7757 21.503 8.89691C21.3091 8.92115 21.3576 8.70297 21.2121 8.7757C21.0909 8.84842 20.9697 9.33327 20.9454 9.43024ZM11.0545 14.303C11.0545 14.303 10.9575 13.9636 10.6424 13.7454C10.6424 13.7454 10.4969 13.5999 10.6182 13.503C10.6182 13.503 10.7636 13.3818 11.0545 13.8181C11.103 13.5272 11.3212 13.2121 11.5636 13.4787C11.6121 13.5272 11.6848 13.6242 11.5878 13.7212C11.3939 13.7454 11.4424 13.5515 11.297 13.6242C11.2 13.7454 11.0788 14.2302 11.0545 14.303ZM20.9212 10.6424C20.5818 10.7878 20.606 11.4181 21.0424 11.4181C21.0424 11.4181 21.1879 11.4181 21.3333 11.2484C21.3333 11.2484 21.4545 11.4181 21.6242 11.4181C21.6242 11.4181 21.9394 11.3939 21.8666 11.0787C21.8666 11.0787 21.7212 10.6908 21.7454 10.5696C21.7454 10.5696 21.5757 10.5939 21.6242 10.8848C21.6242 10.8848 21.7454 11.1272 21.6727 11.1515C21.6727 11.1515 21.503 11.2484 21.3576 11.006C21.3576 11.006 21.2606 10.8121 21.3333 10.6666C21.3333 10.6666 21.1394 10.6181 21.1636 11.0545C21.1636 11.0545 21.1878 11.1757 21.1878 11.1999C20.8484 11.3454 20.7757 10.9333 20.9212 10.6424ZM14.7879 12.0484C14.4485 12.1939 14.4727 12.8242 14.9091 12.8242C14.9091 12.8242 15.0545 12.8242 15.2 12.6545C15.2 12.6545 15.3212 12.8242 15.4909 12.8242C15.4909 12.8242 15.806 12.8242 15.7333 12.4848C15.7333 12.4848 15.5878 12.0969 15.6121 11.9999C15.6121 11.9999 15.4424 11.9999 15.4909 12.2908C15.4909 12.2908 15.6121 12.5575 15.5394 12.5818C15.5394 12.5818 15.3697 12.6302 15.2242 12.4121C15.2242 12.4121 15.1272 12.2181 15.2 12.0727C15.2 12.0727 15.006 12.0242 15.0303 12.4605C15.0303 12.4605 15.0545 12.5818 15.0545 12.606C14.6909 12.7515 14.6424 12.3393 14.7879 12.0484ZM13.9394 9.64842C13.6242 9.79387 13.6485 10.3999 14.0848 10.4242C14.0848 10.4242 14.2303 10.4242 14.3515 10.2545C14.3515 10.2545 14.497 10.3999 14.6667 10.4242C14.6667 10.4242 14.9818 10.3999 14.9091 10.0848C14.9091 10.0848 14.7394 9.69691 14.7879 9.57569C14.7879 9.57569 14.5939 9.59993 14.6667 9.89084C14.6667 9.89084 14.7636 10.1333 14.6909 10.1575C14.6909 10.1575 14.5212 10.206 14.4 10.0121C14.4 10.0121 14.303 9.81812 14.3515 9.62418C14.3515 9.62418 14.1576 9.59993 14.206 10.0121C14.206 10.0121 14.206 10.1333 14.2303 10.1818C13.8909 10.3515 13.7939 9.91509 13.9394 9.64842ZM7.58785 9.11509C7.39391 9.21206 7.41816 9.57569 7.68482 9.57569C7.68482 9.57569 7.7333 9.5757 7.83027 9.47873C7.83027 9.47873 7.92726 9.57569 7.99999 9.57569C7.99999 9.57569 8.19392 9.5757 8.14544 9.38176C8.14544 9.38176 8.04845 9.18782 8.09693 9.09085C8.09693 9.09085 7.97574 9.09085 7.99999 9.26055C7.99999 9.26055 8.04847 9.406 8.02422 9.43024C8.02422 9.43024 7.92724 9.45448 7.85451 9.30903C7.85451 9.30903 7.80603 9.18782 7.83027 9.11509C7.83027 9.11509 7.70905 9.09085 7.7333 9.35751C7.7333 9.35751 7.7333 9.406 7.7333 9.45448C7.5636 9.50297 7.49088 9.28479 7.58785 9.11509ZM20.5091 10.1818C20.1939 10.1818 20.0727 9.93933 20.3636 9.79388C20.6788 9.59994 21.6727 9.28478 21.9879 9.18781C22.0121 9.33327 21.406 9.52721 21.2606 9.59994L20.5333 9.89084C20.3636 9.93933 20.4121 10.0121 20.5091 10.1818ZM18.0848 8.4363C17.697 8.58175 17.2363 9.2363 17.6485 9.45448C17.9151 9.59994 18.1576 9.406 18.2303 9.13933C18.2303 9.13933 17.9151 9.28478 17.8182 9.18781C17.8182 9.18781 17.6485 8.99387 18.0848 8.4363ZM3.61208 14.1333C3.22421 14.2787 2.76362 14.909 3.17574 15.1515C3.44241 15.2969 3.68484 15.0545 3.75756 14.8363C3.75756 14.8363 3.44239 14.9575 3.34542 14.8605C3.36967 14.8605 3.17572 14.6666 3.61208 14.1333ZM3.56361 8.606C3.15149 8.75145 2.71511 9.38176 3.12724 9.62418C3.3939 9.74539 3.63633 9.52721 3.70906 9.28478C3.70906 9.28478 3.39392 9.43024 3.29695 9.33327C3.29695 9.33327 3.12725 9.13933 3.56361 8.606ZM19.2727 15.5636C19.2727 15.5636 18.8848 15.7333 19.006 16.1211C19.006 16.1211 19.103 16.3878 19.2727 16.2424C19.2727 16.2424 19.3939 16.1212 19.2484 16.0484C19.2484 16.0242 19.006 15.8787 19.2727 15.5636ZM17.6242 15.7575C17.7454 15.5878 17.9394 15.5151 18.1091 15.5878C18.2303 15.6121 18.3515 15.6363 18.2545 15.7575C18.1333 15.9272 17.9394 15.9272 17.7697 16.0727C17.5757 16.2666 17.7454 16.3151 17.9394 16.2666C18.0606 16.2666 18.5212 16.0242 18.5939 15.9757C18.5939 15.9757 18.4242 16.4363 17.8182 16.4848C17.7697 16.4848 17.6969 16.4848 17.6485 16.4605C17.406 16.4121 17.3091 16.1696 17.5515 16.0242C17.6727 15.9272 17.8181 15.903 17.7939 15.8545C17.7697 15.7575 17.4788 16.0242 17.6242 15.7575ZM18.9576 13.3575C18.9576 13.3575 18.7151 13.0181 19.1515 12.9454C19.1515 12.9454 19.103 13.1151 19.1515 13.2605L19.2 13.2848L19.103 13.3818C19.103 13.3818 18.8606 13.9393 18.2545 13.8666C18.2788 13.8908 18.9333 13.7696 18.9576 13.3575ZM17.4545 12.1939C17.4545 12.1939 17.9636 12.0242 18.0363 11.6363C18.0363 11.6363 17.8424 11.7333 17.7939 11.6121C17.7939 11.6121 17.9151 11.2727 18.1818 11.4181C18.1818 11.4181 18.3515 11.5151 18.1575 11.8787C18.1575 11.8787 17.9636 12.1454 17.4545 12.1939ZM16.9212 12.703C16.9212 12.703 17.0666 12.606 17.2606 12.6787C17.5515 12.7757 17.7212 12.9211 17.3576 13.0666C17.2363 13.1151 17.0909 13.1636 16.9454 13.0181C16.9697 12.9939 16.7515 12.7999 16.9212 12.703ZM13.8909 15.7575C13.8909 15.7575 13.8666 15.4666 14.1575 15.6121C14.4242 15.7333 14.2545 15.9272 13.9879 15.9514C13.9394 15.9514 13.8424 15.9757 13.8182 15.9999C13.697 16.1211 14.1091 16.4121 13.9151 16.7515C13.9151 16.7515 13.8666 16.3151 13.6727 16.1696C13.6727 16.1696 13.5757 16.0727 13.6485 15.9757C13.6969 15.8787 13.8666 15.8787 13.8909 15.7575ZM17.0666 9.11509C17.0666 9.11509 17.3091 9.13933 17.3576 9.16357C17.3576 9.16357 17.3333 8.96963 16.9454 8.67872C16.5575 8.41206 16.6545 8.79993 16.6545 8.79993C16.6545 8.79993 16.6788 9.2363 16.9212 9.72115C16.9212 9.72115 17.5757 10.8121 17.0909 11.0302C17.0909 11.0302 16.3394 11.4666 15.903 10.4242C15.903 10.4242 15.7091 9.84236 15.7091 9.21206C15.7091 9.21206 15.7333 8.87266 15.4424 8.58175C15.4424 8.58175 15.1272 8.72721 15.2 9.13933C15.2 9.13933 15.4909 9.52721 15.4666 9.93933C15.4666 9.93933 15.4909 10.8605 14.8848 11.2242C14.8848 11.2242 14.5454 11.4181 14.1575 11.3696C13.0909 11.2242 13.503 9.84236 13.7454 9.18781C13.7454 9.18781 13.3576 9.09084 13.0909 9.91509C13.0909 9.91509 12.7515 10.7636 12.5818 11.1999C12.5818 11.1999 12.3878 11.709 11.9515 11.4908C11.9515 11.4908 11.4424 11.1757 11.6606 10.206C11.6606 10.206 11.2 10.6181 11.6364 11.6848C11.6364 11.6848 12.2424 12.1939 12.6788 11.4424C12.6788 11.4424 12.9454 10.9818 12.9939 10.4484C12.9939 10.4484 13.2363 9.79388 13.406 9.81812C13.406 9.81812 12.9697 10.7393 13.406 11.4424C13.406 11.4424 14.0121 12.1454 14.8121 11.6848C14.8121 11.6848 15.4424 11.3454 15.5636 10.6424C15.5636 10.6424 15.8788 11.7333 16.8727 11.5636C16.8727 11.5636 17.8182 11.3939 17.503 10.2787C17.503 10.2545 17.0666 9.30903 17.0666 9.11509ZM8.65452 9.04236C8.65452 9.04236 8.84845 9.0666 8.92118 9.09085C8.92118 9.09085 8.92119 8.89691 8.50907 8.606C8.12119 8.33933 8.21815 8.72721 8.21815 8.72721C8.21815 8.72721 8.26665 9.16357 8.50907 9.64842C8.50907 9.64842 9.13936 10.7878 8.67876 10.9575C8.67876 10.9575 7.903 11.3939 7.46664 10.3515C7.46664 10.3515 7.29696 9.76963 7.27271 9.16357C7.27271 9.16357 7.29693 8.7757 7.00602 8.50903C7.00602 8.50903 6.71511 8.65448 6.7636 9.0666C6.7636 9.0666 7.05453 9.45448 7.03029 9.91509C7.03029 9.91509 7.05452 10.8121 6.4727 11.1515C6.4727 11.1515 6.35148 11.1999 6.15754 11.2727C6.15754 11.1515 6.15754 11.0787 6.15754 11.006C6.10905 10.5211 6.0121 9.98781 5.98785 9.55145L6.25451 9.69691C6.25451 9.69691 6.27877 9.18782 5.93938 8.606C5.93938 8.606 5.67269 8.29085 5.55148 8.75145C5.55148 8.75145 5.52724 9.2363 5.67269 10.303C5.69693 10.5939 5.72118 10.9333 5.76967 11.2969C4.67876 11.1757 5.06665 9.76964 5.35756 9.11509C5.35756 9.11509 4.94543 9.01812 4.65452 9.84236C4.65452 9.84236 4.31513 10.6908 4.16967 11.1272C4.16967 11.1272 3.92726 11.6363 3.51514 11.4181C3.51514 11.4181 3.03027 11.103 3.22421 10.1333C3.22421 10.1333 2.76361 10.5454 3.19998 11.6121C3.19998 11.6121 3.80605 12.1211 4.24241 11.3696C4.24241 11.3696 4.50905 10.909 4.58178 10.3515C4.58178 10.3515 4.77574 9.72115 4.96968 9.74539C4.96968 9.74539 4.53332 10.6666 4.96968 11.3696C4.96968 11.3696 5.30908 11.7575 5.81817 11.7575C5.86665 12.9211 5.93938 14.1818 6.06059 15.0302C6.49696 14.9818 6.37573 12.8484 6.25451 11.709C6.303 11.6848 6.37574 11.6605 6.42423 11.6121C6.42423 11.6121 7.03028 11.2727 7.17574 10.5696C7.17574 10.5696 7.4909 11.709 8.48484 11.4908C8.48484 11.4908 9.40604 11.3212 9.11513 10.206C9.09089 10.206 8.63028 9.26054 8.65452 9.04236ZM12.0485 8.96963C11.6848 8.84842 11.9272 8.67872 12.0485 8.96963V8.96963ZM11.0303 10.0121C11.0303 10.0121 11.6848 9.67266 11.9272 9.16357C11.2242 8.75145 12.0484 8.24236 12.2181 9.04236C12.2181 9.04236 12.5091 9.21206 12.3151 9.55145C12.3151 9.55145 12.2182 9.72115 12.1454 9.86661C12.0485 10.109 12.2424 10.1333 12.3394 9.89084C12.3878 10.3999 11.7091 10.303 12.0727 9.62418C12.1939 9.45449 12.3151 9.18782 12.0969 9.21206C12.0969 9.26054 11.6606 9.89084 11.0303 10.0121ZM12.5818 12.8727C12.5818 12.8727 12.6788 12.8727 12.7273 12.8969C12.7273 12.8969 12.7273 12.703 12.2666 12.1939C12.2666 12.1939 12.1212 12.0242 12.0242 12.3151C12.0242 12.3151 11.8788 12.6302 12.1939 13.2121C12.1939 13.2121 12.6303 13.9636 12.4848 14.1575C12.4848 14.1575 12.0727 14.6181 11.103 15.2242C11.1272 14.7878 11.3697 14.3757 11.3697 14.3757C10.9818 14.6181 10.8848 15.006 10.8606 15.3939C10.1333 15.8302 9.16361 16.3393 7.83027 16.8484C7.83027 16.8484 8.87271 16.9939 10.0606 16.4363C10.0606 16.4363 10.4485 16.2908 10.9333 15.9999V16.0242C11.0545 17.0666 12.4363 16.1939 12.4363 16.1939C13.6727 15.6848 14.2545 14.7151 14.2545 14.7151C14.2545 16.3393 15.7576 16.6302 15.7576 16.6302C16.4848 16.9212 16.6545 16.5333 16.6545 16.5333C16.7757 16.0969 16.3636 16.0969 16.3636 16.0969C15.903 16.0969 15.4666 15.903 15.4666 15.903C15.7818 15.1999 18.4727 14.8605 18.4727 14.8605C19.4909 14.7393 19.6121 14.2302 19.4909 14.2302C19.3697 14.2545 15.5878 14.2302 15.5878 14.2302C16.2909 13.6484 17.1394 13.4302 17.1394 13.4302C17.2606 13.5515 17.2848 13.8424 17.2848 13.8424C17.4545 13.7212 17.4303 13.3818 17.4303 13.3818C17.8909 13.503 18.1575 13.1393 18.1575 13.1393C18.4969 12.7999 17.6485 12.4121 17.6485 12.4121C16.9454 12.0969 16.6303 12.5575 16.6303 12.5575C16.3636 12.8242 16.8242 13.1878 16.8242 13.1878C14.3272 13.8908 14.7394 14.6666 14.7394 14.6666L17.0909 14.7151C15.3212 15.103 15.2727 15.7333 15.2727 15.7333C14.6182 15.7575 14.4242 14.109 14.4242 14.109C14.3757 12.7515 13.4303 11.7575 13.4303 11.7575C13.1394 11.9515 13.3333 12.4848 13.3333 12.4848C13.7697 13.2605 14.1333 14.3757 14.1333 14.3757C13.6242 14.9333 12.3151 15.709 12.3151 15.709C11.6848 16.1454 11.2484 15.8545 11.2484 15.8545C11.2242 15.8545 11.2242 15.8302 11.2242 15.806C11.7333 15.4666 12.4121 14.9575 12.8969 14.303C12.8969 14.303 13.0909 13.9151 12.7273 13.309C12.7273 13.3333 12.5091 12.8484 12.5818 12.8727ZM7.66059 13.0908C7.66059 13.0908 7.19996 12.606 6.88481 12.9939C6.88481 13.0181 7.17574 13.3818 7.66059 13.0908ZM9.72119 13.503C9.62422 13.5272 9.5515 13.5272 9.45453 13.503C9.45453 13.503 8.96968 13.3575 8.87271 13.0181C8.87271 13.0181 8.70301 13.2121 8.38786 13.406C8.4121 13.7454 8.38785 14.5696 7.32119 15.103C7.32119 15.103 6.32724 15.709 5.18784 16.1211C5.62421 16.3151 6.23028 16.1454 6.23028 16.1454C9.47876 15.6605 9.72119 13.9636 9.72119 13.9636C9.72119 13.8424 9.72119 13.6969 9.72119 13.503ZM3.12724 16.3636C3.12724 16.3636 3.70906 16.1939 4.43633 15.9272C3.87876 14.5212 5.0909 13.4787 5.0909 13.4787C4.5818 14.0363 4.65452 15.2242 4.65452 15.2242C4.65452 15.4908 4.703 15.6605 4.79997 15.806C5.55148 15.5393 6.35148 15.1999 6.88481 14.7878C6.88481 14.7878 8.04847 14.206 8.02422 13.5757C7.75756 13.6969 7.4424 13.7454 7.07876 13.7454C7.07876 13.7454 6.27876 13.7211 6.59391 12.8242C6.59391 12.8242 7.05453 11.9272 7.7818 12.4121C7.7818 12.4121 8.0727 12.6545 8.19391 12.9939C8.19391 12.9939 8.89694 12.5333 9.13937 12.3393C9.13937 12.3393 9.01816 12.9696 9.62422 13.0666C9.62422 13.0666 9.64847 13.0666 9.72119 13.0666C9.67271 12.6787 9.62423 12.2908 9.57574 11.8545C9.43029 10.5696 9.26058 9.28478 9.26058 9.28478C9.06664 8.65448 9.45453 8.50903 9.45453 8.50903C9.57574 8.46054 9.69696 8.70297 9.69696 8.70297C10.0848 9.47872 9.98785 9.76963 9.98785 9.76963C9.89088 9.64842 9.74543 9.59994 9.74543 9.59994C9.8424 10.2545 9.91513 10.9575 9.98785 11.5878C10.4485 11.2969 11.1272 10.9575 11.1272 10.9575L11.4182 10.9333C11.3939 11.0302 10.3515 11.5878 10.0121 11.7333C10.0606 12.1939 10.1091 12.5818 10.1575 12.8727C10.2545 12.7757 10.3272 12.6787 10.4 12.4605C10.4 12.4605 10.5454 12.1454 10.8121 12.1454C10.8121 12.1454 10.6666 12.703 11.1272 12.7272C11.1272 12.7272 11.7091 12.7515 11.6121 11.9999C11.6121 11.9999 11.7091 11.6848 11.8545 12.0969C11.8545 12.0969 12.1454 13.0908 11.103 13.2605C11.103 13.2605 10.6909 13.2848 10.5454 12.8727C10.5454 12.8727 10.497 13.2121 10.206 13.3818V13.406C10.3273 15.0787 8.55754 15.9999 8.55754 15.9999C5.55148 17.406 4.77573 16.4363 4.77573 16.4363C4.75149 16.3878 4.67876 16.3151 4.65452 16.2666C4.12119 16.3636 3.58784 16.4363 3.12724 16.3636ZM21.503 14.0605C21.503 14.0605 22.1576 14.5211 21.697 14.7636C21.697 14.7636 21.1394 15.103 20.8242 14.9575C20.8484 14.9575 20.703 14.7393 21.503 14.0605ZM29.0182 9.64842C29.0182 9.64842 29.0666 9.45448 28.703 8.70297C28.703 8.70297 28.5091 8.2666 28.2666 8.55751C28.1697 8.70296 28.2666 9.28479 28.2909 9.45448L28.6788 13.5999C28.6788 13.5999 28.7757 14.3757 28.6303 14.8363C28.5818 14.2302 27.8545 13.4787 27.006 12.7272C26.9091 11.6605 26.8363 10.2787 26.7394 9.57569L26.7636 9.55145L27.006 9.69691C27.006 9.69691 27.006 9.5757 26.9818 9.38176C27.7575 8.7757 27.7576 8.38782 27.7576 8.38782C27.5636 8.48479 27.2484 8.70297 26.8848 8.96963C26.8363 8.84842 26.7636 8.72721 26.6909 8.58175C26.6909 8.58175 26.4242 8.2666 26.303 8.72721C26.303 8.72721 26.303 8.92115 26.3273 9.35751C25.8666 9.69691 25.4788 10.0121 25.4788 10.0121C25.3333 10.1333 25.1879 10.2787 25.0182 10.4242C24.9939 10.1333 24.9212 9.84236 24.8969 9.55145L25.1394 9.64842C25.1394 9.64842 25.2848 9.09084 24.7273 8.46054C24.7273 8.46054 24.4606 8.36357 24.4363 8.79993C24.4363 8.79993 24.4606 9.45448 24.5575 10.4969C24.4121 10.3514 24.2909 10.206 24.1697 10.0848L24.5091 10.0363C24.5091 10.0363 24.1212 9.59994 23.7576 9.38176C23.2 9.04236 22.9091 9.26054 23.3212 9.84236C23.3697 9.93933 23.4424 9.98782 23.5151 10.0848C23.7818 10.3999 24.0727 10.6908 24.3636 10.9818C23.9515 11.3211 23.5151 11.6848 23.1272 12.0484C23.0788 11.5636 23.006 11.1272 22.9818 10.9818C22.9333 10.4969 22.8606 9.96357 22.8363 9.52721L23.0788 9.67266C23.0788 9.67266 23.1273 9.16357 22.7879 8.58175C22.7879 8.58175 22.4969 8.2666 22.3757 8.72721C22.3757 8.72721 22.3757 9.21206 22.5212 10.2787C22.5697 10.9333 22.6424 11.6605 22.6909 12.3878C22.0363 12.9454 21.5272 13.3818 21.5272 13.3818C20.8 12.8242 20.2424 12.3393 19.8303 11.9757C19.7818 11.0545 19.6848 10.0605 19.6364 9.55145L19.903 9.69691C19.903 9.69691 19.9515 9.18782 19.5878 8.606C19.5878 8.606 19.3212 8.29085 19.2 8.75145C19.2 8.75145 19.2242 9.21206 19.3454 10.303L19.3939 11.5393C18.7636 10.909 18.5212 10.5454 18.5212 10.5454L18.8121 10.5211C18.1818 9.50297 17.6485 9.72115 17.6485 9.72115C17.4545 10.0605 18.303 11.0545 18.303 11.0545C18.6909 11.4666 19.0545 11.8302 19.3939 12.2181L19.5151 13.9151C19.5151 13.9151 19.6363 15.5878 19.6606 15.903C19.6606 15.903 20.0727 15.7575 19.9515 14.0605C19.9515 14.0605 19.9272 13.4302 19.8545 12.606C20.5575 13.2605 21.1394 13.7454 21.1394 13.7454C20.1939 14.6666 20.4121 15.2727 20.4121 15.2727C20.4363 15.3939 20.5091 15.4424 20.5818 15.5151C20.5575 15.6121 20.5576 15.806 20.6303 16.2666C20.6303 16.2666 20.8 17.2121 21.6727 17.0181C21.6727 17.0181 22.0121 16.9211 22.1818 16.2424C22.1818 16.2424 22.3515 15.3939 22.9091 15.2969C22.9091 15.2969 23.1515 15.1999 23.2242 15.5393C23.2242 15.5393 23.4181 16.4605 24.2181 16.4363C24.2181 16.4363 25.3091 16.4848 25.3818 15.2727C25.3818 15.2727 25.2606 13.503 25.0909 11.7333C25.1151 11.7575 25.1394 11.7575 25.1394 11.7818C25.6 12.1696 26.0606 12.5575 26.5212 12.9696L26.5697 13.9151C26.5697 13.9151 26.6666 15.5878 26.7151 15.903C26.7151 15.903 27.1272 15.7575 27.006 14.0605C27.006 14.0605 26.9818 13.7939 26.9576 13.406C27.6121 14.0363 28.1939 14.6908 28.3636 15.2484C28.3636 15.2484 27.8545 16.1212 25.9151 16.7757C25.9151 16.7757 28.2666 16.9211 28.8727 14.9818C28.8727 14.9818 29.1394 13.4302 28.8727 11.8787L28.6303 9.50297L29.0182 9.64842Z" fill="white"/>
<path fill-rule="evenodd" clip-rule="evenodd" d="M22.7151 22.8605V23.103L22.8605 23.2484H23.6606L23.8302 23.0787C23.8545 23.0545 23.9272 23.0545 23.9515 23.0787L24.1212 23.2484H24.9212C24.9212 23.2242 24.8969 23.1515 24.8969 23.103C24.8969 22.8363 24.8969 22.8605 24.7272 22.8605H22.7151ZM22.3757 21.7212L22.5696 21.5272C22.5939 21.503 22.6666 21.503 22.6909 21.5272L22.8848 21.7212C22.909 21.7454 22.909 21.8181 22.8848 21.8424L22.7151 22.0121V22.2545H24.7515H24.9212C25.3818 22.2545 25.7696 22.4242 25.7696 22.8848C25.7696 23.3696 25.6 23.5151 25.3575 23.5151C25.2363 23.5151 25.1636 23.4909 25.0666 23.3939H24.1454L23.9757 23.5636C23.9515 23.5878 23.8787 23.5878 23.8545 23.5636L23.6848 23.3939H22.8848L22.7151 23.5636C22.6909 23.5878 22.6181 23.5878 22.5939 23.5636L22.3999 23.3696C22.3757 23.3454 22.3757 23.2727 22.3999 23.2484L22.5696 23.0787V22.8363H11.6121C11.0302 22.8363 6.52115 22.9818 6.27872 22.2787C6.25448 22.2545 6.37572 22.2303 6.54541 22.2303H22.5696V21.9878L22.3999 21.8181C22.3515 21.8181 22.3515 21.7454 22.3757 21.7212Z" fill="white"/>
</svg>
