<svg width="33" height="32" viewBox="0 0 33 32" fill="none" xmlns="http://www.w3.org/2000/svg">
<g clip-path="url(#clip0_8_97159)">
<path fill-rule="evenodd" clip-rule="evenodd" d="M0.0245972 16H32.0246V5.09091C32.0246 2.27879 29.7216 0 26.9095 0H5.13974C2.32762 0 0.0245972 2.27879 0.0245972 5.09091V16V16Z" fill="#DA2440"/>
<path fill-rule="evenodd" clip-rule="evenodd" d="M5.13974 32H26.9095C29.7216 32 32.0246 29.697 32.0246 26.8848V16H0.0245972V26.8848C0.0245972 29.6727 2.32762 32 5.13974 32Z" fill="white"/>
<path fill-rule="evenodd" clip-rule="evenodd" d="M9.9155 4.12125H10.9337L11.2246 3.10306L11.5397 4.12125H12.5579L11.7579 4.75155L12.0731 5.74549L11.2246 5.13943L10.4246 5.74549L10.7397 4.75155L9.9155 4.12125ZM7.90338 10.3031L8.9458 10.3273L9.23671 9.30912L9.55186 10.3273L10.57 10.3031L9.72156 10.9334L10.0367 11.9515L9.23671 11.3212L8.4367 11.9515L8.75187 10.9334L7.90338 10.3031ZM13.0913 6.497H14.1094L14.4246 5.47882L14.7397 6.497H15.7337L14.9337 7.1273L15.2488 8.12125L14.4488 7.51518L13.6004 8.12125L13.9155 7.1273L13.0913 6.497ZM11.9034 10.3031L12.9216 10.3273L13.2125 9.30912L13.5276 10.3273L14.5458 10.3031L13.7458 10.9334L14.0367 11.9515L13.2367 11.3212L12.4367 11.9515L12.7519 10.9334L11.9034 10.3031ZM8.14581 1.98792C8.80035 1.98792 9.45489 2.10912 10.0609 2.30306C7.05489 2.44852 4.63065 4.94549 4.63065 7.97579C4.63065 11.0546 7.05489 13.5273 10.0609 13.6728C9.45489 13.8667 8.82459 13.9879 8.14581 13.9879C4.80035 13.9879 2.10944 11.297 2.10944 7.97579C2.10944 4.67882 4.80035 1.98792 8.14581 1.98792ZM6.7155 6.497H7.73368L8.02459 5.47882L8.33974 6.497H9.35793L8.55791 7.1273L8.87308 8.12125L8.02459 7.51518L7.20034 8.12125L7.51549 7.1273L6.7155 6.497Z" fill="white"/>
</g>
<defs>
<clipPath id="clip0_8_97159">
<rect width="32" height="32" fill="white" transform="translate(0.0245972)"/>
</clipPath>
</defs>
</svg>
