<svg width="32" height="32" viewBox="0 0 32 32" fill="none" xmlns="http://www.w3.org/2000/svg">
<g clip-path="url(#clip0_8_97158)">
<path fill-rule="evenodd" clip-rule="evenodd" d="M0.0245972 10.6667H32.0003V5.09091C32.0003 2.30303 29.7216 0 26.9094 0H5.11551C2.30339 0 0.0245972 2.30303 0.0245972 5.09091V10.6667Z" fill="#FEFEFE"/>
<path d="M32.0003 10.6666H0.0245972V21.309H32.0003V10.6666Z" fill="#313C90"/>
<path fill-rule="evenodd" clip-rule="evenodd" d="M5.09126 32H26.9337C29.7458 31.9758 32.0003 29.697 32.0003 26.8849V21.3334H0.0245972V26.8849C0.0245972 29.6728 2.27913 31.9758 5.09126 32Z" fill="#C12837"/>
<path fill-rule="evenodd" clip-rule="evenodd" d="M2.35186 7.51514H8.94581H15.5397C15.7822 15.0303 16.9216 20.703 8.94581 24.4848C0.945805 20.703 2.13368 15.0303 2.35186 7.51514Z" fill="#FEFEFE"/>
<path fill-rule="evenodd" clip-rule="evenodd" d="M2.83672 8C6.90945 8 10.9579 8 15.0549 8C15.2489 15.0788 16.5337 19.9515 8.94582 23.9758C1.35794 19.9515 2.64279 15.103 2.83672 8Z" fill="#C12837"/>
<path fill-rule="evenodd" clip-rule="evenodd" d="M7.95187 8.60608C7.95187 8.60608 9.01853 8.94547 9.9155 8.60608C9.9155 8.60608 9.52761 10.0849 9.62458 11.0061C9.62458 11.0061 10.5216 11.1031 12.1216 10.7152C12.1216 10.7152 11.7337 11.7334 12.1216 12.6546C12.1216 12.6546 10.4246 12.3152 9.62458 12.3637V13.9152C9.62458 13.9152 11.0791 14.0364 12.7761 13.6243C12.7761 13.6243 12.3882 14.5455 12.7761 15.5637C12.7761 15.5637 11.3216 15.1758 9.62458 15.2727V17.7697H8.26701V15.2727C8.26701 15.2727 6.61852 15.1758 5.09125 15.5637C5.09125 15.5637 5.43064 14.6909 5.09125 13.6243C5.09125 13.6243 6.61853 14.0364 8.26701 13.9152V12.3637C8.26701 12.3637 7.37004 12.3394 5.7458 12.6546C5.7458 12.6546 6.13367 11.7576 5.7458 10.7152C5.7458 10.7152 7.41853 11.0546 8.26701 11.0061C8.26701 11.0061 8.33974 10.0849 7.95187 8.60608Z" fill="#FEFEFE"/>
<path fill-rule="evenodd" clip-rule="evenodd" d="M5.86702 18.4242C6.32762 18.4242 6.73974 18.6182 7.03065 18.9333C7.27307 18.0848 8.0246 17.4788 8.92157 17.4788C9.84278 17.4788 10.5943 18.0848 10.8367 18.9333C11.1276 18.6182 11.564 18.4242 12.0003 18.4242C12.8973 18.4242 13.6004 19.1515 13.6004 20.0485C13.6004 20.0727 13.6004 20.1454 13.6004 20.1939C12.6549 21.5515 11.2003 22.7878 8.97004 23.9757C6.7155 22.7636 5.26096 21.5272 4.31551 20.1212C4.31551 20.0969 4.31551 20.0727 4.31551 20.0242C4.29127 19.1515 4.97005 18.4242 5.86702 18.4242Z" fill="#313C90"/>
</g>
<defs>
<clipPath id="clip0_8_97158">
<rect width="31.9757" height="32" fill="white" transform="translate(0.0245972)"/>
</clipPath>
</defs>
</svg>
