<svg width="33" height="32" viewBox="0 0 33 32" fill="none" xmlns="http://www.w3.org/2000/svg">
<g clip-path="url(#clip0_8_97157)">
<path fill-rule="evenodd" clip-rule="evenodd" d="M5.09126 32H26.9579C29.7458 31.9758 32.0246 29.697 32.0246 26.8849V21.3334H0.0245972V26.8849C0.0245972 29.6728 2.32762 31.9758 5.09126 32Z" fill="#E32129"/>
<path d="M32.0246 10.6666H0.0245972V21.309H32.0246V10.6666Z" fill="#4A59A5"/>
<path fill-rule="evenodd" clip-rule="evenodd" d="M0.0245972 10.6667H32.0246V5.09091C32.0246 2.30303 29.7216 0 26.9094 0H5.13974C2.32762 0 0.0245972 2.30303 0.0245972 5.09091V10.6667Z" fill="#FEFEFE"/>
<path fill-rule="evenodd" clip-rule="evenodd" d="M3.73367 6.30308L3.9761 10.0364L4.07306 11.2485C4.07306 11.2485 4.12155 12.3152 4.65488 13.2849C4.65488 13.2849 5.52761 15.2485 7.92761 16C7.92761 16 10.1337 15.4425 11.1761 13.3091C11.1761 13.3091 11.6852 12.3637 11.7822 11.1273L11.8791 9.5758L12.1215 6.30308C12.1215 6.30308 10.1337 5.23641 7.66095 5.35762C7.61246 5.33338 5.62458 5.38186 3.73367 6.30308Z" fill="#E32129"/>
<path fill-rule="evenodd" clip-rule="evenodd" d="M7.90339 15.6848C7.90339 15.6848 9.72156 15.2727 10.9094 13.1151C10.9094 13.1151 11.4185 12.1939 11.467 10.9333L11.7822 6.15756C11.1519 5.86665 9.52762 5.26059 7.61247 5.35756C7.61247 5.35756 5.81854 5.3818 4.0246 6.15756L4.29126 10.0363L4.31549 10.8121C4.31549 10.8121 4.33975 12.2182 4.94581 13.2121C4.94581 13.2121 5.69732 14.9818 7.90339 15.6848Z" fill="#4A59A5"/>
<path fill-rule="evenodd" clip-rule="evenodd" d="M5.16398 12.9454C5.16398 12.9454 5.30944 13.2606 5.40641 13.3576C5.40641 13.3576 5.72156 13.5515 6.13368 13.406C6.13368 13.406 6.30338 13.3576 6.47308 13.2606C6.47308 13.2606 6.8852 13.0666 7.32157 13.2848C7.32157 13.2848 7.58823 13.4545 7.92763 13.4545C7.92763 13.4545 8.24278 13.4545 8.58217 13.2606C8.58217 13.2606 8.89733 13.0909 9.30945 13.2363C9.30945 13.2363 9.35793 13.2848 9.50338 13.3576C9.50338 13.3576 9.93974 13.6 10.4246 13.3576L10.667 12.9454C10.667 12.9454 10.2549 13.2121 9.93974 13.1394C9.93974 13.1394 9.67309 13.1394 9.47915 13.0182C9.47915 13.0182 9.164 12.7757 8.75187 12.8727C8.75187 12.8727 8.50944 12.9212 8.3155 13.0666C8.3155 13.0666 8.0246 13.2121 7.66097 13.0909C7.66097 13.0909 7.41854 13.0424 7.24884 12.9212C7.24884 12.9212 6.83672 12.7515 6.40036 12.9697C6.40036 12.9697 6.0852 13.1394 5.7943 13.1151C5.7943 13.1636 5.43065 13.1636 5.16398 12.9454ZM4.77611 11.8303C4.77611 11.8303 4.72763 12.3879 5.26096 12.7272C5.26096 12.7272 5.74581 13.0666 6.40036 12.703C6.40036 12.703 6.78823 12.4363 7.3458 12.7272C7.3458 12.7272 7.90338 13.0666 8.41247 12.7272C8.41247 12.7272 8.97005 12.4121 9.50338 12.7515C9.50338 12.7515 10.1094 13.0909 10.667 12.5818C10.667 12.5818 11.0549 12.2666 11.0064 11.8303L9.4549 9.74543L8.8246 10.5939L7.90339 8.703L6.95793 10.5939L6.35187 9.74543L4.77611 11.8303ZM5.64883 13.7697C5.64883 13.7697 6.49733 14.9575 7.90339 15.3697C7.90339 15.3697 9.30944 14.9575 10.1337 13.7697C10.1337 13.7697 9.89127 13.8182 9.55187 13.6727C9.55187 13.6727 9.11551 13.3818 8.63066 13.5272C8.63066 13.5272 8.50944 13.5515 8.3155 13.6727C8.3155 13.6727 7.92763 13.8666 7.44278 13.6727C7.44278 13.6727 7.3943 13.6242 7.24884 13.5515C7.24884 13.5515 6.86095 13.3818 6.49732 13.5515C6.49732 13.5515 6.40035 13.5757 6.25489 13.6727C6.25489 13.6727 6.01247 13.8182 5.64883 13.7697Z" fill="#FEFEFE"/>
<path fill-rule="evenodd" clip-rule="evenodd" d="M8.87309 5.98786L8.9943 5.72119L9.11551 5.98786L9.40641 5.96362L9.23673 6.20604L9.40641 6.47271L9.11551 6.42422L8.9943 6.69089L8.87309 6.42422L8.58218 6.47271L8.75188 6.20604L8.58218 5.96362L8.87309 5.98786ZM6.69127 5.98786L6.81248 5.72119L6.9337 5.98786L7.22459 5.96362L7.05491 6.20604L7.22459 6.44846L6.9337 6.42422L6.81248 6.69089L6.69127 6.42422L6.40036 6.44846L6.57006 6.20604L6.40036 5.96362L6.69127 5.98786ZM7.78218 7.46664L7.90339 7.17574L8.02461 7.46664L8.3155 7.44241L8.14582 7.68483L8.3155 7.92725L8.02461 7.90301L7.90339 8.16968L7.78218 7.90301L7.49127 7.92725L7.66097 7.68483L7.49127 7.44241L7.78218 7.46664Z" fill="#F7EB01"/>
</g>
<defs>
<clipPath id="clip0_8_97157">
<rect width="32" height="32" fill="white" transform="translate(0.0245972)"/>
</clipPath>
</defs>
</svg>
