<svg width="33" height="32" viewBox="0 0 33 32" fill="none" xmlns="http://www.w3.org/2000/svg">
<g clip-path="url(#clip0_8_97146)">
<path fill-rule="evenodd" clip-rule="evenodd" d="M0.00012207 9.12206H32.0244V5.09477C32.0244 2.28052 29.7196 0 26.9054 0H5.11915C2.30489 0 0.00012207 2.28052 0.00012207 5.09477V9.12206V9.12206Z" fill="#E42041"/>
<path fill-rule="evenodd" clip-rule="evenodd" d="M5.11915 32H26.9054C29.7196 32 32.0244 29.7195 32.0244 26.9052V22.8779H0.00012207V26.9052C0.00012207 29.7195 2.30489 32 5.11915 32Z" fill="#52B044"/>
<path d="M32.0244 9.12207H0.00012207V22.8779H32.0244V9.12207Z" fill="#FEFEFE"/>
<path fill-rule="evenodd" clip-rule="evenodd" d="M10.7477 14.1683L10.9903 13.4404L11.2329 14.1683H11.985L11.3785 14.605L11.6211 15.3328L11.0145 14.8718L10.408 15.3328L10.6506 14.605L10.0684 14.1683H10.7477ZM12.8826 12.0091L13.1252 11.2812L13.3678 12.0091H14.0957L13.5134 12.4457L13.7075 13.1736L13.1252 12.7369L12.5187 13.1736L12.7613 12.4457L12.1548 12.0091H12.8826ZM15.7697 11.2327L16.0123 10.5049L16.2549 11.2327H17.007L16.4004 11.6694L16.6431 12.3972L16.0365 11.9363L15.43 12.3972L15.6726 11.6694L15.0661 11.2327H15.7697ZM18.681 12.0091L18.9478 11.2812L19.1904 12.0091H19.9183L19.3117 12.4457L19.5543 13.1736L18.9721 12.7369L18.3656 13.1736L18.6082 12.4457L18.0017 12.0091H18.681ZM20.8159 14.1683L21.0585 13.4404L21.3011 14.1683H22.0532L21.4467 14.605L21.6893 15.3328L21.0828 14.8718L20.4763 15.3328L20.7189 14.605L20.1366 14.1683H20.8159ZM21.5923 17.0553L21.8349 16.3517L22.0775 17.0553H22.8296L22.223 17.492L22.4656 18.2198L21.8591 17.7831L21.2526 18.2198L21.4952 17.492L20.8887 17.0553H21.5923ZM14.9691 14.6292C14.9691 14.6292 15.5756 14.799 15.9637 15.4056C15.9637 15.4056 16.2549 14.8961 16.9827 14.6292C16.9827 14.6292 16.5945 14.0227 15.9152 14.0712C15.891 14.0712 15.3815 14.047 14.9691 14.6292ZM14.2655 14.5322C14.217 14.0712 15.4785 13.4404 15.9637 13.4647C16.4247 13.4647 17.6135 13.9742 17.6377 14.5322L16.3276 15.8423L16.3034 18.4382C16.3034 18.4382 16.5703 18.705 17.0798 18.7778C17.0798 18.7778 17.662 18.8991 17.9774 18.608C17.9774 18.608 18.2928 19.1175 18.9236 19.4814C18.9236 19.4814 19.4816 19.7968 20.0881 19.821C20.0881 19.821 19.5786 20.2577 18.8023 20.0636C18.8023 20.0636 18.1472 19.8938 18.0017 19.4814C18.0017 19.4814 17.565 19.7482 16.9342 19.6512C16.9342 19.6512 16.3034 19.6269 15.9395 19.2388C15.9395 19.2388 15.6969 19.5542 14.9448 19.6512C14.9448 19.6512 14.4353 19.7482 13.8773 19.4814C13.8773 19.4814 13.7318 19.821 13.1738 20.0394C13.1738 20.0394 12.4459 20.3305 11.7909 19.8453C11.7909 19.8453 12.5187 19.7968 13.1495 19.3601C13.1495 19.3601 13.5377 19.166 13.8773 18.6323C13.8773 18.6323 14.1927 18.9476 14.7992 18.8021C14.7992 18.8021 15.2359 18.7536 15.5513 18.4624V15.8665L14.2655 14.5322ZM13.2223 21.1069L13.5619 21.495C13.5619 21.495 14.217 20.6944 15.6241 20.5974C15.6241 20.5974 16.8371 20.5003 17.662 20.937C17.662 20.937 18.1715 21.2282 18.3656 21.495L18.7052 21.1069C18.7052 21.1069 18.5597 20.9128 18.1957 20.6216C18.1957 20.6216 17.9289 20.4276 17.8803 20.0636C17.8803 20.0636 17.8318 19.7968 18.0017 19.5542C18.0017 19.5542 17.6863 19.9909 16.8371 20.0151C16.8371 20.0151 16.3519 20.0151 15.988 19.4329C15.988 19.4329 15.6483 20.0151 15.1146 20.0151C15.1146 20.0151 14.3868 20.0151 13.9501 19.5542C13.9501 19.5542 14.3383 20.0151 13.8288 20.5731C13.8288 20.5489 13.4164 20.9128 13.2223 21.1069ZM9.94708 17.0553L10.1897 16.3517L10.4323 17.0553H11.1844L10.5779 17.492L10.8205 18.2198L10.2139 17.7831L9.60742 18.2198L9.85003 17.492L9.26776 17.0553H9.94708Z" fill="#D3BC14"/>
</g>
<defs>
<clipPath id="clip0_8_97146">
<rect width="32.0243" height="32" fill="white"/>
</clipPath>
</defs>
</svg>
