<svg width="33" height="32" viewBox="0 0 33 32" fill="none" xmlns="http://www.w3.org/2000/svg">
<g clip-path="url(#clip0_8_99888)">
<rect x="0.97583" width="32" height="32" rx="6" fill="#016B4F"/>
<path d="M-2.32684 32.5091V-0.484863H47.0407V32.4268V32.5091H-2.32684ZM46.9584 32.4268V32.3446V32.4268ZM-2.16233 32.2622H46.8761V-0.320345H-2.08002V32.2622H-2.16233Z" fill="#231F20"/>
<path d="M46.9584 -0.402588H-2.24457V32.4268H46.9584V-0.402588Z" fill="#016B4F"/>
<path d="M3.92633 -0.402588H4.33773L4.17316 -0.23807H4.00859V0.00880808L3.92633 0.337945V-0.402588Z" fill="#F8991D"/>
<path d="M4.33773 -0.402588H5.16052L4.83138 0.255686L4.66686 0.00880805L4.74912 -0.15571L4.66686 -0.23807L4.17316 0.584722V0.749341L4.33773 0.502463L4.41999 0.584722L4.17316 0.996118L4.25547 1.07848L3.92633 1.73665V0.337945L4.00859 0.00880805V-0.23807H4.17316L4.33773 -0.402588Z" fill="#B31F36"/>
<path d="M5.16052 -0.402588H5.32509L4.83138 0.502463L4.58455 0.0910671L4.41999 0.337945L4.58455 0.584722L4.33773 0.996118L4.41999 1.07848V1.16074L3.92633 1.98353V1.73665L4.25547 1.07848L4.17316 0.996118L4.41999 0.584722L4.33773 0.502463L4.17316 0.749341V0.584722L4.66686 -0.23807L4.74912 -0.15571L4.66686 0.00880805L4.83138 0.255686L5.16052 -0.402588Z" fill="#F8991D"/>
<path d="M5.32509 -0.402588H11.3315L11.9074 0.502463L12.1542 0.0910671L12.2365 0.337945L12.1542 0.584722L12.3188 0.996118V1.16074L12.8125 1.98353V3.95825L12.2365 4.8633L12.3188 5.02782L12.1542 5.35695L12.2365 5.60383L12.1542 5.85061L11.9074 5.52147L11.3315 6.42662L11.9074 7.24942L12.1542 6.83802L12.2365 7.16706L12.1542 7.41393L12.3188 7.74307V7.90759L12.8125 8.73038V10.0468L12.3188 10.8696V11.0342L12.1542 11.3634L12.2365 11.6102L12.1542 11.857L11.9074 11.5279L11.3315 12.4329L11.9074 13.2557L12.1542 12.9266L12.2365 13.1735L12.1542 13.4204L12.3188 13.7494L12.2365 13.914L12.8125 14.7368V16.0532L12.4011 16.7115L12.2365 16.876L12.3188 17.0406L12.1542 17.3697L12.2365 17.6988L12.1542 17.9457L11.9074 17.5343L11.3315 18.4394L11.9074 19.2622L12.1542 18.933L12.2365 19.1799L12.1542 19.4267L12.3188 19.7558L12.2365 19.9203L12.4011 20.1672L12.8125 20.8255V21.6483L12.2365 22.5533L12.3188 22.6356L12.1542 23.047L12.2365 23.2939L12.1542 23.5406L11.9074 23.2115L11.3315 24.0343L11.9074 24.9394L12.1542 24.528L12.2365 24.7748L12.1542 25.0217L12.3188 25.4331L12.2365 25.5976L12.4011 25.8445L12.8125 26.4204V32.4268H3.92633V26.4204L4.41999 25.5976L4.33773 25.4331L4.58455 25.0217L4.41999 24.7748L4.58455 24.528L4.83138 24.9394L5.32509 24.0343L4.83138 23.2115L4.58455 23.5406L4.41999 23.2939L4.58455 23.047L4.33773 22.6356L4.41999 22.5533L3.92633 21.6483V20.8255L4.41999 19.9203L4.33773 19.7558L4.58455 19.4267L4.41999 19.1799L4.58455 18.933L4.83138 19.2622L4.99595 19.0153L5.32509 18.4394L4.83138 17.5343L4.58455 17.9457L4.41999 17.6988L4.58455 17.3697L4.33773 17.0406L4.41999 16.876L3.92633 16.0532V14.7368L4.41999 13.914L4.33773 13.7494L4.58455 13.4204L4.41999 13.1735L4.58455 12.9266L4.66686 13.009L4.83138 13.2557L5.32509 12.4329L4.83138 11.5279L4.58455 11.857L4.41999 11.6102L4.58455 11.3634L4.33773 11.0342L4.41999 10.8696V10.7874L3.92633 10.0468V8.73038L4.41999 7.90759L4.33773 7.74307L4.58455 7.41393L4.41999 7.16706L4.58455 6.83802L4.83138 7.24942L5.32509 6.42662L4.83138 5.52147L4.58455 5.76835V5.85061L4.41999 5.60383L4.58455 5.35695L4.33773 5.02782L4.41999 4.8633L3.92633 3.95825V1.98353L4.41999 1.16074V1.07848L4.33773 0.996118L4.58455 0.584722L4.41999 0.337945L4.58455 0.0910671L4.83138 0.502463L5.32509 -0.402588Z" fill="#B31F36"/>
<path d="M11.3315 -0.402588H11.4961L11.9074 0.255686L12.072 0.00880805L11.9897 -0.15571L12.072 -0.23807L12.5657 0.584722L12.4834 0.749341L12.3188 0.502463L12.2365 0.584722L12.4834 0.996118L12.4011 1.07848L12.8125 1.73665V1.98353L12.3188 1.16074V0.996118L12.1543 0.584722L12.2365 0.337945L12.1543 0.0910671L11.9074 0.502463L11.3315 -0.402588Z" fill="#F8991D"/>
<path d="M11.496 -0.402588H12.3188L12.4834 -0.23807H12.7302V0.00880805L12.8125 0.337945V1.73665L12.4011 1.07848L12.4834 0.996118L12.2365 0.584722L12.3188 0.502463L12.4834 0.749341L12.5657 0.584722L12.072 -0.23807L11.9897 -0.15571L12.072 0.00880805L11.9074 0.255686L11.496 -0.402588Z" fill="#B31F36"/>
<path d="M12.3188 -0.402588H12.8125V0.337945L12.7302 0.00880808V-0.23807H12.4834L12.3188 -0.402588Z" fill="#F8991D"/>
<path d="M3.92633 3.95825L4.41999 4.8633L4.33773 5.02782L4.58455 5.35696L4.41999 5.60384L4.58455 5.85061V5.76835L4.83138 5.52148L5.32509 6.42663L4.83138 7.24942L4.58455 6.83802L4.41999 7.16706L4.58455 7.41394L4.33773 7.74307L4.41999 7.90759L3.92633 8.73038V8.48361L4.25547 7.90759L4.17316 7.74307L4.41999 7.41394L4.33773 7.24942L4.17316 7.4962V7.33168L4.66686 6.50889L4.74912 6.59115L4.66686 6.75566L4.83138 7.00254L5.16052 6.42663V6.34427L5.07826 6.26201L4.83138 5.76835L4.66686 6.01523L4.74912 6.09749L4.66686 6.26201L4.25547 5.52148L4.17316 5.35696V5.2747L4.33773 5.52148L4.41999 5.35696L4.17316 5.02782L4.25547 4.8633L3.92633 4.20503V3.95825Z" fill="#F8991D"/>
<path d="M12.2365 4.8633L12.8125 3.95825V4.20503L12.4011 4.8633L12.4834 5.02782L12.2365 5.35696L12.3188 5.52148L12.4834 5.2747L12.5657 5.35696L12.4834 5.52148L12.072 6.26201L11.9897 6.09749L12.072 6.01523L11.9074 5.76835L11.4961 6.34427L11.9074 7.00254L12.072 6.75566L11.9897 6.59115L12.072 6.50889L12.5657 7.33168L12.4834 7.4962L12.3188 7.24942L12.2365 7.41394L12.4834 7.74307L12.4011 7.90759L12.8125 8.48361V8.73038L12.3188 7.90759V7.74307L12.1543 7.41394L12.2365 7.16706L12.1543 6.83802L11.9074 7.24942L11.3315 6.42663L11.9074 5.52148L12.1543 5.85061L12.2365 5.60384L12.1543 5.35696L12.3188 5.02782L12.2365 4.8633Z" fill="#F8991D"/>
<path d="M3.92633 4.20496L4.25547 4.86323L4.17316 5.02775L4.41999 5.35688L4.33773 5.5214L4.17316 5.27463V5.35688L4.25547 5.5214L4.66686 6.26194L4.74912 6.09742L4.66686 6.01516L4.83138 5.76828L5.07826 6.26194L5.16052 6.34419V6.42655L4.83138 7.00247L4.66686 6.75559L4.74912 6.59107L4.66686 6.50881L4.17316 7.33161V7.49612L4.33773 7.24935L4.41999 7.41386L4.17316 7.743L4.25547 7.90752L3.92633 8.48353V7.16699L4.00859 6.83795V6.50881H4.17316L4.33773 6.34419L4.25547 6.26194H4.00859V5.9328L3.92633 5.60376V4.20496Z" fill="#B31F36"/>
<path d="M12.4011 4.86323L12.8125 4.20496V5.60376L12.7302 5.9328V6.26194H12.4834L12.3188 6.34419L12.4834 6.50881H12.7302V6.83795L12.8125 7.16699V8.48353L12.4011 7.90752L12.4834 7.743L12.2365 7.41386L12.3188 7.24935L12.4834 7.49612L12.5657 7.33161L12.072 6.50881L11.9897 6.59107L12.072 6.75559L11.9074 7.00247L11.496 6.34419L11.9074 5.76828L12.072 6.01516L11.9897 6.09742L12.072 6.26194L12.4834 5.5214L12.5657 5.35688L12.4834 5.27463L12.3188 5.5214L12.2365 5.35688L12.4834 5.02775L12.4011 4.86323Z" fill="#B31F36"/>
<path d="M12.7302 5.9328L12.8125 5.60376V7.16698L12.7302 6.83795V6.50881H12.4834L12.3188 6.34419L12.4834 6.26193H12.7302V5.9328Z" fill="#F8991D"/>
<path d="M3.92633 5.60376L4.00859 5.9328V6.26193H4.25547L4.33773 6.34419L4.17316 6.50881H4.00859V6.83795L3.92633 7.16698V5.60376Z" fill="#F8991D"/>
<path d="M3.92633 10.0468L4.41999 10.7873V10.8695L4.33773 11.0342L4.58455 11.3633L4.41999 11.6101L4.58455 11.857L4.83138 11.5278L5.32509 12.4329L4.83138 13.2557L4.66686 13.0089L4.58455 12.9265L4.41999 13.1734L4.58455 13.4203L4.33773 13.7493L4.41999 13.9139L3.92633 14.7367V14.4898L4.25547 13.9139L4.17316 13.7493L4.41999 13.4203L4.33773 13.2557L4.17316 13.5025V13.4203L4.25547 13.2557L4.66686 12.5151L4.74912 12.6797L4.66686 12.762L4.83138 13.0089L5.16052 12.3506L4.83138 11.7747L4.66686 12.0215L4.74912 12.1037L4.66686 12.2684L4.17316 11.4456V11.2809L4.33773 11.5278L4.41999 11.3633L4.17316 11.0342L4.25547 10.8695L3.92633 10.2936V10.0468Z" fill="#F8991D"/>
<path d="M12.3188 10.8695L12.8125 10.0468V10.2936L12.4011 10.8695L12.4834 11.0342L12.2365 11.3633L12.3188 11.5278L12.4834 11.2809L12.5657 11.3633V11.4456L12.072 12.2684L11.9897 12.1037L12.072 12.0215L11.9074 11.7747L11.4961 12.3506L11.9074 13.0089L12.072 12.762L11.9897 12.6797L12.072 12.5151L12.4834 13.3379L12.5657 13.4203L12.4834 13.5025L12.3188 13.2557L12.2365 13.4203L12.4834 13.7493L12.4011 13.9139L12.8125 14.4898V14.7367L12.2365 13.9139L12.3188 13.7493L12.1543 13.4203L12.2365 13.1734L12.1543 12.9265L11.9074 13.2557L11.3315 12.4329L11.9074 11.5278L12.1543 11.857L12.2365 11.6101L12.1543 11.3633L12.3188 11.0342V10.8695Z" fill="#F8991D"/>
<path d="M3.92633 10.2937L4.25547 10.8696L4.17316 11.0342L4.41999 11.3634L4.33773 11.5279L4.17316 11.281V11.4456L4.66686 12.2684L4.74912 12.1038L4.66686 12.0215L4.83138 11.7748L5.16052 12.3507L4.83138 13.009L4.66686 12.7621L4.74912 12.6798L4.66686 12.5152L4.25547 13.2557L4.17316 13.4204V13.5026L4.33773 13.2557L4.41999 13.4204L4.17316 13.7494L4.25547 13.914L3.92633 14.4899V13.1735L4.00859 12.8443V12.5152H4.17316L4.33773 12.4329L4.17316 12.2684H4.00859V11.9393L3.92633 11.6101V10.2937Z" fill="#B31F36"/>
<path d="M12.4011 10.8696L12.8125 10.2937V11.6101L12.7302 11.9393V12.2684H12.4834L12.3188 12.4329L12.4834 12.5152H12.7302V12.8443L12.8125 13.1735V14.4899L12.4011 13.914L12.4834 13.7494L12.2365 13.4204L12.3188 13.2557L12.4834 13.5026L12.5657 13.4204L12.4834 13.338L12.072 12.5152L11.9897 12.6798L12.072 12.7621L11.9074 13.009L11.496 12.3507L11.9074 11.7748L12.072 12.0215L11.9897 12.1038L12.072 12.2684L12.5657 11.4456V11.3634L12.4834 11.281L12.3188 11.5279L12.2365 11.3634L12.4834 11.0342L12.4011 10.8696Z" fill="#B31F36"/>
<path d="M3.92633 11.6101L4.00859 11.9392V12.2684H4.17316L4.33773 12.4329L4.17316 12.5152H4.00859V12.8443L3.92633 13.1734V11.6101Z" fill="#F8991D"/>
<path d="M12.7302 11.9392L12.8125 11.6101V13.1734L12.7302 12.8443V12.5152H12.4834L12.3188 12.4329L12.4834 12.2684H12.7302V11.9392Z" fill="#F8991D"/>
<path d="M3.92633 16.0532L4.41999 16.876L4.33773 17.0405L4.58455 17.3697L4.41999 17.6988L4.58455 17.9457L4.83138 17.5343L5.32509 18.4393L4.99595 19.0153L4.83138 19.2621L4.58455 18.933L4.41999 19.1799L4.58455 19.4266L4.33773 19.7558L4.41999 19.9203L3.92633 20.8255V20.5786L4.25547 19.9203L4.17316 19.7558L4.41999 19.4266L4.33773 19.2621L4.17316 19.5089V19.4266L4.66686 18.5216L4.74912 18.6861L4.66686 18.7685L4.83138 19.0153L5.16052 18.4393L4.83138 17.7811L4.66686 18.0279L4.74912 18.1925L4.66686 18.2747L4.25547 17.6988L4.17316 17.3697V17.2874L4.33773 17.5343L4.41999 17.3697L4.17316 17.0405L4.25547 16.876L3.92633 16.3001V16.0532Z" fill="#F8991D"/>
<path d="M12.4011 16.7115L12.8125 16.0532V16.3001L12.4011 16.876L12.4834 17.0405L12.2365 17.3697L12.3188 17.5343L12.4834 17.2874L12.5657 17.3697L12.4011 17.6988L12.072 18.2747L11.9897 18.1925L12.072 18.0279L11.9074 17.7811L11.4961 18.4393L11.9074 19.0153L12.072 18.7685L11.9897 18.6861L12.072 18.5216L12.5657 19.4266L12.4834 19.5089L12.3188 19.2621L12.2365 19.4266L12.4834 19.7558L12.4011 19.9203L12.8125 20.5786V20.8255L12.4011 20.1672L12.2365 19.9203L12.3188 19.7558L12.1543 19.4266L12.2365 19.1799L12.1543 18.933L11.9074 19.2621L11.3315 18.4393L11.9074 17.5343L12.1543 17.9457L12.2365 17.6988L12.1543 17.3697L12.3188 17.0405L12.2365 16.876L12.4011 16.7115Z" fill="#F8991D"/>
<path d="M3.92633 16.3002L4.25547 16.8761L4.17316 17.0406L4.41999 17.3697L4.33773 17.5344L4.17316 17.2875V17.3697L4.25547 17.6989L4.66686 18.2748L4.74912 18.1925L4.66686 18.028L4.83138 17.7811L5.16052 18.4394L4.83138 19.0153L4.66686 18.7685L4.74912 18.6862L4.66686 18.5217L4.17316 19.4267V19.509L4.33773 19.2622L4.41999 19.4267L4.17316 19.7559L4.25547 19.9204L3.92633 20.5786V19.1799L4.00859 18.8508V18.5217H4.17316L4.33773 18.4394L4.17316 18.2748H4.00859V17.9458L3.92633 17.6166V16.3002Z" fill="#B31F36"/>
<path d="M12.4011 16.8761L12.8125 16.3002V17.6989L12.7302 17.9458V18.2748H12.4834L12.3188 18.4394L12.4834 18.5217H12.7302V18.8508L12.8125 19.1799V20.5786L12.4011 19.9204L12.4834 19.7559L12.2365 19.4267L12.3188 19.2622L12.4834 19.509L12.5657 19.4267L12.072 18.5217L11.9897 18.6862L12.072 18.7685L11.9074 19.0153L11.496 18.4394L11.9074 17.7811L12.072 18.028L11.9897 18.1925L12.072 18.2748L12.4011 17.6989L12.5657 17.3697L12.4834 17.2875L12.3188 17.5344L12.2365 17.3697L12.4834 17.0406L12.4011 16.8761Z" fill="#B31F36"/>
<path d="M3.92633 17.6166L4.00859 17.9457V18.2748H4.17316L4.33773 18.4394L4.17316 18.5216H4.00859V18.8508L3.92633 19.1799V17.6166Z" fill="#F8991D"/>
<path d="M12.7302 17.9457L12.8125 17.6989V19.1799L12.7302 18.8508V18.5216H12.4834L12.3188 18.4394L12.4834 18.2748H12.7302V17.9457Z" fill="#F8991D"/>
<path d="M3.92633 21.6482L4.41999 22.5532L4.33773 22.6355L4.58455 23.0469L4.41999 23.2938L4.58455 23.5406L4.83138 23.2114L5.32509 24.0342L4.83138 24.9394L4.58455 24.528L4.41999 24.7747L4.58455 25.0216L4.33773 25.433L4.41999 25.5975L3.92633 26.4203V26.1735L4.25547 25.5975L4.17316 25.433L4.41999 25.0216L4.33773 24.9394L4.17316 25.1861V25.0216L4.25547 24.7747L4.66686 24.1988L4.74912 24.2811L4.66686 24.4456L4.83138 24.6925L5.16052 24.0342L4.83138 23.4583L4.66686 23.7052L4.74912 23.7874L4.66686 23.952L4.58455 23.8697L4.17316 23.1292V22.9646L4.33773 23.2114L4.41999 23.0469L4.17316 22.6355L4.25547 22.5532L3.92633 21.895V21.6482Z" fill="#F8991D"/>
<path d="M12.2365 22.5532L12.8125 21.6482V21.895L12.4011 22.5532L12.4834 22.6355L12.2365 23.0469L12.3188 23.2114L12.4834 22.9646L12.5657 23.0469L12.4011 23.376L12.072 23.952L11.9897 23.7874L12.072 23.7052L11.9074 23.4583L11.4961 24.0342L11.9074 24.6925L12.072 24.4456L11.9897 24.2811L12.072 24.1988L12.5657 25.0216L12.4834 25.1861L12.3188 24.9394L12.2365 25.0216L12.4834 25.433L12.4011 25.5153L12.4834 25.5975L12.8125 26.1735V26.4203L12.4011 25.8444L12.2365 25.5975L12.3188 25.433L12.1543 25.0216L12.2365 24.7747L12.1543 24.528L11.9074 24.9394L11.3315 24.0342L11.9074 23.2114L12.1543 23.5406L12.2365 23.2938L12.1543 23.0469L12.3188 22.6355L12.2365 22.5532Z" fill="#F8991D"/>
<path d="M3.92633 21.895L4.25547 22.5533L4.17316 22.6356L4.41999 23.0469L4.33773 23.2115L4.17316 22.9647V23.1292L4.58455 23.8697L4.66686 23.952L4.74912 23.7875L4.66686 23.7052L4.83138 23.4583L5.16052 24.0343L4.83138 24.6925L4.66686 24.4457L4.74912 24.2811L4.66686 24.1989L4.25547 24.7748L4.17316 25.0217V25.1862L4.33773 24.9394L4.41999 25.0217L4.17316 25.4331L4.25547 25.5976L3.92633 26.1736V24.7748L4.00859 24.528V24.1989H4.17316L4.33773 24.0343L4.17316 23.952H4.00859V23.6229L3.92633 23.2938V21.895Z" fill="#B31F36"/>
<path d="M12.4011 22.5533L12.8125 21.895V23.2938L12.7302 23.6229V23.952H12.4834L12.3188 24.0343L12.4834 24.1989H12.7302V24.528L12.8125 24.7748V26.1736L12.4834 25.5976L12.4011 25.5153L12.4834 25.4331L12.2365 25.0217L12.3188 24.9394L12.4834 25.1862L12.5657 25.0217L12.072 24.1989L11.9897 24.2811L12.072 24.4457L11.9074 24.6925L11.496 24.0343L11.9074 23.4583L12.072 23.7052L11.9897 23.7875L12.072 23.952L12.4011 23.3761L12.5657 23.0469L12.4834 22.9647L12.3188 23.2115L12.2365 23.0469L12.4834 22.6356L12.4011 22.5533Z" fill="#B31F36"/>
<path d="M3.92633 23.2938L4.00859 23.6229V23.952H4.17316L4.33773 24.0343L4.17316 24.1989H4.00859V24.528L3.92633 24.7748V23.2938Z" fill="#F8991D"/>
<path d="M12.7302 23.6229L12.8125 23.2938V24.7748L12.7302 24.528V24.1989H12.4834L12.3188 24.0343L12.4834 23.952H12.7302V23.6229Z" fill="#F8991D"/>
<path d="M4.6669 27.5724L4.83142 27.7369L4.99599 28.066L5.0783 28.3129V28.5597L4.99599 28.8066H4.91373L4.83142 28.7243L4.6669 28.4774V28.3952L4.58459 27.8193V27.6546L4.6669 27.5724Z" fill="#F89A1C"/>
<path d="M11.9897 27.6545H12.072V27.8192V28.3128V28.4773L11.9897 28.642L11.8252 28.8065L11.7429 28.8887L11.6606 28.7242V28.3951L11.7429 28.0659L11.9075 27.7368L11.9897 27.6545Z" fill="#F89A1C"/>
<path d="M5.24282 28.3129L5.32513 28.3951V28.642L5.24282 29.2179L5.16056 29.4648H5.0783L4.91373 29.3002L4.5846 29.0534L4.42003 28.8065L4.33777 28.642V28.5596H4.42003H4.5846L4.83142 28.8065L4.99599 28.971L5.0783 28.642L5.16056 28.3951L5.24282 28.3129Z" fill="#F89A1C"/>
<path d="M11.4137 28.3129L11.4961 28.3951L11.5783 28.642L11.6606 29.0534L11.9074 28.8065L12.1543 28.5596H12.3188V28.642V28.7243L12.2365 28.8888L11.9897 29.2179L11.7429 29.3824L11.5783 29.4648L11.4961 29.3824L11.4137 29.0534L11.3315 28.642L11.4137 28.3951V28.3129Z" fill="#F89A1C"/>
<path d="M5.32513 28.9711H5.40739H5.4897L5.57196 29.2179V29.7939L5.40739 30.123L5.24282 30.0407L4.83142 29.7116L4.58459 29.5471V29.3825V29.3002L4.83142 29.3825L5.24282 29.7116L5.32513 29.2179V28.9711Z" fill="#F89A1C"/>
<path d="M11.1669 29.0534L11.2492 28.9711L11.3315 29.0534L11.4138 29.2179V29.6293V29.7939L11.7429 29.5471L11.9075 29.3825H12.072L12.1543 29.4648L12.072 29.5471L11.9075 29.7939L11.5783 30.0407L11.3315 30.2053H11.2492L11.1669 29.8762V29.3825V29.0534Z" fill="#F89A1C"/>
<path d="M5.57195 29.547H5.65421H5.73652L5.81878 29.7938L5.90109 30.3698L5.81878 30.6989L5.48969 30.6166L5.16056 30.452L4.91373 30.2052L4.83142 30.1229L4.91373 30.0407H4.99599L5.32513 30.1229L5.57195 30.2875V29.7938V29.547Z" fill="#F89A1C"/>
<path d="M11.0023 29.6293H11.0847L11.1669 29.8762L11.0847 30.3698L11.4961 30.1229H11.7429L11.8251 30.2052V30.2875L11.6606 30.4521L11.2492 30.6166L11.0023 30.7812H10.8378V30.2875L10.9201 29.7938L11.0023 29.6293Z" fill="#F89A1C"/>
<path d="M5.90107 30.1229L5.98333 30.0406L6.06559 30.1229L6.1479 30.2052L6.23016 30.6166V31.1926H6.06559L5.81876 31.1103L5.48968 30.9457L5.32511 30.8634L5.2428 30.7812V30.6989H5.48968L5.7365 30.7812L5.98333 30.8634L5.90107 30.452V30.1229Z" fill="#F89A1C"/>
<path d="M10.6733 30.1229H10.7555V30.2052V30.5343L10.6733 30.9457L11.0847 30.7812L11.2492 30.6989L11.4138 30.7812V30.9457L11.1669 31.1103L10.591 31.2749H10.4265V30.6989L10.5087 30.2875L10.6733 30.1229Z" fill="#F89A1C"/>
<path d="M6.31245 30.5343H6.39471L6.55928 30.7812C6.64156 31.028 6.72384 31.2749 6.72384 31.5217H6.47697L5.98331 31.4394L5.73648 31.3571L5.65417 31.2748L5.73648 31.1926L5.98331 31.1103L6.47697 31.1926L6.31245 30.7812V30.5343Z" fill="#F89A1C"/>
<path d="M10.2619 30.6166H10.3441V30.7812L10.2619 31.1926L10.1796 31.4394L10.6733 31.3571H10.8378L10.9201 31.5217L10.7555 31.604L10.4264 31.6862L10.0973 31.7685L9.85046 31.6862L9.93272 31.1103L10.1796 30.7812L10.2619 30.6166Z" fill="#F89A1C"/>
<path d="M7.29976 31.604L7.6289 31.5217H7.95803L8.36943 31.604L8.69852 31.5217H9.27448L9.60362 31.6862L9.9327 31.8508H10.1795L10.5909 31.7685C10.8378 31.6862 11.0846 31.604 11.3315 31.5217L10.9201 31.7685L10.3441 32.0154L10.015 32.0976L9.60362 32.0154L9.10991 31.8508L8.78083 31.7685L9.10991 32.0976L8.94534 32.0154L8.28712 31.8508L8.12255 31.9331L7.54664 32.1799L7.87572 31.8508H7.6289L6.97067 32.0976H6.55928L6.23014 32.0154L5.65418 31.6862L5.40735 31.5217L5.73649 31.604C5.98332 31.6863 6.14787 31.7685 6.39471 31.7685H6.72385L6.97067 31.6862L7.29976 31.604Z" fill="#F89A1C"/>
<path d="M7.29978 24.8571L5.2428 26.0912V28.066L7.29978 29.3002H9.35676L11.496 28.066V26.0912L9.35676 24.8571H7.29978Z" fill="#016B4F"/>
<path d="M7.29978 24.8571L5.2428 26.009V28.066L7.29978 29.3002H9.35676L11.496 28.066V26.0912L9.35676 24.8571H7.29978H9.35676L11.496 26.0912L11.4137 28.066L9.35676 29.3002H7.29978L5.2428 28.066V26.0912L7.29978 24.8571Z" fill="#010101"/>
<path d="M8.36945 29.2179V27.0786H11.3315V28.0659L9.35676 29.2179H8.36945Z" fill="#F89A1C"/>
<path d="M8.36947 24.9395V27.0787H5.32513V26.0913L7.38211 24.9395H8.36947Z" fill="#F89A1C"/>
<path d="M8.36945 24.9395V27.0787H11.3315V26.0913L9.35676 24.9395H8.36945Z" fill="white"/>
<path d="M8.36947 29.2179V27.0786H5.32513V28.0659L7.38211 29.2179H8.36947Z" fill="white"/>
<path d="M9.93272 26.1736H11.1669L9.93272 25.5976V26.1736ZM11.3315 26.0913V27.0787H9.43907V26.3382H9.02767L8.53396 26.009V25.3508L8.8631 25.0217H8.4517V26.009H8.36945V24.9395H9.35676L11.3315 26.0913Z" fill="#F89A1C"/>
<path d="M9.43907 27.0787V26.2559H9.02767L8.53396 25.9267V25.2685L8.8631 24.9394H8.4517V25.9267H8.36945V24.8571H9.35676L11.3315 26.009V26.9964H9.43907V27.0787ZM8.8631 25.0217L8.53396 25.3508V26.009L9.02767 26.3381H9.43907V27.0787H11.3315V26.0912L9.35676 24.9394H8.36945V26.009H8.4517V25.0217H8.8631ZM9.93272 26.1736V25.5976L11.1669 26.1736H9.93272ZM9.93272 26.1736H11.0846L9.93272 25.5976V26.1736Z" fill="#010101"/>
<path d="M7.38208 26.4204V27.7369H7.62891L8.36944 28.1483L9.02766 27.7369H9.35675V26.4204H9.02766L8.36944 26.009L7.62891 26.4204H7.38208Z" fill="#B31F36"/>
<path d="M6.72389 27.9014H5.4897L6.72389 28.4773V27.9014ZM5.32513 28.0659V27.0786H7.21755V27.8191H7.62894L8.1226 28.1482V28.8065L7.79351 29.1356H8.20491V28.1482H8.28716V29.2179H7.2998L5.32513 28.0659Z" fill="#F89A1C"/>
<path d="M7.2998 29.2179L5.32513 28.0659V27.0786H7.21755V27.8191H7.62894L8.1226 28.1482V28.8065L7.79351 29.1356H8.20491V28.1482H8.28716V29.2179H7.2998ZM7.38211 29.2179H8.36947V28.1482H8.28716V29.1356H7.87577L8.20491 28.8065V28.1482L7.7112 27.8191H7.2998V27.0786H5.40739V28.0659L7.38211 29.2179ZM5.57196 27.9837H6.80615V28.5596L5.57196 27.9837ZM6.72389 28.5596V27.9837H5.57196L6.72389 28.5596Z" fill="#010101"/>
<path d="M6.72389 26.1736H5.4897L6.72389 25.5976V26.1736ZM5.32513 26.0913V27.0787H7.21755V26.3382H7.62894L8.1226 26.009V25.3508L7.79351 25.0217H8.20491V26.009H8.28716V24.9395H7.2998L5.32513 26.0913Z" fill="white"/>
<path d="M5.32513 27.0787V26.0913L7.2998 24.9395H8.28716V26.009H8.20491V25.0217H7.79351L8.1226 25.3508V26.009L7.62894 26.3382H7.21755V27.161H5.32513V27.0787ZM5.32513 27.0787H7.21755V26.3382H7.62894L8.1226 26.009V25.3508L7.79351 25.0217H8.20491V26.009H8.28716V24.9395H7.2998L5.32513 26.0913V27.0787ZM5.57196 26.1736L6.80615 25.5976V26.1736H5.57196ZM5.57196 26.1736H6.72389V25.5976L5.57196 26.1736Z" fill="#010101"/>
<path d="M9.93272 27.9014H11.1669L9.93272 28.4773V27.9014ZM11.3315 28.0659V27.0786H9.43907V27.8191H9.02767L8.53396 28.1482V28.8065L8.8631 29.1356H8.4517V28.1482H8.36945V29.2179H9.35676L11.3315 28.0659Z" fill="white"/>
<path d="M8.36945 29.2179V28.1482H8.4517V29.1356H8.8631L8.53396 28.8065V28.1482L9.02767 27.8191H9.43907V27.0786H11.3315V28.0659L9.35676 29.2179H8.36945ZM8.36945 29.2179H9.35676L11.3315 28.0659V27.0786H9.43907V27.8191H9.02767L8.53396 28.1482V28.8065L8.8631 29.1356H8.4517V28.1482H8.36945V29.2179ZM9.93272 27.9014H11.1669L9.93272 28.4773V27.9014ZM9.93272 28.5596L11.0846 27.9837H9.93272V28.5596Z" fill="#010101"/>
<path d="M5.90106 27.8192H6.06558V27.5723H6.31246V27.8192H6.47698V27.1609H6.31246V27.49H6.06558V27.1609H5.90106V27.8192Z" fill="#B31F36"/>
<path d="M7.13525 28.8065H7.29977V28.5596H7.54665V28.8065H7.62891V28.1482H7.54665V28.3951H7.29977V28.1482H7.13525V28.8065Z" fill="#B31F36"/>
<path d="M5.90106 26.2559H6.06558V26.585H6.31246V26.2559H6.47698V26.9964H6.31246V26.6673H6.06558V26.9964H5.90106V26.2559Z" fill="#B31F36"/>
<path d="M7.13525 25.3508H7.29977V25.5976H7.54665V25.3508H7.62891V26.009H7.54665V25.6799H7.29977V26.009H7.13525V25.3508Z" fill="#B31F36"/>
<path d="M10.2618 26.9964H10.3441V26.6673H10.5909V26.9964H10.7555V26.2559H10.5909V26.585H10.3441V26.2559H10.2618V26.9964Z" fill="#B31F36"/>
<path d="M9.02765 28.8065H9.19222V28.5596H9.43904V28.8065H9.5213V28.1482H9.43904V28.3951H9.19222V28.1482H9.02765V28.8065Z" fill="#B31F36"/>
<path d="M10.2618 27.8192H10.3441V27.5723H10.5909V27.8192H10.7555V27.1609H10.5909V27.49H10.3441V27.1609H10.2618V27.8192Z" fill="#B31F36"/>
<path d="M9.02765 26.009H9.19222V25.6799H9.43904V26.009H9.5213V25.3508H9.43904V25.5976H9.19222V25.3508H9.02765V26.009Z" fill="#B31F36"/>
<path d="M8.45168 27.0787L8.86308 26.6673H9.02765V26.914H8.86308V26.9964H9.19221V26.585H8.86308V26.3381H8.45168V26.585H8.53394V26.4204H8.78082V26.585L8.36942 26.9964L7.95803 26.585V26.4204H8.12254V26.585H8.20485V26.3381H7.87572V26.585H7.54663V26.9964H7.87572V26.914H7.62889V26.6673H7.87572L8.20485 27.0787L7.87572 27.4078H7.62889V27.2432H7.87572V27.1609H7.54663V27.4901H7.87572V27.8192H8.20485V27.4901H8.12254V27.7368H7.95803V27.4901L8.36942 27.1609L8.78082 27.4901V27.7368H8.53394V27.4901H8.45168V27.8192H8.86308V27.4901H9.19221V27.1609H8.86308V27.2432H9.02765V27.4078H8.86308L8.45168 27.0787Z" fill="#016B4F"/>
<path d="M11.496 22.1419H11.0023V22.471H10.5909V22.8824H8.8631L8.53397 23.2938L8.69853 23.4583H9.43907L9.60363 23.2938H8.8631L9.02767 23.0469H10.015L9.60363 23.7052H8.53397L8.28714 23.4583L7.95805 23.7052H6.97069L6.55929 23.0469H7.54666L7.71117 23.2938H6.97069L7.13526 23.4583H7.87574L7.95805 23.2938L7.71117 22.8824H6.06559V22.471H5.65419V22.1419H5.2428V20.3317H5.65419V20.0026H6.06559V19.5912H7.71117L7.95805 19.1798L7.87574 19.0152H7.13526L6.97069 19.1798H7.71117L7.54666 19.3443H6.55929L6.97069 18.7684H7.95805L8.28714 19.0152L8.53397 18.7684H9.60363L10.015 19.3443H9.02767L8.8631 19.1798H9.60363L9.43907 19.0152H8.69853L8.53397 19.1798L8.8631 19.5912H10.5909V20.0026H11.0023V20.3317H11.496V22.1419Z" fill="#B31F36"/>
<path d="M8.53397 23.7053L8.20488 23.5406L7.87574 23.7053H6.88838L6.47699 23.1292H7.46435L7.62891 23.2939H6.88838L7.05295 23.4584H7.79348L7.95805 23.2939L7.71117 22.8825H6.1479V22.4711H5.7365V22.0597H5.32511V20.3317H5.7365V19.9203H6.1479V19.5089H7.71117L7.95805 19.0975L7.79348 18.933H7.05295L6.88838 19.0975H7.62891L7.46435 19.2622H6.47699L6.88838 18.6861H7.87574L8.20488 18.8508L8.53397 18.6861H9.52133L9.93272 19.2622H8.94536L8.78084 19.0975H9.52133L9.35676 18.933H8.61627L8.45171 19.0975L8.69853 19.5089H10.4264V19.9203H10.8378V20.3317H11.2492V22.0597H10.8378V22.4711H10.4264V22.8825H8.69853L8.45171 23.2939L8.61627 23.4584H9.35676L9.52133 23.2939H8.78084L8.94536 23.1292H9.93272L9.52133 23.7053H8.53397ZM8.53397 23.6229H9.52133L9.93272 23.047H8.94536L8.78084 23.2115H9.52133L9.35676 23.3761H8.61627L8.45171 23.2115L8.78084 22.8001H10.5087V22.3887H10.9201V21.9773H11.3315V20.2495H10.9201V19.8381H10.5087V19.4267H8.78084L8.45171 19.0153L8.61627 18.8508H9.35676L9.52133 19.0153H8.78084L8.94536 19.1799H9.93272L9.52133 18.6039H8.53397L8.20488 18.7685L7.87574 18.6039H6.88838L6.47699 19.1799H7.46435L7.62891 19.0153H6.88838L7.05295 18.8508H7.79348L7.95805 19.0153L7.62891 19.4267H6.06559V19.8381H5.65419V20.2495H5.2428V21.9773H5.65419V22.3887H6.06559V22.8001H7.62891L7.95805 23.2115L7.79348 23.3761H7.05295L6.88838 23.2115H7.62891L7.46435 23.047H6.47699L6.88838 23.6229H7.87574L8.20488 23.4584L8.53397 23.6229Z" fill="#010101"/>
<path d="M5.40735 20.5786V21.8951H5.81874V22.3065H6.23014V22.7179H7.71116L8.28712 23.2939L8.86308 22.7179H10.4264V22.3065H10.8378V21.8951H11.3315V20.5786H10.8378V20.1672H10.4264V19.7558H8.86308L8.28712 19.1799L7.71116 19.7558H6.23014V20.1672H5.81874V20.5786H5.40735Z" fill="#016B4F"/>
<path d="M5.40739 20.5786H5.32513V21.8951H5.81879V22.3065H6.23019V22.7179H7.7112L8.28716 23.2939L8.86313 22.7179H10.4265V22.3065H10.8378H10.9201V21.8951H11.3315V20.5786V20.4964H10.9201V20.1672H10.4265V19.7558H8.86313L8.28716 19.1799L7.7112 19.7558H6.23019V20.1672H5.81879V20.5786H5.40739H5.32513H5.40739H5.81879V20.1672H6.23019V19.7558H7.7112L8.28716 19.1799L8.86313 19.7558H10.4265V20.1672H10.8378V20.5786H11.3315V21.8951H10.8378V22.3065H10.4265V22.6356H8.86313L8.28716 23.2115L7.7112 22.7179L6.23019 22.6356V22.3065H5.81879V21.8951H5.40739V20.5786Z" fill="#F89A1C"/>
<path d="M7.38212 20.0027L6.55933 20.9077V20.0027H7.38212Z" fill="#B31F36"/>
<path d="M6.55933 20.0026H7.46438L6.55933 20.99V20.0026ZM6.55933 20.9077L7.38212 19.9203H6.55933V20.9077Z" fill="#010101"/>
<path d="M9.10992 20.0027L10.015 20.9077V20.0027H9.10992Z" fill="#B31F36"/>
<path d="M9.10992 20.0026H10.015V20.99L9.10992 20.0026ZM10.015 20.9077V19.9203H9.19223L10.015 20.9077Z" fill="#010101"/>
<path d="M7.38212 22.4711L6.55933 21.4836V22.4711H7.38212Z" fill="#B31F36"/>
<path d="M6.55933 22.4711V21.4836L7.46438 22.4711H6.55933ZM6.55933 22.4711H7.38212L6.55933 21.4836V22.4711Z" fill="#010101"/>
<path d="M9.10992 22.4711L10.015 21.4836V22.4711H9.10992Z" fill="#B31F36"/>
<path d="M9.10992 22.4711L10.015 21.4836V22.4711H9.10992ZM10.015 22.4711V21.4836L9.19223 22.4711H10.015Z" fill="#010101"/>
<path d="M9.43906 20.5786L9.10992 20.9078H9.68589L9.43906 20.5786Z" fill="#B31F36"/>
<path d="M9.10992 20.9077L9.43906 20.4963L9.76815 20.9077H9.10992ZM9.10992 20.9077H9.68589L9.43906 20.4963L9.10992 20.9077Z" fill="#010101"/>
<path d="M7.13529 20.5786L6.80615 20.9078H7.38212L7.13529 20.5786Z" fill="#B31F36"/>
<path d="M6.80615 20.9077L7.13529 20.4963L7.46438 20.9077H6.80615ZM6.80615 20.9077H7.38212L7.13529 20.4963L6.80615 20.9077Z" fill="#010101"/>
<path d="M7.13529 21.895L6.80615 21.4836H7.38212L7.13529 21.895Z" fill="#B31F36"/>
<path d="M6.80615 21.4836H7.38212L7.05298 21.895L6.80615 21.4836ZM7.13529 21.895L7.38212 21.4836H6.80615L7.13529 21.895Z" fill="#010101"/>
<path d="M9.43906 21.895L9.10992 21.4836H9.68589L9.43906 21.895Z" fill="#B31F36"/>
<path d="M9.10992 21.4836H9.68589L9.35675 21.895L9.10992 21.4836ZM9.43906 21.895L9.68589 21.4836H9.10992L9.43906 21.895Z" fill="#010101"/>
<path d="M8.28716 22.8825L7.95807 22.4711H8.53398L8.28716 22.8825Z" fill="#F89A1C"/>
<path d="M7.95807 22.4711H8.53398L8.2049 22.8825L7.95807 22.4711ZM8.28716 22.8825L8.53398 22.4711H7.95807L8.28716 22.8825Z" fill="#010101"/>
<path d="M8.28716 20.9078L7.95807 20.5786H8.53398L8.28716 20.9078Z" fill="#F89A1C"/>
<path d="M7.95807 20.5786H8.53398L8.2049 20.99L7.95807 20.5786ZM8.28716 20.9077L8.53398 20.4963H7.95807L8.28716 20.9077Z" fill="#010101"/>
<path d="M8.28716 19.5913L7.95807 20.0027H8.53398L8.28716 19.5913Z" fill="#F89A1C"/>
<path d="M7.95807 20.0027L8.28716 19.5913L8.61629 20.0027H7.95807ZM7.95807 20.0027H8.53398L8.28716 19.5913L7.95807 20.0027Z" fill="#010101"/>
<path d="M8.28716 21.4836L7.95807 21.895H8.53398L8.28716 21.4836Z" fill="#F89A1C"/>
<path d="M7.95807 21.895L8.28716 21.4836L8.61629 21.895H7.95807ZM7.95807 21.895H8.53398L8.28716 21.4836L7.95807 21.895Z" fill="#010101"/>
<path d="M9.68589 20.9077H9.10992V21.0722H9.68589V20.9077Z" fill="#F89A1C"/>
<path d="M9.10992 21.1545V20.99H9.68589V21.1545H9.10992ZM9.10992 21.1545H9.68589V20.99H9.10992V21.1545Z" fill="#010101"/>
<path d="M7.21753 21.1545H6.9707V21.3192H7.21753V21.1545Z" fill="#B31F36"/>
<path d="M6.9707 21.3192V21.1545H7.29979V21.3192H6.9707ZM6.9707 21.3192H7.21753V21.1545H6.9707V21.3192Z" fill="#010101"/>
<path d="M9.60361 21.1545H9.27448V21.3192H9.60361V21.1545Z" fill="#B31F36"/>
<path d="M9.27448 21.3192V21.1545H9.60361V21.3192H9.27448ZM9.27448 21.3192H9.5213V21.1545H9.27448V21.3192Z" fill="#010101"/>
<path d="M8.53398 20.0027H7.95807V20.1672H8.53398V20.0027Z" fill="#B31F36"/>
<path d="M7.95807 20.1672V20.0027H8.53398V20.1672H7.95807ZM7.95807 20.1672H8.53398V20.0027H7.95807V20.1672Z" fill="#010101"/>
<path d="M8.53398 20.3317H7.95807V20.4963H8.53398V20.3317Z" fill="#B31F36"/>
<path d="M7.95807 20.3317H8.53398V20.5785H7.95807V20.3317V20.5785H8.53398V20.3317H7.95807Z" fill="#010101"/>
<path d="M8.78083 20.1672H7.87573V20.3318H8.78083V20.1672Z" fill="#B31F36"/>
<path d="M7.87573 20.3318V20.1672H8.78083V20.3318H7.87573ZM7.87573 20.3318H8.69852V20.1672H7.87573V20.3318Z" fill="#010101"/>
<path d="M8.53398 21.895H7.95807V22.0596H8.53398V21.895Z" fill="#B31F36"/>
<path d="M7.95807 22.1419V21.9773H8.53398V22.1419H7.95807ZM7.95807 22.1419H8.53398V21.9773H7.95807V22.1419Z" fill="#010101"/>
<path d="M8.53398 22.3064H7.95807V22.471H8.53398V22.3064Z" fill="#B31F36"/>
<path d="M7.95807 22.471V22.3064H8.53398V22.471H7.95807ZM7.95807 22.471H8.53398V22.3064H7.95807V22.471Z" fill="#010101"/>
<path d="M8.78083 22.142H7.87573V22.3065H8.78083V22.142Z" fill="#B31F36"/>
<path d="M7.87573 22.3065V22.142H8.78083V22.3065H7.87573ZM7.87573 22.3065H8.69852V22.142H7.87573V22.3065Z" fill="#010101"/>
<path d="M9.68589 21.3191H9.10992V21.4836H9.68589V21.3191Z" fill="#F89A1C"/>
<path d="M9.10992 21.5659V21.4014H9.68589V21.5659H9.10992ZM9.10992 21.4836H9.68589V21.3191H9.10992V21.4836Z" fill="#010101"/>
<path d="M7.38212 20.9077H6.80615V21.0722H7.38212V20.9077Z" fill="#F89A1C"/>
<path d="M6.80615 21.1545V20.99H7.38212V21.1545H6.80615ZM6.80615 21.1545H7.38212V20.99H6.80615V21.1545Z" fill="#010101"/>
<path d="M7.38212 21.3191H6.80615V21.4836H7.38212V21.3191Z" fill="#F89A1C"/>
<path d="M6.80615 21.5659V21.4014H7.38212V21.5659H6.80615ZM6.80615 21.4836H7.38212V21.3191H6.80615V21.4836Z" fill="#010101"/>
<path d="M7.05296 21.1545H6.72388V21.3192H7.05296V21.1545Z" fill="#F89A1C"/>
<path d="M6.64154 21.3192V21.1545H6.97068V21.3192H6.64154ZM6.72385 21.3192H6.97068V21.1545H6.72385V21.3192Z" fill="#010101"/>
<path d="M7.62894 21.1545H7.2998V21.3192H7.62894V21.1545Z" fill="#F89A1C"/>
<path d="M7.2998 21.3192V21.1545H7.62894V21.3192H7.2998ZM7.2998 21.3192H7.54668V21.1545H7.2998V21.3192Z" fill="#010101"/>
<path d="M9.35674 21.1545H9.02765V21.3192H9.35674V21.1545Z" fill="#F89A1C"/>
<path d="M9.02765 21.3192V21.1545H9.35674V21.3192H9.02765ZM9.02765 21.3192H9.27448V21.1545H9.02765V21.3192Z" fill="#010101"/>
<path d="M9.93272 21.1545H9.60364V21.3192H9.93272V21.1545Z" fill="#F89A1C"/>
<path d="M9.60364 21.3192V21.1545H9.93272V21.3192H9.60364ZM9.60364 21.3192H9.85047V21.1545H9.60364V21.3192Z" fill="#010101"/>
<path d="M7.95804 22.2242H7.87573L7.95804 22.142V22.2242Z" fill="white"/>
<path d="M8.28715 22.2242H8.2049L8.28715 22.142V22.2242Z" fill="white"/>
<path d="M8.69853 22.2242H8.61627V22.142L8.69853 22.2242Z" fill="white"/>
<path d="M8.1226 21.9773L8.04034 22.0597V21.9773H8.1226Z" fill="white"/>
<path d="M8.53398 21.9773L8.45172 22.0597V21.9773H8.53398Z" fill="white"/>
<path d="M8.1226 22.3887L8.04034 22.471V22.3887H8.1226Z" fill="white"/>
<path d="M8.53398 22.3887L8.45172 22.471V22.3887H8.53398Z" fill="white"/>
<path d="M9.10991 21.2369H9.02765V21.1545L9.10991 21.2369Z" fill="white"/>
<path d="M9.43906 21.2369H9.35675L9.43906 21.1545V21.2369Z" fill="white"/>
<path d="M9.85044 21.2369H9.76813V21.1545L9.85044 21.2369Z" fill="white"/>
<path d="M9.27452 20.99L9.19226 21.0722V20.99H9.27452Z" fill="white"/>
<path d="M9.6859 20.99L9.60364 21.0722V20.99H9.6859Z" fill="white"/>
<path d="M9.27452 21.4014L9.19226 21.4836V21.4014H9.27452Z" fill="white"/>
<path d="M9.6859 21.4014L9.60364 21.4836V21.4014H9.6859Z" fill="white"/>
<path d="M7.95804 20.2494L7.87573 20.3316V20.2494H7.95804Z" fill="white"/>
<path d="M8.28715 20.2494V20.3316L8.2049 20.2494H8.28715Z" fill="white"/>
<path d="M8.69853 20.2495L8.61627 20.3318V20.2495V20.1672L8.69853 20.2495Z" fill="white"/>
<path d="M8.1226 20.0849H8.04034V20.0027L8.1226 20.0849Z" fill="white"/>
<path d="M8.53398 20.0849H8.45172V20.0027L8.53398 20.0849Z" fill="white"/>
<path d="M8.1226 20.4141L8.04034 20.4963V20.4141H8.1226Z" fill="white"/>
<path d="M8.53398 20.4963H8.45172V20.4141L8.53398 20.4963Z" fill="white"/>
<path d="M6.80614 21.2369L6.72388 21.3192V21.2369V21.1545L6.80614 21.2369Z" fill="white"/>
<path d="M7.13529 21.2369V21.3192L7.05298 21.2369L7.13529 21.1545V21.2369Z" fill="white"/>
<path d="M7.54666 21.2369L7.46436 21.3192V21.2369V21.1545L7.54666 21.2369Z" fill="white"/>
<path d="M6.97068 21.0722H6.88837V20.99L6.97068 21.0722Z" fill="white"/>
<path d="M7.38211 21.0722H7.2998V20.99L7.38211 21.0722Z" fill="white"/>
<path d="M6.97068 21.4014L6.88837 21.4836V21.4014H6.97068Z" fill="white"/>
<path d="M7.38211 21.4014L7.2998 21.4836V21.4014H7.38211Z" fill="white"/>
<path d="M9.60363 13.7494H7.13525L5.90106 14.9013V15.971L7.13525 17.1229H9.60363L10.8378 15.971V14.9013L9.60363 13.7494ZM9.93271 16.3001L9.43906 16.7938H7.21751L6.72385 16.3001V14.5722L7.21751 14.0785H9.43906L9.93271 14.5722V16.3001Z" fill="#016B4F"/>
<path d="M7.13525 17.1229L5.90106 15.971V14.9013L7.13525 13.7494H9.60363L10.8378 14.9013V15.971L9.60363 17.1229H7.13525ZM5.90106 14.9013V15.971L7.13525 17.1229H9.60363L10.8378 15.971V14.9013L9.60363 13.7494H7.13525L5.90106 14.9013ZM7.21751 16.7938L6.72385 16.3001V14.5722L7.21751 14.0785H9.43906L9.93271 14.5722V16.3001L9.43906 16.7938H7.21751ZM6.72385 14.5722V16.3001L7.21751 16.7938H9.43906L9.93271 16.3001V14.5722L9.43906 14.0785H7.21751L6.72385 14.5722Z" fill="#010101"/>
<path d="M8.61628 17.1229L8.36946 17.3697L8.04032 17.1229L7.79349 17.3697L7.46436 17.1229V17.2052L7.62892 17.3697L7.54666 17.452V17.5343H7.62892L7.79349 17.452L7.87575 17.5343H7.95806V17.452L7.87575 17.3697L8.04032 17.2052L8.28715 17.3697L8.12258 17.452V17.5343H8.28715L8.36946 17.452L8.45172 17.5343H8.53397V17.452L8.45172 17.3697L8.61628 17.2052L8.86311 17.3697L8.69854 17.452V17.5343H8.86311L8.94537 17.452L9.02768 17.5343H9.10994V17.452L9.02768 17.3697L9.19225 17.2052V17.1229L8.94537 17.3697L8.61628 17.1229Z" fill="#016B4F"/>
<path d="M8.61628 13.7494L8.36946 13.5026L8.04032 13.7494L7.79349 13.5026L7.46436 13.7494V13.5849L7.62892 13.5026L7.54666 13.4204V13.2557H7.62892L7.79349 13.4204L7.87575 13.2557H7.95806V13.4204L7.87575 13.5026L8.04032 13.5849L8.28715 13.5026L8.12258 13.4204V13.2557H8.28715L8.36946 13.4204L8.45172 13.2557H8.53397V13.4204L8.45172 13.5026L8.61628 13.5849L8.86311 13.5026L8.69854 13.4204V13.2557H8.86311L8.94537 13.4204L9.02768 13.2557H9.10994V13.4204L9.02768 13.5026L9.19225 13.5849V13.7494L8.94537 13.5026L8.61628 13.7494Z" fill="#016B4F"/>
<path d="M10.8378 15.6419L11.1669 15.395L10.8378 15.1482L11.1669 14.9013L10.8378 14.6545H11.0023L11.1669 14.8191L11.3315 14.7368H11.4961V14.8191L11.3315 14.9013L11.4961 14.9836V15.0659H11.3315L11.1669 14.9836L11.0023 15.1482L11.1669 15.3127L11.3315 15.2305H11.4961V15.3127L11.3315 15.395L11.4961 15.4773V15.5596H11.3315L11.1669 15.4773L11.0023 15.6419L11.1669 15.8064L11.3315 15.7241H11.4961V15.8064L11.3315 15.8887L11.4961 15.971V16.0532H11.3315L11.1669 15.971L11.0023 16.2178H10.8378L11.1669 15.8887L10.8378 15.6419Z" fill="#016B4F"/>
<path d="M5.81876 15.6419L5.57193 15.395L5.81876 15.1482L5.57193 14.9013L5.81876 14.6545H5.7365L5.57193 14.8191L5.40737 14.7368H5.2428V14.8191L5.40737 14.9013L5.2428 14.9836V15.0659H5.40737L5.57193 14.9836L5.7365 15.1482L5.57193 15.3127L5.40737 15.2305H5.2428V15.3127L5.40737 15.395L5.2428 15.4773V15.5596H5.40737L5.57193 15.4773L5.7365 15.6419L5.57193 15.8064L5.40737 15.7241H5.2428V15.8064L5.40737 15.8887L5.2428 15.971V16.0532H5.40737L5.57193 15.971L5.7365 16.2178H5.81876L5.57193 15.8887L5.81876 15.6419Z" fill="#016B4F"/>
<path d="M11.0024 16.5469H10.9201V16.6291H11.0024V16.5469Z" fill="#016B4F"/>
<path d="M10.9201 16.6291V16.5469H11.0847V16.6291H10.9201ZM11.0024 16.6291H11.0847V16.5469H11.0024V16.6291Z" fill="#010101"/>
<path d="M11.0023 16.6292H10.8378V16.7115H11.0023V16.6292Z" fill="#016B4F"/>
<path d="M10.8378 16.7938V16.7115H11.0023V16.7938H10.8378ZM10.8378 16.7938H10.9201V16.7115H10.8378V16.7938Z" fill="#010101"/>
<path d="M10.2619 17.2052H10.1796V17.2875H10.2619V17.2052Z" fill="#016B4F"/>
<path d="M10.1796 17.3696V17.2874H10.3441V17.3696H10.1796ZM10.1796 17.3696H10.2619V17.2874H10.1796V17.3696Z" fill="#010101"/>
<path d="M10.5087 17.1229H10.3441V17.2052H10.5087V17.1229Z" fill="#016B4F"/>
<path d="M10.3441 17.2052V17.1229H10.5087V17.2052H10.3441ZM10.3441 17.2052H10.4264V17.1229H10.3441V17.2052Z" fill="#010101"/>
<path d="M6.31247 17.1229H6.23016V17.2052H6.31247V17.1229Z" fill="#016B4F"/>
<path d="M6.23016 17.2052V17.1229H6.39473V17.2052H6.23016ZM6.23016 17.2052H6.31247V17.1229H6.23016V17.2052Z" fill="#010101"/>
<path d="M5.73653 16.5469H5.57196V16.6291H5.73653V16.5469Z" fill="#016B4F"/>
<path d="M5.57196 16.6291V16.5469H5.73653V16.6291H5.57196ZM5.57196 16.6291H5.65422V16.5469H5.57196V16.6291Z" fill="#010101"/>
<path d="M5.90108 16.6292H5.73651V16.7115H5.90108V16.6292Z" fill="#016B4F"/>
<path d="M5.73651 16.7938V16.7115H5.90108V16.7938H5.73651ZM5.73651 16.7938H5.81877V16.7115H5.73651V16.7938Z" fill="#010101"/>
<path d="M5.90108 14.0785H5.73651V14.1608H5.90108V14.0785Z" fill="#016B4F"/>
<path d="M5.73651 14.2431V14.1608H5.90108V14.2431H5.73651ZM5.73651 14.1608H5.81877V14.0785H5.73651V14.1608Z" fill="#010101"/>
<path d="M5.73653 14.2432H5.57196V14.3254H5.73653V14.2432Z" fill="#016B4F"/>
<path d="M5.57196 14.3254V14.2432H5.73653V14.3254H5.57196ZM5.57196 14.3254H5.65422V14.2432H5.57196V14.3254Z" fill="#010101"/>
<path d="M6.55928 13.5026H6.39471V13.5848H6.55928V13.5026Z" fill="#016B4F"/>
<path d="M6.3125 13.6671V13.5848H6.47702V13.6671H6.3125ZM6.39476 13.5848H6.47702V13.5026H6.39476V13.5848Z" fill="#010101"/>
<path d="M6.31247 13.5848H6.23016V13.6671H6.31247V13.5848Z" fill="#016B4F"/>
<path d="M6.23016 13.7494V13.6671H6.39473V13.7494H6.23016ZM6.23016 13.7494H6.31247V13.6671H6.23016V13.7494Z" fill="#010101"/>
<path d="M10.2619 13.5026H10.1796V13.5848H10.2619V13.5026Z" fill="#016B4F"/>
<path d="M10.1796 13.6671V13.5848H10.3441V13.7493H10.1796V13.6671ZM10.1796 13.5848H10.2619V13.5026H10.1796V13.5848Z" fill="#010101"/>
<path d="M10.5087 13.5848H10.3441V13.6671H10.5087V13.5848Z" fill="#016B4F"/>
<path d="M10.3441 13.7494V13.6671H10.5087V13.8317H10.3441V13.7494ZM10.3441 13.7494H10.4264V13.6671H10.3441V13.7494Z" fill="#010101"/>
<path d="M11.0023 14.0785H10.8378V14.1608H11.0023V14.0785Z" fill="#016B4F"/>
<path d="M10.8378 14.2431V14.1608H11.0023V14.2431H10.8378ZM10.8378 14.1608H10.9201V14.0785H10.8378V14.1608Z" fill="#010101"/>
<path d="M11.0024 14.2432H10.9201V14.3254H11.0024V14.2432Z" fill="#016B4F"/>
<path d="M10.9201 14.3254V14.2432H11.0847V14.3254H10.9201ZM11.0024 14.3254H11.0847V14.2432H11.0024V14.3254Z" fill="#010101"/>
<path d="M6.55928 17.2052H6.39471V17.2875H6.55928V17.2052Z" fill="#016B4F"/>
<path d="M6.3125 17.3696V17.2874H6.47702V17.3696H6.3125ZM6.39476 17.3696H6.47702V17.2874H6.39476V17.3696Z" fill="#010101"/>
<path d="M8.28711 14.8191H8.04029V14.9836H7.79346V15.2305H7.54663V15.4774H8.28711V14.8191V14.8191ZM9.02765 15.395H8.28711V16.0533H8.53394V15.8888H8.78082V15.6419H9.02765V15.395V15.395Z" fill="white"/>
<path d="M8.78082 15.2305V14.9836H8.53394V14.8191H8.28711V15.4774H9.02765V15.2305H8.78082ZM7.54663 15.6419H7.79346V15.8888H8.04029V16.0533H8.28711V15.395H7.54663V15.6419V15.6419Z" fill="#F89A1C"/>
<path d="M8.69857 15.395H8.28717V15.8064L8.69857 15.395Z" fill="#B31F36"/>
<path d="M8.69857 15.395H8.28717V15.0659L8.69857 15.395Z" fill="#016B4F"/>
<path d="M7.95807 15.395H8.28716V15.8064L7.95807 15.395Z" fill="#016B4F"/>
<path d="M7.95807 15.395H8.28716V15.0659L7.95807 15.395Z" fill="#B31F36"/>
<path d="M8.69854 16.876L8.36946 16.6291L7.95806 16.876L7.62893 16.6291L7.21753 16.876V16.7937L7.46436 16.6291L7.3821 16.5468V16.3823H7.46436L7.62893 16.5468L7.71118 16.3823H7.87575V16.5468L7.71118 16.6291L7.95806 16.7937L8.20489 16.6291L8.12258 16.5468V16.3823H8.20489L8.36946 16.5468L8.45172 16.3823H8.61629V16.5468L8.45172 16.6291L8.69854 16.7937L8.94537 16.6291L8.86311 16.5468V16.3823H8.94537L9.10994 16.5468L9.19225 16.3823H9.35677V16.5468L9.19225 16.6291L9.43908 16.7937V16.876L9.10994 16.6291L8.69854 16.876Z" fill="#016B4F"/>
<path d="M8.69854 13.9962L8.36946 14.2431L7.95806 13.9962L7.62893 14.2431L7.21753 13.9962V14.0785L7.46436 14.2431L7.3821 14.3254V14.4076H7.46436L7.62893 14.3254L7.71118 14.4076H7.87575V14.3254L7.71118 14.2431L7.95806 14.0785L8.20489 14.2431L8.12258 14.3254V14.4076H8.20489L8.36946 14.3254L8.45172 14.4076H8.61629V14.3254L8.45172 14.2431L8.69854 14.0785L8.94537 14.2431L8.86311 14.3254V14.4076H8.94537L9.10994 14.3254L9.19225 14.4076H9.35677V14.3254L9.19225 14.2431L9.43908 14.0785V13.9962L9.10994 14.2431L8.69854 13.9962Z" fill="#016B4F"/>
<path d="M10.0973 15.7241L9.93274 15.3949L10.0973 15.1482L9.93274 14.819L10.0973 14.5721H10.015L9.93274 14.7368L9.85048 14.6545H9.68591V14.7368L9.85048 14.819L9.68591 14.9013V15.0659H9.85048L9.93274 14.9013L10.015 15.1482L9.93274 15.3127L9.85048 15.2304H9.68591V15.3127L9.85048 15.3949L9.68591 15.5596V15.6418H9.85048L9.93274 15.5596L10.015 15.7241L9.93274 15.8887L9.85048 15.8063H9.68591V15.8887L9.85048 15.9709L9.68591 16.1355V16.2177H9.85048L9.93274 16.1355L10.015 16.3001H10.0973L9.93274 15.9709L10.0973 15.7241Z" fill="#016B4F"/>
<path d="M7.71118 16.876L7.95806 17.1229L8.12258 16.876H7.71118Z" fill="#F89A1C"/>
<path d="M7.71118 16.876H8.12258L7.87575 17.1229L7.71118 16.876ZM7.95806 17.1229L8.12258 16.876H7.71118L7.95806 17.1229Z" fill="#010101"/>
<path d="M7.71118 13.9963L7.95806 13.7494L8.12258 13.9963H7.71118Z" fill="#F89A1C"/>
<path d="M7.71118 13.9963L7.87575 13.7494L8.12258 13.9963H7.71118ZM8.12258 13.9963L7.95806 13.7494L7.79349 13.9963H8.12258Z" fill="#010101"/>
<path d="M8.534 13.9963L8.78087 13.7494L8.94539 13.9963H8.534Z" fill="#F89A1C"/>
<path d="M8.534 13.9963L8.69857 13.7494L8.94539 13.9963H8.534ZM8.94539 13.9963L8.78087 13.7494L8.61631 13.9963H8.94539Z" fill="#010101"/>
<path d="M8.534 16.876L8.78087 17.1229L8.94539 16.876H8.534Z" fill="#F89A1C"/>
<path d="M8.534 16.876H8.94539L8.69857 17.1229L8.534 16.876ZM8.78087 17.1229L8.94539 16.876H8.534L8.78087 17.1229Z" fill="#010101"/>
<path d="M7.38208 13.9963L7.54665 13.7494L7.71117 13.9963H7.38208Z" fill="#B31F36"/>
<path d="M7.38208 13.9963L7.54665 13.7494L7.71117 13.9963H7.38208ZM7.71117 13.9963L7.54665 13.7494L7.38208 13.9963H7.71117Z" fill="#010101"/>
<path d="M8.12256 13.9963L8.36944 13.7494L8.53395 13.9963H8.12256Z" fill="#B31F36"/>
<path d="M8.12256 13.9963L8.28713 13.7494L8.53395 13.9963H8.12256ZM8.53395 13.9963L8.36944 13.7494L8.20487 13.9963H8.53395Z" fill="#010101"/>
<path d="M8.94537 13.9963L9.10994 13.7494L9.35677 13.9963H8.94537Z" fill="#B31F36"/>
<path d="M8.94537 13.9963L9.10994 13.7494L9.27451 13.9963H8.94537ZM9.35677 13.9963L9.19225 13.7494L9.02768 13.9963H9.35677Z" fill="#010101"/>
<path d="M6.88837 16.5469L7.2175 16.876H6.88837V16.5469Z" fill="#B31F36"/>
<path d="M6.88837 16.876V16.5469L7.29976 16.876H6.88837ZM6.88837 16.876H7.2175L6.88837 16.5469V16.876Z" fill="#010101"/>
<path d="M6.64154 15.7241L6.80611 15.3949L6.64154 15.1482L6.80611 14.819L6.64154 14.5721H6.72385L6.80611 14.7368L6.88837 14.6545H6.97068V14.7368L6.88837 14.819L6.97068 14.9013V15.0659H6.88837L6.80611 14.9013L6.72385 15.1482L6.80611 15.3127L6.88837 15.2304H6.97068V15.3127L6.88837 15.3949L6.97068 15.5596V15.6418H6.88837L6.80611 15.5596L6.72385 15.7241L6.80611 15.8887L6.88837 15.8063H6.97068V15.8887L6.88837 15.9709L6.97068 16.1355V16.2177H6.88837L6.80611 16.1355L6.72385 16.3001H6.64154L6.80611 15.9709L6.64154 15.7241Z" fill="#016B4F"/>
<path d="M10.1796 15.1482H10.6733L10.8378 15.2305L10.6733 15.3127H10.1796V15.1482Z" fill="#B31F36"/>
<path d="M10.1796 15.3127V15.0659H10.6733L10.8378 15.1482L10.6733 15.2304H10.1796V15.3127ZM10.1796 15.3127H10.6733L10.7555 15.2304L10.6733 15.1482H10.1796V15.3127Z" fill="#010101"/>
<path d="M6.88839 14.3254L6.64156 14.5722V16.3002L6.88839 16.5469H6.47699V14.3254H6.88839Z" fill="#B31F36"/>
<path d="M6.47699 16.5469V14.3254H6.88839L6.64156 14.5722V16.3002L6.88839 16.5469H6.47699V16.5469ZM6.47699 16.5469H6.80613L6.5593 16.3002V14.5722L6.80613 14.3254H6.47699V16.5469Z" fill="#010101"/>
<path d="M7.38208 16.876L7.54665 17.1229L7.71117 16.876H7.38208Z" fill="#B31F36"/>
<path d="M7.38211 16.876H7.79351L7.62894 17.1229L7.38211 16.876ZM7.54668 17.1229L7.7112 16.876H7.2998L7.54668 17.1229Z" fill="#010101"/>
<path d="M8.12256 16.876L8.36944 17.1229L8.53395 16.876H8.12256Z" fill="#B31F36"/>
<path d="M8.12256 16.876H8.53395L8.28713 17.1229L8.12256 16.876ZM8.36944 17.1229L8.53395 16.876H8.12256L8.36944 17.1229Z" fill="#010101"/>
<path d="M8.94537 16.876L9.10994 17.1229L9.35677 16.876H8.94537Z" fill="#B31F36"/>
<path d="M8.94536 16.876H9.35675L9.19224 17.1229L8.94536 16.876ZM9.10993 17.1229L9.27449 16.876H8.8631L9.10993 17.1229Z" fill="#010101"/>
<path d="M9.85046 14.3254L10.0973 14.5722V16.3002L9.85046 16.5469H10.1796V14.3254H9.85046Z" fill="#B31F36"/>
<path d="M9.85046 16.5469L10.0973 16.3002V14.5722L9.85046 14.3254H10.2619V16.5469H9.85046V16.5469ZM10.0973 14.5722V16.3002L9.85046 16.5469H10.1796V14.3254H9.85046L10.0973 14.5722Z" fill="#010101"/>
<path d="M9.85048 16.5469L9.43909 16.876H9.85048V16.5469Z" fill="#B31F36"/>
<path d="M9.43909 16.876L9.85048 16.5469V16.876H9.43909ZM9.43909 16.876H9.76817V16.5469L9.43909 16.876Z" fill="#010101"/>
<path d="M9.85048 14.3254L9.43909 13.9962H9.85048V14.3254Z" fill="#B31F36"/>
<path d="M9.43909 13.9962H9.85048V14.3254L9.43909 13.9962ZM9.85048 14.3254V13.9962H9.52135L9.85048 14.3254Z" fill="#010101"/>
<path d="M6.88837 14.3254L7.2175 13.9962H6.88837V14.3254Z" fill="#B31F36"/>
<path d="M6.88837 13.9962H7.29976L6.88837 14.3254V13.9962ZM6.88837 14.3254L7.2175 13.9962H6.88837V14.3254Z" fill="#010101"/>
<path d="M9.4391 13.9962H7.21755L6.55933 14.5721V16.3001L7.21755 16.876H9.4391L10.0973 16.3001V14.5721L9.4391 13.9962ZM9.93275 16.3001L9.4391 16.7937H7.21755L6.72389 16.3001V14.5721L7.21755 14.0785H9.4391L9.93275 14.5721V16.3001Z" fill="#016B4F"/>
<path d="M9.4391 13.9962H7.21755L6.55933 14.5721V16.3001L7.21755 16.876H9.4391L10.0973 16.3001V14.5721L9.4391 13.9962L10.0973 14.5721V16.3001L9.4391 16.876H7.21755L6.55933 16.3001V14.5721L7.21755 13.9962H9.4391ZM9.93275 16.3001L9.4391 16.7937H7.21755L6.72389 16.3001V14.5721L7.21755 14.0785H9.4391L9.93275 14.5721V16.3001V14.5721L9.4391 14.0785H7.21755L6.72389 14.5721V16.3001L7.21755 16.7937H9.4391L9.93275 16.3001Z" fill="#010101"/>
<path d="M10.1796 15.3127H10.6733L10.8378 15.395L10.6733 15.5596H10.1796V15.3127Z" fill="#F89A1C"/>
<path d="M10.1796 15.5596V15.3127H10.6733L10.8378 15.395L10.6733 15.4774H10.1796V15.5596ZM10.1796 15.5596H10.6733L10.7555 15.4774L10.6733 15.395H10.1796V15.5596Z" fill="#010101"/>
<path d="M10.1796 15.5596H10.6733L10.8378 15.6418L10.6733 15.7241H10.1796V15.5596Z" fill="#B31F36"/>
<path d="M10.1796 15.7241V15.4773H10.6733L10.8378 15.5596L10.6733 15.6418H10.1796V15.7241ZM10.1796 15.7241H10.6733L10.7555 15.6418L10.6733 15.5596H10.1796V15.7241Z" fill="#010101"/>
<path d="M10.1796 15.7241H10.6733L10.8378 15.8064L10.6733 15.971H10.1796V15.7241Z" fill="#F89A1C"/>
<path d="M10.1796 15.971V15.7241H10.6733L10.8378 15.8064L10.6733 15.8887H10.1796V15.971ZM10.1796 15.971H10.6733L10.7555 15.8887L10.6733 15.8064H10.1796V15.971Z" fill="#010101"/>
<path d="M10.1796 14.9012H10.6733L10.8378 14.9835L10.6733 15.1481H10.1796V14.9012Z" fill="#F89A1C"/>
<path d="M10.1796 15.1481V14.9012H10.6733L10.8378 14.9835L10.6733 15.0659H10.1796V15.1481ZM10.1796 15.1481H10.6733L10.7555 15.0659L10.6733 14.9835H10.1796V15.1481Z" fill="#010101"/>
<path d="M6.47701 15.1482H5.98336L5.81879 15.2305L5.98336 15.3127H6.47701V15.1482Z" fill="#B31F36"/>
<path d="M5.98336 15.3127L5.81879 15.2305L5.98336 15.1482H6.47701V15.395H5.98336V15.3127ZM5.9011 15.2305L5.98336 15.3127H6.47701V15.1482H5.98336L5.9011 15.2305Z" fill="#010101"/>
<path d="M6.47701 15.3127H5.98336L5.81879 15.395L5.98336 15.5596H6.47701V15.3127Z" fill="#F89A1C"/>
<path d="M5.98336 15.5596L5.81879 15.4773L5.98336 15.395H6.47701V15.6419H5.98336V15.5596ZM5.9011 15.395L5.98336 15.4773H6.47701V15.2305H5.98336L5.9011 15.395Z" fill="#010101"/>
<path d="M6.47701 15.5596H5.98336L5.81879 15.6418L5.98336 15.7241H6.47701V15.5596Z" fill="#B31F36"/>
<path d="M5.98336 15.7241L5.81879 15.6418L5.98336 15.5596H6.47701V15.8063H5.98336V15.7241ZM5.9011 15.6418L5.98336 15.7241H6.47701V15.5596H5.98336L5.9011 15.6418Z" fill="#010101"/>
<path d="M6.47701 15.7241H5.98336L5.81879 15.8064L5.98336 15.971H6.47701V15.7241Z" fill="#F89A1C"/>
<path d="M5.98336 15.971L5.81879 15.8887L5.98336 15.8064H6.47701V16.0533H5.98336V15.971ZM5.9011 15.8064L5.98336 15.8887H6.47701V15.7241H5.98336L5.9011 15.8064Z" fill="#010101"/>
<path d="M6.47701 14.9012H5.98336L5.81879 14.9835L5.98336 15.1481H6.47701V14.9012Z" fill="#F89A1C"/>
<path d="M5.98336 15.1481L5.81879 15.0659L5.98336 14.9835H6.47701V15.2304H5.98336V15.1481ZM5.9011 14.9835L5.98336 15.0659H6.47701V14.9012H5.98336L5.9011 14.9835Z" fill="#010101"/>
<path d="M10.3441 14.2431V13.6671H6.39473V14.2431H5.73651V16.7115H6.39473V17.2874H10.3441V16.7115H11.0023V14.2431H10.3441ZM10.8378 16.5469H10.1796V17.1229H6.47699V16.5469H5.81877V14.3254H6.47699V13.7494H10.1796V14.3254H10.8378V16.5469Z" fill="#971B1E"/>
<path d="M6.31245 17.2051V16.6291H5.65417V14.1608H6.31245V13.5848H10.2618V14.1608H10.9201V16.6291H10.2618V17.2051H6.31245ZM5.73648 16.6291H6.39471V17.2051H10.3441V16.6291H11.0023V14.1608H10.3441V13.5848H6.39471V14.1608H5.73648V16.6291ZM6.47697 17.1229V16.5469H5.81874V14.3254H6.47697V13.7494H10.1795V14.3254H10.8378V16.5469H10.1795V17.1229H6.47697ZM5.81874 16.5469H6.47697V17.1229H10.1795V16.5469H10.8378V14.3254H10.1795V13.7494H6.47697V14.3254H5.81874V16.5469Z" fill="#010101"/>
<path d="M11.0846 9.38862L10.9201 9.55314H9.76813L8.86308 10.5406H7.87572L6.97067 9.55314H5.73648L5.65417 9.38862L5.73648 9.224H6.97067L7.87572 8.23669H8.86308L9.76813 9.224H10.9201L11.0846 9.38862Z" fill="#B31F36"/>
<path d="M7.87572 10.5406L6.97067 9.55314H5.73648L5.65417 9.38862L5.73648 9.224H6.97067L7.87572 8.23669H8.86308L9.76813 9.224H11.0023L11.0846 9.38862L11.0023 9.55314H9.76813L8.86308 10.5406H7.87572ZM5.65417 9.38862L5.73648 9.55314H6.97067L7.87572 10.5406H8.86308L9.76813 9.55314H11.0023L11.0846 9.38862L11.0023 9.224H9.76813L8.86308 8.23669H7.87572L6.97067 9.224H5.73648L5.65417 9.38862Z" fill="#010101"/>
<path d="M9.35675 8.73037L9.19223 8.48359H9.02766L8.94535 8.56585V8.64811H9.02766L9.10992 8.56585L9.27449 8.81262L8.8631 9.22402L8.4517 8.81262L8.8631 8.40123V8.31897H8.78084L8.36944 8.73037L7.95804 8.31897H7.87574V8.40123L8.28713 8.81262L7.87574 9.22402L7.46434 8.81262L7.62891 8.56585L7.71117 8.64811H7.79348V8.56585L7.71117 8.48359H7.54665L7.38208 8.73037V8.97724L7.79348 9.38864L7.38208 9.80004V10.0468L7.54665 10.2937H7.71117L7.79348 10.2114V10.1292H7.71117L7.62891 10.2114L7.46434 9.96455L7.87574 9.55316L8.28713 9.96455L7.87574 10.3759V10.4582H7.95804L8.36944 10.0468L8.78084 10.4582H8.8631V10.3759L8.4517 9.96455L8.8631 9.55316L9.27449 9.96455L9.10992 10.2114L9.02766 10.1292H8.94535V10.2114L9.02766 10.2937H9.19223L9.35675 10.0468V9.80004L8.94535 9.38864L9.35675 8.97724V8.73037ZM8.36944 9.88229L7.95804 9.4709L8.36944 9.0595L8.78084 9.4709L8.36944 9.88229Z" fill="#F89A1C"/>
<path d="M7.46437 9.38866L7.29981 9.55317L7.05298 9.38866L7.29981 9.3064L7.46437 9.38866Z" fill="#016B4F"/>
<path d="M8.53395 9.38866L8.36944 9.55317L8.12256 9.38866L8.36944 9.3064L8.53395 9.38866Z" fill="#016B4F"/>
<path d="M9.60366 9.38866L9.43909 9.55317L9.19226 9.38866L9.43909 9.3064L9.60366 9.38866Z" fill="#016B4F"/>
<path d="M8.9454 8.15446V7.33167L8.86314 7.41392L8.69857 7.33167L8.61631 7.41392L8.534 7.33167L8.45174 7.41392L8.36948 7.33167L8.28717 7.41392L8.1226 7.33167L8.04035 7.41392L7.95809 7.33167L7.87578 7.41392L7.79352 7.33167V8.15446H8.9454Z" fill="#F89A1C"/>
<path d="M10.5909 9.14175V8.23669L10.5087 8.40121L10.3441 8.23669L10.2618 8.40121L10.1795 8.23669L10.0973 8.40121L10.015 8.23669L9.9327 8.40121L9.76813 8.23669V9.14175H10.5909Z" fill="#F89A1C"/>
<path d="M6.88837 9.14175V8.23669L6.80611 8.40121L6.72385 8.23669L6.55928 8.40121L6.47697 8.23669L6.39472 8.40121L6.31246 8.23669L6.23015 8.40121L6.14789 8.23669V9.14175H6.88837Z" fill="#F89A1C"/>
<path d="M7.79347 8.15451V7.57849L7.6289 7.74311L7.54664 7.57849L7.46433 7.74311L7.38207 7.57849L7.29976 7.74311L7.2175 7.57849L7.05294 7.74311L6.97068 7.57849L6.88837 7.74311V9.14182L7.79347 8.15451Z" fill="#016B4F"/>
<path d="M8.94537 8.15451V7.57849L9.02768 7.74311L9.10994 7.57849L9.19225 7.74311L9.35677 7.57849L9.43908 7.74311L9.52134 7.57849L9.60365 7.74311L9.68591 7.57849L9.76817 7.74311V9.14182L8.94537 8.15451Z" fill="#016B4F"/>
<path d="M7.29977 8.40123L7.13525 8.0722L7.29977 8.23671V8.0722L7.21751 7.98984L7.29977 7.82532L7.46434 7.98984L7.38208 8.0722V8.23671L7.54665 8.0722L7.38208 8.40123H7.29977Z" fill="white"/>
<path d="M6.47702 8.9773L6.3125 8.73042L6.47702 8.89504V8.73042L6.39476 8.64816L6.47702 8.48364L6.64159 8.64816L6.55933 8.73042V8.89504L6.7239 8.73042L6.55933 8.9773H6.47702Z" fill="#B31F36"/>
<path d="M10.1795 8.9773L10.015 8.73042L10.1795 8.89504V8.73042L10.0973 8.64816L10.1795 8.48364L10.3441 8.64816L10.2618 8.73042V8.89504L10.4264 8.73042L10.2618 8.9773H10.1795Z" fill="#B31F36"/>
<path d="M9.35678 8.40123L9.19226 8.0722L9.35678 8.23671V8.0722L9.27452 7.98984L9.35678 7.82532L9.43909 7.98984L9.35678 8.0722V8.23671L9.60366 8.0722L9.35678 8.40123Z" fill="white"/>
<path d="M8.28713 8.07221L8.12256 7.74308L8.28713 7.98985V7.74308L8.20487 7.57846L8.36944 7.41394L8.4517 7.57846L8.36944 7.74308V7.98985L8.61626 7.74308L8.36944 8.07221H8.28713Z" fill="#B31F36"/>
<path d="M8.9454 10.6228V11.5279L8.86314 11.3633L8.69857 11.5279L8.61631 11.3633L8.534 11.5279L8.45174 11.3633L8.36948 11.5279L8.28717 11.3633L8.1226 11.5279L8.04035 11.3633L7.95809 11.5279L7.87578 11.3633L7.79352 11.5279V10.6228H8.9454Z" fill="#F89A1C"/>
<path d="M10.5909 9.63538V10.5405L10.5087 10.4582L10.3441 10.5405L10.2618 10.4582L10.1795 10.5405L10.0973 10.4582L10.015 10.5405L9.9327 10.4582L9.76813 10.5405V9.63538H10.5909Z" fill="#F89A1C"/>
<path d="M6.88837 9.63538V10.5405L6.80611 10.4582L6.72385 10.5405L6.55928 10.4582L6.47697 10.5405L6.39472 10.4582L6.31246 10.5405L6.23015 10.4582L6.14789 10.5405V9.63538H6.88837Z" fill="#F89A1C"/>
<path d="M7.79347 10.6228V11.1987L7.6289 11.1164L7.54664 11.1987L7.46433 11.1164L7.38207 11.1987L7.29976 11.1164L7.2175 11.1987L7.05294 11.1164L6.97068 11.1987L6.88837 11.1164V9.63538L7.79347 10.6228Z" fill="#016B4F"/>
<path d="M8.94537 10.6228V11.1987L9.02768 11.1164L9.10994 11.1987L9.19225 11.1164L9.35677 11.1987L9.43908 11.1164L9.52134 11.1987L9.60365 11.1164L9.68591 11.1987L9.76817 11.1164V9.63538L8.94537 10.6228Z" fill="#016B4F"/>
<path d="M5.32513 9.38869V10.2937L5.40739 10.2115L5.57196 10.2937L5.65422 10.2115L5.73653 10.2937L5.81879 10.2115L5.9011 10.2937L5.98336 10.2115L6.14793 10.2937V9.63547H5.73653L5.57196 9.38869L5.73653 9.14182H6.14793V8.48364L5.98336 8.5659L5.9011 8.48364L5.81879 8.5659L5.73653 8.48364L5.65422 8.5659L5.57196 8.48364L5.40739 8.5659L5.32513 8.48364V9.38869Z" fill="#016B4F"/>
<path d="M11.3315 9.38869V10.2937L11.2492 10.2115L11.1669 10.2937L11.0846 10.2115L11.0023 10.2937L10.8378 10.2115L10.7555 10.2937L10.6733 10.2115L10.5909 10.2937V9.63547H11.0023L11.1669 9.38869L11.0023 9.14182H10.5909V8.48364L10.6733 8.5659L10.7555 8.48364L10.8378 8.5659L11.0023 8.48364L11.0846 8.5659L11.1669 8.48364L11.2492 8.5659L11.3315 8.48364V9.38869Z" fill="#016B4F"/>
<path d="M7.29977 10.4583L7.13525 10.7051L7.29977 10.5406V10.7051L7.21751 10.8696L7.29977 10.952L7.46434 10.8696L7.38208 10.7051V10.5406L7.54665 10.7051L7.38208 10.4583H7.29977Z" fill="white"/>
<path d="M6.47702 9.80005L6.3125 10.0468L6.47702 9.88231V10.0468L6.39476 10.2114L6.47702 10.2937L6.64159 10.2114L6.55933 10.0468V9.88231L6.7239 10.0468L6.55933 9.80005H6.47702Z" fill="#B31F36"/>
<path d="M10.1795 9.80005L10.015 10.0468L10.1795 9.88231V10.0468L10.0973 10.2114L10.1795 10.2937L10.3441 10.2114L10.2618 10.0468V9.88231L10.4264 10.0468L10.2618 9.80005H10.1795Z" fill="#B31F36"/>
<path d="M9.35678 10.4583L9.19226 10.7051L9.35678 10.5406V10.7051L9.27452 10.8696L9.35678 10.952L9.43909 10.8696L9.35678 10.7051V10.5406L9.60366 10.7051L9.35678 10.4583Z" fill="white"/>
<path d="M8.28713 10.7051L8.12256 11.0342L8.28713 10.7873V11.0342L8.20487 11.1987L8.36944 11.3634L8.4517 11.1987L8.36944 11.0342V10.7873L8.61626 11.0342L8.36944 10.7051H8.28713Z" fill="#B31F36"/>
<path d="M5.73648 9.80005L5.65417 9.88231V10.0468V9.96457L5.73648 10.0468L5.81874 9.96457L5.90105 10.0468V9.88231L5.73648 9.80005Z" fill="white"/>
<path d="M11.0023 9.80005L10.8378 9.88231L10.9201 10.0468V9.96457L11.0023 10.0468L11.0847 9.96457V10.0468V9.88231L11.0023 9.80005Z" fill="white"/>
<path d="M5.73648 9.05948L5.65417 8.89497V8.73035V8.89497L5.73648 8.73035L5.81874 8.89497L5.90105 8.73035V8.89497L5.73648 9.05948Z" fill="white"/>
<path d="M11.0023 9.05948L10.8378 8.89497L10.9201 8.73035V8.89497L11.0023 8.73035L11.0847 8.89497V8.73035V8.89497L11.0023 9.05948Z" fill="white"/>
<path d="M11.3315 10.376H10.5909V10.6229H9.76814V11.2811H8.86309V11.6102H7.6289V11.2811H6.80611V10.6229H5.98331V10.376H5.24278V9.3887V8.40129H5.98331V8.15451H6.80611V7.49623H7.71116V7.1671H8.94534V7.49623H9.85045V8.15451H10.6732V8.40129H11.4137V10.376H11.3315ZM11.4137 8.31903H10.6732V8.07225H9.85045V7.41398H8.94534V7.08484H7.6289V7.41398H6.72385V8.07225H5.90106V8.31903H5.16052V9.3887V10.4583H5.90106V10.7051H6.72385V11.3634H7.6289V11.6925H9.02765V11.3634H9.93271V10.7051H10.7555V10.4583H11.496V8.31903H11.4137Z" fill="#B31F36"/>
<path d="M7.6289 11.6102V11.281H6.72385V10.6229H5.90106V10.376H5.16052V9.30642V8.23675H5.90106V7.98987H6.72385V7.3317H7.6289V7.00256H9.02765V7.3317H9.93271V7.98987H10.7555V8.23675H11.4137V10.376H10.6732V10.6229H9.85045V11.281H8.94534V11.6102H7.6289ZM5.24278 9.38868V10.4582H5.98331V10.7051H6.80611V11.3634H7.71116V11.6924H9.10991V11.3634H10.015V10.7051H10.8378V10.4582H11.5783V8.31901H10.8378V8.07223H10.015V7.41396H9.10991V7.08482H7.6289V7.41396H6.72385V8.07223H5.90106V8.31901H5.16052V9.38868H5.24278ZM7.71116 11.5279V11.1988H6.80611V10.5406H5.98331V10.2937H5.24278V9.30642V8.31901H5.98331V8.07223H6.80611V7.41396H7.71116V7.08482H8.94534V7.41396H9.85045V8.07223H10.6732V8.31901H11.4137V10.2115H10.6732V10.4582H9.85045V11.1165H8.94534V11.4457H7.71116V11.5279ZM5.32509 9.38868V10.2937H6.06557V10.5406H6.88837V11.1988H7.79347V11.5279H9.02765V11.1988H9.93271V10.5406H10.7555V10.2937H11.496V8.40127H10.7555V8.15449H9.93271V7.49622H9.02765V7.16708H7.79347V7.49622H6.80611V8.15449H5.98331V8.40127H5.24278V9.38868H5.32509Z" fill="#010101"/>
<path d="M11.496 2.39492L11.0847 1.8189V1.40751L10.6733 0.996113H9.93272L9.35676 0.584717H7.38209L6.72386 0.996113H5.98333L5.57193 1.40751V1.8189L5.2428 2.39492V3.54685L5.57193 4.12276V4.53416L5.98333 5.02781H6.72386L7.38209 5.43921H9.35676L9.93272 5.02781H10.6733L11.0847 4.53416V4.12276L11.496 3.54685V2.39492Z" fill="#B31F36"/>
<path d="M7.38207 5.43921L6.72385 5.02781H5.98331L5.57192 4.61642V4.20502L5.16052 3.62911V2.47718L5.57192 1.90126V1.48987L5.98331 1.07847H6.72385L7.38207 0.667076H9.35674L10.015 1.07847H10.7555L11.1669 1.48987V1.90126L11.5783 2.47718V3.62911L11.1669 4.20502V4.61642L10.7555 5.02781H10.015L9.35674 5.43921H7.38207ZM5.65418 1.40751V1.8189L5.24278 2.39492V3.54685L5.65418 4.12276V4.53416L6.06557 4.94555H6.80611L7.46433 5.35695H9.43905L10.0973 4.94555H10.8378L11.2492 4.53416V4.12276L11.6606 3.54685V2.39492L11.2492 1.8189V1.40751L10.8378 0.996113H10.0973L9.43905 0.584717H7.46433L6.80611 0.996113H5.98331L5.65418 1.40751Z" fill="#010101"/>
<path d="M5.32513 2.97083V3.46448L5.73653 4.04049V4.45189L6.14793 4.86329H6.88841L7.46437 5.27468H8.36947V2.97083H5.32513Z" fill="#F89A1C"/>
<path d="M7.29978 4.04053L6.80613 4.36966H6.5593L6.64156 4.45192L6.47699 4.6987L6.5593 4.86332L6.80613 4.6987L6.9707 4.86332V4.53418L7.46435 4.12279L7.29978 4.04053Z" fill="#B31F36"/>
<path d="M6.80613 3.71143L6.31247 4.12282H6.0656L6.14791 4.20508L5.98334 4.45196L6.0656 4.53422L6.31247 4.45196L6.47699 4.53422V4.20508L6.9707 3.87594L6.80613 3.71143Z" fill="#B31F36"/>
<path d="M6.5593 3.13538L6.0656 3.54677H5.81877L5.90108 3.62903L5.73651 3.87581L5.81877 4.04043L6.0656 3.87581L6.14791 4.04043L6.23017 3.71129L6.72387 3.29989L6.5593 3.13538Z" fill="#B31F36"/>
<path d="M11.3315 2.97077V2.55937L10.9201 1.98346V1.57206L10.5909 1.16066H9.85046L9.19224 0.749268H8.36945V2.97077H11.3315Z" fill="#F89A1C"/>
<path d="M8.36946 5.2747H8.12258L7.87575 5.02782H7.46436L7.21753 4.8633L7.29979 4.69868L7.54667 4.8633H7.79349L8.04032 4.4519L8.36946 4.53416V4.8633H8.04032L8.36946 5.2747Z" fill="#B31F36"/>
<path d="M5.32513 2.97077V2.55937L5.73653 1.98346V1.57206L6.14793 1.16066H6.88841L7.46437 0.749268H8.36947V2.97077H5.32513Z" fill="white"/>
<path d="M8.36946 0.749268H8.12258L7.87575 0.996045H7.46436L7.21753 1.16066L7.29979 1.32518L7.54667 1.16066H7.79349L8.04032 1.57206L8.36946 1.40744V1.16066H8.04032L8.36946 0.749268Z" fill="#B31F36"/>
<path d="M8.36945 0.749268H8.61627L8.8631 0.996045H9.2745L9.52132 1.16066L9.35676 1.32518L9.19224 1.16066H8.94536L8.69853 1.57206L8.36945 1.40744V1.16066H8.69853L8.36945 0.749268Z" fill="#B31F36"/>
<path d="M11.3315 2.97083V3.46448L10.9201 4.04049V4.45189L10.5909 4.86329H9.85046L9.19224 5.27468H8.36945V2.97083H11.3315Z" fill="white"/>
<path d="M8.36945 5.2747H8.61627L8.8631 5.02782H9.2745L9.52132 4.8633L9.35676 4.69868L9.19224 4.8633H8.94536L8.69853 4.4519L8.36945 4.53416V4.8633H8.69853L8.36945 5.2747Z" fill="#B31F36"/>
<path d="M6.80613 2.31262L6.31247 1.90123H6.0656L6.14791 1.81887L5.98334 1.57209L6.0656 1.40747L6.31247 1.57209L6.47699 1.40747V1.73661L6.9707 2.148L6.80613 2.31262Z" fill="#B31F36"/>
<path d="M9.35678 1.98356L9.85048 1.65442H10.0973L10.0151 1.4899L10.1796 1.24303L10.0973 1.16077L9.85048 1.24303L9.76817 1.16077L9.68592 1.4899L9.19226 1.81894L9.35678 1.98356Z" fill="#B31F36"/>
<path d="M7.29978 1.98356L6.80613 1.65442H6.5593L6.64156 1.4899L6.47699 1.24303L6.5593 1.16077L6.80613 1.24303L6.9707 1.16077V1.4899L7.46435 1.81894L7.29978 1.98356Z" fill="#B31F36"/>
<path d="M6.5593 2.88857L6.0656 2.47718H5.81877L5.90108 2.39492L5.73651 2.14804L5.81877 1.98352L6.0656 2.14804L6.14791 1.98352L6.23017 2.31266L6.72387 2.72405L6.5593 2.88857Z" fill="#B31F36"/>
<path d="M5.57196 2.97083H5.73653L5.81879 3.13544L5.9011 2.97083H8.36947V5.02781H8.2049L8.36947 5.11006V5.27468L8.04034 4.86329V4.69867H8.12259V4.86329H8.2049V4.69867L7.2998 4.12275H6.47701V3.46448L6.14792 3.13544H5.9011L5.81879 3.29996L5.9011 3.46448H5.81879L5.57196 2.97083Z" fill="white"/>
<path d="M5.57196 2.97077H5.73653L5.81879 2.88851L5.9011 2.97077H8.36947V0.996045H8.2049L8.36947 0.831527V0.749268L8.04034 1.16066V1.32518H8.12259V1.16066H8.2049V1.32518L7.2998 1.9012H6.47701V2.55937L6.14792 2.88851H5.9011L5.81879 2.72399L5.9011 2.55937H5.81879L5.57196 2.97077Z" fill="#F89A1C"/>
<path d="M6.14789 2.97083H8.36944V4.69867L7.38208 4.04049H6.64154V3.46448L6.14789 2.97083Z" fill="#016B4F"/>
<path d="M9.93274 2.31262L10.3441 1.90123H10.591L10.5087 1.81887L10.6733 1.57209L10.591 1.40747L10.3441 1.57209L10.2619 1.40747L10.1796 1.73661L9.68591 2.148L9.93274 2.31262Z" fill="#B31F36"/>
<path d="M10.1796 2.88857L10.591 2.47718H10.8378L10.7555 2.39492L10.9201 2.14804L10.8378 1.98352L10.591 2.14804L10.5087 1.98352L10.4264 2.31266L9.93274 2.72405L10.1796 2.88857Z" fill="#B31F36"/>
<path d="M11.0846 2.97077H11.0023L10.9201 2.88851L10.7555 2.97077H8.36945V0.996045H8.4517L8.36945 0.831527V0.749268L8.69853 1.16066V1.32518H8.61627V1.16066H8.4517V1.32518L9.35676 1.9012H10.1795V2.55937L10.5087 2.88851H10.7555L10.9201 2.72399L10.7555 2.55937H10.9201L11.0846 2.97077Z" fill="white"/>
<path d="M10.5909 2.97078H8.36945V1.3252L9.35676 1.98347H10.0973V2.55938L10.5909 2.97078Z" fill="#016B4F"/>
<path d="M9.35678 4.04053L9.85048 4.36966H10.0973L10.0151 4.45192L10.1796 4.6987L10.0973 4.86332L9.85048 4.6987L9.76817 4.86332L9.68592 4.53418L9.19226 4.12279L9.35678 4.04053Z" fill="#B31F36"/>
<path d="M9.93274 3.71143L10.3441 4.12282H10.591L10.5087 4.20508L10.6733 4.45196L10.591 4.53422L10.3441 4.45196L10.2619 4.53422L10.1796 4.20508L9.68591 3.87594L9.93274 3.71143Z" fill="#B31F36"/>
<path d="M10.1796 3.13538L10.591 3.54677H10.8378L10.7555 3.62903L10.9201 3.87581L10.8378 4.04043L10.591 3.87581L10.5087 4.04043L10.4264 3.71129L9.93274 3.29989L10.1796 3.13538Z" fill="#B31F36"/>
<path d="M11.0846 2.97083H11.0023L10.9201 3.13544L10.7555 2.97083H8.36945V5.02781H8.4517L8.36945 5.11006V5.27468L8.69853 4.86329V4.69867H8.61627V4.86329H8.4517V4.69867L9.35676 4.12275H10.1795V3.46448L10.5087 3.13544H10.7555L10.9201 3.29996L10.7555 3.46448H10.9201L11.0846 2.97083Z" fill="#F89A1C"/>
<path d="M10.5909 2.97083H8.36945V4.69867L9.35676 4.04049H10.0973V3.46448L10.5909 2.97083Z" fill="#B31F36"/>
<path d="M6.14789 2.97078H8.36944V1.3252L7.38208 1.98347H6.64154V2.55938L6.14789 2.97078Z" fill="#B31F36"/>
<path d="M8.61627 2.97083L9.19224 2.55943H9.60363L9.43907 2.39492L9.68589 2.14804L9.60363 1.98352L9.19224 2.14804L9.10993 1.98352L9.02767 2.39492L8.36945 2.80631L8.61627 2.97083Z" fill="#B31F36"/>
<path d="M8.12258 2.97083L7.46436 3.46448H7.13527L7.21753 3.54684L6.9707 3.87588L7.13527 4.04049L7.46436 3.87588L7.62893 4.04049V3.6291L8.36946 3.13544L8.12258 2.97083Z" fill="#B31F36"/>
<path d="M8.12258 2.97083L7.46436 2.55943H7.13527L7.21753 2.39492L6.9707 2.14804L7.13527 1.98352L7.46436 2.14804L7.62893 1.98352V2.39492L8.36946 2.80631L8.12258 2.97083Z" fill="#016B4F"/>
<path d="M8.61627 2.97083L9.19224 3.46448H9.60363L9.43907 3.54684L9.68589 3.87588L9.60363 4.04049L9.19224 3.87588L9.10993 4.04049L9.02767 3.6291L8.36945 3.13544L8.61627 2.97083Z" fill="#016B4F"/>
<path d="M7.62891 2.9708L8.36944 2.31262L9.10992 2.9708L8.36944 3.71133L7.62891 2.9708Z" fill="white"/>
<path d="M5.90108 3.29996L6.0656 3.46448L5.90108 3.54684H5.81877L5.48969 2.97083H5.57194L5.81877 3.46448H5.90108L5.81877 3.29996L5.90108 3.13544H6.14791V3.29996H5.90108Z" fill="#B31F36"/>
<path d="M5.90108 2.72403L6.0656 2.55942L5.90108 2.3949H5.81877L5.48969 2.97081H5.57194L5.81877 2.55942H5.90108L5.81877 2.72403L5.90108 2.88855H6.14791V2.72403H5.90108Z" fill="#B31F36"/>
<path d="M10.7555 3.29996L10.6732 3.46448L10.7555 3.54684H10.9201L11.2492 2.97083H11.0846L10.9201 3.46448H10.7555L10.9201 3.29996L10.7555 3.13544H10.5087V3.29996H10.7555Z" fill="#B31F36"/>
<path d="M10.7555 2.72403L10.6732 2.55942L10.7555 2.3949H10.9201L11.2492 2.97081H11.0846L10.9201 2.55942H10.7555L10.9201 2.72403L10.7555 2.88855H10.5087V2.72403H10.7555Z" fill="#B31F36"/>
<path d="M8.78083 2.72403H8.4517V2.3949H8.20487V2.72403H7.87573V3.29995H8.20487V3.54683H8.4517V3.29995H8.78083V2.72403Z" fill="#B31F36"/>
<path d="M22.1101 3.21765C23.0974 3.95816 23.6734 5.11009 23.6734 6.42656C23.6734 8.6481 21.8632 10.4582 19.6417 10.4582C19.0657 10.4582 18.4898 10.2937 17.9961 10.1291C18.7366 10.7874 19.6417 11.1987 20.7113 11.1987C22.9329 11.1987 24.743 9.38853 24.743 7.16699C24.743 5.27457 23.6734 3.79361 22.1101 3.21765Z" fill="white"/>
<path d="M20.0531 3.87584L20.4645 4.20498L20.9582 3.79358L20.7936 4.36959L21.205 4.69863H20.7114L20.4645 5.27464L20.3 4.69863H19.724L20.2177 4.36959L20.0531 3.87584Z" fill="white"/>
<path d="M17.9961 2.80627L18.4075 3.13541L18.9012 2.80627L18.7366 3.29993L19.148 3.62907L18.572 3.71133L18.4075 4.20498L18.243 3.71133H17.667L18.1606 3.38219L17.9961 2.80627Z" fill="white"/>
<path d="M15.9391 5.93285L16.3505 6.26198L16.8442 5.85059L16.6797 6.4266L17.1733 6.75564H16.5974L16.4328 7.33165L16.186 6.75564H15.61L16.1037 6.4266L15.9391 5.93285Z" fill="white"/>
<path d="M17.9961 4.86328L18.4075 5.19242L18.9012 4.86328L18.7366 5.4392L19.148 5.76833H18.572L18.4075 6.26199L18.243 5.76833H17.667L18.1606 5.4392L17.9961 4.86328Z" fill="white"/>
<path d="M17.9961 6.92029L18.4075 7.24942L18.9012 6.92029L18.7366 7.4962L19.148 7.82534H18.572L18.4075 8.40125L18.243 7.82534H17.667L18.1606 7.4962L17.9961 6.92029Z" fill="white"/>
</g>
<defs>
<clipPath id="clip0_8_99888">
<rect x="0.97583" width="32" height="32" rx="6" fill="white"/>
</clipPath>
</defs>
</svg>
