<svg width="33" height="32" viewBox="0 0 33 32" fill="none" xmlns="http://www.w3.org/2000/svg">
<g clip-path="url(#clip0_8_97138)">
<path fill-rule="evenodd" clip-rule="evenodd" d="M6.06674 32H27.8607C30.6728 32 32.9516 29.697 32.9516 26.8848V5.09091C32.9516 2.27879 30.6728 0 27.8607 0H6.06674C3.25462 0 0.97583 2.27879 0.97583 5.09091V26.8848C0.97583 29.697 3.27886 32 6.06674 32Z" fill="#D3252E"/>
<path fill-rule="evenodd" clip-rule="evenodd" d="M11.5698 7.97571C14.4546 7.97571 17.0001 9.52722 18.4061 11.8303C17.2425 10.4727 15.5213 9.59995 13.5819 9.59995C10.0425 9.59995 7.18186 12.4606 7.18186 15.9999C7.18186 19.5393 10.0425 22.3757 13.5819 22.3757C15.5213 22.3757 17.2667 21.503 18.4061 20.1454C17.0243 22.4484 14.4788 23.9999 11.5698 23.9999C7.18188 23.9999 3.59399 20.4121 3.59399 16.0242C3.59399 11.5636 7.18188 7.97571 11.5698 7.97571ZM21.0728 12.1939L22.7697 14.5696L25.5092 13.6727L23.8122 16.0242L25.5092 18.3757L22.7697 17.4787L21.0728 19.8303V16.8969L18.3334 15.9999L21.0728 15.103V12.1939Z" fill="white"/>
</g>
<defs>
<clipPath id="clip0_8_97138">
<rect width="31.9758" height="32" fill="white" transform="translate(0.97583)"/>
</clipPath>
</defs>
</svg>
