<svg width="33" height="32" viewBox="0 0 33 32" fill="none" xmlns="http://www.w3.org/2000/svg">
<g clip-path="url(#clip0_8_97162)">
<path fill-rule="evenodd" clip-rule="evenodd" d="M0.776367 2.45033H31.2965C30.3988 0.970426 28.7733 0 26.9538 0H5.0948C3.27524 0 1.64976 0.994687 0.776367 2.45033Z" fill="#D0262B"/>
<path fill-rule="evenodd" clip-rule="evenodd" d="M0.024292 4.92494H32.0243C32 4.02729 31.7332 3.17817 31.2965 2.47461H0.776371C0.315416 3.17817 0.0485528 4.02729 0.024292 4.92494Z" fill="#FEFEFE"/>
<path fill-rule="evenodd" clip-rule="evenodd" d="M0.024292 7.37526H32.0243V5.09474C32.0243 5.04622 32.0243 4.97345 32.0243 4.92493H0.024292C0.024292 4.97345 0.024292 5.04622 0.024292 5.09474V7.37526Z" fill="#D0262B"/>
<path d="M32.0243 7.37524H0.024292V9.82558H32.0243V7.37524Z" fill="#FEFEFE"/>
<path d="M32.0243 9.84985H0.024292V12.3002H32.0243V9.84985Z" fill="#D0262B"/>
<path d="M32.0243 12.3003H0.024292V14.7506H32.0243V12.3003Z" fill="#FEFEFE"/>
<path d="M32.0243 14.7748H0.024292V17.2251H32.0243V14.7748Z" fill="#D0262B"/>
<path d="M32.0243 17.2252H0.024292V19.6756H32.0243V17.2252Z" fill="#FEFEFE"/>
<path d="M32.0243 19.6998H0.024292V22.1502H32.0243V19.6998Z" fill="#D0262B"/>
<path d="M32.0243 22.1501H0.024292V24.6005H32.0243V22.1501Z" fill="#FEFEFE"/>
<path fill-rule="evenodd" clip-rule="evenodd" d="M0.024292 27.0751H32.0243C32.0243 27.0266 32.0243 26.9538 32.0243 26.9053V24.6248H0.024292V26.9053C0.024292 26.9538 0.024292 27.0266 0.024292 27.0751Z" fill="#D0262B"/>
<path fill-rule="evenodd" clip-rule="evenodd" d="M0.776371 29.5497H31.2965C31.7332 28.8219 32 27.997 32.0243 27.0994H0.024292C0.0485528 27.9728 0.315416 28.8219 0.776371 29.5497Z" fill="#FEFEFE"/>
<path fill-rule="evenodd" clip-rule="evenodd" d="M5.11906 32H26.9295C28.7733 32 30.3988 31.0053 31.2965 29.5497H0.776367C1.67402 31.0053 3.2995 32 5.11906 32Z" fill="#D0262B"/>
<path fill-rule="evenodd" clip-rule="evenodd" d="M0.024292 17.2252H16.182V0H5.09481C2.30481 0.0242608 0.024292 2.30478 0.024292 5.09477V17.2252Z" fill="#2E3C66"/>
<path fill-rule="evenodd" clip-rule="evenodd" d="M10.6505 6.9386H11.3056L11.5482 6.28357L11.7423 6.9386H12.4458L11.8636 7.35105L12.1062 8.00608L11.5482 7.59366L10.9659 8.00608L11.2085 7.35105L10.6505 6.9386ZM0.024292 12.9553V12.6884H0.363949L0.024292 12.9553ZM0.024292 10.0682V9.80139H0.363949L0.024292 10.0682ZM0.024292 7.20549V6.9386H0.363949L0.024292 7.20549ZM0.0728314 4.24566C0.0970922 4.19714 0.0970803 4.12436 0.121341 4.07584H0.363949L0.0728314 4.24566ZM0.679351 2.59594L0.703606 2.5474H1.26159L1.50419 1.91663L1.69829 2.5474H2.35332L1.79534 2.95985L2.03795 3.59063L1.47994 3.20246L0.897675 3.59063L1.14028 2.95985L0.679351 2.59594ZM10.6505 4.07584H11.3056L11.5482 3.42078L11.7423 4.07584H12.4458L11.8636 4.48826L12.1062 5.11904L11.5482 4.70662L10.9659 5.11904L11.2085 4.48826L10.6505 4.07584ZM6.62325 4.07584H7.27828L7.52088 3.42078L7.71498 4.07584H8.41852L7.83629 4.48826L8.07889 5.11904L7.52088 4.70662L6.93862 5.11904L7.18123 4.48826L6.62325 4.07584ZM2.59593 4.07584H3.25099L3.44506 3.42078L3.68767 4.07584H4.39124L3.80897 4.48826L4.05158 5.11904L3.46934 4.70662L2.91133 5.11904L3.15394 4.48826L2.59593 4.07584ZM6.62325 6.9386H7.27828L7.52088 6.28357L7.71498 6.9386H8.41852L7.83629 7.35105L8.07889 8.00608L7.52088 7.59366L6.93862 8.00608L7.18123 7.35105L6.62325 6.9386ZM2.59593 6.9386H3.25099L3.44506 6.28357L3.68767 6.9386H4.39124L3.80897 7.35105L4.05158 8.00608L3.46934 7.59366L2.91133 8.00608L3.15394 7.35105L2.59593 6.9386ZM10.6505 9.82564H11.3056L11.5482 9.19487L11.7423 9.82564H12.4458L11.8636 10.2381L12.1062 10.8931L11.5482 10.4807L10.9659 10.8931L11.2085 10.2381L10.6505 9.82564ZM6.62325 9.82564H7.27828L7.52088 9.19487L7.71498 9.82564H8.41852L7.83629 10.2381L8.07889 10.8931L7.52088 10.4807L6.93862 10.8931L7.18123 10.2381L6.62325 9.82564ZM2.59593 9.82564H3.25099L3.44506 9.19487L3.68767 9.82564H4.39124L3.80897 10.2381L4.05158 10.8931L3.46934 10.4807L2.91133 10.8931L3.15394 10.2381L2.59593 9.82564ZM10.6505 12.6884H11.3056L11.5482 12.0577L11.7423 12.6884H12.4458L11.8636 13.1251L12.1062 13.7559L11.5482 13.3435L10.9659 13.7559L11.2085 13.1251L10.6505 12.6884ZM6.62325 12.6884H7.27828L7.52088 12.0577L7.71498 12.6884H8.41852L7.83629 13.1251L8.07889 13.7559L7.52088 13.3435L6.93862 13.7559L7.18123 13.1251L6.62325 12.6884ZM2.59593 12.6884H3.25099L3.44506 12.0577L3.68767 12.6884H4.39124L3.80897 13.1251L4.05158 13.7559L3.46934 13.3435L2.91133 13.7559L3.15394 13.1251L2.59593 12.6884ZM12.6399 2.5474H13.3435L13.5861 1.91663L13.7802 2.5474H14.4352L13.8772 2.95985L14.0713 3.59063L13.5618 3.20246L12.9796 3.59063L13.2222 2.95985L12.6399 2.5474ZM8.66113 2.5474H9.31619L9.51026 1.91663L9.75287 2.5474H10.4564L9.87417 2.95985L10.1168 3.59063L9.53454 3.20246L8.97653 3.59063L9.21914 2.95985L8.66113 2.5474ZM4.63384 2.5474H5.2889L5.53151 1.91663L5.72558 2.5474H6.38064L5.82263 2.95985L6.06524 3.59063L5.50723 3.20246L4.92499 3.59063L5.1676 2.95985L4.63384 2.5474ZM12.6399 5.43444H13.3435L13.5861 4.77941L13.7802 5.43444H14.4352L13.8772 5.84686L14.0713 6.47767L13.5618 6.06522L12.9796 6.47767L13.2222 5.84686L12.6399 5.43444ZM8.66113 5.43444H9.31619L9.51026 4.77941L9.75287 5.43444H10.4564L9.87417 5.84686L10.1168 6.47767L9.53454 6.06522L8.97653 6.47767L9.21914 5.84686L8.66113 5.43444ZM4.63384 5.43444H5.2889L5.53151 4.77941L5.72558 5.43444H6.38064L5.82263 5.84686L6.06524 6.47767L5.50723 6.06522L4.92499 6.47767L5.1676 5.84686L4.63384 5.43444ZM0.606557 5.43444H1.26159L1.50419 4.77941L1.69829 5.43444H2.35332L1.79534 5.84686L2.03795 6.47767L1.47994 6.06522L0.897675 6.47767L1.14028 5.84686L0.606557 5.43444ZM12.6399 8.32148H13.3435L13.5861 7.66642L13.7802 8.32148H14.4352L13.8772 8.7339L14.0713 9.36468L13.5618 8.95226L12.9796 9.36468L13.2222 8.7339L12.6399 8.32148ZM8.66113 8.32148H9.31619L9.51026 7.66642L9.75287 8.32148H10.4564L9.87417 8.7339L10.1168 9.36468L9.53454 8.95226L8.97653 9.36468L9.21914 8.7339L8.66113 8.32148ZM4.63384 8.32148H5.2889L5.53151 7.66642L5.72558 8.32148H6.38064L5.82263 8.7339L6.06524 9.36468L5.50723 8.95226L4.92499 9.36468L5.1676 8.7339L4.63384 8.32148ZM0.606557 8.32148H1.26159L1.50419 7.66642L1.69829 8.32148H2.35332L1.79534 8.7339L2.03795 9.36468L1.47994 8.95226L0.897675 9.36468L1.14028 8.7339L0.606557 8.32148ZM12.6399 11.1842H13.3435L13.5861 10.5292L13.7802 11.1842H14.4352L13.8772 11.5967L14.0713 12.2517L13.5618 11.8393L12.9796 12.2517L13.2222 11.5967L12.6399 11.1842ZM8.66113 11.1842H9.31619L9.51026 10.5292L9.75287 11.1842H10.4564L9.87417 11.5967L10.1168 12.2517L9.53454 11.8393L8.97653 12.2517L9.21914 11.5967L8.66113 11.1842ZM4.63384 11.1842H5.2889L5.53151 10.5292L5.72558 11.1842H6.38064L5.82263 11.5967L6.06524 12.2517L5.50723 11.8393L4.92499 12.2517L5.1676 11.5967L4.63384 11.1842ZM0.606557 11.1842H1.26159L1.50419 10.5292L1.69829 11.1842H2.35332L1.79534 11.5967L2.03795 12.2517L1.47994 11.8393L0.897675 12.2517L1.14028 11.5967L0.606557 11.1842ZM12.6399 14.047H13.3435L13.5861 13.4163L13.7802 14.047H14.4352L13.8772 14.4594L14.0713 15.1145L13.5618 14.7021L12.9796 15.1145L13.2222 14.4594L12.6399 14.047ZM8.66113 14.047H9.31619L9.51026 13.4163L9.75287 14.047H10.4564L9.87417 14.4594L10.1168 15.1145L9.53454 14.7021L8.97653 15.1145L9.21914 14.4594L8.66113 14.047ZM4.63384 14.047H5.2889L5.53151 13.4163L5.72558 14.047H6.38064L5.82263 14.4594L6.06524 15.1145L5.50723 14.7021L4.92499 15.1145L5.1676 14.4594L4.63384 14.047ZM0.606557 14.047H1.26159L1.50419 13.4163L1.69829 14.047H2.35332L1.79534 14.4594L2.03795 15.1145L1.47994 14.7021L0.897675 15.1145L1.14028 14.4594L0.606557 14.047Z" fill="#FEFEFE"/>
</g>
<defs>
<clipPath id="clip0_8_97162">
<rect width="32" height="32" fill="white" transform="translate(0.024292)"/>
</clipPath>
</defs>
</svg>
