<svg width="33" height="32" viewBox="0 0 33 32" fill="none" xmlns="http://www.w3.org/2000/svg">
<g clip-path="url(#clip0_8_97133)">
<path fill-rule="evenodd" clip-rule="evenodd" d="M0.97583 10.2545H32.9758V5.09091C32.9758 2.27879 30.6728 0 27.8607 0H6.09098C3.27885 0 0.97583 2.27879 0.97583 5.09091V10.2545Z" fill="#4497B4"/>
<path d="M32.9758 10.8849H0.97583V21.0909H32.9758V10.8849Z" fill="#FEFEFE"/>
<path fill-rule="evenodd" clip-rule="evenodd" d="M6.04249 32H27.9092C30.697 31.9757 32.9758 29.6969 32.9758 26.8848V21.7697H0.97583V26.8848C0.97583 29.6969 3.27885 31.9757 6.04249 32Z" fill="#48B040"/>
<path d="M32.9758 10.2545H0.97583V10.8848H32.9758V10.2545Z" fill="#C12837"/>
<path d="M32.9758 21.0909H0.97583V21.7455H32.9758V21.0909Z" fill="#C12837"/>
<path fill-rule="evenodd" clip-rule="evenodd" d="M14.8425 4.96971L14.988 4.53334L15.1334 4.96971H15.594L15.2061 5.26062L15.3516 5.69698L14.9637 5.43031L14.5516 5.69698L14.7213 5.26062L14.3092 4.96971H14.8425ZM12.2486 4.96971L12.394 4.53334L12.5395 4.96971H13.0001L12.6122 5.26062L12.7576 5.69698L12.3698 5.43031L11.9819 5.69698L12.1273 5.26062L11.7395 4.96971H12.2486ZM14.8425 7.58789L14.988 7.15153L15.1334 7.58789H15.594L15.2061 7.8788L15.3516 8.3394L14.9637 8.04849L14.5516 8.3394L14.7213 7.8788L14.3092 7.58789H14.8425ZM9.60613 7.58789L9.75158 7.15153L9.89704 7.58789H10.3819L9.96977 7.8788L10.1395 8.3394L9.72734 8.04849L9.33947 8.3394L9.48492 7.8788L9.09705 7.58789H9.60613ZM20.0546 2.37577L20.2001 1.91516L20.3455 2.37577H20.8304L20.4182 2.66668L20.5637 3.10304L20.1758 2.83637L19.7879 3.10304L19.9334 2.66668L19.5455 2.37577H20.0546ZM20.0546 4.96971L20.2001 4.53334L20.3455 4.96971H20.8304L20.4182 5.26062L20.5637 5.69698L20.1758 5.43031L19.7879 5.69698L19.9334 5.26062L19.5455 4.96971H20.0546ZM20.0546 7.58789L20.2001 7.15153L20.3455 7.58789H20.8304L20.4182 7.8788L20.5637 8.3394L20.1758 8.04849L19.7879 8.3394L19.9334 7.8788L19.5455 7.58789H20.0546ZM17.4364 2.37577L17.5819 1.91516L17.7273 2.37577H18.188L17.8001 2.66668L17.9455 3.10304L17.5576 2.83637L17.1698 3.10304L17.3152 2.66668L16.9273 2.37577H17.4364ZM17.4364 4.96971L17.5819 4.53334L17.7273 4.96971H18.188L17.8001 5.26062L17.9455 5.69698L17.5576 5.43031L17.1698 5.69698L17.3152 5.26062L16.9273 4.96971H17.4364ZM17.4364 7.58789L17.5819 7.15153L17.7273 7.58789H18.188L17.8001 7.8788L17.9455 8.3394L17.5576 8.04849L17.1698 8.3394L17.3152 7.8788L16.9273 7.58789H17.4364ZM12.2001 7.58789L12.3698 7.15153L12.491 7.58789H12.9758L12.5879 7.8788L12.7334 8.3394L12.3455 8.04849L11.9334 8.3394L12.0789 7.8788L11.691 7.58789H12.2001ZM14.8425 2.37577L14.988 1.91516L15.1334 2.37577H15.594L15.2061 2.66668L15.3516 3.10304L14.9637 2.83637L14.5516 3.10304L14.7213 2.66668L14.3092 2.37577H14.8425Z" fill="#FEFEFE"/>
<path fill-rule="evenodd" clip-rule="evenodd" d="M6.74551 1.84241C7.40005 1.84241 8.0546 2.08483 8.56369 2.42423C8.44248 2.39998 8.32125 2.39998 8.1758 2.39998C6.69701 2.39998 5.4849 3.6121 5.4849 5.11513C5.4849 6.61816 6.69701 7.83029 8.1758 7.83029C8.32125 7.83029 8.44248 7.83029 8.56369 7.80604C8.0546 8.14544 7.40005 8.38786 6.74551 8.38786C4.92732 8.38786 3.47278 6.90907 3.47278 5.11513C3.47278 3.3212 4.92732 1.84241 6.74551 1.84241Z" fill="#FEFEFE"/>
</g>
<defs>
<clipPath id="clip0_8_97133">
<rect width="32" height="32" fill="white" transform="translate(0.97583)"/>
</clipPath>
</defs>
</svg>
