<svg width="24" height="24" viewBox="0 0 24 24" fill="none" xmlns="http://www.w3.org/2000/svg">
<path d="M8.00049 5.75C7.59049 5.75 7.25049 5.41 7.25049 5V2C7.25049 1.59 7.59049 1.25 8.00049 1.25C8.41049 1.25 8.75049 1.59 8.75049 2V5C8.75049 5.41 8.41049 5.75 8.00049 5.75Z" fill="#F4E324"/>
<path d="M16.0005 5.75C15.5905 5.75 15.2505 5.41 15.2505 5V2C15.2505 1.59 15.5905 1.25 16.0005 1.25C16.4105 1.25 16.7505 1.59 16.7505 2V5C16.7505 5.41 16.4105 5.75 16.0005 5.75Z" fill="#F4E324"/>
<path d="M20.5005 9.83984H3.50049C3.09049 9.83984 2.75049 9.49984 2.75049 9.08984C2.75049 8.67984 3.09049 8.33984 3.50049 8.33984H20.5005C20.9105 8.33984 21.2505 8.67984 21.2505 9.08984C21.2505 9.49984 20.9105 9.83984 20.5005 9.83984Z" fill="#F4E324"/>
<path d="M16.0005 22.75H8.00049C4.35049 22.75 2.25049 20.65 2.25049 17V8.5C2.25049 4.85 4.35049 2.75 8.00049 2.75H16.0005C19.6505 2.75 21.7505 4.85 21.7505 8.5V17C21.7505 20.65 19.6505 22.75 16.0005 22.75ZM8.00049 4.25C5.14049 4.25 3.75049 5.64 3.75049 8.5V17C3.75049 19.86 5.14049 21.25 8.00049 21.25H16.0005C18.8605 21.25 20.2505 19.86 20.2505 17V8.5C20.2505 5.64 18.8605 4.25 16.0005 4.25H8.00049Z" fill="#F4E324"/>
<path d="M8.50049 14.5C8.37049 14.5 8.24048 14.47 8.12048 14.42C8.00048 14.37 7.8905 14.3 7.7905 14.21C7.7005 14.11 7.63047 14 7.58047 13.88C7.53047 13.76 7.50049 13.63 7.50049 13.5C7.50049 13.24 7.6105 12.98 7.7905 12.79C7.8905 12.7 8.00048 12.63 8.12048 12.58C8.30048 12.5 8.5005 12.48 8.7005 12.52C8.7605 12.53 8.82049 12.55 8.88049 12.58C8.94049 12.6 9.00049 12.63 9.06049 12.67C9.11049 12.71 9.16048 12.75 9.21048 12.79C9.25048 12.84 9.30047 12.89 9.33047 12.94C9.37047 13 9.4005 13.06 9.4205 13.12C9.4505 13.18 9.4705 13.24 9.4805 13.3C9.4905 13.37 9.50049 13.43 9.50049 13.5C9.50049 13.76 9.39048 14.02 9.21048 14.21C9.02048 14.39 8.76049 14.5 8.50049 14.5Z" fill="#F4E324"/>
<path d="M12.0005 14.4999C11.7405 14.4999 11.4805 14.3899 11.2905 14.2099C11.2505 14.1599 11.2105 14.1099 11.1705 14.0599C11.1305 13.9999 11.1005 13.9399 11.0805 13.8799C11.0505 13.8199 11.0305 13.7599 11.0205 13.6999C11.0105 13.6299 11.0005 13.5699 11.0005 13.4999C11.0005 13.3699 11.0305 13.2399 11.0805 13.1199C11.1305 12.9999 11.2005 12.8899 11.2905 12.7899C11.5705 12.5099 12.0205 12.4199 12.3805 12.5799C12.5105 12.6299 12.6105 12.6999 12.7105 12.7899C12.8905 12.9799 13.0005 13.2399 13.0005 13.4999C13.0005 13.5699 12.9905 13.6299 12.9805 13.6999C12.9705 13.7599 12.9505 13.8199 12.9205 13.8799C12.9005 13.9399 12.8705 13.9999 12.8305 14.0599C12.7905 14.1099 12.7505 14.1599 12.7105 14.2099C12.6105 14.2999 12.5105 14.3699 12.3805 14.4199C12.2605 14.4699 12.1305 14.4999 12.0005 14.4999Z" fill="#F4E324"/>
<path d="M8.50049 17.9999C8.37049 17.9999 8.24048 17.9699 8.12048 17.9199C8.00048 17.8699 7.8905 17.7999 7.7905 17.7099C7.7005 17.6099 7.63047 17.5099 7.58047 17.3799C7.53047 17.2599 7.50049 17.1299 7.50049 16.9999C7.50049 16.7399 7.6105 16.4799 7.7905 16.2899C7.8905 16.1999 8.00048 16.1299 8.12048 16.0799C8.49048 15.9199 8.93048 16.0099 9.21048 16.2899C9.25048 16.3399 9.30047 16.3899 9.33047 16.4399C9.37047 16.4999 9.4005 16.5599 9.4205 16.6199C9.4505 16.6799 9.4705 16.7399 9.4805 16.8099C9.4905 16.8699 9.50049 16.9399 9.50049 16.9999C9.50049 17.2599 9.39048 17.5199 9.21048 17.7099C9.02048 17.8899 8.76049 17.9999 8.50049 17.9999Z" fill="#F4E324"/>
</svg>
