<svg width="16" height="16" viewBox="0 0 16 16" fill="none" xmlns="http://www.w3.org/2000/svg">
<path d="M10.6673 8.59967V11.3997C10.6673 13.733 9.73398 14.6663 7.40065 14.6663H4.60065C2.26732 14.6663 1.33398 13.733 1.33398 11.3997V8.59967C1.33398 6.26634 2.26732 5.33301 4.60065 5.33301H7.40065C9.73398 5.33301 10.6673 6.26634 10.6673 8.59967Z" stroke="#F4E324" stroke-linecap="round" stroke-linejoin="round"/>
<path d="M14.6673 4.59967V7.39967C14.6673 9.73301 13.734 10.6663 11.4007 10.6663H10.6673V8.59967C10.6673 6.26634 9.73398 5.33301 7.40065 5.33301H5.33398V4.59967C5.33398 2.26634 6.26732 1.33301 8.60065 1.33301H11.4007C13.734 1.33301 14.6673 2.26634 14.6673 4.59967Z" stroke="#F4E324" stroke-linecap="round" stroke-linejoin="round"/>
</svg>