<svg width="20" height="20" viewBox="0 0 20 20" fill="none" xmlns="http://www.w3.org/2000/svg">
<path d="M9.19854 2H7.59854C3.59854 2 1.99854 3.6 1.99854 7.6V12.4C1.99854 16.4 3.59854 18 7.59854 18H12.3985C16.3985 18 17.9985 16.4 17.9985 12.4V10.8" stroke="#292322" stroke-linecap="round" stroke-linejoin="round"/>
<path d="M13.23 2.81581L6.92595 9.11981C6.68595 9.35981 6.44595 9.83181 6.39795 10.1758L6.05395 12.5838C5.92595 13.4558 6.54195 14.0638 7.41395 13.9438L9.82195 13.5998C10.158 13.5518 10.63 13.3118 10.878 13.0718L17.182 6.76781C18.27 5.67981 18.782 4.41581 17.182 2.81581C15.582 1.21581 14.318 1.72781 13.23 2.81581Z" stroke="#292322" stroke-miterlimit="10" stroke-linecap="round" stroke-linejoin="round"/>
<path d="M12.3262 3.7207C12.8622 5.6327 14.3582 7.1287 16.2782 7.6727" stroke="#292322" stroke-miterlimit="10" stroke-linecap="round" stroke-linejoin="round"/>
</svg>
