<svg width="185" height="185" viewBox="0 0 185 185" fill="none" xmlns="http://www.w3.org/2000/svg">
<path d="M69.3759 77.0833C77.8903 77.0833 84.7926 70.1811 84.7926 61.6667C84.7926 53.1523 77.8903 46.25 69.3759 46.25C60.8615 46.25 53.9592 53.1523 53.9592 61.6667C53.9592 70.1811 60.8615 77.0833 69.3759 77.0833Z" stroke="#868686" stroke-width="1.5" stroke-linecap="round" stroke-linejoin="round"/>
<path d="M100.209 15.417H69.3758C30.8341 15.417 15.4174 30.8337 15.4174 69.3753V115.625C15.4174 154.167 30.8341 169.584 69.3758 169.584H115.626C154.167 169.584 169.584 154.167 169.584 115.625V77.0837" stroke="#868686" stroke-width="1.5" stroke-linecap="round" stroke-linejoin="round"/>
<path d="M121.409 38.542H163.805" stroke="#868686" stroke-width="1.5" stroke-linecap="round"/>
<path d="M142.604 59.7396V17.3438" stroke="#868686" stroke-width="1.5" stroke-linecap="round"/>
<path d="M20.5804 146.07L58.5825 120.555C64.672 116.47 73.4595 116.932 78.9325 121.634L81.4762 123.87C87.4887 129.034 97.2012 129.034 103.214 123.87L135.28 96.351C141.293 91.1864 151.005 91.1864 157.018 96.351L169.582 107.143" stroke="#868686" stroke-width="1.5" stroke-linecap="round" stroke-linejoin="round"/>
</svg>
