<svg width="101" height="44" viewBox="0 0 101 44" fill="none" xmlns="http://www.w3.org/2000/svg">
<path fill-rule="evenodd" clip-rule="evenodd" d="M62.1134 30.4983V35.8786C63.4074 35.8786 64.7014 35.7424 65.8592 35.4019C67.017 35.0614 68.1067 34.5846 69.1282 33.9036C70.1498 33.2225 70.899 32.269 71.5119 31.0431C72.1249 29.8172 72.3973 28.3871 72.3973 26.6844V12.5186H66.3359V26.3439C66.3359 29.1362 64.9057 30.4983 62.1134 30.4983ZM48.9691 34.4484H39.9792V35.8786H28.1289V12.9953H34.1903V30.4302H39.9792V29.0681H48.9691V34.4484ZM62.1134 31.588V36.9683C60.8194 36.9683 59.5254 36.8321 58.3676 36.4916C57.2098 36.151 56.1202 35.6743 55.0986 34.9933C54.077 34.3122 53.3279 33.3587 52.7149 32.1328C52.102 30.9069 51.8295 29.4767 51.8295 27.7741V13.6082H57.8909V27.4336C57.8909 30.2259 59.253 31.588 62.1134 31.588Z" fill="#F3EF0E"/>
<path d="M78.1836 34.5181V23.5531C78.1836 20.9651 78.3198 19.1944 79.2733 17.7642C80.2268 16.4021 82.0656 15.5167 83.9725 15.5167C86.4924 15.5167 88.3994 16.7426 89.2166 18.9901C90.0339 16.1297 91.7365 14.4951 94.6651 14.4951C95.891 14.4951 96.9806 14.7675 97.866 15.3124C98.7514 15.8572 99.2962 16.6745 99.7729 17.628C100.25 18.5815 100.59 19.5349 100.726 20.5565C100.931 21.5781 100.999 22.6677 100.999 23.8936V34.4499H78.1836V34.5181ZM96.2996 23.7574C96.2996 21.7143 95.4823 20.6927 93.9159 20.6927C92.3495 20.6927 91.5322 21.7143 91.5322 23.7574V27.8438H96.2996V23.7574ZM86.5605 22.2591C86.1519 21.7824 85.6752 21.5781 84.9941 21.5781C84.3131 21.5781 83.8363 21.7824 83.4277 22.2591C83.0191 22.7359 82.8829 23.3488 82.8829 24.098V27.8438H87.1054V24.098C87.1735 23.3488 86.9692 22.7359 86.5605 22.2591Z" fill="#F3EF0E"/>
<path d="M23.0917 20.5463H16.72C16.6748 20.0191 16.5543 19.5408 16.3585 19.1115C16.1702 18.6822 15.9066 18.3132 15.5677 18.0044C15.2363 17.6881 14.8334 17.447 14.3589 17.2814C13.8844 17.1081 13.3459 17.0215 12.7434 17.0215C11.689 17.0215 10.7965 17.2776 10.0659 17.7897C9.34288 18.3019 8.79307 19.0362 8.4165 19.9927C8.04745 20.9492 7.86293 22.0978 7.86293 23.4384C7.86293 24.8543 8.05122 26.0405 8.42779 26.997C8.8119 27.946 9.36547 28.6615 10.0885 29.1435C10.8115 29.618 11.6814 29.8553 12.6982 29.8553C13.2781 29.8553 13.7978 29.7837 14.2572 29.6406C14.7166 29.49 15.1158 29.2753 15.4547 28.9967C15.7936 28.718 16.0685 28.3828 16.2794 27.9912C16.4978 27.592 16.6447 27.1439 16.72 26.6468L23.0917 26.692C23.0164 27.6711 22.7415 28.669 22.267 29.6858C21.7925 30.695 21.1184 31.6289 20.2448 32.4875C19.3787 33.3386 18.3054 34.024 17.025 34.5436C15.7447 35.0633 14.2572 35.3232 12.5626 35.3232C10.4387 35.3232 8.53324 34.8675 6.84617 33.9562C5.16664 33.0449 3.83732 31.7043 2.85822 29.9343C1.88665 28.1644 1.40087 25.9991 1.40087 23.4384C1.40087 20.8626 1.89795 18.6935 2.89211 16.9311C3.88628 15.1612 5.22689 13.8244 6.91395 12.9206C8.60102 12.0093 10.4839 11.5536 12.5626 11.5536C14.0237 11.5536 15.3681 11.7532 16.5958 12.1524C17.8234 12.5515 18.9004 13.1352 19.8268 13.9035C20.7532 14.6641 21.4988 15.6018 22.0637 16.7165C22.6285 17.8312 22.9712 19.1078 23.0917 20.5463Z" fill="#F3EF0E"/>
<path d="M4.92407 3.50321V2.8425H9.53707V3.50321H7.60297V8.99316H6.85816V3.50321H4.92407ZM10.6866 8.99316V2.8425H11.4314V5.58147H14.7109V2.8425H15.4557V8.99316H14.7109V6.24218H11.4314V8.99316H10.6866ZM16.9468 8.99316V2.8425H20.6589V3.50321H17.6917V5.58147H20.4667V6.24218H17.6917V8.33245H20.7069V8.99316H16.9468Z" fill="#F3EF0E"/>
</svg>
