<svg width="14" height="14" viewBox="0 0 14 14" fill="none" xmlns="http://www.w3.org/2000/svg">
<circle cx="7" cy="7" r="7" fill="#F3EF0E"/>
<path d="M6.46 8.54C6.46 8.188 6.536 7.86 6.688 7.556C6.84 7.252 7.024 6.992 7.24 6.776C7.456 6.56 7.672 6.356 7.888 6.164C8.104 5.964 8.288 5.748 8.44 5.516C8.592 5.276 8.668 5.024 8.668 4.76C8.668 4.36 8.528 4.056 8.248 3.848C7.976 3.632 7.62 3.524 7.18 3.524C6.3 3.524 5.736 3.912 5.488 4.688L4.54 4.16C4.74 3.6 5.08 3.176 5.56 2.888C6.04 2.592 6.584 2.444 7.192 2.444C7.904 2.444 8.512 2.644 9.016 3.044C9.528 3.444 9.784 4 9.784 4.712C9.784 5.048 9.708 5.364 9.556 5.66C9.404 5.956 9.22 6.212 9.004 6.428C8.788 6.644 8.572 6.856 8.356 7.064C8.14 7.264 7.956 7.492 7.804 7.748C7.652 7.996 7.576 8.26 7.576 8.54H6.46ZM7.012 11.132C6.796 11.132 6.612 11.056 6.46 10.904C6.308 10.752 6.232 10.568 6.232 10.352C6.232 10.136 6.308 9.952 6.46 9.8C6.612 9.648 6.796 9.572 7.012 9.572C7.236 9.572 7.42 9.648 7.564 9.8C7.716 9.952 7.792 10.136 7.792 10.352C7.792 10.568 7.716 10.752 7.564 10.904C7.42 11.056 7.236 11.132 7.012 11.132Z" fill="#292322"/>
</svg>
