<svg width="16" height="16" viewBox="0 0 16 16" fill="none" xmlns="http://www.w3.org/2000/svg">
<path d="M7.99996 7.99967C9.84091 7.99967 11.3333 6.50729 11.3333 4.66634C11.3333 2.82539 9.84091 1.33301 7.99996 1.33301C6.15901 1.33301 4.66663 2.82539 4.66663 4.66634C4.66663 6.50729 6.15901 7.99967 7.99996 7.99967Z" stroke="white" stroke-linecap="round" stroke-linejoin="round"/>
<path d="M2.27332 14.6667C2.27332 12.0867 4.83998 10 7.99998 10C8.63998 10 9.25999 10.0867 9.83999 10.2467" stroke="white" stroke-linecap="round" stroke-linejoin="round"/>
<path d="M14.6667 11.9997C14.6667 12.213 14.64 12.4197 14.5867 12.6197C14.5267 12.8863 14.42 13.1463 14.28 13.373C13.82 14.1463 12.9734 14.6663 12 14.6663C11.3134 14.6663 10.6934 14.4063 10.2267 13.9797C10.0267 13.8063 9.85337 13.5997 9.72003 13.373C9.47337 12.973 9.33337 12.4997 9.33337 11.9997C9.33337 11.2797 9.62004 10.6197 10.0867 10.1397C10.5734 9.63969 11.2534 9.33301 12 9.33301C12.7867 9.33301 13.5 9.67302 13.98 10.2197C14.4067 10.693 14.6667 11.3197 14.6667 11.9997Z" stroke="white" stroke-miterlimit="10" stroke-linecap="round" stroke-linejoin="round"/>
<path d="M12.9934 11.9873H11.0067" stroke="white" stroke-miterlimit="10" stroke-linecap="round" stroke-linejoin="round"/>
<path d="M12 11.0137V13.007" stroke="white" stroke-miterlimit="10" stroke-linecap="round" stroke-linejoin="round"/>
</svg>
